<?xml version="1.0" encoding="UTF-8" standalone="no"?>
<!DOCTYPE svg PUBLIC "-//W3C//DTD SVG 1.1//EN"
 "http://www.w3.org/Graphics/SVG/1.1/DTD/svg11.dtd">
<!-- Generated by graphviz version 2.43.0 (0)
 -->
<!-- Title: %3 Pages: 1 -->
<svg width="425pt" height="117pt"
 viewBox="0.00 0.00 425.00 117.00" xmlns="http://www.w3.org/2000/svg" xmlns:xlink="http://www.w3.org/1999/xlink">
<g id="graph0" class="graph" transform="scale(1 1) rotate(0) translate(4 113)">
<title>%3</title>
<polygon fill="white" stroke="transparent" points="-4,4 -4,-113 421,-113 421,4 -4,4"/>
<text text-anchor="middle" x="208.5" y="-7.8" font-family="Helvetica,Arial,sans-serif" font-size="14.00">packet process graph</text>
<!-- ts -->
<g id="node1" class="node">
<title>ts</title>
<path fill="none" stroke="black" d="M12,-23.5C12,-23.5 89,-23.5 89,-23.5 95,-23.5 101,-29.5 101,-35.5 101,-35.5 101,-96.5 101,-96.5 101,-102.5 95,-108.5 89,-108.5 89,-108.5 12,-108.5 12,-108.5 6,-108.5 0,-102.5 0,-96.5 0,-96.5 0,-35.5 0,-35.5 0,-29.5 6,-23.5 12,-23.5"/>
<text text-anchor="middle" x="50.5" y="-98.1" font-family="Helvetica,Arial,sans-serif" font-size="8.00">task_struct</text>
<polyline fill="none" stroke="black" points="0,-91.5 101,-91.5 "/>
<text text-anchor="middle" x="50.5" y="-81.1" font-family="Helvetica,Arial,sans-serif" font-size="8.00">...</text>
<polyline fill="none" stroke="black" points="0,-74.5 101,-74.5 "/>
<text text-anchor="start" x="8" y="-64.1" font-family="Helvetica,Arial,sans-serif" font-size="8.00">+mm_struct: mm</text>
<polyline fill="none" stroke="black" points="0,-57.5 101,-57.5 "/>
<text text-anchor="middle" x="50.5" y="-47.1" font-family="Helvetica,Arial,sans-serif" font-size="8.00">+mm_struct: active_mm</text>
<polyline fill="none" stroke="black" points="0,-40.5 101,-40.5 "/>
<text text-anchor="middle" x="50.5" y="-30.1" font-family="Helvetica,Arial,sans-serif" font-size="8.00">...</text>
</g>
<!-- ms -->
<g id="node2" class="node">
<title>ms</title>
<path fill="none" stroke="black" d="M149,-23.5C149,-23.5 223,-23.5 223,-23.5 229,-23.5 235,-29.5 235,-35.5 235,-35.5 235,-96.5 235,-96.5 235,-102.5 229,-108.5 223,-108.5 223,-108.5 149,-108.5 149,-108.5 143,-108.5 137,-102.5 137,-96.5 137,-96.5 137,-35.5 137,-35.5 137,-29.5 143,-23.5 149,-23.5"/>
<text text-anchor="middle" x="186" y="-98.1" font-family="Helvetica,Arial,sans-serif" font-size="8.00">mm_struct</text>
<polyline fill="none" stroke="black" points="137,-91.5 235,-91.5 "/>
<text text-anchor="middle" x="186" y="-81.1" font-family="Helvetica,Arial,sans-serif" font-size="8.00">...</text>
<polyline fill="none" stroke="black" points="137,-74.5 235,-74.5 "/>
<text text-anchor="start" x="145" y="-64.1" font-family="Helvetica,Arial,sans-serif" font-size="8.00">+mmap_base </text>
<polyline fill="none" stroke="black" points="137,-57.5 235,-57.5 "/>
<text text-anchor="start" x="145" y="-47.1" font-family="Helvetica,Arial,sans-serif" font-size="8.00">+get_unmapped_area </text>
<polyline fill="none" stroke="black" points="137,-40.5 235,-40.5 "/>
<text text-anchor="middle" x="186" y="-30.1" font-family="Helvetica,Arial,sans-serif" font-size="8.00">...</text>
</g>
<!-- ts&#45;&gt;ms -->
<g id="edge1" class="edge">
<title>ts:mm&#45;&gt;ms</title>
<path fill="none" stroke="black" d="M101,-66C109.19,-66 117.83,-66 126.33,-66"/>
<polygon fill="black" stroke="black" points="136.58,-66 126.58,-70.5 131.58,-66 126.58,-66 126.58,-66 126.58,-66 131.58,-66 126.58,-61.5 136.58,-66 136.58,-66"/>
</g>
<!-- aguat -->
<g id="node3" class="node">
<title>aguat</title>
<text text-anchor="middle" x="344" y="-47.1" font-family="Helvetica,Arial,sans-serif" font-size="8.00">arch_get_unmapped_area_topdown</text>
</g>
<!-- ms&#45;&gt;aguat -->
<g id="edge2" class="edge">
<title>ms:gua&#45;&gt;aguat</title>
<path fill="none" stroke="black" d="M235,-49C243.36,-49 252.07,-49 260.78,-49"/>
<polygon fill="black" stroke="black" points="270.96,-49 260.96,-53.5 265.96,-49 260.96,-49 260.96,-49 260.96,-49 265.96,-49 260.96,-44.5 270.96,-49 270.96,-49"/>
</g>
</g>
</svg>
