<?xml version="1.0" encoding="UTF-8" standalone="no"?>
<!DOCTYPE svg PUBLIC "-//W3C//DTD SVG 1.1//EN"
 "http://www.w3.org/Graphics/SVG/1.1/DTD/svg11.dtd">
<!-- Generated by graphviz version 2.43.0 (0)
 -->
<!-- Title: %3 Pages: 1 -->
<svg width="424pt" height="448pt"
 viewBox="0.00 0.00 424.00 448.00" xmlns="http://www.w3.org/2000/svg" xmlns:xlink="http://www.w3.org/1999/xlink">
<g id="graph0" class="graph" transform="scale(1 1) rotate(0) translate(4 444)">
<title>%3</title>
<polygon fill="white" stroke="transparent" points="-4,4 -4,-444 420,-444 420,4 -4,4"/>
<!-- fk -->
<g id="node1" class="node">
<title>fk</title>
<path fill="none" stroke="black" d="M109,-431C109,-431 79,-431 79,-431 73,-431 67,-425 67,-419 67,-419 67,-407 67,-407 67,-401 73,-395 79,-395 79,-395 109,-395 109,-395 115,-395 121,-401 121,-407 121,-407 121,-419 121,-419 121,-425 115,-431 109,-431"/>
<text text-anchor="middle" x="94" y="-411.1" font-family="Helvetica,Arial,sans-serif" font-size="8.00">fork</text>
<text text-anchor="middle" x="33.5" y="-433.6" font-family="Helvetica,Arial,sans-serif" font-size="8.00">1. 创建子进程执行</text>
</g>
<!-- kc -->
<g id="node4" class="node">
<title>kc</title>
<path fill="none" stroke="black" d="M113,-352C113,-352 75,-352 75,-352 69,-352 63,-346 63,-340 63,-340 63,-328 63,-328 63,-322 69,-316 75,-316 75,-316 113,-316 113,-316 119,-316 125,-322 125,-328 125,-328 125,-340 125,-340 125,-346 119,-352 113,-352"/>
<text text-anchor="middle" x="94" y="-332.1" font-family="Helvetica,Arial,sans-serif" font-size="8.00">kernel_clone</text>
</g>
<!-- fk&#45;&gt;kc -->
<g id="edge1" class="edge">
<title>fk&#45;&gt;kc</title>
<path fill="none" stroke="black" d="M94,-394.91C94,-384.14 94,-370.1 94,-358.32"/>
<polygon fill="black" stroke="black" points="94,-352.04 96.7,-358.04 94,-355.04 94,-358.04 94,-358.04 94,-358.04 94,-355.04 91.3,-358.04 94,-352.04 94,-352.04"/>
</g>
<!-- ex -->
<g id="node2" class="node">
<title>ex</title>
<path fill="none" stroke="black" d="M248,-431C248,-431 218,-431 218,-431 212,-431 206,-425 206,-419 206,-419 206,-407 206,-407 206,-401 212,-395 218,-395 218,-395 248,-395 248,-395 254,-395 260,-401 260,-407 260,-407 260,-419 260,-419 260,-425 254,-431 248,-431"/>
<text text-anchor="middle" x="233" y="-411.1" font-family="Helvetica,Arial,sans-serif" font-size="8.00">exec</text>
<text text-anchor="middle" x="168" y="-433.6" font-family="Helvetica,Arial,sans-serif" font-size="8.00">2. 执行exec加载程序</text>
</g>
<!-- de -->
<g id="node7" class="node">
<title>de</title>
<path fill="none" stroke="black" d="M248,-352C248,-352 218,-352 218,-352 212,-352 206,-346 206,-340 206,-340 206,-328 206,-328 206,-322 212,-316 218,-316 218,-316 248,-316 248,-316 254,-316 260,-322 260,-328 260,-328 260,-340 260,-340 260,-346 254,-352 248,-352"/>
<text text-anchor="middle" x="233" y="-332.1" font-family="Helvetica,Arial,sans-serif" font-size="8.00">do_exec</text>
</g>
<!-- ex&#45;&gt;de -->
<g id="edge4" class="edge">
<title>ex&#45;&gt;de</title>
<path fill="none" stroke="black" d="M233,-394.91C233,-384.14 233,-370.1 233,-358.32"/>
<polygon fill="black" stroke="black" points="233,-352.04 235.7,-358.04 233,-355.04 233,-358.04 233,-358.04 233,-358.04 233,-355.04 230.3,-358.04 233,-352.04 233,-352.04"/>
</g>
<!-- sbh -->
<g id="node3" class="node">
<title>sbh</title>
<path fill="none" stroke="black" d="M404,-431C404,-431 330,-431 330,-431 324,-431 318,-425 318,-419 318,-419 318,-407 318,-407 318,-401 324,-395 330,-395 330,-395 404,-395 404,-395 410,-395 416,-401 416,-407 416,-407 416,-419 416,-419 416,-425 410,-431 404,-431"/>
<text text-anchor="middle" x="367" y="-411.1" font-family="Helvetica,Arial,sans-serif" font-size="8.00">search_binary_handler</text>
<text text-anchor="middle" x="292.5" y="-433.6" font-family="Helvetica,Arial,sans-serif" font-size="8.00">3. elf程序加载</text>
</g>
<!-- elb -->
<g id="node12" class="node">
<title>elb</title>
<path fill="none" stroke="black" d="M394.5,-352C394.5,-352 339.5,-352 339.5,-352 333.5,-352 327.5,-346 327.5,-340 327.5,-340 327.5,-328 327.5,-328 327.5,-322 333.5,-316 339.5,-316 339.5,-316 394.5,-316 394.5,-316 400.5,-316 406.5,-322 406.5,-328 406.5,-328 406.5,-340 406.5,-340 406.5,-346 400.5,-352 394.5,-352"/>
<text text-anchor="middle" x="367" y="-341.1" font-family="Helvetica,Arial,sans-serif" font-size="8.00">fmd&#45;&gt;load_binary</text>
<text text-anchor="middle" x="367" y="-323.1" font-family="Helvetica,Arial,sans-serif" font-size="8.00">load_elf_binary</text>
</g>
<!-- sbh&#45;&gt;elb -->
<g id="edge9" class="edge">
<title>sbh&#45;&gt;elb</title>
<path fill="none" stroke="black" d="M367,-394.91C367,-384.14 367,-370.1 367,-358.32"/>
<polygon fill="black" stroke="black" points="367,-352.04 369.7,-358.04 367,-355.04 367,-358.04 367,-358.04 367,-358.04 367,-355.04 364.3,-358.04 367,-352.04 367,-352.04"/>
</g>
<!-- cp -->
<g id="node5" class="node">
<title>cp</title>
<path fill="none" stroke="black" d="M114.5,-273C114.5,-273 73.5,-273 73.5,-273 67.5,-273 61.5,-267 61.5,-261 61.5,-261 61.5,-249 61.5,-249 61.5,-243 67.5,-237 73.5,-237 73.5,-237 114.5,-237 114.5,-237 120.5,-237 126.5,-243 126.5,-249 126.5,-249 126.5,-261 126.5,-261 126.5,-267 120.5,-273 114.5,-273"/>
<text text-anchor="middle" x="94" y="-253.1" font-family="Helvetica,Arial,sans-serif" font-size="8.00">copy_process</text>
</g>
<!-- kc&#45;&gt;cp -->
<g id="edge2" class="edge">
<title>kc&#45;&gt;cp</title>
<path fill="none" stroke="black" d="M94,-315.91C94,-305.14 94,-291.1 94,-279.32"/>
<polygon fill="black" stroke="black" points="94,-273.04 96.7,-279.04 94,-276.04 94,-279.04 94,-279.04 94,-279.04 94,-276.04 91.3,-279.04 94,-273.04 94,-273.04"/>
</g>
<!-- wunt -->
<g id="node6" class="node">
<title>wunt</title>
<path fill="none" stroke="black" d="M125.5,-194C125.5,-194 62.5,-194 62.5,-194 56.5,-194 50.5,-188 50.5,-182 50.5,-182 50.5,-170 50.5,-170 50.5,-164 56.5,-158 62.5,-158 62.5,-158 125.5,-158 125.5,-158 131.5,-158 137.5,-164 137.5,-170 137.5,-170 137.5,-182 137.5,-182 137.5,-188 131.5,-194 125.5,-194"/>
<text text-anchor="middle" x="94" y="-174.1" font-family="Helvetica,Arial,sans-serif" font-size="8.00">wake_up_new_task</text>
</g>
<!-- cp&#45;&gt;wunt -->
<g id="edge3" class="edge">
<title>cp&#45;&gt;wunt</title>
<path fill="none" stroke="black" d="M94,-236.91C94,-226.14 94,-212.1 94,-200.32"/>
<polygon fill="black" stroke="black" points="94,-194.04 96.7,-200.04 94,-197.04 94,-200.04 94,-200.04 94,-200.04 94,-197.04 91.3,-200.04 94,-194.04 94,-194.04"/>
</g>
<!-- dec -->
<g id="node8" class="node">
<title>dec</title>
<path fill="none" stroke="black" d="M269.5,-273C269.5,-273 196.5,-273 196.5,-273 190.5,-273 184.5,-267 184.5,-261 184.5,-261 184.5,-249 184.5,-249 184.5,-243 190.5,-237 196.5,-237 196.5,-237 269.5,-237 269.5,-237 275.5,-237 281.5,-243 281.5,-249 281.5,-249 281.5,-261 281.5,-261 281.5,-267 275.5,-273 269.5,-273"/>
<text text-anchor="middle" x="233" y="-253.1" font-family="Helvetica,Arial,sans-serif" font-size="8.00">do_execveat_common</text>
</g>
<!-- de&#45;&gt;dec -->
<g id="edge5" class="edge">
<title>de&#45;&gt;dec</title>
<path fill="none" stroke="black" d="M233,-315.91C233,-305.14 233,-291.1 233,-279.32"/>
<polygon fill="black" stroke="black" points="233,-273.04 235.7,-279.04 233,-276.04 233,-279.04 233,-279.04 233,-279.04 233,-276.04 230.3,-279.04 233,-273.04 233,-273.04"/>
</g>
<!-- be -->
<g id="node9" class="node">
<title>be</title>
<path fill="none" stroke="black" d="M253.5,-194C253.5,-194 212.5,-194 212.5,-194 206.5,-194 200.5,-188 200.5,-182 200.5,-182 200.5,-170 200.5,-170 200.5,-164 206.5,-158 212.5,-158 212.5,-158 253.5,-158 253.5,-158 259.5,-158 265.5,-164 265.5,-170 265.5,-170 265.5,-182 265.5,-182 265.5,-188 259.5,-194 253.5,-194"/>
<text text-anchor="middle" x="233" y="-174.1" font-family="Helvetica,Arial,sans-serif" font-size="8.00">bprm_execve</text>
</g>
<!-- dec&#45;&gt;be -->
<g id="edge6" class="edge">
<title>dec&#45;&gt;be</title>
<path fill="none" stroke="black" d="M233,-236.91C233,-226.14 233,-212.1 233,-200.32"/>
<polygon fill="black" stroke="black" points="233,-194.04 235.7,-200.04 233,-197.04 233,-200.04 233,-200.04 233,-200.04 233,-197.04 230.3,-200.04 233,-194.04 233,-194.04"/>
</g>
<!-- eb -->
<g id="node10" class="node">
<title>eb</title>
<path fill="none" stroke="black" d="M252,-115C252,-115 214,-115 214,-115 208,-115 202,-109 202,-103 202,-103 202,-91 202,-91 202,-85 208,-79 214,-79 214,-79 252,-79 252,-79 258,-79 264,-85 264,-91 264,-91 264,-103 264,-103 264,-109 258,-115 252,-115"/>
<text text-anchor="middle" x="233" y="-95.1" font-family="Helvetica,Arial,sans-serif" font-size="8.00">exec_binprm</text>
</g>
<!-- be&#45;&gt;eb -->
<g id="edge7" class="edge">
<title>be&#45;&gt;eb</title>
<path fill="none" stroke="black" d="M233,-157.91C233,-147.14 233,-133.1 233,-121.32"/>
<polygon fill="black" stroke="black" points="233,-115.04 235.7,-121.04 233,-118.04 233,-121.04 233,-121.04 233,-121.04 233,-118.04 230.3,-121.04 233,-115.04 233,-115.04"/>
</g>
<!-- sub_sbh -->
<g id="node11" class="node">
<title>sub_sbh</title>
<path fill="none" stroke="black" d="M270,-36C270,-36 196,-36 196,-36 190,-36 184,-30 184,-24 184,-24 184,-12 184,-12 184,-6 190,0 196,0 196,0 270,0 270,0 276,0 282,-6 282,-12 282,-12 282,-24 282,-24 282,-30 276,-36 270,-36"/>
<text text-anchor="middle" x="233" y="-16.1" font-family="Helvetica,Arial,sans-serif" font-size="8.00">search_binary_handler</text>
</g>
<!-- eb&#45;&gt;sub_sbh -->
<g id="edge8" class="edge">
<title>eb&#45;&gt;sub_sbh</title>
<path fill="none" stroke="black" d="M233,-78.91C233,-68.14 233,-54.1 233,-42.32"/>
<polygon fill="black" stroke="black" points="233,-36.04 235.7,-42.04 233,-39.04 233,-42.04 233,-42.04 233,-42.04 233,-39.04 230.3,-42.04 233,-36.04 233,-36.04"/>
</g>
</g>
</svg>
