<?xml version="1.0" encoding="UTF-8" standalone="no"?>
<!DOCTYPE svg PUBLIC "-//W3C//DTD SVG 1.1//EN"
 "http://www.w3.org/Graphics/SVG/1.1/DTD/svg11.dtd">
<!-- Generated by graphviz version 2.43.0 (0)
 -->
<!-- Title: %3 Pages: 1 -->
<svg width="255pt" height="249pt"
 viewBox="0.00 0.00 255.00 249.00" xmlns="http://www.w3.org/2000/svg" xmlns:xlink="http://www.w3.org/1999/xlink">
<g id="graph0" class="graph" transform="scale(1 1) rotate(0) translate(4 245)">
<title>%3</title>
<polygon fill="white" stroke="transparent" points="-4,4 -4,-245 251,-245 251,4 -4,4"/>
<text text-anchor="middle" x="123.5" y="-7.8" font-family="Helvetica,Arial,sans-serif" font-size="14.00">lib.so 的 .got.plt 结构</text>
<!-- lib_so -->
<g id="node1" class="node">
<title>lib_so</title>
<polygon fill="none" stroke="black" points="19,-32.5 19,-240.5 73,-240.5 73,-32.5 19,-32.5"/>
<polyline fill="none" stroke="black" points="19,-196.5 73,-196.5 "/>
<text text-anchor="middle" x="46" y="-186.1" font-family="Helvetica,Arial,sans-serif" font-size="8.00">.text</text>
<polyline fill="none" stroke="black" points="19,-179.5 73,-179.5 "/>
<polyline fill="none" stroke="black" points="19,-135.5 73,-135.5 "/>
<text text-anchor="middle" x="46" y="-125.1" font-family="Helvetica,Arial,sans-serif" font-size="8.00">.dynamic</text>
<polyline fill="none" stroke="black" points="19,-118.5 73,-118.5 "/>
<text text-anchor="middle" x="46" y="-108.1" font-family="Helvetica,Arial,sans-serif" font-size="8.00">.got</text>
<polyline fill="none" stroke="black" points="19,-101.5 73,-101.5 "/>
<text text-anchor="middle" x="46" y="-91.1" font-family="Helvetica,Arial,sans-serif" font-size="8.00">.got.plt</text>
<polyline fill="none" stroke="black" points="19,-84.5 73,-84.5 "/>
<text text-anchor="middle" x="46" y="-74.1" font-family="Helvetica,Arial,sans-serif" font-size="8.00">.data</text>
<polyline fill="none" stroke="black" points="19,-67.5 73,-67.5 "/>
<text text-anchor="middle" x="9.5" y="-25.6" font-family="Helvetica,Arial,sans-serif" font-size="8.00">lib.so</text>
</g>
<!-- got_plt -->
<g id="node2" class="node">
<title>got_plt</title>
<polygon fill="none" stroke="black" points="116,-33 116,-118 247,-118 247,-33 116,-33"/>
<text text-anchor="end" x="239" y="-107.6" font-family="Helvetica,Arial,sans-serif" font-size="8.00">Address of .dynamic __ 0x3fe8 </text>
<polyline fill="none" stroke="black" points="116,-101 247,-101 "/>
<text text-anchor="end" x="239" y="-90.6" font-family="Helvetica,Arial,sans-serif" font-size="8.00">Module ID &quot;lib.so&quot; __ 0x3ff0 </text>
<polyline fill="none" stroke="black" points="116,-84 247,-84 "/>
<text text-anchor="end" x="239" y="-73.6" font-family="Helvetica,Arial,sans-serif" font-size="8.00">_dl_runtime_resolve() __ 0x3ff8 </text>
<polyline fill="none" stroke="black" points="116,-67 247,-67 "/>
<text text-anchor="end" x="239" y="-56.6" font-family="Helvetica,Arial,sans-serif" font-size="8.00">printf __ 0x4000 </text>
<polyline fill="none" stroke="black" points="116,-50 247,-50 "/>
<text text-anchor="end" x="239" y="-39.6" font-family="Helvetica,Arial,sans-serif" font-size="8.00">sleep __ 0x4008 </text>
<text text-anchor="middle" x="103.5" y="-26.1" font-family="Helvetica,Arial,sans-serif" font-size="8.00">.got.plt</text>
</g>
<!-- lib_so&#45;&gt;got_plt -->
<g id="edge1" class="edge">
<title>lib_so:4&#45;&gt;got_plt:nw</title>
<path fill="none" stroke="black" d="M73,-92.5C92.72,-92.5 98.83,-125.07 110.85,-121.84"/>
<polygon fill="black" stroke="black" points="116,-118.5 112.44,-124.03 113.48,-120.13 110.97,-121.77 110.97,-121.77 110.97,-121.77 113.48,-120.13 109.5,-119.5 116,-118.5 116,-118.5"/>
</g>
<!-- got_plt&#45;&gt;lib_so -->
<g id="edge2" class="edge">
<title>got_plt:0&#45;&gt;lib_so:ne</title>
<path fill="none" stroke="black" d="M116,-109.5C96.28,-109.5 90.17,-142.07 78.15,-138.84"/>
<polygon fill="black" stroke="black" points="73,-135.5 79.5,-136.5 75.52,-137.13 78.03,-138.77 78.03,-138.77 78.03,-138.77 75.52,-137.13 76.56,-141.03 73,-135.5 73,-135.5"/>
</g>
</g>
</svg>
