<?xml version="1.0" encoding="UTF-8" standalone="no"?>
<!DOCTYPE svg PUBLIC "-//W3C//DTD SVG 1.1//EN"
 "http://www.w3.org/Graphics/SVG/1.1/DTD/svg11.dtd">
<!-- Generated by graphviz version 2.43.0 (0)
 -->
<!-- Title: %3 Pages: 1 -->
<svg width="327pt" height="404pt"
 viewBox="0.00 0.00 327.00 404.00" xmlns="http://www.w3.org/2000/svg" xmlns:xlink="http://www.w3.org/1999/xlink">
<g id="graph0" class="graph" transform="scale(1 1) rotate(0) translate(4 400)">
<title>%3</title>
<polygon fill="white" stroke="transparent" points="-4,4 -4,-400 323,-400 323,4 -4,4"/>
<text text-anchor="middle" x="159.5" y="-7.8" font-family="Helvetica,Arial,sans-serif" font-size="14.00">正常情况</text>
<!-- elf_hdr -->
<g id="node1" class="node">
<title>elf_hdr</title>
<path fill="none" stroke="black" d="M12,-23.5C12,-23.5 60,-23.5 60,-23.5 66,-23.5 72,-29.5 72,-35.5 72,-35.5 72,-266.5 72,-266.5 72,-272.5 66,-278.5 60,-278.5 60,-278.5 12,-278.5 12,-278.5 6,-278.5 0,-272.5 0,-266.5 0,-266.5 0,-35.5 0,-35.5 0,-29.5 6,-23.5 12,-23.5"/>
<text text-anchor="middle" x="36" y="-268.1" font-family="Helvetica,Arial,sans-serif" font-size="8.00">struct elf64_hdr</text>
<polyline fill="none" stroke="black" points="0,-261.5 72,-261.5 "/>
<text text-anchor="start" x="8" y="-251.1" font-family="Helvetica,Arial,sans-serif" font-size="8.00">+e_ident;</text>
<polyline fill="none" stroke="black" points="0,-244.5 72,-244.5 "/>
<text text-anchor="start" x="8" y="-234.1" font-family="Helvetica,Arial,sans-serif" font-size="8.00">+e_type;</text>
<polyline fill="none" stroke="black" points="0,-227.5 72,-227.5 "/>
<text text-anchor="start" x="8" y="-217.1" font-family="Helvetica,Arial,sans-serif" font-size="8.00">+e_machine;</text>
<polyline fill="none" stroke="black" points="0,-210.5 72,-210.5 "/>
<text text-anchor="start" x="8" y="-200.1" font-family="Helvetica,Arial,sans-serif" font-size="8.00">+e_version;</text>
<polyline fill="none" stroke="black" points="0,-193.5 72,-193.5 "/>
<text text-anchor="start" x="8" y="-183.1" font-family="Helvetica,Arial,sans-serif" font-size="8.00">+e_entry;</text>
<polyline fill="none" stroke="black" points="0,-176.5 72,-176.5 "/>
<text text-anchor="start" x="8" y="-166.1" font-family="Helvetica,Arial,sans-serif" font-size="8.00">+e_phoff;</text>
<polyline fill="none" stroke="black" points="0,-159.5 72,-159.5 "/>
<text text-anchor="start" x="8" y="-149.1" font-family="Helvetica,Arial,sans-serif" font-size="8.00">+e_shoff;</text>
<polyline fill="none" stroke="black" points="0,-142.5 72,-142.5 "/>
<text text-anchor="start" x="8" y="-132.1" font-family="Helvetica,Arial,sans-serif" font-size="8.00">+e_flags;</text>
<polyline fill="none" stroke="black" points="0,-125.5 72,-125.5 "/>
<text text-anchor="start" x="8" y="-115.1" font-family="Helvetica,Arial,sans-serif" font-size="8.00">+e_ehsize;</text>
<polyline fill="none" stroke="black" points="0,-108.5 72,-108.5 "/>
<text text-anchor="start" x="8" y="-98.1" font-family="Helvetica,Arial,sans-serif" font-size="8.00">+e_phentsize;</text>
<polyline fill="none" stroke="black" points="0,-91.5 72,-91.5 "/>
<text text-anchor="start" x="8" y="-81.1" font-family="Helvetica,Arial,sans-serif" font-size="8.00">+e_phnum;</text>
<polyline fill="none" stroke="black" points="0,-74.5 72,-74.5 "/>
<text text-anchor="start" x="8" y="-64.1" font-family="Helvetica,Arial,sans-serif" font-size="8.00">+e_shentsize;</text>
<polyline fill="none" stroke="black" points="0,-57.5 72,-57.5 "/>
<text text-anchor="start" x="8" y="-47.1" font-family="Helvetica,Arial,sans-serif" font-size="8.00">+e_shnum;</text>
<polyline fill="none" stroke="black" points="0,-40.5 72,-40.5 "/>
<text text-anchor="start" x="8" y="-30.1" font-family="Helvetica,Arial,sans-serif" font-size="8.00">+e_shstrndx</text>
</g>
<!-- ident -->
<g id="node2" class="node">
<title>ident</title>
<text text-anchor="start" x="190" y="-385.6" font-family="Helvetica,Arial,sans-serif" font-size="8.00">Magic: </text>
<text text-anchor="start" x="190" y="-376.6" font-family="Helvetica,Arial,sans-serif" font-size="8.00">Class: </text>
<text text-anchor="start" x="190" y="-367.6" font-family="Helvetica,Arial,sans-serif" font-size="8.00">Data: </text>
<text text-anchor="start" x="190" y="-358.6" font-family="Helvetica,Arial,sans-serif" font-size="8.00">Version: </text>
<text text-anchor="start" x="190" y="-349.6" font-family="Helvetica,Arial,sans-serif" font-size="8.00">OS ABI: </text>
<text text-anchor="middle" x="217" y="-340.6" font-family="Helvetica,Arial,sans-serif" font-size="8.00">ABI VERSION:</text>
</g>
<!-- elf_hdr&#45;&gt;ident -->
<g id="edge1" class="edge">
<title>elf_hdr:0&#45;&gt;ident</title>
<path fill="none" stroke="black" stroke-dasharray="5,2" d="M72,-253C110.04,-253 85.96,-302.43 115,-327 132.31,-341.65 155.84,-350.94 175.83,-356.66"/>
<polygon fill="black" stroke="black" points="181.63,-358.26 175.13,-359.27 178.74,-357.46 175.85,-356.67 175.85,-356.67 175.85,-356.67 178.74,-357.46 176.56,-354.07 181.63,-358.26 181.63,-358.26"/>
</g>
<!-- type -->
<g id="node3" class="node">
<title>type</title>
<text text-anchor="middle" x="217" y="-300.1" font-family="Helvetica,Arial,sans-serif" font-size="8.00">ELF 文件类型</text>
</g>
<!-- elf_hdr&#45;&gt;type -->
<g id="edge2" class="edge">
<title>elf_hdr:1&#45;&gt;type</title>
<path fill="none" stroke="black" stroke-dasharray="5,2" d="M72,-236C98.41,-236 91.85,-264.29 115,-277 134.09,-287.48 157.59,-293.63 177.12,-297.21"/>
<polygon fill="black" stroke="black" points="183.04,-298.24 176.67,-299.87 180.09,-297.73 177.13,-297.21 177.13,-297.21 177.13,-297.21 180.09,-297.73 177.59,-294.55 183.04,-298.24 183.04,-298.24"/>
</g>
<!-- machine -->
<g id="node4" class="node">
<title>machine</title>
<text text-anchor="middle" x="217" y="-250.1" font-family="Helvetica,Arial,sans-serif" font-size="8.00">ELF文件的CPU平台属性</text>
</g>
<!-- elf_hdr&#45;&gt;machine -->
<g id="edge3" class="edge">
<title>elf_hdr:2&#45;&gt;machine</title>
<path fill="none" stroke="black" stroke-dasharray="5,2" d="M72,-219C80.76,-219 121.17,-228.4 156.96,-237.16"/>
<polygon fill="black" stroke="black" points="163.12,-238.67 156.65,-239.86 160.2,-237.96 157.29,-237.24 157.29,-237.24 157.29,-237.24 160.2,-237.96 157.94,-234.62 163.12,-238.67 163.12,-238.67"/>
</g>
<!-- ver -->
<g id="node5" class="node">
<title>ver</title>
<text text-anchor="middle" x="217" y="-200.1" font-family="Helvetica,Arial,sans-serif" font-size="8.00">ELF版本号</text>
</g>
<!-- elf_hdr&#45;&gt;ver -->
<g id="edge4" class="edge">
<title>elf_hdr:3&#45;&gt;ver</title>
<path fill="none" stroke="black" stroke-dasharray="5,2" d="M72,-202C110.04,-202 153.74,-202 182.93,-202"/>
<polygon fill="black" stroke="black" points="188.93,-202 182.93,-204.7 185.93,-202 182.93,-202 182.93,-202 182.93,-202 185.93,-202 182.93,-199.3 188.93,-202 188.93,-202"/>
</g>
<!-- entry -->
<g id="node6" class="node">
<title>entry</title>
<text text-anchor="start" x="123" y="-159.1" font-family="Helvetica,Arial,sans-serif" font-size="8.00">入口地址，规定ELF程序的入口虚拟地址。 &#160;&#160;&#160;&#160;&#160;&#160;&#160;&#160;&#160;&#160;&#160;&#160;&#160;&#160;</text>
<text text-anchor="start" x="123" y="-150.1" font-family="Helvetica,Arial,sans-serif" font-size="8.00">操作系统在加载完程序后从该地址开始执行。 &#160;&#160;&#160;&#160;&#160;&#160;&#160;&#160;&#160;&#160;&#160;&#160;&#160;&#160;</text>
<text text-anchor="middle" x="217" y="-141.1" font-family="Helvetica,Arial,sans-serif" font-size="8.00">可重定位文件一般没有入口地址。</text>
</g>
<!-- elf_hdr&#45;&gt;entry -->
<g id="edge5" class="edge">
<title>elf_hdr:4&#45;&gt;entry</title>
<path fill="none" stroke="black" stroke-dasharray="5,2" d="M72,-185C79.21,-185 107.9,-178.63 137.79,-171.48"/>
<polygon fill="black" stroke="black" points="143.77,-170.04 138.57,-174.07 140.86,-170.75 137.94,-171.45 137.94,-171.45 137.94,-171.45 140.86,-170.75 137.31,-168.82 143.77,-170.04 143.77,-170.04"/>
</g>
<!-- phoff -->
<g id="node7" class="node">
<title>phoff</title>
<text text-anchor="middle" x="217" y="-100.1" font-family="Helvetica,Arial,sans-serif" font-size="8.00">待补充</text>
</g>
<!-- elf_hdr&#45;&gt;phoff -->
<g id="edge6" class="edge">
<title>elf_hdr:5&#45;&gt;phoff</title>
<path fill="none" stroke="black" stroke-dasharray="5,2" d="M72,-168C98.41,-168 91.85,-139.71 115,-127 136.24,-115.34 162.95,-109.03 183.56,-105.67"/>
<polygon fill="black" stroke="black" points="189.75,-104.72 184.23,-108.3 186.79,-105.18 183.82,-105.64 183.82,-105.64 183.82,-105.64 186.79,-105.18 183.41,-102.97 189.75,-104.72 189.75,-104.72"/>
</g>
<!-- shoff -->
<g id="node8" class="node">
<title>shoff</title>
<text text-anchor="middle" x="217" y="-50.1" font-family="Helvetica,Arial,sans-serif" font-size="8.00">段表在文件中的偏移</text>
</g>
<!-- elf_hdr&#45;&gt;shoff -->
<g id="edge7" class="edge">
<title>elf_hdr:6&#45;&gt;shoff</title>
<path fill="none" stroke="black" stroke-dasharray="5,2" d="M72,-151C110.04,-151 84.57,-99.82 115,-77 129.41,-66.19 147.93,-60.01 165.16,-56.49"/>
<polygon fill="black" stroke="black" points="171.44,-55.31 166.05,-59.07 168.5,-55.86 165.55,-56.42 165.55,-56.42 165.55,-56.42 168.5,-55.86 165.05,-53.76 171.44,-55.31 171.44,-55.31"/>
</g>
</g>
</svg>
