<?xml version="1.0" encoding="UTF-8" standalone="no"?>
<!DOCTYPE svg PUBLIC "-//W3C//DTD SVG 1.1//EN"
 "http://www.w3.org/Graphics/SVG/1.1/DTD/svg11.dtd">
<!-- Generated by graphviz version 2.43.0 (0)
 -->
<!-- Title: %3 Pages: 1 -->
<svg width="454pt" height="304pt"
 viewBox="0.00 0.00 453.50 304.00" xmlns="http://www.w3.org/2000/svg" xmlns:xlink="http://www.w3.org/1999/xlink">
<g id="graph0" class="graph" transform="scale(1 1) rotate(0) translate(4 300)">
<title>%3</title>
<polygon fill="white" stroke="transparent" points="-4,4 -4,-300 449.5,-300 449.5,4 -4,4"/>
<text text-anchor="middle" x="222.75" y="-7" font-family="Times,serif" font-size="10.00">UDP Bind过程</text>
<!-- b -->
<g id="node1" class="node">
<title>b</title>
<path fill="lightgrey" stroke="transparent" d="M78.67,-296C78.67,-296 7.33,-296 7.33,-296 3.67,-296 0,-292.33 0,-288.67 0,-288.67 0,-281.33 0,-281.33 0,-277.67 3.67,-274 7.33,-274 7.33,-274 78.67,-274 78.67,-274 82.33,-274 86,-277.67 86,-281.33 86,-281.33 86,-288.67 86,-288.67 86,-292.33 82.33,-296 78.67,-296"/>
<text text-anchor="middle" x="43" y="-282.8" font-family="Times,serif" font-size="9.00">bind</text>
</g>
<!-- sb -->
<g id="node2" class="node">
<title>sb</title>
<path fill="lightgrey" stroke="transparent" d="M78.67,-245C78.67,-245 7.33,-245 7.33,-245 3.67,-245 0,-241.33 0,-237.67 0,-237.67 0,-230.33 0,-230.33 0,-226.67 3.67,-223 7.33,-223 7.33,-223 78.67,-223 78.67,-223 82.33,-223 86,-226.67 86,-230.33 86,-230.33 86,-237.67 86,-237.67 86,-241.33 82.33,-245 78.67,-245"/>
<text text-anchor="middle" x="43" y="-231.8" font-family="Times,serif" font-size="9.00">__sys_bind</text>
</g>
<!-- b&#45;&gt;sb -->
<g id="edge6" class="edge">
<title>b&#45;&gt;sb</title>
<path fill="none" stroke="black" d="M43,-273.61C43,-266.76 43,-257.68 43,-250.05"/>
<polygon fill="black" stroke="black" points="43,-245.04 45.25,-250.04 43,-247.54 43,-250.04 43,-250.04 43,-250.04 43,-247.54 40.75,-250.04 43,-245.04 43,-245.04"/>
</g>
<!-- sob -->
<g id="node3" class="node">
<title>sob</title>
<path fill="lightgrey" stroke="transparent" d="M78.67,-194C78.67,-194 7.33,-194 7.33,-194 3.67,-194 0,-190.33 0,-186.67 0,-186.67 0,-179.33 0,-179.33 0,-175.67 3.67,-172 7.33,-172 7.33,-172 78.67,-172 78.67,-172 82.33,-172 86,-175.67 86,-179.33 86,-179.33 86,-186.67 86,-186.67 86,-190.33 82.33,-194 78.67,-194"/>
<text text-anchor="middle" x="43" y="-180.8" font-family="Times,serif" font-size="9.00">sock&#45;&gt;ops&#45;&gt;bind</text>
</g>
<!-- sb&#45;&gt;sob -->
<g id="edge7" class="edge">
<title>sb&#45;&gt;sob</title>
<path fill="none" stroke="black" d="M43,-222.61C43,-215.76 43,-206.68 43,-199.05"/>
<polygon fill="black" stroke="black" points="43,-194.04 45.25,-199.04 43,-196.54 43,-199.04 43,-199.04 43,-199.04 43,-196.54 40.75,-199.04 43,-194.04 43,-194.04"/>
</g>
<!-- ido -->
<g id="node4" class="node">
<title>ido</title>
<path fill="lightgrey" stroke="transparent" d="M255.67,-194C255.67,-194 136.33,-194 136.33,-194 132.67,-194 129,-190.33 129,-186.67 129,-186.67 129,-179.33 129,-179.33 129,-175.67 132.67,-172 136.33,-172 136.33,-172 255.67,-172 255.67,-172 259.33,-172 263,-175.67 263,-179.33 263,-179.33 263,-186.67 263,-186.67 263,-190.33 259.33,-194 255.67,-194"/>
<text text-anchor="middle" x="196" y="-180.8" font-family="Times,serif" font-size="9.00">inet_dgram_ops.bind = inet_bind</text>
</g>
<!-- sob&#45;&gt;ido -->
<g id="edge1" class="edge">
<title>sob&#45;&gt;ido</title>
<path fill="none" stroke="black" d="M86.03,-183C98.67,-183 111.31,-183 123.95,-183"/>
<polygon fill="black" stroke="black" points="128.99,-183 123.99,-185.25 126.49,-183 123.99,-183 123.99,-183 123.99,-183 126.49,-183 123.99,-180.75 128.99,-183 128.99,-183"/>
</g>
<!-- ssb -->
<g id="node5" class="node">
<title>ssb</title>
<path fill="lightgrey" stroke="transparent" d="M247.67,-143C247.67,-143 144.33,-143 144.33,-143 140.67,-143 137,-139.33 137,-135.67 137,-135.67 137,-128.33 137,-128.33 137,-124.67 140.67,-121 144.33,-121 144.33,-121 247.67,-121 247.67,-121 251.33,-121 255,-124.67 255,-128.33 255,-128.33 255,-135.67 255,-135.67 255,-139.33 251.33,-143 247.67,-143"/>
<text text-anchor="middle" x="196" y="-129.8" font-family="Times,serif" font-size="9.00">sk&#45;&gt;sk_prot&#45;&gt;bind = NULL</text>
</g>
<!-- ido&#45;&gt;ssb -->
<g id="edge3" class="edge">
<title>ido&#45;&gt;ssb</title>
<path fill="none" stroke="black" d="M196,-171.61C196,-164.76 196,-155.68 196,-148.05"/>
<polygon fill="black" stroke="black" points="196,-143.04 198.25,-148.04 196,-145.54 196,-148.04 196,-148.04 196,-148.04 196,-145.54 193.75,-148.04 196,-143.04 196,-143.04"/>
</g>
<!-- ib -->
<g id="node6" class="node">
<title>ib</title>
<path fill="lightgrey" stroke="transparent" d="M231.67,-92C231.67,-92 160.33,-92 160.33,-92 156.67,-92 153,-88.33 153,-84.67 153,-84.67 153,-77.33 153,-77.33 153,-73.67 156.67,-70 160.33,-70 160.33,-70 231.67,-70 231.67,-70 235.33,-70 239,-73.67 239,-77.33 239,-77.33 239,-84.67 239,-84.67 239,-88.33 235.33,-92 231.67,-92"/>
<text text-anchor="middle" x="196" y="-78.8" font-family="Times,serif" font-size="9.00">__inet_bind</text>
</g>
<!-- ssb&#45;&gt;ib -->
<g id="edge4" class="edge">
<title>ssb&#45;&gt;ib</title>
<path fill="none" stroke="black" d="M196,-120.61C196,-113.76 196,-104.68 196,-97.05"/>
<polygon fill="black" stroke="black" points="196,-92.04 198.25,-97.04 196,-94.54 196,-97.04 196,-97.04 196,-97.04 196,-94.54 193.75,-97.04 196,-92.04 196,-92.04"/>
</g>
<!-- ssg -->
<g id="node7" class="node">
<title>ssg</title>
<path fill="lightgrey" stroke="transparent" d="M237.67,-41C237.67,-41 154.33,-41 154.33,-41 150.67,-41 147,-37.33 147,-33.67 147,-33.67 147,-26.33 147,-26.33 147,-22.67 150.67,-19 154.33,-19 154.33,-19 237.67,-19 237.67,-19 241.33,-19 245,-22.67 245,-26.33 245,-26.33 245,-33.67 245,-33.67 245,-37.33 241.33,-41 237.67,-41"/>
<text text-anchor="middle" x="196" y="-27.8" font-family="Times,serif" font-size="9.00">sk&#45;&gt;sk_prot&#45;&gt;get_port</text>
</g>
<!-- ib&#45;&gt;ssg -->
<g id="edge5" class="edge">
<title>ib&#45;&gt;ssg</title>
<path fill="none" stroke="black" d="M196,-69.61C196,-62.76 196,-53.68 196,-46.05"/>
<polygon fill="black" stroke="black" points="196,-41.04 198.25,-46.04 196,-43.54 196,-46.04 196,-46.04 196,-46.04 196,-43.54 193.75,-46.04 196,-41.04 196,-41.04"/>
</g>
<!-- uvgp -->
<g id="node8" class="node">
<title>uvgp</title>
<path fill="lightgrey" stroke="transparent" d="M438.17,-41C438.17,-41 295.83,-41 295.83,-41 292.17,-41 288.5,-37.33 288.5,-33.67 288.5,-33.67 288.5,-26.33 288.5,-26.33 288.5,-22.67 292.17,-19 295.83,-19 295.83,-19 438.17,-19 438.17,-19 441.83,-19 445.5,-22.67 445.5,-26.33 445.5,-26.33 445.5,-33.67 445.5,-33.67 445.5,-37.33 441.83,-41 438.17,-41"/>
<text text-anchor="middle" x="367" y="-27.8" font-family="Times,serif" font-size="9.00">udp_prot&#45;&gt;get_port = udp_v4_get_port</text>
</g>
<!-- ssg&#45;&gt;uvgp -->
<g id="edge2" class="edge">
<title>ssg&#45;&gt;uvgp</title>
<path fill="none" stroke="black" d="M245.1,-30C257.85,-30 270.6,-30 283.35,-30"/>
<polygon fill="black" stroke="black" points="288.43,-30 283.43,-32.25 285.93,-30 283.43,-30 283.43,-30 283.43,-30 285.93,-30 283.43,-27.75 288.43,-30 288.43,-30"/>
</g>
</g>
</svg>
