<?xml version="1.0" encoding="UTF-8" standalone="no"?>
<!DOCTYPE svg PUBLIC "-//W3C//DTD SVG 1.1//EN"
 "http://www.w3.org/Graphics/SVG/1.1/DTD/svg11.dtd">
<!-- Generated by graphviz version 2.43.0 (0)
 -->
<!-- Title: %3 Pages: 1 -->
<svg width="357pt" height="326pt"
 viewBox="0.00 0.00 356.50 326.00" xmlns="http://www.w3.org/2000/svg" xmlns:xlink="http://www.w3.org/1999/xlink">
<g id="graph0" class="graph" transform="scale(1 1) rotate(0) translate(4 322)">
<title>%3</title>
<polygon fill="white" stroke="transparent" points="-4,4 -4,-322 352.5,-322 352.5,4 -4,4"/>
<text text-anchor="middle" x="174.25" y="-7" font-family="Times,serif" font-size="10.00">UDP Socket创建过程</text>
<!-- sk -->
<g id="node1" class="node">
<title>sk</title>
<path fill="lightgrey" stroke="transparent" d="M80.17,-318C80.17,-318 8.83,-318 8.83,-318 5.17,-318 1.5,-314.33 1.5,-310.67 1.5,-310.67 1.5,-303.33 1.5,-303.33 1.5,-299.67 5.17,-296 8.83,-296 8.83,-296 80.17,-296 80.17,-296 83.83,-296 87.5,-299.67 87.5,-303.33 87.5,-303.33 87.5,-310.67 87.5,-310.67 87.5,-314.33 83.83,-318 80.17,-318"/>
<text text-anchor="middle" x="44.5" y="-304.8" font-family="Times,serif" font-size="9.00">socket</text>
</g>
<!-- ss -->
<g id="node2" class="node">
<title>ss</title>
<path fill="lightgrey" stroke="transparent" d="M80.17,-267C80.17,-267 8.83,-267 8.83,-267 5.17,-267 1.5,-263.33 1.5,-259.67 1.5,-259.67 1.5,-252.33 1.5,-252.33 1.5,-248.67 5.17,-245 8.83,-245 8.83,-245 80.17,-245 80.17,-245 83.83,-245 87.5,-248.67 87.5,-252.33 87.5,-252.33 87.5,-259.67 87.5,-259.67 87.5,-263.33 83.83,-267 80.17,-267"/>
<text text-anchor="middle" x="44.5" y="-253.8" font-family="Times,serif" font-size="9.00">__sys_socket</text>
</g>
<!-- sk&#45;&gt;ss -->
<g id="edge3" class="edge">
<title>sk&#45;&gt;ss</title>
<path fill="none" stroke="black" d="M44.5,-295.61C44.5,-288.76 44.5,-279.68 44.5,-272.05"/>
<polygon fill="black" stroke="black" points="44.5,-267.04 46.75,-272.04 44.5,-269.54 44.5,-272.04 44.5,-272.04 44.5,-272.04 44.5,-269.54 42.25,-272.04 44.5,-267.04 44.5,-267.04"/>
</g>
<!-- ssc -->
<g id="node3" class="node">
<title>ssc</title>
<path fill="lightgrey" stroke="transparent" d="M81.67,-213C81.67,-213 7.33,-213 7.33,-213 3.67,-213 0,-209.33 0,-205.67 0,-205.67 0,-198.33 0,-198.33 0,-194.67 3.67,-191 7.33,-191 7.33,-191 81.67,-191 81.67,-191 85.33,-191 89,-194.67 89,-198.33 89,-198.33 89,-205.67 89,-205.67 89,-209.33 85.33,-213 81.67,-213"/>
<text text-anchor="middle" x="44.5" y="-199.8" font-family="Times,serif" font-size="9.00">__sys_socket_create</text>
</g>
<!-- ss&#45;&gt;ssc -->
<g id="edge4" class="edge">
<title>ss&#45;&gt;ssc</title>
<path fill="none" stroke="black" d="M44.5,-244.97C44.5,-237.45 44.5,-227 44.5,-218.42"/>
<polygon fill="black" stroke="black" points="44.5,-213.35 46.75,-218.35 44.5,-215.85 44.5,-218.35 44.5,-218.35 44.5,-218.35 44.5,-215.85 42.25,-218.35 44.5,-213.35 44.5,-213.35"/>
</g>
<!-- smf -->
<g id="node4" class="node">
<title>smf</title>
<path fill="lightgrey" stroke="transparent" d="M209.17,-216C209.17,-216 141.83,-216 141.83,-216 137.17,-216 132.5,-211.33 132.5,-206.67 132.5,-206.67 132.5,-197.33 132.5,-197.33 132.5,-192.67 137.17,-188 141.83,-188 141.83,-188 209.17,-188 209.17,-188 213.83,-188 218.5,-192.67 218.5,-197.33 218.5,-197.33 218.5,-206.67 218.5,-206.67 218.5,-211.33 213.83,-216 209.17,-216"/>
<text text-anchor="middle" x="175.5" y="-204.8" font-family="Times,serif" font-size="9.00">sock_map_fd </text>
<text text-anchor="middle" x="175.5" y="-194.8" font-family="Times,serif" font-size="9.00"> fd和socket关联</text>
</g>
<!-- ssc&#45;&gt;smf -->
<g id="edge1" class="edge">
<title>ssc&#45;&gt;smf</title>
<path fill="none" stroke="black" d="M89.02,-202C101.74,-202 114.47,-202 127.19,-202"/>
<polygon fill="black" stroke="black" points="132.26,-202 127.26,-204.25 129.76,-202 127.26,-202 127.26,-202 127.26,-202 129.76,-202 127.26,-199.75 132.26,-202 132.26,-202"/>
</g>
<!-- sc -->
<g id="node5" class="node">
<title>sc</title>
<path fill="lightgrey" stroke="transparent" d="M80.17,-159C80.17,-159 8.83,-159 8.83,-159 5.17,-159 1.5,-155.33 1.5,-151.67 1.5,-151.67 1.5,-144.33 1.5,-144.33 1.5,-140.67 5.17,-137 8.83,-137 8.83,-137 80.17,-137 80.17,-137 83.83,-137 87.5,-140.67 87.5,-144.33 87.5,-144.33 87.5,-151.67 87.5,-151.67 87.5,-155.33 83.83,-159 80.17,-159"/>
<text text-anchor="middle" x="44.5" y="-145.8" font-family="Times,serif" font-size="9.00">sock_create</text>
</g>
<!-- ssc&#45;&gt;sc -->
<g id="edge5" class="edge">
<title>ssc&#45;&gt;sc</title>
<path fill="none" stroke="black" d="M44.5,-190.97C44.5,-183.45 44.5,-173 44.5,-164.42"/>
<polygon fill="black" stroke="black" points="44.5,-159.35 46.75,-164.35 44.5,-161.85 44.5,-164.35 44.5,-164.35 44.5,-164.35 44.5,-161.85 42.25,-164.35 44.5,-159.35 44.5,-159.35"/>
</g>
<!-- pc -->
<g id="node6" class="node">
<title>pc</title>
<path fill="lightgrey" stroke="transparent" d="M80.17,-108C80.17,-108 8.83,-108 8.83,-108 5.17,-108 1.5,-104.33 1.5,-100.67 1.5,-100.67 1.5,-93.33 1.5,-93.33 1.5,-89.67 5.17,-86 8.83,-86 8.83,-86 80.17,-86 80.17,-86 83.83,-86 87.5,-89.67 87.5,-93.33 87.5,-93.33 87.5,-100.67 87.5,-100.67 87.5,-104.33 83.83,-108 80.17,-108"/>
<text text-anchor="middle" x="44.5" y="-94.8" font-family="Times,serif" font-size="9.00">pf.create</text>
</g>
<!-- sc&#45;&gt;pc -->
<g id="edge6" class="edge">
<title>sc&#45;&gt;pc</title>
<path fill="none" stroke="black" d="M44.5,-136.61C44.5,-129.76 44.5,-120.68 44.5,-113.05"/>
<polygon fill="black" stroke="black" points="44.5,-108.04 46.75,-113.04 44.5,-110.54 44.5,-113.04 44.5,-113.04 44.5,-113.04 44.5,-110.54 42.25,-113.04 44.5,-108.04 44.5,-108.04"/>
</g>
<!-- ic -->
<g id="node7" class="node">
<title>ic</title>
<text text-anchor="middle" x="202.5" y="-94.8" font-family="Times,serif" font-size="9.00">inet_family_ops.create = inet_create</text>
</g>
<!-- pc&#45;&gt;ic -->
<g id="edge2" class="edge">
<title>pc&#45;&gt;ic</title>
<path fill="none" stroke="black" stroke-dasharray="5,2" d="M87.7,-97C100.37,-97 113.04,-97 125.71,-97"/>
<polygon fill="black" stroke="black" points="130.75,-97 125.75,-99.25 128.25,-97 125.75,-97 125.75,-97 125.75,-97 128.25,-97 125.75,-94.75 130.75,-97 130.75,-97"/>
</g>
<!-- up -->
<g id="node8" class="node">
<title>up</title>
<path fill="lightgrey" stroke="transparent" d="M336.5,-57C336.5,-57 68.5,-57 68.5,-57 62.5,-57 56.5,-51 56.5,-45 56.5,-45 56.5,-31 56.5,-31 56.5,-25 62.5,-19 68.5,-19 68.5,-19 336.5,-19 336.5,-19 342.5,-19 348.5,-25 348.5,-31 348.5,-31 348.5,-45 348.5,-45 348.5,-51 342.5,-57 336.5,-57"/>
<text text-anchor="start" x="64.5" y="-45.8" font-family="Times,serif" font-size="9.00">1. 初始化socket&#45;&gt;ops = inet_dgram_ops(UDP套接口层处理)</text>
<text text-anchor="start" x="64.5" y="-25.8" font-family="Times,serif" font-size="9.00">2. 创建 udp_sock 结构，初始化sk&#45;&gt;sk_prot = udp_prot(UDP协议层处理)</text>
</g>
<!-- ic&#45;&gt;up -->
<g id="edge7" class="edge">
<title>ic&#45;&gt;up</title>
<path fill="none" stroke="black" d="M202.5,-85.81C202.5,-79.23 202.5,-70.4 202.5,-62.18"/>
<polygon fill="black" stroke="black" points="202.5,-57.17 204.75,-62.17 202.5,-59.67 202.5,-62.17 202.5,-62.17 202.5,-62.17 202.5,-59.67 200.25,-62.17 202.5,-57.17 202.5,-57.17"/>
</g>
</g>
</svg>
