<?xml version="1.0" encoding="UTF-8" standalone="no"?><svg xmlns="http://www.w3.org/2000/svg" xmlns:xlink="http://www.w3.org/1999/xlink" contentScriptType="application/ecmascript" contentStyleType="text/css" height="1070px" preserveAspectRatio="none" style="width:285px;height:1070px;" version="1.1" viewBox="0 0 285 1070" width="285px" zoomAndPan="magnify"><defs><filter height="300%" id="f1dwjat2bsj4my" width="300%" x="-1" y="-1"><feGaussianBlur result="blurOut" stdDeviation="2.0"/><feColorMatrix in="blurOut" result="blurOut2" type="matrix" values="0 0 0 0 0 0 0 0 0 0 0 0 0 0 0 0 0 0 .4 0"/><feOffset dx="4.0" dy="4.0" in="blurOut2" result="blurOut3"/><feBlend in="SourceGraphic" in2="blurOut3" mode="normal"/></filter></defs><g><text fill="#000000" font-family="sans-serif" font-size="18" lengthAdjust="spacingAndGlyphs" textLength="135" x="74" y="30.8799">ldp_constructor</text><ellipse cx="142" cy="46.0638" fill="#000000" filter="url(#f1dwjat2bsj4my)" rx="10" ry="10" style="stroke: none; stroke-width: 1.0;"/><rect fill="#FEFECE" filter="url(#f1dwjat2bsj4my)" height="37.3761" rx="12.5" ry="12.5" style="stroke: #A80036; stroke-width: 1.5;" width="128" x="78" y="76.0638"/><text fill="#000000" font-family="sans-serif" font-size="12" lengthAdjust="spacingAndGlyphs" textLength="108" x="88" y="99.9839">swrap_constructor</text><rect fill="#FFFFFF" filter="url(#f1dwjat2bsj4my)" height="892.9493" style="stroke: #000000; stroke-width: 2.0;" width="264" x="10" y="124.9719"/><path d="M72,125.9719 L72,138.2439 L62,148.2439 L10,148.2439 " fill="none" style="stroke: #000000; stroke-width: 2.0;"/><text fill="#000000" font-family="sans-serif" font-size="14" lengthAdjust="spacingAndGlyphs" textLength="52" x="13" y="142.2119">ldp_init</text><rect fill="#FFFFFF" filter="url(#f1dwjat2bsj4my)" height="731.3932" style="stroke: #000000; stroke-width: 2.0;" width="244" x="20" y="159.7758"/><path d="M131,160.7758 L131,173.0477 L121,183.0477 L20,183.0477 " fill="none" style="stroke: #000000; stroke-width: 2.0;"/><text fill="#000000" font-family="sans-serif" font-size="14" lengthAdjust="spacingAndGlyphs" textLength="101" x="23" y="177.0158">vls_app_create</text><rect fill="#FFFFFF" filter="url(#f1dwjat2bsj4my)" height="512.4609" style="stroke: #000000; stroke-width: 2.0;" width="224" x="30" y="194.5797"/><path d="M176,195.5797 L176,207.8516 L166,217.8516 L30,217.8516 " fill="none" style="stroke: #000000; stroke-width: 2.0;"/><text fill="#000000" font-family="sans-serif" font-size="14" lengthAdjust="spacingAndGlyphs" textLength="136" x="33" y="211.8197">vppcom_app_create</text><rect fill="#FEFECE" filter="url(#f1dwjat2bsj4my)" height="54.7522" rx="12.5" ry="12.5" style="stroke: #A80036; stroke-width: 1.5;" width="107" x="88.5" y="234.8516"/><text fill="#000000" font-family="sans-serif" font-size="12" lengthAdjust="spacingAndGlyphs" textLength="68" x="98.5" y="258.7717">vppcom_cfg</text><text fill="#000000" font-family="sans-serif" font-size="12" lengthAdjust="spacingAndGlyphs" textLength="87" x="98.5" y="276.1479">解析vcl配置文件</text><rect fill="#FEFECE" filter="url(#f1dwjat2bsj4my)" height="37.3761" rx="12.5" ry="12.5" style="stroke: #A80036; stroke-width: 1.5;" width="155" x="64.5" y="309.6039"/><text fill="#000000" font-family="sans-serif" font-size="12" lengthAdjust="spacingAndGlyphs" textLength="135" x="74.5" y="333.524">fifo_segment_main_init</text><rect fill="#FEFECE" filter="url(#f1dwjat2bsj4my)" height="37.3761" rx="12.5" ry="12.5" style="stroke: #A80036; stroke-width: 1.5;" width="201" x="41.5" y="366.98"/><text fill="#000000" font-family="sans-serif" font-size="12" lengthAdjust="spacingAndGlyphs" textLength="181" x="51.5" y="390.9001">使用atexit注册vppcom_app_exit</text><rect fill="#FEFECE" filter="url(#f1dwjat2bsj4my)" height="54.7522" rx="12.5" ry="12.5" style="stroke: #A80036; stroke-width: 1.5;" width="179" x="52.5" y="424.3561"/><text fill="#000000" font-family="sans-serif" font-size="12" lengthAdjust="spacingAndGlyphs" textLength="149" x="62.5" y="448.2762">vcl_worker_alloc_and_init</text><text fill="#000000" font-family="sans-serif" font-size="12" lengthAdjust="spacingAndGlyphs" textLength="159" x="62.5" y="465.6523">分配默认的vcl_worker_t结构</text><rect fill="#FFFFFF" filter="url(#f1dwjat2bsj4my)" height="204.4003" style="stroke: #000000; stroke-width: 2.0;" width="204" x="40" y="490.6404"/><path d="M147,491.6404 L147,503.9123 L137,513.9123 L40,513.9123 " fill="none" style="stroke: #000000; stroke-width: 2.0;"/><text fill="#000000" font-family="sans-serif" font-size="14" lengthAdjust="spacingAndGlyphs" textLength="97" x="43" y="507.8803">vcl_api_attach</text><rect fill="#FEFECE" filter="url(#f1dwjat2bsj4my)" height="37.3761" rx="12.5" ry="12.5" style="stroke: #A80036; stroke-width: 1.5;" width="109" x="87.5" y="530.9123"/><text fill="#000000" font-family="sans-serif" font-size="12" lengthAdjust="spacingAndGlyphs" textLength="89" x="97.5" y="554.8324">vcl_sapi_attach</text><rect fill="#FEFECE" filter="url(#f1dwjat2bsj4my)" height="37.3761" rx="12.5" ry="12.5" style="stroke: #A80036; stroke-width: 1.5;" width="184" x="50" y="588.2884"/><text fill="#000000" font-family="sans-serif" font-size="12" lengthAdjust="spacingAndGlyphs" textLength="164" x="60" y="612.2085">vcl_api_connect_app_socket</text><rect fill="#FEFECE" filter="url(#f1dwjat2bsj4my)" height="37.3761" rx="12.5" ry="12.5" style="stroke: #A80036; stroke-width: 1.5;" width="137" x="73.5" y="645.6645"/><text fill="#000000" font-family="sans-serif" font-size="12" lengthAdjust="spacingAndGlyphs" textLength="117" x="83.5" y="669.5846">vcl_api_send_attach</text><rect fill="#FEFECE" filter="url(#f1dwjat2bsj4my)" height="37.3761" rx="12.5" ry="12.5" style="stroke: #A80036; stroke-width: 1.5;" width="107" x="88.5" y="727.0406"/><text fill="#000000" font-family="sans-serif" font-size="12" lengthAdjust="spacingAndGlyphs" textLength="87" x="98.5" y="750.9607">pthread_atfork</text><rect fill="#FEFECE" filter="url(#f1dwjat2bsj4my)" height="37.3761" rx="12.5" ry="12.5" style="stroke: #A80036; stroke-width: 1.5;" width="53" x="115.5" y="784.4167"/><text fill="#000000" font-family="sans-serif" font-size="12" lengthAdjust="spacingAndGlyphs" textLength="33" x="125.5" y="808.3368">atexit</text><rect fill="#FEFECE" filter="url(#f1dwjat2bsj4my)" height="37.3761" rx="12.5" ry="12.5" style="stroke: #A80036; stroke-width: 1.5;" width="116" x="84" y="841.7929"/><text fill="#000000" font-family="sans-serif" font-size="12" lengthAdjust="spacingAndGlyphs" textLength="96" x="94" y="865.713">vls_worker_alloc</text><rect fill="#FEFECE" filter="url(#f1dwjat2bsj4my)" height="37.3761" rx="12.5" ry="12.5" style="stroke: #A80036; stroke-width: 1.5;" width="124" x="80" y="911.169"/><text fill="#000000" font-family="sans-serif" font-size="12" lengthAdjust="spacingAndGlyphs" textLength="104" x="90" y="935.0891">ldp_alloc_workers</text><rect fill="#FEFECE" filter="url(#f1dwjat2bsj4my)" height="37.3761" rx="12.5" ry="12.5" style="stroke: #A80036; stroke-width: 1.5;" width="152" x="66" y="968.5451"/><text fill="#000000" font-family="sans-serif" font-size="12" lengthAdjust="spacingAndGlyphs" textLength="132" x="76" y="992.4652">"获取环境变量配置相关"</text><ellipse cx="142" cy="1048.9212" fill="#FFFFFF" filter="url(#f1dwjat2bsj4my)" rx="11" ry="11" style="stroke: #000000; stroke-width: 1.0;"/><ellipse cx="142" cy="1048.9212" fill="#000000" rx="6" ry="6" style="stroke: #7F7F7F; stroke-width: 1.0;"/><line style="stroke: #A80036; stroke-width: 1.5;" x1="142" x2="142" y1="56.0638" y2="76.0638"/><polygon fill="#A80036" points="138,66.0638,142,76.0638,146,66.0638,142,70.0638" style="stroke: #A80036; stroke-width: 1.0;"/><line style="stroke: #A80036; stroke-width: 1.5;" x1="142" x2="142" y1="289.6039" y2="309.6039"/><polygon fill="#A80036" points="138,299.6039,142,309.6039,146,299.6039,142,303.6039" style="stroke: #A80036; stroke-width: 1.0;"/><line style="stroke: #A80036; stroke-width: 1.5;" x1="142" x2="142" y1="346.98" y2="366.98"/><polygon fill="#A80036" points="138,356.98,142,366.98,146,356.98,142,360.98" style="stroke: #A80036; stroke-width: 1.0;"/><line style="stroke: #A80036; stroke-width: 1.5;" x1="142" x2="142" y1="404.3561" y2="424.3561"/><polygon fill="#A80036" points="138,414.3561,142,424.3561,146,414.3561,142,418.3561" style="stroke: #A80036; stroke-width: 1.0;"/><line style="stroke: #A80036; stroke-width: 1.5;" x1="142" x2="142" y1="568.2884" y2="588.2884"/><polygon fill="#A80036" points="138,578.2884,142,588.2884,146,578.2884,142,582.2884" style="stroke: #A80036; stroke-width: 1.0;"/><line style="stroke: #A80036; stroke-width: 1.5;" x1="142" x2="142" y1="625.6645" y2="645.6645"/><polygon fill="#A80036" points="138,635.6645,142,645.6645,146,635.6645,142,639.6645" style="stroke: #A80036; stroke-width: 1.0;"/><line style="stroke: #A80036; stroke-width: 1.5;" x1="142" x2="142" y1="479.1084" y2="530.9123"/><polygon fill="#A80036" points="138,520.9123,142,530.9123,146,520.9123,142,524.9123" style="stroke: #A80036; stroke-width: 1.0;"/><line style="stroke: #A80036; stroke-width: 1.5;" x1="142" x2="142" y1="683.0406" y2="727.0406"/><polygon fill="#A80036" points="138,717.0406,142,727.0406,146,717.0406,142,721.0406" style="stroke: #A80036; stroke-width: 1.0;"/><line style="stroke: #A80036; stroke-width: 1.5;" x1="142" x2="142" y1="764.4167" y2="784.4167"/><polygon fill="#A80036" points="138,774.4167,142,784.4167,146,774.4167,142,778.4167" style="stroke: #A80036; stroke-width: 1.0;"/><line style="stroke: #A80036; stroke-width: 1.5;" x1="142" x2="142" y1="821.7929" y2="841.7929"/><polygon fill="#A80036" points="138,831.7929,142,841.7929,146,831.7929,142,835.7929" style="stroke: #A80036; stroke-width: 1.0;"/><line style="stroke: #A80036; stroke-width: 1.5;" x1="142" x2="142" y1="879.169" y2="911.169"/><polygon fill="#A80036" points="138,901.169,142,911.169,146,901.169,142,905.169" style="stroke: #A80036; stroke-width: 1.0;"/><line style="stroke: #A80036; stroke-width: 1.5;" x1="142" x2="142" y1="948.5451" y2="968.5451"/><polygon fill="#A80036" points="138,958.5451,142,968.5451,146,958.5451,142,962.5451" style="stroke: #A80036; stroke-width: 1.0;"/><line style="stroke: #A80036; stroke-width: 1.5;" x1="142" x2="142" y1="113.44" y2="234.8516"/><polygon fill="#A80036" points="138,224.8516,142,234.8516,146,224.8516,142,228.8516" style="stroke: #A80036; stroke-width: 1.0;"/><line style="stroke: #A80036; stroke-width: 1.5;" x1="142" x2="142" y1="1005.9212" y2="1037.9212"/><polygon fill="#A80036" points="138,1027.9212,142,1037.9212,146,1027.9212,142,1031.9212" style="stroke: #A80036; stroke-width: 1.0;"/><!--MD5=[d45dee0c6873c40fc9cff3cb5f5329b1]
@startuml
title ldp_constructor
start
:swrap_constructor;
partition ldp_init {
  partition vls_app_create {
    partition vppcom_app_create {
      :vppcom_cfg
      解析vcl配置文件;
      :fifo_segment_main_init;
      :使用atexit注册vppcom_app_exit;
      :vcl_worker_alloc_and_init
      分配默认的vcl_worker_t结构;
      partition vcl_api_attach {
        :vcl_sapi_attach;
        :vcl_api_connect_app_socket;
        :vcl_api_send_attach;
      }
    }
    :pthread_atfork;
    :atexit;
    :vls_worker_alloc;
  }
  :ldp_alloc_workers;
  :"获取环境变量配置相关";
}
stop
@enduml

PlantUML version 1.2020.02(Sun Mar 01 18:22:07 CST 2020)
(GPL source distribution)
Java Runtime: OpenJDK Runtime Environment
JVM: OpenJDK 64-Bit Server VM
Java Version: 17.0.11+9-Debian-1deb12u1
Operating System: Linux
Default Encoding: UTF-8
Language: en
Country: US
--></g></svg>