<?xml version="1.0" encoding="UTF-8" standalone="no"?><svg xmlns="http://www.w3.org/2000/svg" xmlns:xlink="http://www.w3.org/1999/xlink" contentScriptType="application/ecmascript" contentStyleType="text/css" height="385px" preserveAspectRatio="none" style="width:212px;height:385px;" version="1.1" viewBox="0 0 212 385" width="212px" zoomAndPan="magnify"><defs><filter height="300%" id="f1vpi361xgwf1x" width="300%" x="-1" y="-1"><feGaussianBlur result="blurOut" stdDeviation="2.0"/><feColorMatrix in="blurOut" result="blurOut2" type="matrix" values="0 0 0 0 0 0 0 0 0 0 0 0 0 0 0 0 0 0 .4 0"/><feOffset dx="4.0" dy="4.0" in="blurOut2" result="blurOut3"/><feBlend in="SourceGraphic" in2="blurOut3" mode="normal"/></filter></defs><g><ellipse cx="105.5" cy="20" fill="#000000" filter="url(#f1vpi361xgwf1x)" rx="10" ry="10" style="stroke: none; stroke-width: 1.0;"/><rect fill="#FEFECE" filter="url(#f1vpi361xgwf1x)" height="37.3761" rx="12.5" ry="12.5" style="stroke: #A80036; stroke-width: 1.5;" width="48" x="81.5" y="50"/><text fill="#000000" font-family="sans-serif" font-size="12" lengthAdjust="spacingAndGlyphs" textLength="28" x="91.5" y="73.9201">main</text><rect fill="#FEFECE" filter="url(#f1vpi361xgwf1x)" height="37.3761" rx="12.5" ry="12.5" style="stroke: #A80036; stroke-width: 1.5;" width="104" x="53.5" y="107.3761"/><text fill="#000000" font-family="sans-serif" font-size="12" lengthAdjust="spacingAndGlyphs" textLength="84" x="63.5" y="131.2962">vlib_unix_main</text><rect fill="#FEFECE" filter="url(#f1vpi361xgwf1x)" height="37.3761" rx="12.5" ry="12.5" style="stroke: #A80036; stroke-width: 1.5;" width="65" x="73" y="164.7522"/><text fill="#000000" font-family="sans-serif" font-size="12" lengthAdjust="spacingAndGlyphs" textLength="45" x="83" y="188.6723">thread0</text><rect fill="#FEFECE" filter="url(#f1vpi361xgwf1x)" height="37.3761" rx="12.5" ry="12.5" style="stroke: #A80036; stroke-width: 1.5;" width="74" x="68.5" y="222.1284"/><text fill="#000000" font-family="sans-serif" font-size="12" lengthAdjust="spacingAndGlyphs" textLength="54" x="78.5" y="246.0485">vlib_main</text><rect fill="#FEFECE" filter="url(#f1vpi361xgwf1x)" height="37.3761" rx="12.5" ry="12.5" style="stroke: #A80036; stroke-width: 1.5;" width="191" x="10" y="279.5045"/><text fill="#000000" font-family="sans-serif" font-size="12" lengthAdjust="spacingAndGlyphs" textLength="171" x="20" y="303.4246">vlib_register_all_static_nodes</text><rect fill="#FEFECE" filter="url(#f1vpi361xgwf1x)" height="37.3761" rx="12.5" ry="12.5" style="stroke: #A80036; stroke-width: 1.5;" width="100" x="55.5" y="336.8806"/><text fill="#000000" font-family="sans-serif" font-size="12" lengthAdjust="spacingAndGlyphs" textLength="80" x="65.5" y="360.8007">register_node</text><line style="stroke: #A80036; stroke-width: 1.5;" x1="105.5" x2="105.5" y1="30" y2="50"/><polygon fill="#A80036" points="101.5,40,105.5,50,109.5,40,105.5,44" style="stroke: #A80036; stroke-width: 1.0;"/><line style="stroke: #A80036; stroke-width: 1.5;" x1="105.5" x2="105.5" y1="87.3761" y2="107.3761"/><polygon fill="#A80036" points="101.5,97.3761,105.5,107.3761,109.5,97.3761,105.5,101.3761" style="stroke: #A80036; stroke-width: 1.0;"/><line style="stroke: #A80036; stroke-width: 1.5;" x1="105.5" x2="105.5" y1="144.7522" y2="164.7522"/><polygon fill="#A80036" points="101.5,154.7522,105.5,164.7522,109.5,154.7522,105.5,158.7522" style="stroke: #A80036; stroke-width: 1.0;"/><line style="stroke: #A80036; stroke-width: 1.5;" x1="105.5" x2="105.5" y1="202.1284" y2="222.1284"/><polygon fill="#A80036" points="101.5,212.1284,105.5,222.1284,109.5,212.1284,105.5,216.1284" style="stroke: #A80036; stroke-width: 1.0;"/><line style="stroke: #A80036; stroke-width: 1.5;" x1="105.5" x2="105.5" y1="259.5045" y2="279.5045"/><polygon fill="#A80036" points="101.5,269.5045,105.5,279.5045,109.5,269.5045,105.5,273.5045" style="stroke: #A80036; stroke-width: 1.0;"/><line style="stroke: #A80036; stroke-width: 1.5;" x1="105.5" x2="105.5" y1="316.8806" y2="336.8806"/><polygon fill="#A80036" points="101.5,326.8806,105.5,336.8806,109.5,326.8806,105.5,330.8806" style="stroke: #A80036; stroke-width: 1.0;"/><!--MD5=[04d1ae200a576e1c1128fee7a8e7df82]
@startuml
start
:main;
:vlib_unix_main;
:thread0;
:vlib_main;
:vlib_register_all_static_nodes;
:register_node;
@enduml

PlantUML version 1.2020.02(Sun Mar 01 18:22:07 CST 2020)
(GPL source distribution)
Java Runtime: OpenJDK Runtime Environment
JVM: OpenJDK 64-Bit Server VM
Java Version: 17.0.7+7-Debian-1deb12u1
Operating System: Linux
Default Encoding: UTF-8
Language: en
Country: US
--></g></svg>