<?xml version="1.0" encoding="UTF-8" standalone="no"?>
<!DOCTYPE svg PUBLIC "-//W3C//DTD SVG 1.1//EN"
 "http://www.w3.org/Graphics/SVG/1.1/DTD/svg11.dtd">
<!-- Generated by graphviz version 2.43.0 (0)
 -->
<!-- Title: %3 Pages: 1 -->
<svg width="942pt" height="1206pt"
 viewBox="0.00 0.00 942.00 1206.00" xmlns="http://www.w3.org/2000/svg" xmlns:xlink="http://www.w3.org/1999/xlink">
<g id="graph0" class="graph" transform="scale(1 1) rotate(0) translate(4 1202)">
<title>%3</title>
<polygon fill="white" stroke="transparent" points="-4,4 -4,-1202 938,-1202 938,4 -4,4"/>
<!-- tcp_sw -->
<g id="node1" class="node">
<title>tcp_sw</title>
<path fill="none" stroke="black" d="M648,-1064.5C648,-1064.5 737,-1064.5 737,-1064.5 743,-1064.5 749,-1070.5 749,-1076.5 749,-1076.5 749,-1185.5 749,-1185.5 749,-1191.5 743,-1197.5 737,-1197.5 737,-1197.5 648,-1197.5 648,-1197.5 642,-1197.5 636,-1191.5 636,-1185.5 636,-1185.5 636,-1076.5 636,-1076.5 636,-1070.5 642,-1064.5 648,-1064.5"/>
<text text-anchor="middle" x="692.5" y="-1185.5" font-family="DejaVu Sans Mono" font-size="10.00">TCP</text>
<polyline fill="none" stroke="black" points="636,-1178.5 749,-1178.5 "/>
<text text-anchor="start" x="644" y="-1166.5" font-family="DejaVu Sans Mono" font-size="10.00">+list</text>
<polyline fill="none" stroke="black" points="636,-1159.5 749,-1159.5 "/>
<text text-anchor="start" x="644" y="-1147.5" font-family="DejaVu Sans Mono" font-size="10.00">+SOCK_STREAM</text>
<polyline fill="none" stroke="black" points="636,-1140.5 749,-1140.5 "/>
<text text-anchor="start" x="644" y="-1128.5" font-family="DejaVu Sans Mono" font-size="10.00">+IPPROTO_TCP</text>
<polyline fill="none" stroke="black" points="636,-1121.5 749,-1121.5 "/>
<text text-anchor="start" x="644" y="-1109.5" font-family="DejaVu Sans Mono" font-size="10.00">+tcp_prot</text>
<polyline fill="none" stroke="black" points="636,-1102.5 749,-1102.5 "/>
<text text-anchor="start" x="644" y="-1090.5" font-family="DejaVu Sans Mono" font-size="10.00">+inet_stream_ops</text>
<polyline fill="none" stroke="black" points="636,-1083.5 749,-1083.5 "/>
<text text-anchor="middle" x="692.5" y="-1071.5" font-family="DejaVu Sans Mono" font-size="10.00">...</text>
</g>
<!-- sctp_stream_sw -->
<g id="node6" class="node">
<title>sctp_stream_sw</title>
<path fill="none" stroke="black" d="M812,-1064.5C812,-1064.5 919,-1064.5 919,-1064.5 925,-1064.5 931,-1070.5 931,-1076.5 931,-1076.5 931,-1185.5 931,-1185.5 931,-1191.5 925,-1197.5 919,-1197.5 919,-1197.5 812,-1197.5 812,-1197.5 806,-1197.5 800,-1191.5 800,-1185.5 800,-1185.5 800,-1076.5 800,-1076.5 800,-1070.5 806,-1064.5 812,-1064.5"/>
<text text-anchor="middle" x="865.5" y="-1185.5" font-family="DejaVu Sans Mono" font-size="10.00">SCTP</text>
<polyline fill="none" stroke="black" points="800,-1178.5 931,-1178.5 "/>
<text text-anchor="start" x="808" y="-1166.5" font-family="DejaVu Sans Mono" font-size="10.00">+list</text>
<polyline fill="none" stroke="black" points="800,-1159.5 931,-1159.5 "/>
<text text-anchor="start" x="808" y="-1147.5" font-family="DejaVu Sans Mono" font-size="10.00">+SOCK_STREAM</text>
<polyline fill="none" stroke="black" points="800,-1140.5 931,-1140.5 "/>
<text text-anchor="start" x="808" y="-1128.5" font-family="DejaVu Sans Mono" font-size="10.00">+IPPROTO_SCTP</text>
<polyline fill="none" stroke="black" points="800,-1121.5 931,-1121.5 "/>
<text text-anchor="start" x="808" y="-1109.5" font-family="DejaVu Sans Mono" font-size="10.00">+sctp_prot</text>
<polyline fill="none" stroke="black" points="800,-1102.5 931,-1102.5 "/>
<text text-anchor="start" x="808" y="-1090.5" font-family="DejaVu Sans Mono" font-size="10.00">+inet_seqpacket_ops</text>
<polyline fill="none" stroke="black" points="800,-1083.5 931,-1083.5 "/>
<text text-anchor="middle" x="865.5" y="-1071.5" font-family="DejaVu Sans Mono" font-size="10.00">...</text>
</g>
<!-- tcp_sw&#45;&gt;sctp_stream_sw -->
<g id="edge2" class="edge">
<title>tcp_sw:list&#45;&gt;sctp_stream_sw:list</title>
<path fill="none" stroke="black" d="M750.5,-1169C768,-1169 774.73,-1169 788.36,-1169"/>
<polygon fill="black" stroke="black" points="788.5,-1172.5 798.5,-1169 788.5,-1165.5 788.5,-1172.5"/>
</g>
<!-- udp_sw -->
<g id="node2" class="node">
<title>udp_sw</title>
<path fill="none" stroke="black" d="M651,-912.5C651,-912.5 734,-912.5 734,-912.5 740,-912.5 746,-918.5 746,-924.5 746,-924.5 746,-1033.5 746,-1033.5 746,-1039.5 740,-1045.5 734,-1045.5 734,-1045.5 651,-1045.5 651,-1045.5 645,-1045.5 639,-1039.5 639,-1033.5 639,-1033.5 639,-924.5 639,-924.5 639,-918.5 645,-912.5 651,-912.5"/>
<text text-anchor="middle" x="692.5" y="-1033.5" font-family="DejaVu Sans Mono" font-size="10.00">UDP</text>
<polyline fill="none" stroke="black" points="639,-1026.5 746,-1026.5 "/>
<text text-anchor="start" x="647" y="-1014.5" font-family="DejaVu Sans Mono" font-size="10.00">+list</text>
<polyline fill="none" stroke="black" points="639,-1007.5 746,-1007.5 "/>
<text text-anchor="start" x="647" y="-995.5" font-family="DejaVu Sans Mono" font-size="10.00">+SOCK_DGRAM</text>
<polyline fill="none" stroke="black" points="639,-988.5 746,-988.5 "/>
<text text-anchor="start" x="647" y="-976.5" font-family="DejaVu Sans Mono" font-size="10.00">+IPPROTO_UDP</text>
<polyline fill="none" stroke="black" points="639,-969.5 746,-969.5 "/>
<text text-anchor="start" x="647" y="-957.5" font-family="DejaVu Sans Mono" font-size="10.00">+udp_prot</text>
<polyline fill="none" stroke="black" points="639,-950.5 746,-950.5 "/>
<text text-anchor="start" x="647" y="-938.5" font-family="DejaVu Sans Mono" font-size="10.00">+inet_dgram_ops</text>
<polyline fill="none" stroke="black" points="639,-931.5 746,-931.5 "/>
<text text-anchor="middle" x="692.5" y="-919.5" font-family="DejaVu Sans Mono" font-size="10.00">...</text>
</g>
<!-- udpl_sw -->
<g id="node3" class="node">
<title>udpl_sw</title>
<path fill="none" stroke="black" d="M821,-912.5C821,-912.5 910,-912.5 910,-912.5 916,-912.5 922,-918.5 922,-924.5 922,-924.5 922,-1033.5 922,-1033.5 922,-1039.5 916,-1045.5 910,-1045.5 910,-1045.5 821,-1045.5 821,-1045.5 815,-1045.5 809,-1039.5 809,-1033.5 809,-1033.5 809,-924.5 809,-924.5 809,-918.5 815,-912.5 821,-912.5"/>
<text text-anchor="middle" x="865.5" y="-1033.5" font-family="DejaVu Sans Mono" font-size="10.00">UDP LITE</text>
<polyline fill="none" stroke="black" points="809,-1026.5 922,-1026.5 "/>
<text text-anchor="start" x="817" y="-1014.5" font-family="DejaVu Sans Mono" font-size="10.00">+list</text>
<polyline fill="none" stroke="black" points="809,-1007.5 922,-1007.5 "/>
<text text-anchor="start" x="817" y="-995.5" font-family="DejaVu Sans Mono" font-size="10.00">+SOCK_DGRAM</text>
<polyline fill="none" stroke="black" points="809,-988.5 922,-988.5 "/>
<text text-anchor="start" x="817" y="-976.5" font-family="DejaVu Sans Mono" font-size="10.00">+IPPROTO_UDPLITE</text>
<polyline fill="none" stroke="black" points="809,-969.5 922,-969.5 "/>
<text text-anchor="start" x="817" y="-957.5" font-family="DejaVu Sans Mono" font-size="10.00">+udplite_prot</text>
<polyline fill="none" stroke="black" points="809,-950.5 922,-950.5 "/>
<text text-anchor="start" x="817" y="-938.5" font-family="DejaVu Sans Mono" font-size="10.00">+inet_dgram_ops</text>
<polyline fill="none" stroke="black" points="809,-931.5 922,-931.5 "/>
<text text-anchor="middle" x="865.5" y="-919.5" font-family="DejaVu Sans Mono" font-size="10.00">...</text>
</g>
<!-- udp_sw&#45;&gt;udpl_sw -->
<g id="edge4" class="edge">
<title>udp_sw:list&#45;&gt;udpl_sw:list</title>
<path fill="none" stroke="black" d="M747.5,-1017C770.42,-1017 778.56,-1017 797.33,-1017"/>
<polygon fill="black" stroke="black" points="797.5,-1020.5 807.5,-1017 797.5,-1013.5 797.5,-1020.5"/>
</g>
<!-- raw_sw -->
<g id="node4" class="node">
<title>raw_sw</title>
<path fill="none" stroke="black" d="M645,-760.5C645,-760.5 740,-760.5 740,-760.5 746,-760.5 752,-766.5 752,-772.5 752,-772.5 752,-881.5 752,-881.5 752,-887.5 746,-893.5 740,-893.5 740,-893.5 645,-893.5 645,-893.5 639,-893.5 633,-887.5 633,-881.5 633,-881.5 633,-772.5 633,-772.5 633,-766.5 639,-760.5 645,-760.5"/>
<text text-anchor="middle" x="692.5" y="-881.5" font-family="DejaVu Sans Mono" font-size="10.00">RAW</text>
<polyline fill="none" stroke="black" points="633,-874.5 752,-874.5 "/>
<text text-anchor="start" x="641" y="-862.5" font-family="DejaVu Sans Mono" font-size="10.00">+list</text>
<polyline fill="none" stroke="black" points="633,-855.5 752,-855.5 "/>
<text text-anchor="start" x="641" y="-843.5" font-family="DejaVu Sans Mono" font-size="10.00">+SOCK_RAW</text>
<polyline fill="none" stroke="black" points="633,-836.5 752,-836.5 "/>
<text text-anchor="start" x="641" y="-824.5" font-family="DejaVu Sans Mono" font-size="10.00">+IPPROTO_IP</text>
<polyline fill="none" stroke="black" points="633,-817.5 752,-817.5 "/>
<text text-anchor="start" x="641" y="-805.5" font-family="DejaVu Sans Mono" font-size="10.00">+raw_prot</text>
<polyline fill="none" stroke="black" points="633,-798.5 752,-798.5 "/>
<text text-anchor="start" x="641" y="-786.5" font-family="DejaVu Sans Mono" font-size="10.00">+inet_sockraw_ops</text>
<polyline fill="none" stroke="black" points="633,-779.5 752,-779.5 "/>
<text text-anchor="middle" x="692.5" y="-767.5" font-family="DejaVu Sans Mono" font-size="10.00">...</text>
</g>
<!-- sctp_seq_sw -->
<g id="node5" class="node">
<title>sctp_seq_sw</title>
<path fill="none" stroke="black" d="M639,-608.5C639,-608.5 746,-608.5 746,-608.5 752,-608.5 758,-614.5 758,-620.5 758,-620.5 758,-729.5 758,-729.5 758,-735.5 752,-741.5 746,-741.5 746,-741.5 639,-741.5 639,-741.5 633,-741.5 627,-735.5 627,-729.5 627,-729.5 627,-620.5 627,-620.5 627,-614.5 633,-608.5 639,-608.5"/>
<text text-anchor="middle" x="692.5" y="-729.5" font-family="DejaVu Sans Mono" font-size="10.00">SCTP</text>
<polyline fill="none" stroke="black" points="627,-722.5 758,-722.5 "/>
<text text-anchor="start" x="635" y="-710.5" font-family="DejaVu Sans Mono" font-size="10.00">+list</text>
<polyline fill="none" stroke="black" points="627,-703.5 758,-703.5 "/>
<text text-anchor="start" x="635" y="-691.5" font-family="DejaVu Sans Mono" font-size="10.00">+SOCK_SEQPACKET</text>
<polyline fill="none" stroke="black" points="627,-684.5 758,-684.5 "/>
<text text-anchor="start" x="635" y="-672.5" font-family="DejaVu Sans Mono" font-size="10.00">+IPPROTO_SCTP</text>
<polyline fill="none" stroke="black" points="627,-665.5 758,-665.5 "/>
<text text-anchor="start" x="635" y="-653.5" font-family="DejaVu Sans Mono" font-size="10.00">+sctp_prot</text>
<polyline fill="none" stroke="black" points="627,-646.5 758,-646.5 "/>
<text text-anchor="start" x="635" y="-634.5" font-family="DejaVu Sans Mono" font-size="10.00">+inet_seqpacket_ops</text>
<polyline fill="none" stroke="black" points="627,-627.5 758,-627.5 "/>
<text text-anchor="middle" x="692.5" y="-615.5" font-family="DejaVu Sans Mono" font-size="10.00">...</text>
</g>
<!-- inetsw -->
<g id="node7" class="node">
<title>inetsw</title>
<path fill="none" stroke="black" d="M499,-741.5C499,-741.5 576,-741.5 576,-741.5 582,-741.5 588,-747.5 588,-753.5 588,-753.5 588,-892.5 588,-892.5 588,-898.5 582,-904.5 576,-904.5 576,-904.5 499,-904.5 499,-904.5 493,-904.5 487,-898.5 487,-892.5 487,-892.5 487,-753.5 487,-753.5 487,-747.5 493,-741.5 499,-741.5"/>
<text text-anchor="middle" x="537.5" y="-892.5" font-family="DejaVu Sans Mono" font-size="10.00">socket类型</text>
<text text-anchor="middle" x="537.5" y="-881.5" font-family="DejaVu Sans Mono" font-size="10.00">inetsw</text>
<polyline fill="none" stroke="black" points="487,-874.5 588,-874.5 "/>
<text text-anchor="start" x="495" y="-862.5" font-family="DejaVu Sans Mono" font-size="10.00">SOCK_STREAM</text>
<polyline fill="none" stroke="black" points="487,-855.5 588,-855.5 "/>
<text text-anchor="middle" x="537.5" y="-843.5" font-family="DejaVu Sans Mono" font-size="10.00">SOCK_DGRAM</text>
<polyline fill="none" stroke="black" points="487,-836.5 588,-836.5 "/>
<text text-anchor="middle" x="537.5" y="-824.5" font-family="DejaVu Sans Mono" font-size="10.00">SOCK_RAW</text>
<polyline fill="none" stroke="black" points="487,-817.5 588,-817.5 "/>
<text text-anchor="middle" x="537.5" y="-805.5" font-family="DejaVu Sans Mono" font-size="10.00">SOCK_RDM</text>
<polyline fill="none" stroke="black" points="487,-798.5 588,-798.5 "/>
<text text-anchor="middle" x="537.5" y="-786.5" font-family="DejaVu Sans Mono" font-size="10.00">SOCK_SEQPACKET</text>
<polyline fill="none" stroke="black" points="487,-779.5 588,-779.5 "/>
<text text-anchor="middle" x="537.5" y="-767.5" font-family="DejaVu Sans Mono" font-size="10.00">SOCK_DCCP</text>
<polyline fill="none" stroke="black" points="487,-760.5 588,-760.5 "/>
<text text-anchor="middle" x="537.5" y="-748.5" font-family="DejaVu Sans Mono" font-size="10.00">SOCK_PACKET</text>
</g>
<!-- inetsw&#45;&gt;tcp_sw -->
<g id="edge1" class="edge">
<title>inetsw:stream&#45;&gt;tcp_sw:list</title>
<path fill="none" stroke="black" d="M588,-865C652.6,-865 575.55,-1136.66 624.66,-1166.37"/>
<polygon fill="black" stroke="black" points="623.94,-1169.8 634.5,-1169 625.74,-1163.04 623.94,-1169.8"/>
</g>
<!-- inetsw&#45;&gt;udp_sw -->
<g id="edge3" class="edge">
<title>inetsw:dgram&#45;&gt;udp_sw:list</title>
<path fill="none" stroke="black" d="M588,-846C663.26,-846 568.55,-1000.71 627.21,-1015.82"/>
<polygon fill="black" stroke="black" points="627.17,-1019.33 637.5,-1017 627.97,-1012.38 627.17,-1019.33"/>
</g>
<!-- inetsw&#45;&gt;raw_sw -->
<g id="edge5" class="edge">
<title>inetsw:raw&#45;&gt;raw_sw</title>
<path fill="none" stroke="black" d="M588,-827C599.26,-827 611.2,-827 622.83,-827"/>
<polygon fill="black" stroke="black" points="622.93,-830.5 632.93,-827 622.93,-823.5 622.93,-830.5"/>
</g>
<!-- inetsw&#45;&gt;sctp_seq_sw -->
<g id="edge6" class="edge">
<title>inetsw:seq&#45;&gt;sctp_seq_sw</title>
<path fill="none" stroke="black" d="M588,-789C588.85,-789 605.45,-770.91 625.11,-749.15"/>
<polygon fill="black" stroke="black" points="627.78,-751.41 631.88,-741.64 622.58,-746.73 627.78,-751.41"/>
</g>
<!-- tcp6_sw -->
<g id="node8" class="node">
<title>tcp6_sw</title>
<path fill="none" stroke="black" d="M645,-456.5C645,-456.5 740,-456.5 740,-456.5 746,-456.5 752,-462.5 752,-468.5 752,-468.5 752,-577.5 752,-577.5 752,-583.5 746,-589.5 740,-589.5 740,-589.5 645,-589.5 645,-589.5 639,-589.5 633,-583.5 633,-577.5 633,-577.5 633,-468.5 633,-468.5 633,-462.5 639,-456.5 645,-456.5"/>
<text text-anchor="middle" x="692.5" y="-577.5" font-family="DejaVu Sans Mono" font-size="10.00">TCPv6</text>
<polyline fill="none" stroke="black" points="633,-570.5 752,-570.5 "/>
<text text-anchor="start" x="641" y="-558.5" font-family="DejaVu Sans Mono" font-size="10.00">+list</text>
<polyline fill="none" stroke="black" points="633,-551.5 752,-551.5 "/>
<text text-anchor="start" x="641" y="-539.5" font-family="DejaVu Sans Mono" font-size="10.00">+SOCK_STREAM</text>
<polyline fill="none" stroke="black" points="633,-532.5 752,-532.5 "/>
<text text-anchor="start" x="641" y="-520.5" font-family="DejaVu Sans Mono" font-size="10.00">+IPPROTO_TCP</text>
<polyline fill="none" stroke="black" points="633,-513.5 752,-513.5 "/>
<text text-anchor="start" x="641" y="-501.5" font-family="DejaVu Sans Mono" font-size="10.00">+tcpv6_prot</text>
<polyline fill="none" stroke="black" points="633,-494.5 752,-494.5 "/>
<text text-anchor="start" x="641" y="-482.5" font-family="DejaVu Sans Mono" font-size="10.00">+inet6_stream_ops</text>
<polyline fill="none" stroke="black" points="633,-475.5 752,-475.5 "/>
<text text-anchor="middle" x="692.5" y="-463.5" font-family="DejaVu Sans Mono" font-size="10.00">...</text>
</g>
<!-- sctp6_stream_sw -->
<g id="node13" class="node">
<title>sctp6_stream_sw</title>
<path fill="none" stroke="black" d="M809,-456.5C809,-456.5 922,-456.5 922,-456.5 928,-456.5 934,-462.5 934,-468.5 934,-468.5 934,-577.5 934,-577.5 934,-583.5 928,-589.5 922,-589.5 922,-589.5 809,-589.5 809,-589.5 803,-589.5 797,-583.5 797,-577.5 797,-577.5 797,-468.5 797,-468.5 797,-462.5 803,-456.5 809,-456.5"/>
<text text-anchor="middle" x="865.5" y="-577.5" font-family="DejaVu Sans Mono" font-size="10.00">SCTPv6</text>
<polyline fill="none" stroke="black" points="797,-570.5 934,-570.5 "/>
<text text-anchor="start" x="805" y="-558.5" font-family="DejaVu Sans Mono" font-size="10.00">+list</text>
<polyline fill="none" stroke="black" points="797,-551.5 934,-551.5 "/>
<text text-anchor="start" x="805" y="-539.5" font-family="DejaVu Sans Mono" font-size="10.00">+SOCK_STREAM</text>
<polyline fill="none" stroke="black" points="797,-532.5 934,-532.5 "/>
<text text-anchor="start" x="805" y="-520.5" font-family="DejaVu Sans Mono" font-size="10.00">+IPPROTO_SCTP</text>
<polyline fill="none" stroke="black" points="797,-513.5 934,-513.5 "/>
<text text-anchor="start" x="805" y="-501.5" font-family="DejaVu Sans Mono" font-size="10.00">+sctpv6_prot</text>
<polyline fill="none" stroke="black" points="797,-494.5 934,-494.5 "/>
<text text-anchor="start" x="805" y="-482.5" font-family="DejaVu Sans Mono" font-size="10.00">+inet6_seqpacket_ops</text>
<polyline fill="none" stroke="black" points="797,-475.5 934,-475.5 "/>
<text text-anchor="middle" x="865.5" y="-463.5" font-family="DejaVu Sans Mono" font-size="10.00">...</text>
</g>
<!-- tcp6_sw&#45;&gt;sctp6_stream_sw -->
<g id="edge8" class="edge">
<title>tcp6_sw:list&#45;&gt;sctp6_stream_sw:list</title>
<path fill="none" stroke="black" d="M753.5,-561C768.91,-561 775.1,-561 786.77,-561"/>
<polygon fill="black" stroke="black" points="787,-564.5 797,-561 787,-557.5 787,-564.5"/>
</g>
<!-- udp6_sw -->
<g id="node9" class="node">
<title>udp6_sw</title>
<path fill="none" stroke="black" d="M648,-304.5C648,-304.5 737,-304.5 737,-304.5 743,-304.5 749,-310.5 749,-316.5 749,-316.5 749,-425.5 749,-425.5 749,-431.5 743,-437.5 737,-437.5 737,-437.5 648,-437.5 648,-437.5 642,-437.5 636,-431.5 636,-425.5 636,-425.5 636,-316.5 636,-316.5 636,-310.5 642,-304.5 648,-304.5"/>
<text text-anchor="middle" x="692.5" y="-425.5" font-family="DejaVu Sans Mono" font-size="10.00">UDPv6</text>
<polyline fill="none" stroke="black" points="636,-418.5 749,-418.5 "/>
<text text-anchor="start" x="644" y="-406.5" font-family="DejaVu Sans Mono" font-size="10.00">+list</text>
<polyline fill="none" stroke="black" points="636,-399.5 749,-399.5 "/>
<text text-anchor="start" x="644" y="-387.5" font-family="DejaVu Sans Mono" font-size="10.00">+SOCK_DGRAM</text>
<polyline fill="none" stroke="black" points="636,-380.5 749,-380.5 "/>
<text text-anchor="start" x="644" y="-368.5" font-family="DejaVu Sans Mono" font-size="10.00">+IPPROTO_UDP</text>
<polyline fill="none" stroke="black" points="636,-361.5 749,-361.5 "/>
<text text-anchor="start" x="644" y="-349.5" font-family="DejaVu Sans Mono" font-size="10.00">+udpv6_prot</text>
<polyline fill="none" stroke="black" points="636,-342.5 749,-342.5 "/>
<text text-anchor="start" x="644" y="-330.5" font-family="DejaVu Sans Mono" font-size="10.00">+inet6_dgram_ops</text>
<polyline fill="none" stroke="black" points="636,-323.5 749,-323.5 "/>
<text text-anchor="middle" x="692.5" y="-311.5" font-family="DejaVu Sans Mono" font-size="10.00">...</text>
</g>
<!-- udpl6_sw -->
<g id="node10" class="node">
<title>udpl6_sw</title>
<path fill="none" stroke="black" d="M821,-304.5C821,-304.5 910,-304.5 910,-304.5 916,-304.5 922,-310.5 922,-316.5 922,-316.5 922,-425.5 922,-425.5 922,-431.5 916,-437.5 910,-437.5 910,-437.5 821,-437.5 821,-437.5 815,-437.5 809,-431.5 809,-425.5 809,-425.5 809,-316.5 809,-316.5 809,-310.5 815,-304.5 821,-304.5"/>
<text text-anchor="middle" x="865.5" y="-425.5" font-family="DejaVu Sans Mono" font-size="10.00">UDP LITE 6</text>
<polyline fill="none" stroke="black" points="809,-418.5 922,-418.5 "/>
<text text-anchor="start" x="817" y="-406.5" font-family="DejaVu Sans Mono" font-size="10.00">+list</text>
<polyline fill="none" stroke="black" points="809,-399.5 922,-399.5 "/>
<text text-anchor="start" x="817" y="-387.5" font-family="DejaVu Sans Mono" font-size="10.00">+SOCK_DGRAM</text>
<polyline fill="none" stroke="black" points="809,-380.5 922,-380.5 "/>
<text text-anchor="start" x="817" y="-368.5" font-family="DejaVu Sans Mono" font-size="10.00">+IPPROTO_UDPLITE</text>
<polyline fill="none" stroke="black" points="809,-361.5 922,-361.5 "/>
<text text-anchor="start" x="817" y="-349.5" font-family="DejaVu Sans Mono" font-size="10.00">+udplitev6_prot</text>
<polyline fill="none" stroke="black" points="809,-342.5 922,-342.5 "/>
<text text-anchor="start" x="817" y="-330.5" font-family="DejaVu Sans Mono" font-size="10.00">+inet6_dgram_ops</text>
<polyline fill="none" stroke="black" points="809,-323.5 922,-323.5 "/>
<text text-anchor="middle" x="865.5" y="-311.5" font-family="DejaVu Sans Mono" font-size="10.00">...</text>
</g>
<!-- udp6_sw&#45;&gt;udpl6_sw -->
<g id="edge10" class="edge">
<title>udp6_sw:list&#45;&gt;udpl6_sw:list</title>
<path fill="none" stroke="black" d="M750.5,-409C772.07,-409 779.87,-409 797.35,-409"/>
<polygon fill="black" stroke="black" points="797.5,-412.5 807.5,-409 797.5,-405.5 797.5,-412.5"/>
</g>
<!-- raw6_sw -->
<g id="node11" class="node">
<title>raw6_sw</title>
<path fill="none" stroke="black" d="M642,-152.5C642,-152.5 743,-152.5 743,-152.5 749,-152.5 755,-158.5 755,-164.5 755,-164.5 755,-273.5 755,-273.5 755,-279.5 749,-285.5 743,-285.5 743,-285.5 642,-285.5 642,-285.5 636,-285.5 630,-279.5 630,-273.5 630,-273.5 630,-164.5 630,-164.5 630,-158.5 636,-152.5 642,-152.5"/>
<text text-anchor="middle" x="692.5" y="-273.5" font-family="DejaVu Sans Mono" font-size="10.00">RAWv6</text>
<polyline fill="none" stroke="black" points="630,-266.5 755,-266.5 "/>
<text text-anchor="start" x="638" y="-254.5" font-family="DejaVu Sans Mono" font-size="10.00">+list</text>
<polyline fill="none" stroke="black" points="630,-247.5 755,-247.5 "/>
<text text-anchor="start" x="638" y="-235.5" font-family="DejaVu Sans Mono" font-size="10.00">+SOCK_RAW</text>
<polyline fill="none" stroke="black" points="630,-228.5 755,-228.5 "/>
<text text-anchor="start" x="638" y="-216.5" font-family="DejaVu Sans Mono" font-size="10.00">+IPPROTO_IP</text>
<polyline fill="none" stroke="black" points="630,-209.5 755,-209.5 "/>
<text text-anchor="start" x="638" y="-197.5" font-family="DejaVu Sans Mono" font-size="10.00">+rawv6_prot</text>
<polyline fill="none" stroke="black" points="630,-190.5 755,-190.5 "/>
<text text-anchor="start" x="638" y="-178.5" font-family="DejaVu Sans Mono" font-size="10.00">+inet6_sockraw_ops</text>
<polyline fill="none" stroke="black" points="630,-171.5 755,-171.5 "/>
<text text-anchor="middle" x="692.5" y="-159.5" font-family="DejaVu Sans Mono" font-size="10.00">...</text>
</g>
<!-- sctp6_seq_sw -->
<g id="node12" class="node">
<title>sctp6_seq_sw</title>
<path fill="none" stroke="black" d="M636,-0.5C636,-0.5 749,-0.5 749,-0.5 755,-0.5 761,-6.5 761,-12.5 761,-12.5 761,-121.5 761,-121.5 761,-127.5 755,-133.5 749,-133.5 749,-133.5 636,-133.5 636,-133.5 630,-133.5 624,-127.5 624,-121.5 624,-121.5 624,-12.5 624,-12.5 624,-6.5 630,-0.5 636,-0.5"/>
<text text-anchor="middle" x="692.5" y="-121.5" font-family="DejaVu Sans Mono" font-size="10.00">SCTPv6</text>
<polyline fill="none" stroke="black" points="624,-114.5 761,-114.5 "/>
<text text-anchor="start" x="632" y="-102.5" font-family="DejaVu Sans Mono" font-size="10.00">+list</text>
<polyline fill="none" stroke="black" points="624,-95.5 761,-95.5 "/>
<text text-anchor="start" x="632" y="-83.5" font-family="DejaVu Sans Mono" font-size="10.00">+SOCK_SEQPACKET</text>
<polyline fill="none" stroke="black" points="624,-76.5 761,-76.5 "/>
<text text-anchor="start" x="632" y="-64.5" font-family="DejaVu Sans Mono" font-size="10.00">+IPPROTO_SCTP</text>
<polyline fill="none" stroke="black" points="624,-57.5 761,-57.5 "/>
<text text-anchor="start" x="632" y="-45.5" font-family="DejaVu Sans Mono" font-size="10.00">+sctpv6_prot</text>
<polyline fill="none" stroke="black" points="624,-38.5 761,-38.5 "/>
<text text-anchor="start" x="632" y="-26.5" font-family="DejaVu Sans Mono" font-size="10.00">+inet6_seqpacket_ops</text>
<polyline fill="none" stroke="black" points="624,-19.5 761,-19.5 "/>
<text text-anchor="middle" x="692.5" y="-7.5" font-family="DejaVu Sans Mono" font-size="10.00">...</text>
</g>
<!-- inet6sw -->
<g id="node14" class="node">
<title>inet6sw</title>
<path fill="none" stroke="black" d="M499,-304.5C499,-304.5 576,-304.5 576,-304.5 582,-304.5 588,-310.5 588,-316.5 588,-316.5 588,-455.5 588,-455.5 588,-461.5 582,-467.5 576,-467.5 576,-467.5 499,-467.5 499,-467.5 493,-467.5 487,-461.5 487,-455.5 487,-455.5 487,-316.5 487,-316.5 487,-310.5 493,-304.5 499,-304.5"/>
<text text-anchor="middle" x="537.5" y="-455.5" font-family="DejaVu Sans Mono" font-size="10.00">socket类型</text>
<text text-anchor="middle" x="537.5" y="-444.5" font-family="DejaVu Sans Mono" font-size="10.00">inet6sw</text>
<polyline fill="none" stroke="black" points="487,-437.5 588,-437.5 "/>
<text text-anchor="start" x="495" y="-425.5" font-family="DejaVu Sans Mono" font-size="10.00">SOCK_STREAM</text>
<polyline fill="none" stroke="black" points="487,-418.5 588,-418.5 "/>
<text text-anchor="middle" x="537.5" y="-406.5" font-family="DejaVu Sans Mono" font-size="10.00">SOCK_DGRAM</text>
<polyline fill="none" stroke="black" points="487,-399.5 588,-399.5 "/>
<text text-anchor="middle" x="537.5" y="-387.5" font-family="DejaVu Sans Mono" font-size="10.00">SOCK_RAW</text>
<polyline fill="none" stroke="black" points="487,-380.5 588,-380.5 "/>
<text text-anchor="middle" x="537.5" y="-368.5" font-family="DejaVu Sans Mono" font-size="10.00">SOCK_RDM</text>
<polyline fill="none" stroke="black" points="487,-361.5 588,-361.5 "/>
<text text-anchor="middle" x="537.5" y="-349.5" font-family="DejaVu Sans Mono" font-size="10.00">SOCK_SEQPACKET</text>
<polyline fill="none" stroke="black" points="487,-342.5 588,-342.5 "/>
<text text-anchor="middle" x="537.5" y="-330.5" font-family="DejaVu Sans Mono" font-size="10.00">SOCK_DCCP</text>
<polyline fill="none" stroke="black" points="487,-323.5 588,-323.5 "/>
<text text-anchor="middle" x="537.5" y="-311.5" font-family="DejaVu Sans Mono" font-size="10.00">SOCK_PACKET</text>
</g>
<!-- inet6sw&#45;&gt;tcp6_sw -->
<g id="edge7" class="edge">
<title>inet6sw:stream&#45;&gt;tcp6_sw:list</title>
<path fill="none" stroke="black" d="M588,-428C646.31,-428 578.86,-544.89 621.45,-559.51"/>
<polygon fill="black" stroke="black" points="621.09,-562.99 631.5,-561 622.12,-556.07 621.09,-562.99"/>
</g>
<!-- inet6sw&#45;&gt;udp6_sw -->
<g id="edge9" class="edge">
<title>inet6sw:dgram&#45;&gt;udp6_sw:list</title>
<path fill="none" stroke="black" d="M588,-409C604.79,-409 611.35,-409 624.31,-409"/>
<polygon fill="black" stroke="black" points="624.5,-412.5 634.5,-409 624.5,-405.5 624.5,-412.5"/>
</g>
<!-- inet6sw&#45;&gt;raw6_sw -->
<g id="edge11" class="edge">
<title>inet6sw:raw&#45;&gt;raw6_sw</title>
<path fill="none" stroke="black" d="M588,-390C633.15,-390 600.62,-333.63 624,-295 624.18,-294.7 624.36,-294.41 624.54,-294.11"/>
<polygon fill="black" stroke="black" points="627.6,-295.82 630.14,-285.53 621.74,-292 627.6,-295.82"/>
</g>
<!-- inet6sw&#45;&gt;sctp6_seq_sw -->
<g id="edge12" class="edge">
<title>inet6sw:seq&#45;&gt;sctp6_seq_sw</title>
<path fill="none" stroke="black" d="M588,-352C635.13,-352 603.57,-185.47 624,-143 624.1,-142.8 624.19,-142.6 624.29,-142.4"/>
<polygon fill="black" stroke="black" points="627.39,-144.03 629.07,-133.57 621.23,-140.7 627.39,-144.03"/>
</g>
<!-- npf_tb -->
<g id="node15" class="node">
<title>npf_tb</title>
<path fill="none" stroke="black" d="M159,-482C159,-482 278,-482 278,-482 284,-482 290,-488 290,-494 290,-494 290,-656 290,-656 290,-662 284,-668 278,-668 278,-668 159,-668 159,-668 153,-668 147,-662 147,-656 147,-656 147,-494 147,-494 147,-488 153,-482 159,-482"/>
<text text-anchor="middle" x="218.5" y="-656" font-family="DejaVu Sans Mono" font-size="10.00">struct</text>
<text text-anchor="middle" x="218.5" y="-645" font-family="DejaVu Sans Mono" font-size="10.00">net_proto_family</text>
<text text-anchor="middle" x="218.5" y="-622" font-family="DejaVu Sans Mono" font-size="10.00">*net_families[NPROTO]</text>
<polyline fill="none" stroke="black" points="147,-615 290,-615 "/>
<text text-anchor="middle" x="218.5" y="-603" font-family="DejaVu Sans Mono" font-size="10.00"> </text>
<polyline fill="none" stroke="black" points="147,-596 290,-596 "/>
<text text-anchor="middle" x="218.5" y="-584" font-family="DejaVu Sans Mono" font-size="10.00">...</text>
<polyline fill="none" stroke="black" points="147,-577 290,-577 "/>
<text text-anchor="middle" x="218.5" y="-565" font-family="DejaVu Sans Mono" font-size="10.00"> </text>
<polyline fill="none" stroke="black" points="147,-558 290,-558 "/>
<text text-anchor="middle" x="218.5" y="-546" font-family="DejaVu Sans Mono" font-size="10.00"> </text>
<polyline fill="none" stroke="black" points="147,-539 290,-539 "/>
<text text-anchor="middle" x="218.5" y="-527" font-family="DejaVu Sans Mono" font-size="10.00"> </text>
<polyline fill="none" stroke="black" points="147,-520 290,-520 "/>
<text text-anchor="middle" x="218.5" y="-508" font-family="DejaVu Sans Mono" font-size="10.00"> </text>
<polyline fill="none" stroke="black" points="147,-501 290,-501 "/>
<text text-anchor="middle" x="218.5" y="-489" font-family="DejaVu Sans Mono" font-size="10.00">...</text>
</g>
<!-- ifo -->
<g id="node16" class="node">
<title>ifo</title>
<path fill="none" stroke="black" d="M347,-804.5C347,-804.5 430,-804.5 430,-804.5 436,-804.5 442,-810.5 442,-816.5 442,-816.5 442,-849.5 442,-849.5 442,-855.5 436,-861.5 430,-861.5 430,-861.5 347,-861.5 347,-861.5 341,-861.5 335,-855.5 335,-849.5 335,-849.5 335,-816.5 335,-816.5 335,-810.5 341,-804.5 347,-804.5"/>
<text text-anchor="middle" x="388.5" y="-849.5" font-family="DejaVu Sans Mono" font-size="10.00">inet_family_ops</text>
<polyline fill="none" stroke="black" points="335,-842.5 442,-842.5 "/>
<text text-anchor="start" x="343" y="-830.5" font-family="DejaVu Sans Mono" font-size="10.00">+PF_INET</text>
<polyline fill="none" stroke="black" points="335,-823.5 442,-823.5 "/>
<text text-anchor="start" x="343" y="-811.5" font-family="DejaVu Sans Mono" font-size="10.00">+inet_creaet</text>
</g>
<!-- npf_tb&#45;&gt;ifo -->
<g id="edge13" class="edge">
<title>npf_tb:ifo&#45;&gt;ifo</title>
<path fill="none" stroke="crimson" d="M290,-567C313.93,-567 357.82,-720.7 377.49,-794.43"/>
<polygon fill="crimson" stroke="crimson" points="374.16,-795.51 380.1,-804.28 380.92,-793.72 374.16,-795.51"/>
</g>
<!-- i6fo -->
<g id="node17" class="node">
<title>i6fo</title>
<path fill="none" stroke="black" d="M344,-548.5C344,-548.5 433,-548.5 433,-548.5 439,-548.5 445,-554.5 445,-560.5 445,-560.5 445,-593.5 445,-593.5 445,-599.5 439,-605.5 433,-605.5 433,-605.5 344,-605.5 344,-605.5 338,-605.5 332,-599.5 332,-593.5 332,-593.5 332,-560.5 332,-560.5 332,-554.5 338,-548.5 344,-548.5"/>
<text text-anchor="middle" x="388.5" y="-593.5" font-family="DejaVu Sans Mono" font-size="10.00">inet6_family_ops</text>
<polyline fill="none" stroke="black" points="332,-586.5 445,-586.5 "/>
<text text-anchor="start" x="340" y="-574.5" font-family="DejaVu Sans Mono" font-size="10.00">+PF_INET6</text>
<polyline fill="none" stroke="black" points="332,-567.5 445,-567.5 "/>
<text text-anchor="start" x="340" y="-555.5" font-family="DejaVu Sans Mono" font-size="10.00">+inet6_creaet</text>
</g>
<!-- npf_tb&#45;&gt;i6fo -->
<g id="edge14" class="edge">
<title>npf_tb:i6fo&#45;&gt;i6fo</title>
<path fill="none" stroke="#9a32cd" d="M290,-548C300.51,-548 311.39,-549.57 321.92,-551.97"/>
<polygon fill="#9a32cd" stroke="#9a32cd" points="321.32,-555.43 331.87,-554.51 323.05,-548.65 321.32,-555.43"/>
</g>
<!-- nlfo -->
<g id="node18" class="node">
<title>nlfo</title>
<path fill="none" stroke="black" d="M338,-472.5C338,-472.5 439,-472.5 439,-472.5 445,-472.5 451,-478.5 451,-484.5 451,-484.5 451,-517.5 451,-517.5 451,-523.5 445,-529.5 439,-529.5 439,-529.5 338,-529.5 338,-529.5 332,-529.5 326,-523.5 326,-517.5 326,-517.5 326,-484.5 326,-484.5 326,-478.5 332,-472.5 338,-472.5"/>
<text text-anchor="middle" x="388.5" y="-517.5" font-family="DejaVu Sans Mono" font-size="10.00">netlink_family_ops</text>
<polyline fill="none" stroke="black" points="326,-510.5 451,-510.5 "/>
<text text-anchor="start" x="334" y="-498.5" font-family="DejaVu Sans Mono" font-size="10.00">+PF_NETLINK</text>
<polyline fill="none" stroke="black" points="326,-491.5 451,-491.5 "/>
<text text-anchor="start" x="334" y="-479.5" font-family="DejaVu Sans Mono" font-size="10.00">+netlink_create</text>
</g>
<!-- npf_tb&#45;&gt;nlfo -->
<g id="edge15" class="edge">
<title>npf_tb:nlfo&#45;&gt;nlfo</title>
<path fill="none" stroke="forestgreen" d="M290,-529C298.48,-529 307.22,-528.01 315.82,-526.4"/>
<polygon fill="forestgreen" stroke="forestgreen" points="316.79,-529.77 325.83,-524.25 315.32,-522.93 316.79,-529.77"/>
</g>
<!-- ufo -->
<g id="node19" class="node">
<title>ufo</title>
<path fill="none" stroke="black" d="M347,-396.5C347,-396.5 430,-396.5 430,-396.5 436,-396.5 442,-402.5 442,-408.5 442,-408.5 442,-441.5 442,-441.5 442,-447.5 436,-453.5 430,-453.5 430,-453.5 347,-453.5 347,-453.5 341,-453.5 335,-447.5 335,-441.5 335,-441.5 335,-408.5 335,-408.5 335,-402.5 341,-396.5 347,-396.5"/>
<text text-anchor="middle" x="388.5" y="-441.5" font-family="DejaVu Sans Mono" font-size="10.00">unix_family_ops</text>
<polyline fill="none" stroke="black" points="335,-434.5 442,-434.5 "/>
<text text-anchor="start" x="343" y="-422.5" font-family="DejaVu Sans Mono" font-size="10.00">+PF_UNIX</text>
<polyline fill="none" stroke="black" points="335,-415.5 442,-415.5 "/>
<text text-anchor="start" x="343" y="-403.5" font-family="DejaVu Sans Mono" font-size="10.00">+unix_create </text>
</g>
<!-- npf_tb&#45;&gt;ufo -->
<g id="edge16" class="edge">
<title>npf_tb:ufo&#45;&gt;ufo</title>
<path fill="none" stroke="#383838" d="M290,-510C316.31,-510 306.49,-480.65 326,-463 327.13,-461.97 328.3,-460.96 329.49,-459.96"/>
<polygon fill="#383838" stroke="#383838" points="331.96,-462.47 337.67,-453.55 327.64,-456.96 331.96,-462.47"/>
</g>
<!-- ifo&#45;&gt;inetsw -->
<g id="edge17" class="edge">
<title>ifo:creat&#45;&gt;inetsw:nw</title>
<path fill="none" stroke="black" d="M443.5,-814C483.07,-814 461.97,-909.63 478.29,-910.23"/>
<polygon fill="black" stroke="black" points="480.23,-913.15 487,-905 476.63,-907.15 480.23,-913.15"/>
</g>
<!-- i6fo&#45;&gt;inet6sw -->
<g id="edge18" class="edge">
<title>i6fo:creat&#45;&gt;inet6sw:nw</title>
<path fill="none" stroke="black" d="M446.5,-558C486.77,-558 461.1,-508.3 480.61,-476.15"/>
<polygon fill="black" stroke="black" points="483.58,-478.03 487,-468 478.07,-473.71 483.58,-478.03"/>
</g>
<!-- proto_family -->
<g id="node20" class="node">
<title>proto_family</title>
<path fill="none" stroke="black" d="M12,-472.5C12,-472.5 99,-472.5 99,-472.5 105,-472.5 111,-478.5 111,-484.5 111,-484.5 111,-631.5 111,-631.5 111,-637.5 105,-643.5 99,-643.5 99,-643.5 12,-643.5 12,-643.5 6,-643.5 0,-637.5 0,-631.5 0,-631.5 0,-484.5 0,-484.5 0,-478.5 6,-472.5 12,-472.5"/>
<text text-anchor="middle" x="55.5" y="-631.5" font-family="DejaVu Sans Mono" font-size="10.00">socket指定的协议族</text>
<polyline fill="none" stroke="black" points="0,-624.5 111,-624.5 "/>
<text text-anchor="start" x="8" y="-612.5" font-family="DejaVu Sans Mono" font-size="10.00">AF_UNIX</text>
<polyline fill="none" stroke="black" points="0,-605.5 111,-605.5 "/>
<text text-anchor="start" x="8" y="-593.5" font-family="DejaVu Sans Mono" font-size="10.00">AF_LOCAL</text>
<polyline fill="none" stroke="black" points="0,-586.5 111,-586.5 "/>
<text text-anchor="start" x="8" y="-574.5" font-family="DejaVu Sans Mono" font-size="10.00">AF_INET</text>
<polyline fill="none" stroke="black" points="0,-567.5 111,-567.5 "/>
<text text-anchor="middle" x="55.5" y="-555.5" font-family="DejaVu Sans Mono" font-size="10.00">...</text>
<polyline fill="none" stroke="black" points="0,-548.5 111,-548.5 "/>
<text text-anchor="start" x="8" y="-536.5" font-family="DejaVu Sans Mono" font-size="10.00">AF_INET6</text>
<polyline fill="none" stroke="black" points="0,-529.5 111,-529.5 "/>
<text text-anchor="middle" x="55.5" y="-517.5" font-family="DejaVu Sans Mono" font-size="10.00">...</text>
<polyline fill="none" stroke="black" points="0,-510.5 111,-510.5 "/>
<text text-anchor="start" x="8" y="-498.5" font-family="DejaVu Sans Mono" font-size="10.00">AF_NETLINK</text>
<polyline fill="none" stroke="black" points="0,-491.5 111,-491.5 "/>
<text text-anchor="middle" x="55.5" y="-479.5" font-family="DejaVu Sans Mono" font-size="10.00">...</text>
</g>
<!-- proto_family&#45;&gt;npf_tb -->
<g id="edge19" class="edge">
<title>proto_family:ai&#45;&gt;npf_tb:ifo</title>
<path fill="none" stroke="crimson" d="M111,-577C123.58,-577 128.23,-571.26 136.97,-568.48"/>
<polygon fill="crimson" stroke="crimson" points="137.62,-571.92 147,-567 136.6,-564.99 137.62,-571.92"/>
</g>
<!-- proto_family&#45;&gt;npf_tb -->
<g id="edge20" class="edge">
<title>proto_family:ai6&#45;&gt;npf_tb:i6fo</title>
<path fill="none" stroke="#9a32cd" d="M111,-539C123.5,-539 128.26,-544.17 137.01,-546.67"/>
<polygon fill="#9a32cd" stroke="#9a32cd" points="136.63,-550.15 147,-548 137.55,-543.21 136.63,-550.15"/>
</g>
<!-- proto_family&#45;&gt;npf_tb -->
<g id="edge21" class="edge">
<title>proto_family:an&#45;&gt;npf_tb:nlfo</title>
<path fill="none" stroke="forestgreen" d="M111,-501C127.15,-501 127.55,-518.78 137.3,-526"/>
<polygon fill="forestgreen" stroke="forestgreen" points="136.41,-529.39 147,-529 138.48,-522.7 136.41,-529.39"/>
</g>
<!-- proto_family&#45;&gt;npf_tb -->
<g id="edge22" class="edge">
<title>proto_family:au&#45;&gt;npf_tb:ufo</title>
<path fill="none" stroke="#383838" d="M111,-615C156.29,-615 107.19,-526.52 137,-512"/>
<polygon fill="#383838" stroke="#383838" points="137.88,-515.4 147,-510 136.51,-508.53 137.88,-515.4"/>
</g>
</g>
</svg>
