<?xml version="1.0" encoding="UTF-8" standalone="no"?>
<!DOCTYPE svg PUBLIC "-//W3C//DTD SVG 1.1//EN"
 "http://www.w3.org/Graphics/SVG/1.1/DTD/svg11.dtd">
<!-- Generated by graphviz version 2.43.0 (0)
 -->
<!-- Title: %3 Pages: 1 -->
<svg width="444pt" height="381pt"
 viewBox="0.00 0.00 444.00 381.00" xmlns="http://www.w3.org/2000/svg" xmlns:xlink="http://www.w3.org/1999/xlink">
<g id="graph0" class="graph" transform="scale(1 1) rotate(0) translate(4 377)">
<title>%3</title>
<polygon fill="white" stroke="transparent" points="-4,4 -4,-377 440,-377 440,4 -4,4"/>
<!-- 通过sock_register函数注册\n\nsock_register(&amp;inet_family_ops); -->
<g id="node1" class="node">
<title>通过sock_register函数注册\n\nsock_register(&amp;inet_family_ops);</title>
<text text-anchor="middle" x="128.5" y="-68.4" font-family="DejaVu Sans Mono" font-size="12.00">通过sock_register函数注册</text>
<text text-anchor="middle" x="128.5" y="-41.4" font-family="DejaVu Sans Mono" font-size="12.00">sock_register(&amp;inet_family_ops);</text>
</g>
<!-- npf_tb -->
<g id="node2" class="node">
<title>npf_tb</title>
<path fill="none" stroke="black" stroke-width="1.5" d="M63,-129.5C63,-129.5 194,-129.5 194,-129.5 200,-129.5 206,-135.5 206,-141.5 206,-141.5 206,-292.5 206,-292.5 206,-298.5 200,-304.5 194,-304.5 194,-304.5 63,-304.5 63,-304.5 57,-304.5 51,-298.5 51,-292.5 51,-292.5 51,-141.5 51,-141.5 51,-135.5 57,-129.5 63,-129.5"/>
<text text-anchor="middle" x="128.5" y="-292.5" font-family="DejaVu Sans Mono" font-size="10.00">struct net_proto_family</text>
<text text-anchor="middle" x="128.5" y="-269.5" font-family="DejaVu Sans Mono" font-size="10.00">*net_families[NPROTO]</text>
<polyline fill="none" stroke="black" stroke-width="1.5" points="51,-262.5 206,-262.5 "/>
<text text-anchor="middle" x="128.5" y="-250.5" font-family="DejaVu Sans Mono" font-size="10.00"> </text>
<polyline fill="none" stroke="black" stroke-width="1.5" points="51,-243.5 206,-243.5 "/>
<text text-anchor="middle" x="128.5" y="-231.5" font-family="DejaVu Sans Mono" font-size="10.00">...</text>
<polyline fill="none" stroke="black" stroke-width="1.5" points="51,-224.5 206,-224.5 "/>
<text text-anchor="middle" x="128.5" y="-212.5" font-family="DejaVu Sans Mono" font-size="10.00"> </text>
<polyline fill="none" stroke="black" stroke-width="1.5" points="51,-205.5 206,-205.5 "/>
<text text-anchor="middle" x="128.5" y="-193.5" font-family="DejaVu Sans Mono" font-size="10.00"> </text>
<polyline fill="none" stroke="black" stroke-width="1.5" points="51,-186.5 206,-186.5 "/>
<text text-anchor="middle" x="128.5" y="-174.5" font-family="DejaVu Sans Mono" font-size="10.00"> </text>
<polyline fill="none" stroke="black" stroke-width="1.5" points="51,-167.5 206,-167.5 "/>
<text text-anchor="middle" x="128.5" y="-155.5" font-family="DejaVu Sans Mono" font-size="10.00"> </text>
<polyline fill="none" stroke="black" stroke-width="1.5" points="51,-148.5 206,-148.5 "/>
<text text-anchor="middle" x="128.5" y="-136.5" font-family="DejaVu Sans Mono" font-size="10.00">...</text>
</g>
<!-- ifo -->
<g id="node3" class="node">
<title>ifo</title>
<path fill="none" stroke="black" stroke-width="1.5" d="M332,-315.5C332,-315.5 415,-315.5 415,-315.5 421,-315.5 427,-321.5 427,-327.5 427,-327.5 427,-360.5 427,-360.5 427,-366.5 421,-372.5 415,-372.5 415,-372.5 332,-372.5 332,-372.5 326,-372.5 320,-366.5 320,-360.5 320,-360.5 320,-327.5 320,-327.5 320,-321.5 326,-315.5 332,-315.5"/>
<text text-anchor="middle" x="373.5" y="-360.5" font-family="DejaVu Sans Mono" font-size="10.00">inet_family_ops</text>
<polyline fill="none" stroke="black" stroke-width="1.5" points="320,-353.5 427,-353.5 "/>
<text text-anchor="start" x="328" y="-341.5" font-family="DejaVu Sans Mono" font-size="10.00">+PF_INET</text>
<polyline fill="none" stroke="black" stroke-width="1.5" points="320,-334.5 427,-334.5 "/>
<text text-anchor="start" x="328" y="-322.5" font-family="DejaVu Sans Mono" font-size="10.00">+inet_creaet</text>
</g>
<!-- npf_tb&#45;&gt;ifo -->
<g id="edge1" class="edge">
<title>npf_tb:ifo&#45;&gt;ifo</title>
<path fill="none" stroke="black" d="M207.5,-215C215.15,-215 284.03,-270.73 330.34,-308.93"/>
<polygon fill="black" stroke="black" points="328.2,-311.7 338.13,-315.37 332.65,-306.3 328.2,-311.7"/>
</g>
<!-- i6fo -->
<g id="node4" class="node">
<title>i6fo</title>
<path fill="none" stroke="black" stroke-width="1.5" d="M329,-210.5C329,-210.5 418,-210.5 418,-210.5 424,-210.5 430,-216.5 430,-222.5 430,-222.5 430,-255.5 430,-255.5 430,-261.5 424,-267.5 418,-267.5 418,-267.5 329,-267.5 329,-267.5 323,-267.5 317,-261.5 317,-255.5 317,-255.5 317,-222.5 317,-222.5 317,-216.5 323,-210.5 329,-210.5"/>
<text text-anchor="middle" x="373.5" y="-255.5" font-family="DejaVu Sans Mono" font-size="10.00">inet6_family_ops</text>
<polyline fill="none" stroke="black" stroke-width="1.5" points="317,-248.5 430,-248.5 "/>
<text text-anchor="start" x="325" y="-236.5" font-family="DejaVu Sans Mono" font-size="10.00">+PF_INET6</text>
<polyline fill="none" stroke="black" stroke-width="1.5" points="317,-229.5 430,-229.5 "/>
<text text-anchor="start" x="325" y="-217.5" font-family="DejaVu Sans Mono" font-size="10.00">+inet6_creaet</text>
</g>
<!-- npf_tb&#45;&gt;i6fo -->
<g id="edge2" class="edge">
<title>npf_tb:i6fo&#45;&gt;i6fo</title>
<path fill="none" stroke="black" d="M207.5,-196C241.01,-196 277.15,-204.41 307.04,-213.79"/>
<polygon fill="black" stroke="black" points="306.33,-217.24 316.92,-217 308.49,-210.58 306.33,-217.24"/>
</g>
<!-- nlfo -->
<g id="node5" class="node">
<title>nlfo</title>
<path fill="none" stroke="black" stroke-width="1.5" d="M323,-105.5C323,-105.5 424,-105.5 424,-105.5 430,-105.5 436,-111.5 436,-117.5 436,-117.5 436,-150.5 436,-150.5 436,-156.5 430,-162.5 424,-162.5 424,-162.5 323,-162.5 323,-162.5 317,-162.5 311,-156.5 311,-150.5 311,-150.5 311,-117.5 311,-117.5 311,-111.5 317,-105.5 323,-105.5"/>
<text text-anchor="middle" x="373.5" y="-150.5" font-family="DejaVu Sans Mono" font-size="10.00">netlink_family_ops</text>
<polyline fill="none" stroke="black" stroke-width="1.5" points="311,-143.5 436,-143.5 "/>
<text text-anchor="start" x="319" y="-131.5" font-family="DejaVu Sans Mono" font-size="10.00">+PF_NETLINK</text>
<polyline fill="none" stroke="black" stroke-width="1.5" points="311,-124.5 436,-124.5 "/>
<text text-anchor="start" x="319" y="-112.5" font-family="DejaVu Sans Mono" font-size="10.00">+netlink_create</text>
</g>
<!-- npf_tb&#45;&gt;nlfo -->
<g id="edge3" class="edge">
<title>npf_tb:nlfo&#45;&gt;nlfo</title>
<path fill="none" stroke="black" d="M207.5,-177C238.75,-177 272.28,-169.69 300.9,-161.1"/>
<polygon fill="black" stroke="black" points="302.3,-164.33 310.8,-158.01 300.22,-157.64 302.3,-164.33"/>
</g>
<!-- ufo -->
<g id="node6" class="node">
<title>ufo</title>
<path fill="none" stroke="black" stroke-width="1.5" d="M332,-0.5C332,-0.5 415,-0.5 415,-0.5 421,-0.5 427,-6.5 427,-12.5 427,-12.5 427,-45.5 427,-45.5 427,-51.5 421,-57.5 415,-57.5 415,-57.5 332,-57.5 332,-57.5 326,-57.5 320,-51.5 320,-45.5 320,-45.5 320,-12.5 320,-12.5 320,-6.5 326,-0.5 332,-0.5"/>
<text text-anchor="middle" x="373.5" y="-45.5" font-family="DejaVu Sans Mono" font-size="10.00">unix_family_ops</text>
<polyline fill="none" stroke="black" stroke-width="1.5" points="320,-38.5 427,-38.5 "/>
<text text-anchor="start" x="328" y="-26.5" font-family="DejaVu Sans Mono" font-size="10.00">+PF_UNIX</text>
<polyline fill="none" stroke="black" stroke-width="1.5" points="320,-19.5 427,-19.5 "/>
<text text-anchor="start" x="328" y="-7.5" font-family="DejaVu Sans Mono" font-size="10.00">+unix_create</text>
</g>
<!-- npf_tb&#45;&gt;ufo -->
<g id="edge4" class="edge">
<title>npf_tb:ufo&#45;&gt;ufo</title>
<path fill="none" stroke="black" d="M207.5,-158C215.15,-158 284.03,-102.27 330.34,-64.07"/>
<polygon fill="black" stroke="black" points="332.65,-66.7 338.13,-57.63 328.2,-61.3 332.65,-66.7"/>
</g>
</g>
</svg>
