<?xml version="1.0" encoding="UTF-8" standalone="no"?>
<!DOCTYPE svg PUBLIC "-//W3C//DTD SVG 1.1//EN"
 "http://www.w3.org/Graphics/SVG/1.1/DTD/svg11.dtd">
<!-- Generated by graphviz version 2.43.0 (0)
 -->
<!-- Title: %3 Pages: 1 -->
<svg width="687pt" height="650pt"
 viewBox="0.00 0.00 687.00 650.00" xmlns="http://www.w3.org/2000/svg" xmlns:xlink="http://www.w3.org/1999/xlink">
<g id="graph0" class="graph" transform="scale(1 1) rotate(0) translate(4 646)">
<title>%3</title>
<polygon fill="white" stroke="transparent" points="-4,4 -4,-646 683,-646 683,4 -4,4"/>
<!-- sys_socketcall -->
<g id="node1" class="node">
<title>sys_socketcall</title>
<path fill="none" stroke="black" stroke-width="0.5" d="M12,-302.5C12,-302.5 89,-302.5 89,-302.5 95,-302.5 101,-308.5 101,-314.5 101,-314.5 101,-326.5 101,-326.5 101,-332.5 95,-338.5 89,-338.5 89,-338.5 12,-338.5 12,-338.5 6,-338.5 0,-332.5 0,-326.5 0,-326.5 0,-314.5 0,-314.5 0,-308.5 6,-302.5 12,-302.5"/>
<text text-anchor="middle" x="50.5" y="-318" font-family="DejaVu Sans Mono" font-size="10.00">sys_socketcall</text>
</g>
<!-- SYS_SOCKET -->
<g id="node2" class="node">
<title>SYS_SOCKET</title>
<path fill="none" stroke="black" stroke-width="0.5" d="M155,-605.5C155,-605.5 208,-605.5 208,-605.5 214,-605.5 220,-611.5 220,-617.5 220,-617.5 220,-629.5 220,-629.5 220,-635.5 214,-641.5 208,-641.5 208,-641.5 155,-641.5 155,-641.5 149,-641.5 143,-635.5 143,-629.5 143,-629.5 143,-617.5 143,-617.5 143,-611.5 149,-605.5 155,-605.5"/>
<text text-anchor="middle" x="181.5" y="-621" font-family="DejaVu Sans Mono" font-size="10.00">SYS_SOCKET</text>
</g>
<!-- sys_socketcall&#45;&gt;SYS_SOCKET -->
<g id="edge1" class="edge">
<title>sys_socketcall&#45;&gt;SYS_SOCKET</title>
<path fill="none" stroke="black" d="M52.78,-338.62C56.96,-385.84 73.82,-514.73 137,-596.5 137.47,-597.11 137.96,-597.7 138.46,-598.29"/>
<polygon fill="black" stroke="black" points="136.13,-600.91 145.76,-605.33 140.99,-595.87 136.13,-600.91"/>
</g>
<!-- SYS_BIND -->
<g id="node3" class="node">
<title>SYS_BIND</title>
<path fill="none" stroke="black" stroke-width="0.5" d="M161,-550.5C161,-550.5 202,-550.5 202,-550.5 208,-550.5 214,-556.5 214,-562.5 214,-562.5 214,-574.5 214,-574.5 214,-580.5 208,-586.5 202,-586.5 202,-586.5 161,-586.5 161,-586.5 155,-586.5 149,-580.5 149,-574.5 149,-574.5 149,-562.5 149,-562.5 149,-556.5 155,-550.5 161,-550.5"/>
<text text-anchor="middle" x="181.5" y="-566" font-family="DejaVu Sans Mono" font-size="10.00">SYS_BIND</text>
</g>
<!-- sys_socketcall&#45;&gt;SYS_BIND -->
<g id="edge2" class="edge">
<title>sys_socketcall&#45;&gt;SYS_BIND</title>
<path fill="none" stroke="black" d="M54.45,-338.51C61.84,-378.9 84.49,-478.16 137,-541.5 138.13,-542.86 139.35,-544.18 140.64,-545.45"/>
<polygon fill="black" stroke="black" points="138.69,-548.38 148.59,-552.15 143.2,-543.03 138.69,-548.38"/>
</g>
<!-- SYS_CONNECT -->
<g id="node4" class="node">
<title>SYS_CONNECT</title>
<path fill="none" stroke="black" stroke-width="0.5" d="M152,-495.5C152,-495.5 211,-495.5 211,-495.5 217,-495.5 223,-501.5 223,-507.5 223,-507.5 223,-519.5 223,-519.5 223,-525.5 217,-531.5 211,-531.5 211,-531.5 152,-531.5 152,-531.5 146,-531.5 140,-525.5 140,-519.5 140,-519.5 140,-507.5 140,-507.5 140,-501.5 146,-495.5 152,-495.5"/>
<text text-anchor="middle" x="181.5" y="-511" font-family="DejaVu Sans Mono" font-size="10.00">SYS_CONNECT</text>
</g>
<!-- sys_socketcall&#45;&gt;SYS_CONNECT -->
<g id="edge3" class="edge">
<title>sys_socketcall&#45;&gt;SYS_CONNECT</title>
<path fill="none" stroke="black" d="M57.2,-338.63C68.22,-371.36 95.11,-441.12 137,-486.5 137.63,-487.19 138.29,-487.86 138.96,-488.52"/>
<polygon fill="black" stroke="black" points="136.88,-491.35 146.75,-495.2 141.43,-486.03 136.88,-491.35"/>
</g>
<!-- SYS_LISTEN -->
<g id="node5" class="node">
<title>SYS_LISTEN</title>
<path fill="none" stroke="black" stroke-width="0.5" d="M155,-440.5C155,-440.5 208,-440.5 208,-440.5 214,-440.5 220,-446.5 220,-452.5 220,-452.5 220,-464.5 220,-464.5 220,-470.5 214,-476.5 208,-476.5 208,-476.5 155,-476.5 155,-476.5 149,-476.5 143,-470.5 143,-464.5 143,-464.5 143,-452.5 143,-452.5 143,-446.5 149,-440.5 155,-440.5"/>
<text text-anchor="middle" x="181.5" y="-456" font-family="DejaVu Sans Mono" font-size="10.00">SYS_LISTEN</text>
</g>
<!-- sys_socketcall&#45;&gt;SYS_LISTEN -->
<g id="edge4" class="edge">
<title>sys_socketcall&#45;&gt;SYS_LISTEN</title>
<path fill="none" stroke="black" d="M62.53,-338.63C77.39,-362.04 105.6,-403.12 137,-431.5 137.96,-432.37 138.96,-433.23 139.98,-434.08"/>
<polygon fill="black" stroke="black" points="138.1,-437.05 148.19,-440.29 142.33,-431.47 138.1,-437.05"/>
</g>
<!-- SYS_ACCEPT -->
<g id="node6" class="node">
<title>SYS_ACCEPT</title>
<path fill="none" stroke="black" stroke-width="0.5" d="M155,-385.5C155,-385.5 208,-385.5 208,-385.5 214,-385.5 220,-391.5 220,-397.5 220,-397.5 220,-409.5 220,-409.5 220,-415.5 214,-421.5 208,-421.5 208,-421.5 155,-421.5 155,-421.5 149,-421.5 143,-415.5 143,-409.5 143,-409.5 143,-397.5 143,-397.5 143,-391.5 149,-385.5 155,-385.5"/>
<text text-anchor="middle" x="181.5" y="-401" font-family="DejaVu Sans Mono" font-size="10.00">SYS_ACCEPT</text>
</g>
<!-- sys_socketcall&#45;&gt;SYS_ACCEPT -->
<g id="edge5" class="edge">
<title>sys_socketcall&#45;&gt;SYS_ACCEPT</title>
<path fill="none" stroke="black" d="M78.73,-338.58C95.47,-349.63 117.4,-364 137,-376.5 138.69,-377.58 140.41,-378.67 142.16,-379.77"/>
<polygon fill="black" stroke="black" points="140.63,-382.94 150.96,-385.3 144.35,-377.02 140.63,-382.94"/>
</g>
<!-- SYS_SEND -->
<g id="node7" class="node">
<title>SYS_SEND</title>
<path fill="none" stroke="black" stroke-width="0.5" d="M161,-330.5C161,-330.5 202,-330.5 202,-330.5 208,-330.5 214,-336.5 214,-342.5 214,-342.5 214,-354.5 214,-354.5 214,-360.5 208,-366.5 202,-366.5 202,-366.5 161,-366.5 161,-366.5 155,-366.5 149,-360.5 149,-354.5 149,-354.5 149,-342.5 149,-342.5 149,-336.5 155,-330.5 161,-330.5"/>
<text text-anchor="middle" x="181.5" y="-346" font-family="DejaVu Sans Mono" font-size="10.00">SYS_SEND</text>
</g>
<!-- sys_socketcall&#45;&gt;SYS_SEND -->
<g id="edge6" class="edge">
<title>sys_socketcall&#45;&gt;SYS_SEND</title>
<path fill="none" stroke="black" d="M101.01,-331.25C113.55,-333.97 126.9,-336.87 139,-339.49"/>
<polygon fill="black" stroke="black" points="138.31,-342.92 148.83,-341.63 139.8,-336.08 138.31,-342.92"/>
</g>
<!-- SYS_RECV -->
<g id="node8" class="node">
<title>SYS_RECV</title>
<path fill="none" stroke="black" stroke-width="0.5" d="M161,-110.5C161,-110.5 202,-110.5 202,-110.5 208,-110.5 214,-116.5 214,-122.5 214,-122.5 214,-134.5 214,-134.5 214,-140.5 208,-146.5 202,-146.5 202,-146.5 161,-146.5 161,-146.5 155,-146.5 149,-140.5 149,-134.5 149,-134.5 149,-122.5 149,-122.5 149,-116.5 155,-110.5 161,-110.5"/>
<text text-anchor="middle" x="181.5" y="-126" font-family="DejaVu Sans Mono" font-size="10.00">SYS_RECV</text>
</g>
<!-- sys_socketcall&#45;&gt;SYS_RECV -->
<g id="edge7" class="edge">
<title>sys_socketcall&#45;&gt;SYS_RECV</title>
<path fill="none" stroke="black" d="M57.42,-302.4C68.7,-270.07 95.88,-201.56 137,-156.5 138.32,-155.06 139.72,-153.66 141.2,-152.3"/>
<polygon fill="black" stroke="black" points="143.46,-154.97 148.99,-145.93 139.03,-149.55 143.46,-154.97"/>
</g>
<!-- SYS_SENDTO -->
<g id="node9" class="node">
<title>SYS_SENDTO</title>
<path fill="none" stroke="black" stroke-width="0.5" d="M155,-275.5C155,-275.5 208,-275.5 208,-275.5 214,-275.5 220,-281.5 220,-287.5 220,-287.5 220,-299.5 220,-299.5 220,-305.5 214,-311.5 208,-311.5 208,-311.5 155,-311.5 155,-311.5 149,-311.5 143,-305.5 143,-299.5 143,-299.5 143,-287.5 143,-287.5 143,-281.5 149,-275.5 155,-275.5"/>
<text text-anchor="middle" x="181.5" y="-291" font-family="DejaVu Sans Mono" font-size="10.00">SYS_SENDTO</text>
</g>
<!-- sys_socketcall&#45;&gt;SYS_SENDTO -->
<g id="edge8" class="edge">
<title>sys_socketcall&#45;&gt;SYS_SENDTO</title>
<path fill="none" stroke="black" d="M101.01,-310.14C111.56,-307.93 122.68,-305.6 133.15,-303.41"/>
<polygon fill="black" stroke="black" points="133.88,-306.83 142.95,-301.36 132.44,-299.98 133.88,-306.83"/>
</g>
<!-- SYS_RECVFROM -->
<g id="node10" class="node">
<title>SYS_RECVFROM</title>
<path fill="none" stroke="black" stroke-width="0.5" d="M149,-165.5C149,-165.5 214,-165.5 214,-165.5 220,-165.5 226,-171.5 226,-177.5 226,-177.5 226,-189.5 226,-189.5 226,-195.5 220,-201.5 214,-201.5 214,-201.5 149,-201.5 149,-201.5 143,-201.5 137,-195.5 137,-189.5 137,-189.5 137,-177.5 137,-177.5 137,-171.5 143,-165.5 149,-165.5"/>
<text text-anchor="middle" x="181.5" y="-181" font-family="DejaVu Sans Mono" font-size="10.00">SYS_RECVFROM</text>
</g>
<!-- sys_socketcall&#45;&gt;SYS_RECVFROM -->
<g id="edge9" class="edge">
<title>sys_socketcall&#45;&gt;SYS_RECVFROM</title>
<path fill="none" stroke="black" d="M62.93,-302.39C78.01,-279.45 106.24,-239.52 137,-211.5 138.44,-210.18 139.96,-208.89 141.52,-207.62"/>
<polygon fill="black" stroke="black" points="143.71,-210.35 149.6,-201.54 139.5,-204.76 143.71,-210.35"/>
</g>
<!-- SYS_SHUTDOWN -->
<g id="node11" class="node">
<title>SYS_SHUTDOWN</title>
<path fill="none" stroke="black" stroke-width="0.5" d="M149,-0.5C149,-0.5 214,-0.5 214,-0.5 220,-0.5 226,-6.5 226,-12.5 226,-12.5 226,-24.5 226,-24.5 226,-30.5 220,-36.5 214,-36.5 214,-36.5 149,-36.5 149,-36.5 143,-36.5 137,-30.5 137,-24.5 137,-24.5 137,-12.5 137,-12.5 137,-6.5 143,-0.5 149,-0.5"/>
<text text-anchor="middle" x="181.5" y="-16" font-family="DejaVu Sans Mono" font-size="10.00">SYS_SHUTDOWN</text>
</g>
<!-- sys_socketcall&#45;&gt;SYS_SHUTDOWN -->
<g id="edge10" class="edge">
<title>sys_socketcall&#45;&gt;SYS_SHUTDOWN</title>
<path fill="none" stroke="black" d="M52.8,-302.45C57.02,-255.39 73.99,-126.97 137,-45.5 137.47,-44.89 137.96,-44.3 138.46,-43.71"/>
<polygon fill="black" stroke="black" points="140.99,-46.13 145.76,-36.67 136.13,-41.09 140.99,-46.13"/>
</g>
<!-- SYS_SENDMSG -->
<g id="node12" class="node">
<title>SYS_SENDMSG</title>
<path fill="none" stroke="black" stroke-width="0.5" d="M152,-220.5C152,-220.5 211,-220.5 211,-220.5 217,-220.5 223,-226.5 223,-232.5 223,-232.5 223,-244.5 223,-244.5 223,-250.5 217,-256.5 211,-256.5 211,-256.5 152,-256.5 152,-256.5 146,-256.5 140,-250.5 140,-244.5 140,-244.5 140,-232.5 140,-232.5 140,-226.5 146,-220.5 152,-220.5"/>
<text text-anchor="middle" x="181.5" y="-236" font-family="DejaVu Sans Mono" font-size="10.00">SYS_SENDMSG</text>
</g>
<!-- sys_socketcall&#45;&gt;SYS_SENDMSG -->
<g id="edge11" class="edge">
<title>sys_socketcall&#45;&gt;SYS_SENDMSG</title>
<path fill="none" stroke="black" d="M80.13,-302.3C98.75,-290.46 123.22,-274.91 143.34,-262.12"/>
<polygon fill="black" stroke="black" points="145.39,-264.97 151.95,-256.65 141.63,-259.06 145.39,-264.97"/>
</g>
<!-- SYS_RECVMSG -->
<g id="node13" class="node">
<title>SYS_RECVMSG</title>
<path fill="none" stroke="black" stroke-width="0.5" d="M152,-55.5C152,-55.5 211,-55.5 211,-55.5 217,-55.5 223,-61.5 223,-67.5 223,-67.5 223,-79.5 223,-79.5 223,-85.5 217,-91.5 211,-91.5 211,-91.5 152,-91.5 152,-91.5 146,-91.5 140,-85.5 140,-79.5 140,-79.5 140,-67.5 140,-67.5 140,-61.5 146,-55.5 152,-55.5"/>
<text text-anchor="middle" x="181.5" y="-71" font-family="DejaVu Sans Mono" font-size="10.00">SYS_RECVMSG</text>
</g>
<!-- sys_socketcall&#45;&gt;SYS_RECVMSG -->
<g id="edge12" class="edge">
<title>sys_socketcall&#45;&gt;SYS_RECVMSG</title>
<path fill="none" stroke="black" d="M54.62,-302.42C62.32,-262.32 85.45,-164.53 137,-101.5 137.83,-100.48 138.71,-99.49 139.63,-98.52"/>
<polygon fill="black" stroke="black" points="142.21,-100.91 147.29,-91.62 137.52,-95.71 142.21,-100.91"/>
</g>
<!-- sys_socket -->
<g id="node14" class="node">
<title>sys_socket</title>
<path fill="none" stroke="black" stroke-width="0.5" d="M280,-605.5C280,-605.5 333,-605.5 333,-605.5 339,-605.5 345,-611.5 345,-617.5 345,-617.5 345,-629.5 345,-629.5 345,-635.5 339,-641.5 333,-641.5 333,-641.5 280,-641.5 280,-641.5 274,-641.5 268,-635.5 268,-629.5 268,-629.5 268,-617.5 268,-617.5 268,-611.5 274,-605.5 280,-605.5"/>
<text text-anchor="middle" x="306.5" y="-621" font-family="DejaVu Sans Mono" font-size="10.00">sys_socket</text>
</g>
<!-- SYS_SOCKET&#45;&gt;sys_socket -->
<g id="edge13" class="edge">
<title>SYS_SOCKET&#45;&gt;sys_socket</title>
<path fill="none" stroke="black" d="M220.07,-623.5C231.88,-623.5 245.09,-623.5 257.52,-623.5"/>
<polygon fill="black" stroke="black" points="257.73,-627 267.73,-623.5 257.73,-620 257.73,-627"/>
</g>
<!-- sys_bind -->
<g id="node15" class="node">
<title>sys_bind</title>
<path fill="none" stroke="black" stroke-width="0.5" d="M286,-550.5C286,-550.5 327,-550.5 327,-550.5 333,-550.5 339,-556.5 339,-562.5 339,-562.5 339,-574.5 339,-574.5 339,-580.5 333,-586.5 327,-586.5 327,-586.5 286,-586.5 286,-586.5 280,-586.5 274,-580.5 274,-574.5 274,-574.5 274,-562.5 274,-562.5 274,-556.5 280,-550.5 286,-550.5"/>
<text text-anchor="middle" x="306.5" y="-566" font-family="DejaVu Sans Mono" font-size="10.00">sys_bind</text>
</g>
<!-- SYS_BIND&#45;&gt;sys_bind -->
<g id="edge14" class="edge">
<title>SYS_BIND&#45;&gt;sys_bind</title>
<path fill="none" stroke="black" d="M214.18,-568.5C229.24,-568.5 247.45,-568.5 263.64,-568.5"/>
<polygon fill="black" stroke="black" points="263.93,-572 273.93,-568.5 263.93,-565 263.93,-572"/>
</g>
<!-- sys_connect -->
<g id="node16" class="node">
<title>sys_connect</title>
<path fill="none" stroke="black" stroke-width="0.5" d="M277,-495.5C277,-495.5 336,-495.5 336,-495.5 342,-495.5 348,-501.5 348,-507.5 348,-507.5 348,-519.5 348,-519.5 348,-525.5 342,-531.5 336,-531.5 336,-531.5 277,-531.5 277,-531.5 271,-531.5 265,-525.5 265,-519.5 265,-519.5 265,-507.5 265,-507.5 265,-501.5 271,-495.5 277,-495.5"/>
<text text-anchor="middle" x="306.5" y="-511" font-family="DejaVu Sans Mono" font-size="10.00">sys_connect</text>
</g>
<!-- SYS_CONNECT&#45;&gt;sys_connect -->
<g id="edge15" class="edge">
<title>SYS_CONNECT&#45;&gt;sys_connect</title>
<path fill="none" stroke="black" d="M223.12,-513.5C233.19,-513.5 244.12,-513.5 254.62,-513.5"/>
<polygon fill="black" stroke="black" points="254.93,-517 264.93,-513.5 254.93,-510 254.93,-517"/>
</g>
<!-- sys_listen -->
<g id="node17" class="node">
<title>sys_listen</title>
<path fill="none" stroke="black" stroke-width="0.5" d="M280,-440.5C280,-440.5 333,-440.5 333,-440.5 339,-440.5 345,-446.5 345,-452.5 345,-452.5 345,-464.5 345,-464.5 345,-470.5 339,-476.5 333,-476.5 333,-476.5 280,-476.5 280,-476.5 274,-476.5 268,-470.5 268,-464.5 268,-464.5 268,-452.5 268,-452.5 268,-446.5 274,-440.5 280,-440.5"/>
<text text-anchor="middle" x="306.5" y="-456" font-family="DejaVu Sans Mono" font-size="10.00">sys_listen</text>
</g>
<!-- SYS_LISTEN&#45;&gt;sys_listen -->
<g id="edge16" class="edge">
<title>SYS_LISTEN&#45;&gt;sys_listen</title>
<path fill="none" stroke="black" d="M220.07,-458.5C231.88,-458.5 245.09,-458.5 257.52,-458.5"/>
<polygon fill="black" stroke="black" points="257.73,-462 267.73,-458.5 257.73,-455 257.73,-462"/>
</g>
<!-- sys_accept -->
<g id="node18" class="node">
<title>sys_accept</title>
<path fill="none" stroke="black" stroke-width="0.5" d="M280,-385.5C280,-385.5 333,-385.5 333,-385.5 339,-385.5 345,-391.5 345,-397.5 345,-397.5 345,-409.5 345,-409.5 345,-415.5 339,-421.5 333,-421.5 333,-421.5 280,-421.5 280,-421.5 274,-421.5 268,-415.5 268,-409.5 268,-409.5 268,-397.5 268,-397.5 268,-391.5 274,-385.5 280,-385.5"/>
<text text-anchor="middle" x="306.5" y="-401" font-family="DejaVu Sans Mono" font-size="10.00">sys_accept</text>
</g>
<!-- SYS_ACCEPT&#45;&gt;sys_accept -->
<g id="edge17" class="edge">
<title>SYS_ACCEPT&#45;&gt;sys_accept</title>
<path fill="none" stroke="black" d="M220.07,-403.5C231.88,-403.5 245.09,-403.5 257.52,-403.5"/>
<polygon fill="black" stroke="black" points="257.73,-407 267.73,-403.5 257.73,-400 257.73,-407"/>
</g>
<!-- sys_send -->
<g id="node19" class="node">
<title>sys_send</title>
<path fill="none" stroke="black" stroke-width="0.5" d="M286,-330.5C286,-330.5 327,-330.5 327,-330.5 333,-330.5 339,-336.5 339,-342.5 339,-342.5 339,-354.5 339,-354.5 339,-360.5 333,-366.5 327,-366.5 327,-366.5 286,-366.5 286,-366.5 280,-366.5 274,-360.5 274,-354.5 274,-354.5 274,-342.5 274,-342.5 274,-336.5 280,-330.5 286,-330.5"/>
<text text-anchor="middle" x="306.5" y="-346" font-family="DejaVu Sans Mono" font-size="10.00">sys_send</text>
</g>
<!-- SYS_SEND&#45;&gt;sys_send -->
<g id="edge18" class="edge">
<title>SYS_SEND&#45;&gt;sys_send</title>
<path fill="none" stroke="black" d="M214.18,-348.5C229.24,-348.5 247.45,-348.5 263.64,-348.5"/>
<polygon fill="black" stroke="black" points="263.93,-352 273.93,-348.5 263.93,-345 263.93,-352"/>
</g>
<!-- sys_recv -->
<g id="node20" class="node">
<title>sys_recv</title>
<path fill="none" stroke="black" stroke-width="0.5" d="M286,-110.5C286,-110.5 327,-110.5 327,-110.5 333,-110.5 339,-116.5 339,-122.5 339,-122.5 339,-134.5 339,-134.5 339,-140.5 333,-146.5 327,-146.5 327,-146.5 286,-146.5 286,-146.5 280,-146.5 274,-140.5 274,-134.5 274,-134.5 274,-122.5 274,-122.5 274,-116.5 280,-110.5 286,-110.5"/>
<text text-anchor="middle" x="306.5" y="-126" font-family="DejaVu Sans Mono" font-size="10.00">sys_recv</text>
</g>
<!-- SYS_RECV&#45;&gt;sys_recv -->
<g id="edge19" class="edge">
<title>SYS_RECV&#45;&gt;sys_recv</title>
<path fill="none" stroke="black" d="M214.18,-128.5C229.24,-128.5 247.45,-128.5 263.64,-128.5"/>
<polygon fill="black" stroke="black" points="263.93,-132 273.93,-128.5 263.93,-125 263.93,-132"/>
</g>
<!-- sys_sendto -->
<g id="node21" class="node">
<title>sys_sendto</title>
<path fill="none" stroke="black" stroke-width="0.5" d="M280,-275.5C280,-275.5 333,-275.5 333,-275.5 339,-275.5 345,-281.5 345,-287.5 345,-287.5 345,-299.5 345,-299.5 345,-305.5 339,-311.5 333,-311.5 333,-311.5 280,-311.5 280,-311.5 274,-311.5 268,-305.5 268,-299.5 268,-299.5 268,-287.5 268,-287.5 268,-281.5 274,-275.5 280,-275.5"/>
<text text-anchor="middle" x="306.5" y="-291" font-family="DejaVu Sans Mono" font-size="10.00">sys_sendto</text>
</g>
<!-- SYS_SENDTO&#45;&gt;sys_sendto -->
<g id="edge20" class="edge">
<title>SYS_SENDTO&#45;&gt;sys_sendto</title>
<path fill="none" stroke="black" d="M220.07,-293.5C231.88,-293.5 245.09,-293.5 257.52,-293.5"/>
<polygon fill="black" stroke="black" points="257.73,-297 267.73,-293.5 257.73,-290 257.73,-297"/>
</g>
<!-- sys_recvfrom -->
<g id="node22" class="node">
<title>sys_recvfrom</title>
<path fill="none" stroke="black" stroke-width="0.5" d="M274,-165.5C274,-165.5 339,-165.5 339,-165.5 345,-165.5 351,-171.5 351,-177.5 351,-177.5 351,-189.5 351,-189.5 351,-195.5 345,-201.5 339,-201.5 339,-201.5 274,-201.5 274,-201.5 268,-201.5 262,-195.5 262,-189.5 262,-189.5 262,-177.5 262,-177.5 262,-171.5 268,-165.5 274,-165.5"/>
<text text-anchor="middle" x="306.5" y="-181" font-family="DejaVu Sans Mono" font-size="10.00">sys_recvfrom</text>
</g>
<!-- SYS_RECVFROM&#45;&gt;sys_recvfrom -->
<g id="edge21" class="edge">
<title>SYS_RECVFROM&#45;&gt;sys_recvfrom</title>
<path fill="none" stroke="black" d="M226.21,-183.5C234.46,-183.5 243.17,-183.5 251.69,-183.5"/>
<polygon fill="black" stroke="black" points="251.93,-187 261.93,-183.5 251.93,-180 251.93,-187"/>
</g>
<!-- sys_shutdown -->
<g id="node23" class="node">
<title>sys_shutdown</title>
<path fill="none" stroke="black" stroke-width="0.5" d="M274,-0.5C274,-0.5 339,-0.5 339,-0.5 345,-0.5 351,-6.5 351,-12.5 351,-12.5 351,-24.5 351,-24.5 351,-30.5 345,-36.5 339,-36.5 339,-36.5 274,-36.5 274,-36.5 268,-36.5 262,-30.5 262,-24.5 262,-24.5 262,-12.5 262,-12.5 262,-6.5 268,-0.5 274,-0.5"/>
<text text-anchor="middle" x="306.5" y="-16" font-family="DejaVu Sans Mono" font-size="10.00">sys_shutdown</text>
</g>
<!-- SYS_SHUTDOWN&#45;&gt;sys_shutdown -->
<g id="edge22" class="edge">
<title>SYS_SHUTDOWN&#45;&gt;sys_shutdown</title>
<path fill="none" stroke="black" d="M226.21,-18.5C234.46,-18.5 243.17,-18.5 251.69,-18.5"/>
<polygon fill="black" stroke="black" points="251.93,-22 261.93,-18.5 251.93,-15 251.93,-22"/>
</g>
<!-- sys_sendmsg -->
<g id="node24" class="node">
<title>sys_sendmsg</title>
<path fill="none" stroke="black" stroke-width="0.5" d="M277,-220.5C277,-220.5 336,-220.5 336,-220.5 342,-220.5 348,-226.5 348,-232.5 348,-232.5 348,-244.5 348,-244.5 348,-250.5 342,-256.5 336,-256.5 336,-256.5 277,-256.5 277,-256.5 271,-256.5 265,-250.5 265,-244.5 265,-244.5 265,-232.5 265,-232.5 265,-226.5 271,-220.5 277,-220.5"/>
<text text-anchor="middle" x="306.5" y="-236" font-family="DejaVu Sans Mono" font-size="10.00">sys_sendmsg</text>
</g>
<!-- SYS_SENDMSG&#45;&gt;sys_sendmsg -->
<g id="edge23" class="edge">
<title>SYS_SENDMSG&#45;&gt;sys_sendmsg</title>
<path fill="none" stroke="black" d="M223.12,-238.5C233.19,-238.5 244.12,-238.5 254.62,-238.5"/>
<polygon fill="black" stroke="black" points="254.93,-242 264.93,-238.5 254.93,-235 254.93,-242"/>
</g>
<!-- sys_recvmsg -->
<g id="node25" class="node">
<title>sys_recvmsg</title>
<path fill="none" stroke="black" stroke-width="0.5" d="M277,-55.5C277,-55.5 336,-55.5 336,-55.5 342,-55.5 348,-61.5 348,-67.5 348,-67.5 348,-79.5 348,-79.5 348,-85.5 342,-91.5 336,-91.5 336,-91.5 277,-91.5 277,-91.5 271,-91.5 265,-85.5 265,-79.5 265,-79.5 265,-67.5 265,-67.5 265,-61.5 271,-55.5 277,-55.5"/>
<text text-anchor="middle" x="306.5" y="-71" font-family="DejaVu Sans Mono" font-size="10.00">sys_recvmsg</text>
</g>
<!-- SYS_RECVMSG&#45;&gt;sys_recvmsg -->
<g id="edge24" class="edge">
<title>SYS_RECVMSG&#45;&gt;sys_recvmsg</title>
<path fill="none" stroke="black" d="M223.12,-73.5C233.19,-73.5 244.12,-73.5 254.62,-73.5"/>
<polygon fill="black" stroke="black" points="254.93,-77 264.93,-73.5 254.93,-70 254.93,-77"/>
</g>
<!-- sock_create -->
<g id="node26" class="node">
<title>sock_create</title>
<path fill="none" stroke="black" stroke-width="0.5" d="M423,-605.5C423,-605.5 482,-605.5 482,-605.5 488,-605.5 494,-611.5 494,-617.5 494,-617.5 494,-629.5 494,-629.5 494,-635.5 488,-641.5 482,-641.5 482,-641.5 423,-641.5 423,-641.5 417,-641.5 411,-635.5 411,-629.5 411,-629.5 411,-617.5 411,-617.5 411,-611.5 417,-605.5 423,-605.5"/>
<text text-anchor="middle" x="452.5" y="-621" font-family="DejaVu Sans Mono" font-size="10.00">sock_create</text>
</g>
<!-- sys_socket&#45;&gt;sock_create -->
<g id="edge25" class="edge">
<title>sys_socket&#45;&gt;sock_create</title>
<path fill="none" stroke="black" d="M345.33,-623.5C362.27,-623.5 382.49,-623.5 400.72,-623.5"/>
<polygon fill="black" stroke="black" points="400.89,-627 410.89,-623.5 400.89,-620 400.89,-627"/>
</g>
<!-- sock&#45;&gt;ops&#45;&gt;bind -->
<g id="node27" class="node">
<title>sock&#45;&gt;ops&#45;&gt;bind</title>
<path fill="none" stroke="black" stroke-width="0.5" d="M411,-550.5C411,-550.5 494,-550.5 494,-550.5 500,-550.5 506,-556.5 506,-562.5 506,-562.5 506,-574.5 506,-574.5 506,-580.5 500,-586.5 494,-586.5 494,-586.5 411,-586.5 411,-586.5 405,-586.5 399,-580.5 399,-574.5 399,-574.5 399,-562.5 399,-562.5 399,-556.5 405,-550.5 411,-550.5"/>
<text text-anchor="middle" x="452.5" y="-566" font-family="DejaVu Sans Mono" font-size="10.00">sock&#45;&gt;ops&#45;&gt;bind</text>
</g>
<!-- sys_bind&#45;&gt;sock&#45;&gt;ops&#45;&gt;bind -->
<g id="edge26" class="edge">
<title>sys_bind&#45;&gt;sock&#45;&gt;ops&#45;&gt;bind</title>
<path fill="none" stroke="black" d="M339.1,-568.5C353.57,-568.5 371.25,-568.5 388.27,-568.5"/>
<polygon fill="black" stroke="black" points="388.75,-572 398.75,-568.5 388.75,-565 388.75,-572"/>
</g>
<!-- sock&#45;&gt;ops&#45;&gt;connect -->
<g id="node28" class="node">
<title>sock&#45;&gt;ops&#45;&gt;connect</title>
<path fill="none" stroke="black" stroke-width="0.5" d="M402,-495.5C402,-495.5 503,-495.5 503,-495.5 509,-495.5 515,-501.5 515,-507.5 515,-507.5 515,-519.5 515,-519.5 515,-525.5 509,-531.5 503,-531.5 503,-531.5 402,-531.5 402,-531.5 396,-531.5 390,-525.5 390,-519.5 390,-519.5 390,-507.5 390,-507.5 390,-501.5 396,-495.5 402,-495.5"/>
<text text-anchor="middle" x="452.5" y="-511" font-family="DejaVu Sans Mono" font-size="10.00">sock&#45;&gt;ops&#45;&gt;connect</text>
</g>
<!-- sys_connect&#45;&gt;sock&#45;&gt;ops&#45;&gt;connect -->
<g id="edge27" class="edge">
<title>sys_connect&#45;&gt;sock&#45;&gt;ops&#45;&gt;connect</title>
<path fill="none" stroke="black" d="M348.38,-513.5C358.15,-513.5 368.86,-513.5 379.57,-513.5"/>
<polygon fill="black" stroke="black" points="379.81,-517 389.81,-513.5 379.81,-510 379.81,-517"/>
</g>
<!-- sock&#45;&gt;ops&#45;&gt;listen -->
<g id="node29" class="node">
<title>sock&#45;&gt;ops&#45;&gt;listen</title>
<path fill="none" stroke="black" stroke-width="0.5" d="M405,-440.5C405,-440.5 500,-440.5 500,-440.5 506,-440.5 512,-446.5 512,-452.5 512,-452.5 512,-464.5 512,-464.5 512,-470.5 506,-476.5 500,-476.5 500,-476.5 405,-476.5 405,-476.5 399,-476.5 393,-470.5 393,-464.5 393,-464.5 393,-452.5 393,-452.5 393,-446.5 399,-440.5 405,-440.5"/>
<text text-anchor="middle" x="452.5" y="-456" font-family="DejaVu Sans Mono" font-size="10.00">sock&#45;&gt;ops&#45;&gt;listen</text>
</g>
<!-- sys_listen&#45;&gt;sock&#45;&gt;ops&#45;&gt;listen -->
<g id="edge28" class="edge">
<title>sys_listen&#45;&gt;sock&#45;&gt;ops&#45;&gt;listen</title>
<path fill="none" stroke="black" d="M345.33,-458.5C356.78,-458.5 369.71,-458.5 382.53,-458.5"/>
<polygon fill="black" stroke="black" points="382.74,-462 392.74,-458.5 382.74,-455 382.74,-462"/>
</g>
<!-- sock&#45;&gt;ops&#45;&gt;accept -->
<g id="node30" class="node">
<title>sock&#45;&gt;ops&#45;&gt;accept</title>
<path fill="none" stroke="black" stroke-width="0.5" d="M405,-385.5C405,-385.5 500,-385.5 500,-385.5 506,-385.5 512,-391.5 512,-397.5 512,-397.5 512,-409.5 512,-409.5 512,-415.5 506,-421.5 500,-421.5 500,-421.5 405,-421.5 405,-421.5 399,-421.5 393,-415.5 393,-409.5 393,-409.5 393,-397.5 393,-397.5 393,-391.5 399,-385.5 405,-385.5"/>
<text text-anchor="middle" x="452.5" y="-401" font-family="DejaVu Sans Mono" font-size="10.00">sock&#45;&gt;ops&#45;&gt;accept</text>
</g>
<!-- sys_accept&#45;&gt;sock&#45;&gt;ops&#45;&gt;accept -->
<g id="edge29" class="edge">
<title>sys_accept&#45;&gt;sock&#45;&gt;ops&#45;&gt;accept</title>
<path fill="none" stroke="black" d="M345.33,-403.5C356.78,-403.5 369.71,-403.5 382.53,-403.5"/>
<polygon fill="black" stroke="black" points="382.74,-407 392.74,-403.5 382.74,-400 382.74,-407"/>
</g>
<!-- sock_sendmsg -->
<g id="node31" class="node">
<title>sock_sendmsg</title>
<path fill="none" stroke="black" stroke-width="0.5" d="M420,-275.5C420,-275.5 485,-275.5 485,-275.5 491,-275.5 497,-281.5 497,-287.5 497,-287.5 497,-299.5 497,-299.5 497,-305.5 491,-311.5 485,-311.5 485,-311.5 420,-311.5 420,-311.5 414,-311.5 408,-305.5 408,-299.5 408,-299.5 408,-287.5 408,-287.5 408,-281.5 414,-275.5 420,-275.5"/>
<text text-anchor="middle" x="452.5" y="-291" font-family="DejaVu Sans Mono" font-size="10.00">sock_sendmsg</text>
</g>
<!-- sys_send&#45;&gt;sock_sendmsg -->
<g id="edge30" class="edge">
<title>sys_send&#45;&gt;sock_sendmsg</title>
<path fill="none" stroke="black" d="M339.1,-336.43C356.46,-329.8 378.45,-321.4 398.37,-313.79"/>
<polygon fill="black" stroke="black" points="399.86,-316.97 407.96,-310.13 397.37,-310.43 399.86,-316.97"/>
</g>
<!-- sock_recvmsg -->
<g id="node32" class="node">
<title>sock_recvmsg</title>
<path fill="none" stroke="black" stroke-width="0.5" d="M420,-110.5C420,-110.5 485,-110.5 485,-110.5 491,-110.5 497,-116.5 497,-122.5 497,-122.5 497,-134.5 497,-134.5 497,-140.5 491,-146.5 485,-146.5 485,-146.5 420,-146.5 420,-146.5 414,-146.5 408,-140.5 408,-134.5 408,-134.5 408,-122.5 408,-122.5 408,-116.5 414,-110.5 420,-110.5"/>
<text text-anchor="middle" x="452.5" y="-126" font-family="DejaVu Sans Mono" font-size="10.00">sock_recvmsg</text>
</g>
<!-- sys_recv&#45;&gt;sock_recvmsg -->
<g id="edge31" class="edge">
<title>sys_recv&#45;&gt;sock_recvmsg</title>
<path fill="none" stroke="black" d="M339.1,-128.5C356.3,-128.5 378.06,-128.5 397.83,-128.5"/>
<polygon fill="black" stroke="black" points="397.96,-132 407.96,-128.5 397.96,-125 397.96,-132"/>
</g>
<!-- sys_sendto&#45;&gt;sock_sendmsg -->
<g id="edge32" class="edge">
<title>sys_sendto&#45;&gt;sock_sendmsg</title>
<path fill="none" stroke="black" d="M345.33,-293.5C361.36,-293.5 380.32,-293.5 397.75,-293.5"/>
<polygon fill="black" stroke="black" points="397.8,-297 407.8,-293.5 397.8,-290 397.8,-297"/>
</g>
<!-- sys_recvfrom&#45;&gt;sock_recvmsg -->
<g id="edge33" class="edge">
<title>sys_recvfrom&#45;&gt;sock_recvmsg</title>
<path fill="none" stroke="black" d="M351.1,-166.85C365.9,-161.19 382.62,-154.81 398.1,-148.89"/>
<polygon fill="black" stroke="black" points="399.46,-152.12 407.56,-145.28 396.97,-145.58 399.46,-152.12"/>
</g>
<!-- sock&#45;&gt;ops&#45;&gt;shutdown -->
<g id="node33" class="node">
<title>sock&#45;&gt;ops&#45;&gt;shutdown</title>
<path fill="none" stroke="black" stroke-width="0.5" d="M399,-0.5C399,-0.5 506,-0.5 506,-0.5 512,-0.5 518,-6.5 518,-12.5 518,-12.5 518,-24.5 518,-24.5 518,-30.5 512,-36.5 506,-36.5 506,-36.5 399,-36.5 399,-36.5 393,-36.5 387,-30.5 387,-24.5 387,-24.5 387,-12.5 387,-12.5 387,-6.5 393,-0.5 399,-0.5"/>
<text text-anchor="middle" x="452.5" y="-16" font-family="DejaVu Sans Mono" font-size="10.00">sock&#45;&gt;ops&#45;&gt;shutdown</text>
</g>
<!-- sys_shutdown&#45;&gt;sock&#45;&gt;ops&#45;&gt;shutdown -->
<g id="edge34" class="edge">
<title>sys_shutdown&#45;&gt;sock&#45;&gt;ops&#45;&gt;shutdown</title>
<path fill="none" stroke="black" d="M351.1,-18.5C359.19,-18.5 367.85,-18.5 376.57,-18.5"/>
<polygon fill="black" stroke="black" points="376.8,-22 386.8,-18.5 376.8,-15 376.8,-22"/>
</g>
<!-- sys_sendmsg&#45;&gt;sock_sendmsg -->
<g id="edge35" class="edge">
<title>sys_sendmsg&#45;&gt;sock_sendmsg</title>
<path fill="none" stroke="black" d="M348.38,-254.11C363.88,-260.03 381.76,-266.86 398.24,-273.16"/>
<polygon fill="black" stroke="black" points="397.16,-276.49 407.75,-276.79 399.66,-269.95 397.16,-276.49"/>
</g>
<!-- sys_recvmsg&#45;&gt;sock_recvmsg -->
<g id="edge36" class="edge">
<title>sys_recvmsg&#45;&gt;sock_recvmsg</title>
<path fill="none" stroke="black" d="M348.38,-89.11C363.88,-95.03 381.76,-101.86 398.24,-108.16"/>
<polygon fill="black" stroke="black" points="397.16,-111.49 407.75,-111.79 399.66,-104.95 397.16,-111.49"/>
</g>
<!-- sock&#45;&gt;ops&#45;&gt;sendmsg -->
<g id="node34" class="node">
<title>sock&#45;&gt;ops&#45;&gt;sendmsg</title>
<path fill="none" stroke="black" stroke-width="0.5" d="M566,-275.5C566,-275.5 667,-275.5 667,-275.5 673,-275.5 679,-281.5 679,-287.5 679,-287.5 679,-299.5 679,-299.5 679,-305.5 673,-311.5 667,-311.5 667,-311.5 566,-311.5 566,-311.5 560,-311.5 554,-305.5 554,-299.5 554,-299.5 554,-287.5 554,-287.5 554,-281.5 560,-275.5 566,-275.5"/>
<text text-anchor="middle" x="616.5" y="-291" font-family="DejaVu Sans Mono" font-size="10.00">sock&#45;&gt;ops&#45;&gt;sendmsg</text>
</g>
<!-- sock_sendmsg&#45;&gt;sock&#45;&gt;ops&#45;&gt;sendmsg -->
<g id="edge37" class="edge">
<title>sock_sendmsg&#45;&gt;sock&#45;&gt;ops&#45;&gt;sendmsg</title>
<path fill="none" stroke="black" d="M497.34,-293.5C511.64,-293.5 527.91,-293.5 543.7,-293.5"/>
<polygon fill="black" stroke="black" points="543.99,-297 553.99,-293.5 543.99,-290 543.99,-297"/>
</g>
<!-- sock&#45;&gt;ops&#45;&gt;recvmsg -->
<g id="node35" class="node">
<title>sock&#45;&gt;ops&#45;&gt;recvmsg</title>
<path fill="none" stroke="black" stroke-width="0.5" d="M566,-110.5C566,-110.5 667,-110.5 667,-110.5 673,-110.5 679,-116.5 679,-122.5 679,-122.5 679,-134.5 679,-134.5 679,-140.5 673,-146.5 667,-146.5 667,-146.5 566,-146.5 566,-146.5 560,-146.5 554,-140.5 554,-134.5 554,-134.5 554,-122.5 554,-122.5 554,-116.5 560,-110.5 566,-110.5"/>
<text text-anchor="middle" x="616.5" y="-126" font-family="DejaVu Sans Mono" font-size="10.00">sock&#45;&gt;ops&#45;&gt;recvmsg</text>
</g>
<!-- sock_recvmsg&#45;&gt;sock&#45;&gt;ops&#45;&gt;recvmsg -->
<g id="edge38" class="edge">
<title>sock_recvmsg&#45;&gt;sock&#45;&gt;ops&#45;&gt;recvmsg</title>
<path fill="none" stroke="black" d="M497.34,-128.5C511.64,-128.5 527.91,-128.5 543.7,-128.5"/>
<polygon fill="black" stroke="black" points="543.99,-132 553.99,-128.5 543.99,-125 543.99,-132"/>
</g>
</g>
</svg>
