<?xml version="1.0" encoding="UTF-8" standalone="no"?>
<!DOCTYPE svg PUBLIC "-//W3C//DTD SVG 1.1//EN"
 "http://www.w3.org/Graphics/SVG/1.1/DTD/svg11.dtd">
<!-- Generated by graphviz version 2.43.0 (0)
 -->
<!-- Title: G Pages: 1 -->
<svg width="1851pt" height="506pt"
 viewBox="0.00 0.00 1851.00 506.00" xmlns="http://www.w3.org/2000/svg" xmlns:xlink="http://www.w3.org/1999/xlink">
<g id="graph0" class="graph" transform="scale(1 1) rotate(0) translate(4 502)">
<title>G</title>
<polygon fill="white" stroke="transparent" points="-4,4 -4,-502 1847,-502 1847,4 -4,4"/>
<g id="clust14" class="cluster">
<title>cluster_arp</title>
<polygon fill="beige" stroke="black" points="8,-8 8,-83 916,-83 916,-8 8,-8"/>
<text text-anchor="middle" x="462" y="-67.8" font-family="Helvetica,Arial,sans-serif" font-size="14.00">ARP Layer</text>
</g>
<g id="clust12" class="cluster">
<title>cluster_ip</title>
<polygon fill="lightgreen" stroke="black" points="8,-253 8,-407 916,-407 916,-253 8,-253"/>
<text text-anchor="middle" x="462" y="-391.8" font-family="Helvetica,Arial,sans-serif" font-size="14.00">IP Layer</text>
</g>
<g id="clust13" class="cluster">
<title>cluster_br</title>
<polygon fill="lightblue" stroke="black" points="8,-91 8,-245 916,-245 916,-91 8,-91"/>
<text text-anchor="middle" x="462" y="-229.8" font-family="Helvetica,Arial,sans-serif" font-size="14.00">Bridge Layer</text>
</g>
<g id="clust11" class="cluster">
<title>cluster_app</title>
<polygon fill="gold" stroke="black" points="8,-415 8,-490 916,-490 916,-415 8,-415"/>
<text text-anchor="middle" x="462" y="-474.8" font-family="Helvetica,Arial,sans-serif" font-size="14.00">Application Layer</text>
</g>
<!-- p00_ -->
<!-- p01_ -->
<!-- p00_&#45;&gt;p01_ -->
<!-- p02_ph -->
<g id="node3" class="node">
<title>p02_ph</title>
<path fill="lightgrey" stroke="black" d="M148,-297C148,-297 28,-297 28,-297 22,-297 16,-291 16,-285 16,-285 16,-273 16,-273 16,-267 22,-261 28,-261 28,-261 148,-261 148,-261 154,-261 160,-267 160,-273 160,-273 160,-285 160,-285 160,-291 154,-297 148,-297"/>
<text text-anchor="middle" x="88" y="-276.5" font-family="Helvetica,Arial,sans-serif" font-size="10.00">Prerouting Hook</text>
</g>
<!-- p01_&#45;&gt;p02_ph -->
<!-- p03_ -->
<!-- p02_ph&#45;&gt;p03_ -->
<!-- p12_rd -->
<g id="node14" class="node">
<title>p12_rd</title>
<path fill="lightgrey" stroke="black" d="M263.36,-294.09C263.36,-294.09 214.64,-281.91 214.64,-281.91 208.82,-280.46 208.82,-277.54 214.64,-276.09 214.64,-276.09 263.36,-263.91 263.36,-263.91 269.18,-262.46 280.82,-262.46 286.64,-263.91 286.64,-263.91 335.36,-276.09 335.36,-276.09 341.18,-277.54 341.18,-280.46 335.36,-281.91 335.36,-281.91 286.64,-294.09 286.64,-294.09 280.82,-295.54 269.18,-295.54 263.36,-294.09"/>
<text text-anchor="middle" x="275" y="-276.5" font-family="Helvetica,Arial,sans-serif" font-size="10.00">Routing Decision?</text>
</g>
<!-- p02_ph&#45;&gt;p12_rd -->
<g id="edge37" class="edge">
<title>p02_ph&#45;&gt;p12_rd</title>
<path fill="none" stroke="black" d="M160.32,-279C172.73,-279 185.14,-279 197.55,-279"/>
<polygon fill="black" stroke="black" points="202.87,-279 197.87,-281.25 200.37,-279 197.87,-279 197.87,-279 197.87,-279 200.37,-279 197.87,-276.75 202.87,-279 202.87,-279"/>
</g>
<!-- p04_pb -->
<g id="node5" class="node">
<title>p04_pb</title>
<path fill="lightgrey" stroke="black" d="M148,-135C148,-135 28,-135 28,-135 22,-135 16,-129 16,-123 16,-123 16,-111 16,-111 16,-105 22,-99 28,-99 28,-99 148,-99 148,-99 154,-99 160,-105 160,-111 160,-111 160,-123 160,-123 160,-129 154,-135 148,-135"/>
<text text-anchor="middle" x="88" y="-114.5" font-family="Helvetica,Arial,sans-serif" font-size="10.00">Prerouting Bridge</text>
</g>
<!-- p03_&#45;&gt;p04_pb -->
<!-- p05_ -->
<!-- p04_pb&#45;&gt;p05_ -->
<!-- p14_bd -->
<g id="node16" class="node">
<title>p14_bd</title>
<path fill="lightgrey" stroke="black" d="M263.36,-132.09C263.36,-132.09 214.64,-119.91 214.64,-119.91 208.82,-118.46 208.82,-115.54 214.64,-114.09 214.64,-114.09 263.36,-101.91 263.36,-101.91 269.18,-100.46 280.82,-100.46 286.64,-101.91 286.64,-101.91 335.36,-114.09 335.36,-114.09 341.18,-115.54 341.18,-118.46 335.36,-119.91 335.36,-119.91 286.64,-132.09 286.64,-132.09 280.82,-133.54 269.18,-133.54 263.36,-132.09"/>
<text text-anchor="middle" x="275" y="-114.5" font-family="Helvetica,Arial,sans-serif" font-size="10.00">Bridge Decision?</text>
</g>
<!-- p04_pb&#45;&gt;p14_bd -->
<g id="edge29" class="edge">
<title>p04_pb&#45;&gt;p14_bd</title>
<path fill="none" stroke="black" d="M160.32,-117C172.73,-117 185.14,-117 197.55,-117"/>
<polygon fill="black" stroke="black" points="202.87,-117 197.87,-119.25 200.37,-117 197.87,-117 197.87,-117 197.87,-117 200.37,-117 197.87,-114.75 202.87,-117 202.87,-117"/>
</g>
<!-- drp -->
<g id="node7" class="node">
<title>drp</title>
<path fill="lightgrey" stroke="black" d="M1083,-135C1083,-135 963,-135 963,-135 957,-135 951,-129 951,-123 951,-123 951,-111 951,-111 951,-105 957,-99 963,-99 963,-99 1083,-99 1083,-99 1089,-99 1095,-105 1095,-111 1095,-111 1095,-123 1095,-123 1095,-129 1089,-135 1083,-135"/>
<text text-anchor="middle" x="1023" y="-114.5" font-family="Helvetica,Arial,sans-serif" font-size="10.00">Driver RX path</text>
</g>
<!-- ig -->
<g id="node9" class="node">
<title>ig</title>
<path fill="lightgrey" stroke="black" d="M1270,-135C1270,-135 1150,-135 1150,-135 1144,-135 1138,-129 1138,-123 1138,-123 1138,-111 1138,-111 1138,-105 1144,-99 1150,-99 1150,-99 1270,-99 1270,-99 1276,-99 1282,-105 1282,-111 1282,-111 1282,-123 1282,-123 1282,-129 1276,-135 1270,-135"/>
<text text-anchor="middle" x="1210" y="-114.5" font-family="Helvetica,Arial,sans-serif" font-size="10.00">Ingress</text>
</g>
<!-- drp&#45;&gt;ig -->
<g id="edge26" class="edge">
<title>drp&#45;&gt;ig</title>
<path fill="none" stroke="black" d="M1095.32,-117C1107.73,-117 1120.14,-117 1132.55,-117"/>
<polygon fill="black" stroke="black" points="1137.87,-117 1132.87,-119.25 1135.37,-117 1132.87,-117 1132.87,-117 1132.87,-117 1135.37,-117 1132.87,-114.75 1137.87,-117 1137.87,-117"/>
</g>
<!-- dtp -->
<g id="node8" class="node">
<title>dtp</title>
<path fill="lightgrey" stroke="black" d="M1831,-135C1831,-135 1711,-135 1711,-135 1705,-135 1699,-129 1699,-123 1699,-123 1699,-111 1699,-111 1699,-105 1705,-99 1711,-99 1711,-99 1831,-99 1831,-99 1837,-99 1843,-105 1843,-111 1843,-111 1843,-123 1843,-123 1843,-129 1837,-135 1831,-135"/>
<text text-anchor="middle" x="1771" y="-114.5" font-family="Helvetica,Arial,sans-serif" font-size="10.00">Driver TX path</text>
</g>
<!-- bp -->
<g id="node11" class="node">
<title>bp</title>
<path fill="lightgrey" stroke="black" d="M1457,-135C1457,-135 1337,-135 1337,-135 1331,-135 1325,-129 1325,-123 1325,-123 1325,-111 1325,-111 1325,-105 1331,-99 1337,-99 1337,-99 1457,-99 1457,-99 1463,-99 1469,-105 1469,-111 1469,-111 1469,-123 1469,-123 1469,-129 1463,-135 1457,-135"/>
<text text-anchor="middle" x="1397" y="-114.5" font-family="Helvetica,Arial,sans-serif" font-size="10.00">Bridge Port?</text>
</g>
<!-- ig&#45;&gt;bp -->
<g id="edge27" class="edge">
<title>ig&#45;&gt;bp</title>
<path fill="none" stroke="black" d="M1282.32,-117C1294.73,-117 1307.14,-117 1319.55,-117"/>
<polygon fill="black" stroke="black" points="1324.87,-117 1319.87,-119.25 1322.37,-117 1319.87,-117 1319.87,-117 1319.87,-117 1322.37,-117 1319.87,-114.75 1324.87,-117 1324.87,-117"/>
</g>
<!-- eg -->
<g id="node10" class="node">
<title>eg</title>
<path fill="lightgrey" stroke="black" d="M1644,-135C1644,-135 1524,-135 1524,-135 1518,-135 1512,-129 1512,-123 1512,-123 1512,-111 1512,-111 1512,-105 1518,-99 1524,-99 1524,-99 1644,-99 1644,-99 1650,-99 1656,-105 1656,-111 1656,-111 1656,-123 1656,-123 1656,-129 1650,-135 1644,-135"/>
<text text-anchor="middle" x="1584" y="-114.5" font-family="Helvetica,Arial,sans-serif" font-size="10.00">Egress</text>
</g>
<!-- eg&#45;&gt;dtp -->
<g id="edge33" class="edge">
<title>eg&#45;&gt;dtp</title>
<path fill="none" stroke="black" d="M1656.32,-117C1668.73,-117 1681.14,-117 1693.55,-117"/>
<polygon fill="black" stroke="black" points="1698.87,-117 1693.87,-119.25 1696.37,-117 1693.87,-117 1693.87,-117 1693.87,-117 1696.37,-117 1693.87,-114.75 1698.87,-117 1698.87,-117"/>
</g>
<!-- bp&#45;&gt;p04_pb -->
<g id="edge28" class="edge">
<title>bp&#45;&gt;p04_pb:w</title>
<path fill="none" stroke="black" d="M1324.7,-117C914.18,-117 503.65,-117 93.13,-117"/>
<polygon fill="black" stroke="black" points="88,-117 93,-114.75 90.5,-117 93,-117 93,-117 93,-117 90.5,-117 93,-119.25 88,-117 88,-117"/>
</g>
<!-- p10_ -->
<!-- p11_ih -->
<g id="node13" class="node">
<title>p11_ih</title>
<path fill="lightgrey" stroke="black" d="M335,-376C335,-376 215,-376 215,-376 209,-376 203,-370 203,-364 203,-364 203,-352 203,-352 203,-346 209,-340 215,-340 215,-340 335,-340 335,-340 341,-340 347,-346 347,-352 347,-352 347,-364 347,-364 347,-370 341,-376 335,-376"/>
<text text-anchor="middle" x="275" y="-355.5" font-family="Helvetica,Arial,sans-serif" font-size="10.00">Input Hook</text>
</g>
<!-- p10_&#45;&gt;p11_ih -->
<!-- p11_ih&#45;&gt;p12_rd -->
<!-- p12_rd&#45;&gt;p11_ih -->
<g id="edge34" class="edge">
<title>p12_rd&#45;&gt;p11_ih</title>
<path fill="none" stroke="black" d="M288.06,-293.96C291.82,-305.35 292.5,-321.67 290.1,-334.85"/>
<polygon fill="black" stroke="black" points="288.98,-339.91 287.86,-334.54 289.52,-337.47 290.06,-335.03 290.06,-335.03 290.06,-335.03 289.52,-337.47 292.26,-335.51 288.98,-339.91 288.98,-339.91"/>
</g>
<!-- p13_ib -->
<g id="node15" class="node">
<title>p13_ib</title>
<path fill="lightgrey" stroke="black" d="M335,-214C335,-214 215,-214 215,-214 209,-214 203,-208 203,-202 203,-202 203,-190 203,-190 203,-184 209,-178 215,-178 215,-178 335,-178 335,-178 341,-178 347,-184 347,-190 347,-190 347,-202 347,-202 347,-208 341,-214 335,-214"/>
<text text-anchor="middle" x="275" y="-193.5" font-family="Helvetica,Arial,sans-serif" font-size="10.00">Input Bridge</text>
</g>
<!-- p12_rd&#45;&gt;p13_ib -->
<!-- p22_fh -->
<g id="node20" class="node">
<title>p22_fh</title>
<path fill="lightgrey" stroke="black" d="M522,-297C522,-297 402,-297 402,-297 396,-297 390,-291 390,-285 390,-285 390,-273 390,-273 390,-267 396,-261 402,-261 402,-261 522,-261 522,-261 528,-261 534,-267 534,-273 534,-273 534,-285 534,-285 534,-291 528,-297 522,-297"/>
<text text-anchor="middle" x="462" y="-276.5" font-family="Helvetica,Arial,sans-serif" font-size="10.00">Forward Hook</text>
</g>
<!-- p12_rd&#45;&gt;p22_fh -->
<g id="edge38" class="edge">
<title>p12_rd&#45;&gt;p22_fh</title>
<path fill="none" stroke="black" d="M347.32,-279C359.73,-279 372.14,-279 384.55,-279"/>
<polygon fill="black" stroke="black" points="389.87,-279 384.87,-281.25 387.37,-279 384.87,-279 384.87,-279 384.87,-279 387.37,-279 384.87,-276.75 389.87,-279 389.87,-279"/>
</g>
<!-- p13_ib&#45;&gt;p02_ph -->
<g id="edge45" class="edge">
<title>p13_ib&#45;&gt;p02_ph</title>
<path fill="none" stroke="black" d="M235.72,-214.01C205.59,-227.06 163.98,-245.09 132.6,-258.68"/>
<polygon fill="black" stroke="black" points="127.66,-260.82 131.35,-256.77 129.95,-259.83 132.25,-258.83 132.25,-258.83 132.25,-258.83 129.95,-259.83 133.14,-260.9 127.66,-260.82 127.66,-260.82"/>
</g>
<!-- p13_ib&#45;&gt;p14_bd -->
<!-- p14_bd&#45;&gt;p13_ib -->
<g id="edge43" class="edge">
<title>p14_bd&#45;&gt;p13_ib</title>
<path fill="none" stroke="black" d="M288.06,-131.96C291.82,-143.35 292.5,-159.67 290.1,-172.85"/>
<polygon fill="black" stroke="black" points="288.98,-177.91 287.86,-172.54 289.52,-175.47 290.06,-173.03 290.06,-173.03 290.06,-173.03 289.52,-175.47 292.26,-173.51 288.98,-177.91 288.98,-177.91"/>
</g>
<!-- p15_ih -->
<g id="node17" class="node">
<title>p15_ih</title>
<path fill="lightgrey" stroke="black" d="M335,-52C335,-52 215,-52 215,-52 209,-52 203,-46 203,-40 203,-40 203,-28 203,-28 203,-22 209,-16 215,-16 215,-16 335,-16 335,-16 341,-16 347,-22 347,-28 347,-28 347,-40 347,-40 347,-46 341,-52 335,-52"/>
<text text-anchor="middle" x="275" y="-31.5" font-family="Helvetica,Arial,sans-serif" font-size="10.00">Input Hook</text>
</g>
<!-- p14_bd&#45;&gt;p15_ih -->
<!-- p24_fb -->
<g id="node22" class="node">
<title>p24_fb</title>
<path fill="lightgrey" stroke="black" d="M522,-135C522,-135 402,-135 402,-135 396,-135 390,-129 390,-123 390,-123 390,-111 390,-111 390,-105 396,-99 402,-99 402,-99 522,-99 522,-99 528,-99 534,-105 534,-111 534,-111 534,-123 534,-123 534,-129 528,-135 522,-135"/>
<text text-anchor="middle" x="462" y="-114.5" font-family="Helvetica,Arial,sans-serif" font-size="10.00">Forward Bridge</text>
</g>
<!-- p14_bd&#45;&gt;p24_fb -->
<g id="edge30" class="edge">
<title>p14_bd&#45;&gt;p24_fb</title>
<path fill="none" stroke="black" d="M347.32,-117C359.73,-117 372.14,-117 384.55,-117"/>
<polygon fill="black" stroke="black" points="389.87,-117 384.87,-119.25 387.37,-117 384.87,-117 384.87,-117 384.87,-117 387.37,-117 384.87,-114.75 389.87,-117 389.87,-117"/>
</g>
<!-- p25_ah -->
<g id="node23" class="node">
<title>p25_ah</title>
<path fill="lightgrey" stroke="black" d="M522,-52C522,-52 402,-52 402,-52 396,-52 390,-46 390,-40 390,-40 390,-28 390,-28 390,-22 396,-16 402,-16 402,-16 522,-16 522,-16 528,-16 534,-22 534,-28 534,-28 534,-40 534,-40 534,-46 528,-52 522,-52"/>
<text text-anchor="middle" x="462" y="-31.5" font-family="Helvetica,Arial,sans-serif" font-size="10.00">ARP Handler</text>
</g>
<!-- p15_ih&#45;&gt;p25_ah -->
<g id="edge47" class="edge">
<title>p15_ih&#45;&gt;p25_ah</title>
<path fill="none" stroke="black" d="M347.32,-34C359.73,-34 372.14,-34 384.55,-34"/>
<polygon fill="black" stroke="black" points="389.87,-34 384.87,-36.25 387.37,-34 384.87,-34 384.87,-34 384.87,-34 387.37,-34 384.87,-31.75 389.87,-34 389.87,-34"/>
</g>
<!-- p20_lp -->
<g id="node18" class="node">
<title>p20_lp</title>
<path fill="lightgrey" stroke="black" d="M522,-459C522,-459 402,-459 402,-459 396,-459 390,-453 390,-447 390,-447 390,-435 390,-435 390,-429 396,-423 402,-423 402,-423 522,-423 522,-423 528,-423 534,-429 534,-435 534,-435 534,-447 534,-447 534,-453 528,-459 522,-459"/>
<text text-anchor="middle" x="462" y="-438.5" font-family="Helvetica,Arial,sans-serif" font-size="10.00">Local Process</text>
</g>
<!-- p20_lp&#45;&gt;p11_ih -->
<g id="edge41" class="edge">
<title>p20_lp:w&#45;&gt;p11_ih:n</title>
<path fill="none" stroke="black" d="M384.39,-438.41C363.06,-426.44 275,-377 275,-377"/>
<polygon fill="black" stroke="black" points="383.78,-440.08 389,-441 385.5,-437.03 383.78,-440.08"/>
</g>
<!-- p21_rd -->
<g id="node19" class="node">
<title>p21_rd</title>
<path fill="lightgrey" stroke="black" d="M450.36,-373.09C450.36,-373.09 401.64,-360.91 401.64,-360.91 395.82,-359.46 395.82,-356.54 401.64,-355.09 401.64,-355.09 450.36,-342.91 450.36,-342.91 456.18,-341.46 467.82,-341.46 473.64,-342.91 473.64,-342.91 522.36,-355.09 522.36,-355.09 528.18,-356.54 528.18,-359.46 522.36,-360.91 522.36,-360.91 473.64,-373.09 473.64,-373.09 467.82,-374.54 456.18,-374.54 450.36,-373.09"/>
<text text-anchor="middle" x="462" y="-355.5" font-family="Helvetica,Arial,sans-serif" font-size="10.00">Routing Decision</text>
</g>
<!-- p20_lp&#45;&gt;p21_rd -->
<!-- p20_lp&#45;&gt;p21_rd -->
<g id="edge42" class="edge">
<title>p20_lp&#45;&gt;p21_rd:n</title>
<path fill="none" stroke="black" d="M462,-422.78C462,-409.09 462,-390.82 462,-382.08"/>
<polygon fill="black" stroke="black" points="462,-377 464.25,-382 462,-379.5 462,-382 462,-382 462,-382 462,-379.5 459.75,-382 462,-377 462,-377"/>
</g>
<!-- p21_rd&#45;&gt;p22_fh -->
<!-- p31_oh -->
<g id="node25" class="node">
<title>p31_oh</title>
<path fill="lightgrey" stroke="black" d="M709,-376C709,-376 589,-376 589,-376 583,-376 577,-370 577,-364 577,-364 577,-352 577,-352 577,-346 583,-340 589,-340 589,-340 709,-340 709,-340 715,-340 721,-346 721,-352 721,-352 721,-364 721,-364 721,-370 715,-376 709,-376"/>
<text text-anchor="middle" x="649" y="-355.5" font-family="Helvetica,Arial,sans-serif" font-size="10.00">Output Hook</text>
</g>
<!-- p21_rd&#45;&gt;p31_oh -->
<g id="edge35" class="edge">
<title>p21_rd&#45;&gt;p31_oh</title>
<path fill="none" stroke="black" d="M534.32,-358C546.73,-358 559.14,-358 571.55,-358"/>
<polygon fill="black" stroke="black" points="576.87,-358 571.87,-360.25 574.37,-358 571.87,-358 571.87,-358 571.87,-358 574.37,-358 571.87,-355.75 576.87,-358 576.87,-358"/>
</g>
<!-- p23_ -->
<!-- p22_fh&#45;&gt;p23_ -->
<!-- p32_ph -->
<g id="node26" class="node">
<title>p32_ph</title>
<path fill="lightgrey" stroke="black" d="M709,-297C709,-297 589,-297 589,-297 583,-297 577,-291 577,-285 577,-285 577,-273 577,-273 577,-267 583,-261 589,-261 589,-261 709,-261 709,-261 715,-261 721,-267 721,-273 721,-273 721,-285 721,-285 721,-291 715,-297 709,-297"/>
<text text-anchor="middle" x="649" y="-276.5" font-family="Helvetica,Arial,sans-serif" font-size="10.00">Postrouting Hook</text>
</g>
<!-- p22_fh&#45;&gt;p32_ph -->
<g id="edge39" class="edge">
<title>p22_fh&#45;&gt;p32_ph</title>
<path fill="none" stroke="black" d="M534.32,-279C546.73,-279 559.14,-279 571.55,-279"/>
<polygon fill="black" stroke="black" points="576.87,-279 571.87,-281.25 574.37,-279 571.87,-279 571.87,-279 571.87,-279 574.37,-279 571.87,-276.75 576.87,-279 576.87,-279"/>
</g>
<!-- p23_&#45;&gt;p24_fb -->
<!-- p24_fb&#45;&gt;p25_ah -->
<!-- p34_pb -->
<g id="node28" class="node">
<title>p34_pb</title>
<path fill="lightgrey" stroke="black" d="M709,-135C709,-135 589,-135 589,-135 583,-135 577,-129 577,-123 577,-123 577,-111 577,-111 577,-105 583,-99 589,-99 589,-99 709,-99 709,-99 715,-99 721,-105 721,-111 721,-111 721,-123 721,-123 721,-129 715,-135 709,-135"/>
<text text-anchor="middle" x="649" y="-114.5" font-family="Helvetica,Arial,sans-serif" font-size="10.00">Postrouting Bridge</text>
</g>
<!-- p24_fb&#45;&gt;p34_pb -->
<g id="edge31" class="edge">
<title>p24_fb&#45;&gt;p34_pb</title>
<path fill="none" stroke="black" d="M534.32,-117C546.73,-117 559.14,-117 571.55,-117"/>
<polygon fill="black" stroke="black" points="576.87,-117 571.87,-119.25 574.37,-117 571.87,-117 571.87,-117 571.87,-117 574.37,-117 571.87,-114.75 576.87,-117 576.87,-117"/>
</g>
<!-- p35_oh -->
<g id="node29" class="node">
<title>p35_oh</title>
<path fill="lightgrey" stroke="black" d="M709,-52C709,-52 589,-52 589,-52 583,-52 577,-46 577,-40 577,-40 577,-28 577,-28 577,-22 583,-16 589,-16 589,-16 709,-16 709,-16 715,-16 721,-22 721,-28 721,-28 721,-40 721,-40 721,-46 715,-52 709,-52"/>
<text text-anchor="middle" x="649" y="-31.5" font-family="Helvetica,Arial,sans-serif" font-size="10.00">Output Hook</text>
</g>
<!-- p25_ah&#45;&gt;p35_oh -->
<g id="edge48" class="edge">
<title>p25_ah&#45;&gt;p35_oh</title>
<path fill="none" stroke="black" d="M534.32,-34C546.73,-34 559.14,-34 571.55,-34"/>
<polygon fill="black" stroke="black" points="576.87,-34 571.87,-36.25 574.37,-34 571.87,-34 571.87,-34 571.87,-34 574.37,-34 571.87,-31.75 576.87,-34 576.87,-34"/>
</g>
<!-- p30_ -->
<!-- p30_&#45;&gt;p31_oh -->
<!-- p31_oh&#45;&gt;p32_ph -->
<!-- p31_oh&#45;&gt;p32_ph -->
<g id="edge36" class="edge">
<title>p31_oh&#45;&gt;p32_ph</title>
<path fill="none" stroke="black" d="M662.98,-339.91C665.92,-328.75 666.29,-314.06 664.08,-302.02"/>
<polygon fill="black" stroke="black" points="662.97,-297.04 666.25,-301.43 663.51,-299.48 664.05,-301.92 664.05,-301.92 664.05,-301.92 663.51,-299.48 661.86,-302.41 662.97,-297.04 662.97,-297.04"/>
</g>
<!-- p33_ob -->
<g id="node27" class="node">
<title>p33_ob</title>
<path fill="lightgrey" stroke="black" d="M709,-214C709,-214 589,-214 589,-214 583,-214 577,-208 577,-202 577,-202 577,-190 577,-190 577,-184 583,-178 589,-178 589,-178 709,-178 709,-178 715,-178 721,-184 721,-190 721,-190 721,-202 721,-202 721,-208 715,-214 709,-214"/>
<text text-anchor="middle" x="649" y="-193.5" font-family="Helvetica,Arial,sans-serif" font-size="10.00">Output Bridge</text>
</g>
<!-- p32_ph&#45;&gt;p33_ob -->
<!-- p42_bd -->
<g id="node32" class="node">
<title>p42_bd</title>
<path fill="lightgrey" stroke="black" d="M824.36,-294.09C824.36,-294.09 775.64,-281.91 775.64,-281.91 769.82,-280.46 769.82,-277.54 775.64,-276.09 775.64,-276.09 824.36,-263.91 824.36,-263.91 830.18,-262.46 841.82,-262.46 847.64,-263.91 847.64,-263.91 896.36,-276.09 896.36,-276.09 902.18,-277.54 902.18,-280.46 896.36,-281.91 896.36,-281.91 847.64,-294.09 847.64,-294.09 841.82,-295.54 830.18,-295.54 824.36,-294.09"/>
<text text-anchor="middle" x="836" y="-276.5" font-family="Helvetica,Arial,sans-serif" font-size="10.00">Bridge Device ?</text>
</g>
<!-- p32_ph&#45;&gt;p42_bd -->
<g id="edge40" class="edge">
<title>p32_ph&#45;&gt;p42_bd</title>
<path fill="none" stroke="black" d="M721.32,-279C733.73,-279 746.14,-279 758.55,-279"/>
<polygon fill="black" stroke="black" points="763.87,-279 758.87,-281.25 761.37,-279 758.87,-279 758.87,-279 758.87,-279 761.37,-279 758.87,-276.75 763.87,-279 763.87,-279"/>
</g>
<!-- p33_ob&#45;&gt;p34_pb -->
<!-- p33_ob&#45;&gt;p34_pb -->
<g id="edge44" class="edge">
<title>p33_ob&#45;&gt;p34_pb</title>
<path fill="none" stroke="black" d="M662.98,-177.91C665.92,-166.75 666.29,-152.06 664.08,-140.02"/>
<polygon fill="black" stroke="black" points="662.97,-135.04 666.25,-139.43 663.51,-137.48 664.05,-139.92 664.05,-139.92 664.05,-139.92 663.51,-137.48 661.86,-140.41 662.97,-135.04 662.97,-135.04"/>
</g>
<!-- p34_pb&#45;&gt;p35_oh -->
<!-- p40_ -->
<!-- p41_ -->
<!-- p40_&#45;&gt;p41_ -->
<!-- p41_&#45;&gt;p42_bd -->
<!-- p42_bd&#45;&gt;p33_ob -->
<g id="edge46" class="edge">
<title>p42_bd&#45;&gt;p33_ob</title>
<path fill="none" stroke="black" d="M810.78,-267.08C780.73,-254.06 729.98,-232.08 693.32,-216.2"/>
<polygon fill="black" stroke="black" points="688.47,-214.1 693.96,-214.02 690.77,-215.09 693.06,-216.09 693.06,-216.09 693.06,-216.09 690.77,-215.09 692.17,-218.15 688.47,-214.1 688.47,-214.1"/>
</g>
<!-- p43_ -->
<!-- p42_bd&#45;&gt;p43_ -->
<!-- p44_ -->
<!-- p43_&#45;&gt;p44_ -->
<!-- p44_&#45;&gt;eg -->
<g id="edge32" class="edge">
<title>p44_&#45;&gt;eg</title>
<path fill="none" stroke="black" d="M908.32,-117C1107.79,-117 1307.26,-117 1506.74,-117"/>
<polygon fill="black" stroke="black" points="1511.75,-117 1506.75,-119.25 1509.25,-117 1506.75,-117 1506.75,-117 1506.75,-117 1509.25,-117 1506.75,-114.75 1511.75,-117 1511.75,-117"/>
</g>
<!-- p45_ -->
<!-- p44_&#45;&gt;p45_ -->
</g>
</svg>
