<?xml version="1.0" encoding="UTF-8" standalone="no"?>
<!DOCTYPE svg PUBLIC "-//W3C//DTD SVG 1.1//EN"
 "http://www.w3.org/Graphics/SVG/1.1/DTD/svg11.dtd">
<!-- Generated by graphviz version 2.43.0 (0)
 -->
<!-- Title: vpp_framwark Pages: 1 -->
<svg width="786pt" height="499pt"
 viewBox="0.00 0.00 786.29 499.00" xmlns="http://www.w3.org/2000/svg" xmlns:xlink="http://www.w3.org/1999/xlink">
<g id="graph0" class="graph" transform="scale(1 1) rotate(0) translate(4 495)">
<title>vpp_framwark</title>
<polygon fill="white" stroke="transparent" points="-4,4 -4,-495 782.29,-495 782.29,4 -4,4"/>
<text text-anchor="middle" x="389.15" y="-7.8" font-family="Helvetica,Arial,sans-serif" font-size="14.00">packet process graph</text>
<!-- dpdk -->
<g id="node1" class="node">
<title>dpdk</title>
<ellipse fill="red" stroke="black" cx="158.29" cy="-473" rx="51.99" ry="18"/>
<text text-anchor="middle" x="158.29" y="-469.3" font-family="Helvetica,Arial,sans-serif" font-size="14.00">dpdk&#45;input</text>
</g>
<!-- ethernet -->
<g id="node6" class="node">
<title>ethernet</title>
<ellipse fill="red" stroke="black" cx="454.29" cy="-401" rx="42.79" ry="18"/>
<text text-anchor="middle" x="454.29" y="-397.3" font-family="Helvetica,Arial,sans-serif" font-size="14.00">ethernet</text>
</g>
<!-- dpdk&#45;&gt;ethernet -->
<g id="edge1" class="edge">
<title>dpdk&#45;&gt;ethernet</title>
<path fill="none" stroke="black" d="M200.08,-462.12C254.95,-449.14 350.99,-426.43 408.01,-412.94"/>
<polygon fill="black" stroke="black" points="417.84,-410.62 409.15,-417.3 412.98,-411.77 408.11,-412.92 408.11,-412.92 408.11,-412.92 412.98,-411.77 407.08,-408.54 417.84,-410.62 417.84,-410.62"/>
</g>
<!-- rdma -->
<g id="node2" class="node">
<title>rdma</title>
<ellipse fill="lightgrey" stroke="black" cx="306.29" cy="-473" rx="53.09" ry="18"/>
<text text-anchor="middle" x="306.29" y="-469.3" font-family="Helvetica,Arial,sans-serif" font-size="14.00">rdma&#45;input</text>
</g>
<!-- rdma&#45;&gt;ethernet -->
<g id="edge2" class="edge">
<title>rdma&#45;&gt;ethernet</title>
<path fill="none" stroke="black" d="M335.89,-458C359.38,-446.89 392.33,-431.31 417.52,-419.4"/>
<polygon fill="black" stroke="black" points="426.75,-415.03 419.63,-423.37 422.23,-417.17 417.71,-419.3 417.71,-419.3 417.71,-419.3 422.23,-417.17 415.79,-415.24 426.75,-415.03 426.75,-415.03"/>
</g>
<!-- virtio -->
<g id="node3" class="node">
<title>virtio</title>
<ellipse fill="lightgrey" stroke="black" cx="454.29" cy="-473" rx="51.99" ry="18"/>
<text text-anchor="middle" x="454.29" y="-469.3" font-family="Helvetica,Arial,sans-serif" font-size="14.00">virtio&#45;input</text>
</g>
<!-- virtio&#45;&gt;ethernet -->
<g id="edge4" class="edge">
<title>virtio&#45;&gt;ethernet</title>
<path fill="none" stroke="black" d="M454.29,-454.7C454.29,-446.98 454.29,-437.71 454.29,-429.11"/>
<polygon fill="black" stroke="black" points="454.29,-419.1 458.79,-429.1 454.29,-424.1 454.29,-429.1 454.29,-429.1 454.29,-429.1 454.29,-424.1 449.79,-429.1 454.29,-419.1 454.29,-419.1"/>
</g>
<!-- vmxnet -->
<g id="node4" class="node">
<title>vmxnet</title>
<ellipse fill="lightgrey" stroke="black" cx="615.29" cy="-473" rx="66.09" ry="18"/>
<text text-anchor="middle" x="615.29" y="-469.3" font-family="Helvetica,Arial,sans-serif" font-size="14.00">vmxnet3&#45;input</text>
</g>
<!-- vmxnet&#45;&gt;ethernet -->
<g id="edge3" class="edge">
<title>vmxnet&#45;&gt;ethernet</title>
<path fill="none" stroke="black" d="M581.54,-457.33C555.4,-445.96 519.18,-430.21 492.07,-418.42"/>
<polygon fill="black" stroke="black" points="482.89,-414.43 493.85,-414.29 487.47,-416.43 492.06,-418.42 492.06,-418.42 492.06,-418.42 487.47,-416.43 490.26,-422.55 482.89,-414.43 482.89,-414.43"/>
</g>
<!-- device -->
<g id="node5" class="node">
<title>device</title>
<ellipse fill="lightgrey" stroke="black" cx="751.29" cy="-473" rx="27" ry="18"/>
<text text-anchor="middle" x="751.29" y="-469.3" font-family="Helvetica,Arial,sans-serif" font-size="14.00">......</text>
</g>
<!-- device&#45;&gt;ethernet -->
<g id="edge5" class="edge">
<title>device&#45;&gt;ethernet</title>
<path fill="none" stroke="black" d="M728.54,-463.26C720.62,-460.4 711.63,-457.35 703.29,-455 634.85,-435.68 554.07,-419.71 503.5,-410.51"/>
<polygon fill="black" stroke="black" points="493.5,-408.71 504.14,-406.05 498.42,-409.59 503.34,-410.48 503.34,-410.48 503.34,-410.48 498.42,-409.59 502.54,-414.91 493.5,-408.71 493.5,-408.71"/>
</g>
<!-- ip6 -->
<g id="node7" class="node">
<title>ip6</title>
<ellipse fill="lightgrey" stroke="black" cx="257.29" cy="-329" rx="44.39" ry="18"/>
<text text-anchor="middle" x="257.29" y="-325.3" font-family="Helvetica,Arial,sans-serif" font-size="14.00">ip6&#45;input</text>
</g>
<!-- ethernet&#45;&gt;ip6 -->
<g id="edge6" class="edge">
<title>ethernet&#45;&gt;ip6</title>
<path fill="none" stroke="black" d="M422.64,-388.75C389.1,-376.83 335.96,-357.95 299.01,-344.82"/>
<polygon fill="black" stroke="black" points="289.52,-341.45 300.45,-340.56 294.23,-343.13 298.94,-344.8 298.94,-344.8 298.94,-344.8 294.23,-343.13 297.44,-349.04 289.52,-341.45 289.52,-341.45"/>
</g>
<!-- ip4 -->
<g id="node8" class="node">
<title>ip4</title>
<ellipse fill="red" stroke="black" cx="388.29" cy="-329" rx="44.39" ry="18"/>
<text text-anchor="middle" x="388.29" y="-325.3" font-family="Helvetica,Arial,sans-serif" font-size="14.00">ip4&#45;input</text>
</g>
<!-- ethernet&#45;&gt;ip4 -->
<g id="edge7" class="edge">
<title>ethernet&#45;&gt;ip4</title>
<path fill="none" stroke="black" d="M439.32,-384.12C430.83,-375.12 420.05,-363.68 410.59,-353.65"/>
<polygon fill="black" stroke="black" points="403.67,-346.31 413.8,-350.5 407.1,-349.94 410.53,-353.58 410.53,-353.58 410.53,-353.58 407.1,-349.94 407.26,-356.67 403.67,-346.31 403.67,-346.31"/>
</g>
<!-- arp -->
<g id="node9" class="node">
<title>arp</title>
<ellipse fill="lightgrey" stroke="black" cx="521.29" cy="-329" rx="45.49" ry="18"/>
<text text-anchor="middle" x="521.29" y="-325.3" font-family="Helvetica,Arial,sans-serif" font-size="14.00">arp&#45;input</text>
</g>
<!-- ethernet&#45;&gt;arp -->
<g id="edge8" class="edge">
<title>ethernet&#45;&gt;arp</title>
<path fill="none" stroke="black" d="M469.5,-384.12C478.11,-375.12 489.06,-363.68 498.66,-353.65"/>
<polygon fill="black" stroke="black" points="505.69,-346.31 502.02,-356.64 502.23,-349.92 498.77,-353.53 498.77,-353.53 498.77,-353.53 502.23,-349.92 495.52,-350.42 505.69,-346.31 505.69,-346.31"/>
</g>
<!-- mpls -->
<g id="node10" class="node">
<title>mpls</title>
<ellipse fill="lightgrey" stroke="black" cx="661.29" cy="-329" rx="51.99" ry="18"/>
<text text-anchor="middle" x="661.29" y="-325.3" font-family="Helvetica,Arial,sans-serif" font-size="14.00">mpls&#45;input</text>
</g>
<!-- ethernet&#45;&gt;mpls -->
<g id="edge9" class="edge">
<title>ethernet&#45;&gt;mpls</title>
<path fill="none" stroke="black" d="M486.64,-389.06C521.33,-377.33 576.71,-358.6 615.79,-345.39"/>
<polygon fill="black" stroke="black" points="625.36,-342.15 617.32,-349.62 620.62,-343.75 615.88,-345.36 615.88,-345.36 615.88,-345.36 620.62,-343.75 614.44,-341.09 625.36,-342.15 625.36,-342.15"/>
</g>
<!-- ip4lookup -->
<g id="node11" class="node">
<title>ip4lookup</title>
<ellipse fill="red" stroke="black" cx="287.29" cy="-257" rx="73.39" ry="18"/>
<text text-anchor="middle" x="287.29" y="-253.3" font-family="Helvetica,Arial,sans-serif" font-size="14.00">ip4&#45;lookup&#45;input</text>
</g>
<!-- ip4&#45;&gt;ip4lookup -->
<g id="edge10" class="edge">
<title>ip4&#45;&gt;ip4lookup</title>
<path fill="none" stroke="black" d="M366.87,-313.15C353,-303.54 334.68,-290.84 319.12,-280.05"/>
<polygon fill="black" stroke="black" points="310.8,-274.29 321.58,-276.29 314.91,-277.14 319.02,-279.99 319.02,-279.99 319.02,-279.99 314.91,-277.14 316.45,-283.69 310.8,-274.29 310.8,-274.29"/>
</g>
<!-- ip4ress -->
<g id="node12" class="node">
<title>ip4ress</title>
<ellipse fill="lightgrey" stroke="black" cx="489.29" cy="-257" rx="85.29" ry="18"/>
<text text-anchor="middle" x="489.29" y="-253.3" font-family="Helvetica,Arial,sans-serif" font-size="14.00">ip4&#45;full&#45;reassembly</text>
</g>
<!-- ip4&#45;&gt;ip4ress -->
<g id="edge11" class="edge">
<title>ip4&#45;&gt;ip4ress</title>
<path fill="none" stroke="black" d="M409.71,-313.15C423.49,-303.61 441.65,-291.02 457.14,-280.28"/>
<polygon fill="black" stroke="black" points="465.43,-274.54 459.77,-283.93 461.32,-277.39 457.21,-280.24 457.21,-280.24 457.21,-280.24 461.32,-277.39 454.65,-276.54 465.43,-274.54 465.43,-274.54"/>
</g>
<!-- ip4loc -->
<g id="node13" class="node">
<title>ip4loc</title>
<ellipse fill="red" stroke="black" cx="225.29" cy="-185" rx="43.59" ry="18"/>
<text text-anchor="middle" x="225.29" y="-181.3" font-family="Helvetica,Arial,sans-serif" font-size="14.00">ip4&#45;local</text>
</g>
<!-- ip4lookup&#45;&gt;ip4loc -->
<g id="edge12" class="edge">
<title>ip4lookup&#45;&gt;ip4loc</title>
<path fill="none" stroke="black" d="M272.29,-239.05C264.56,-230.33 255,-219.54 246.53,-209.98"/>
<polygon fill="black" stroke="black" points="239.74,-202.31 249.74,-206.81 243.05,-206.05 246.37,-209.79 246.37,-209.79 246.37,-209.79 243.05,-206.05 243,-212.78 239.74,-202.31 239.74,-202.31"/>
</g>
<!-- ip4arp -->
<g id="node14" class="node">
<title>ip4arp</title>
<ellipse fill="lightgrey" stroke="black" cx="350.29" cy="-185" rx="38.19" ry="18"/>
<text text-anchor="middle" x="350.29" y="-181.3" font-family="Helvetica,Arial,sans-serif" font-size="14.00">ip4&#45;arp</text>
</g>
<!-- ip4lookup&#45;&gt;ip4arp -->
<g id="edge13" class="edge">
<title>ip4lookup&#45;&gt;ip4arp</title>
<path fill="none" stroke="black" d="M302.54,-239.05C310.59,-230.12 320.58,-219.01 329.35,-209.28"/>
<polygon fill="black" stroke="black" points="336.05,-201.83 332.7,-212.27 332.7,-205.55 329.36,-209.26 329.36,-209.26 329.36,-209.26 332.7,-205.55 326.01,-206.25 336.05,-201.83 336.05,-201.83"/>
</g>
<!-- icmp4 -->
<g id="node15" class="node">
<title>icmp4</title>
<ellipse fill="lightgrey" stroke="black" cx="66.29" cy="-113" rx="66.09" ry="18"/>
<text text-anchor="middle" x="66.29" y="-109.3" font-family="Helvetica,Arial,sans-serif" font-size="14.00">ip4&#45;icmp&#45;input</text>
</g>
<!-- ip4loc&#45;&gt;icmp4 -->
<g id="edge14" class="edge">
<title>ip4loc&#45;&gt;icmp4</title>
<path fill="none" stroke="black" d="M196.5,-171.32C172.08,-160.57 136.72,-145 109,-132.8"/>
<polygon fill="black" stroke="black" points="99.55,-128.64 110.51,-128.55 104.13,-130.66 108.7,-132.67 108.7,-132.67 108.7,-132.67 104.13,-130.66 106.89,-136.79 99.55,-128.64 99.55,-128.64"/>
</g>
<!-- tcp4 -->
<g id="node16" class="node">
<title>tcp4</title>
<ellipse fill="red" stroke="black" cx="225.29" cy="-113" rx="49.29" ry="18"/>
<text text-anchor="middle" x="225.29" y="-109.3" font-family="Helvetica,Arial,sans-serif" font-size="14.00">tcp4&#45;input</text>
</g>
<!-- ip4loc&#45;&gt;tcp4 -->
<g id="edge15" class="edge">
<title>ip4loc&#45;&gt;tcp4</title>
<path fill="none" stroke="black" d="M225.29,-166.7C225.29,-158.98 225.29,-149.71 225.29,-141.11"/>
<polygon fill="black" stroke="black" points="225.29,-131.1 229.79,-141.1 225.29,-136.1 225.29,-141.1 225.29,-141.1 225.29,-141.1 225.29,-136.1 220.79,-141.1 225.29,-131.1 225.29,-131.1"/>
</g>
<!-- udp4 -->
<g id="node17" class="node">
<title>udp4</title>
<ellipse fill="lightgrey" stroke="black" cx="379.29" cy="-113" rx="61.99" ry="18"/>
<text text-anchor="middle" x="379.29" y="-109.3" font-family="Helvetica,Arial,sans-serif" font-size="14.00">ip4&#45;udp&#45;input</text>
</g>
<!-- ip4loc&#45;&gt;udp4 -->
<g id="edge16" class="edge">
<title>ip4loc&#45;&gt;udp4</title>
<path fill="none" stroke="black" d="M253.54,-171.16C277.31,-160.36 311.61,-144.77 338.38,-132.6"/>
<polygon fill="black" stroke="black" points="347.51,-128.45 340.27,-136.68 342.96,-130.52 338.4,-132.59 338.4,-132.59 338.4,-132.59 342.96,-130.52 336.54,-128.49 347.51,-128.45 347.51,-128.45"/>
</g>
<!-- t4listen -->
<g id="node18" class="node">
<title>t4listen</title>
<ellipse fill="red" stroke="black" cx="56.29" cy="-41" rx="50.89" ry="18"/>
<text text-anchor="middle" x="56.29" y="-37.3" font-family="Helvetica,Arial,sans-serif" font-size="14.00">tcp4&#45;listen</text>
</g>
<!-- tcp4&#45;&gt;t4listen -->
<g id="edge17" class="edge">
<title>tcp4&#45;&gt;t4listen</title>
<path fill="none" stroke="black" d="M193.9,-99C166.68,-87.72 127.1,-71.33 97.37,-59.01"/>
<polygon fill="black" stroke="black" points="88.09,-55.17 99.05,-54.84 92.71,-57.08 97.33,-59 97.33,-59 97.33,-59 92.71,-57.08 95.61,-63.15 88.09,-55.17 88.09,-55.17"/>
</g>
<!-- t4rcv -->
<g id="node19" class="node">
<title>t4rcv</title>
<ellipse fill="lightgrey" stroke="black" cx="225.29" cy="-41" rx="75.29" ry="18"/>
<text text-anchor="middle" x="225.29" y="-37.3" font-family="Helvetica,Arial,sans-serif" font-size="14.00">tcp4&#45;rcv&#45;process</text>
</g>
<!-- tcp4&#45;&gt;t4rcv -->
<g id="edge18" class="edge">
<title>tcp4&#45;&gt;t4rcv</title>
<path fill="none" stroke="black" d="M225.29,-94.7C225.29,-86.98 225.29,-77.71 225.29,-69.11"/>
<polygon fill="black" stroke="black" points="225.29,-59.1 229.79,-69.1 225.29,-64.1 225.29,-69.1 225.29,-69.1 225.29,-69.1 225.29,-64.1 220.79,-69.1 225.29,-59.1 225.29,-59.1"/>
</g>
<!-- t4estab -->
<g id="node20" class="node">
<title>t4estab</title>
<ellipse fill="lightgrey" stroke="black" cx="418.29" cy="-41" rx="74.99" ry="18"/>
<text text-anchor="middle" x="418.29" y="-37.3" font-family="Helvetica,Arial,sans-serif" font-size="14.00">tcp4&#45;established</text>
</g>
<!-- tcp4&#45;&gt;t4estab -->
<g id="edge19" class="edge">
<title>tcp4&#45;&gt;t4estab</title>
<path fill="none" stroke="black" d="M258.91,-99.81C289.42,-88.74 334.77,-72.29 369.3,-59.77"/>
<polygon fill="black" stroke="black" points="378.74,-56.35 370.87,-63.99 374.04,-58.05 369.33,-59.76 369.33,-59.76 369.33,-59.76 374.04,-58.05 367.8,-55.53 378.74,-56.35 378.74,-56.35"/>
</g>
</g>
</svg>
