<?xml version="1.0" encoding="UTF-8" standalone="no"?>
<!DOCTYPE svg PUBLIC "-//W3C//DTD SVG 1.1//EN"
 "http://www.w3.org/Graphics/SVG/1.1/DTD/svg11.dtd">
<!-- Generated by graphviz version 2.43.0 (0)
 -->
<!-- Title: ldp Pages: 1 -->
<svg width="670pt" height="381pt"
 viewBox="0.00 0.00 670.00 381.00" xmlns="http://www.w3.org/2000/svg" xmlns:xlink="http://www.w3.org/1999/xlink">
<g id="graph0" class="graph" transform="scale(1 1) rotate(0) translate(4 377)">
<title>ldp</title>
<polygon fill="white" stroke="transparent" points="-4,4 -4,-377 666,-377 666,4 -4,4"/>
<text text-anchor="middle" x="331" y="-7.8" font-family="Times,serif" font-size="14.00">ldp相关结构</text>
<!-- lwc -->
<g id="node1" class="node">
<title>lwc</title>
<text text-anchor="start" x="526.5" y="-358.2" font-family="Microsoft YaHei" font-size="11.00">ldp_worker_ctx_t</text>
<polygon fill="none" stroke="black" points="488,-335 488,-353 654,-353 654,-335 488,-335"/>
<text text-anchor="start" x="535" y="-341.2" font-family="Microsoft YaHei" font-size="11.00">u8 *io_buffer;</text>
<polygon fill="none" stroke="black" points="488,-317 488,-335 654,-335 654,-317 488,-317"/>
<text text-anchor="start" x="516.5" y="-323.2" font-family="Microsoft YaHei" font-size="11.00">clib_time_t clib_time;</text>
<polygon fill="none" stroke="black" points="488,-299 488,-317 654,-317 654,-299 488,-299"/>
<text text-anchor="start" x="504.5" y="-305.2" font-family="Microsoft YaHei" font-size="11.00">clib_bitmap_t *rd_bitmap;</text>
<polygon fill="none" stroke="black" points="488,-281 488,-299 654,-299 654,-281 488,-281"/>
<text text-anchor="start" x="503" y="-287.2" font-family="Microsoft YaHei" font-size="11.00">clib_bitmap_t *wr_bitmap;</text>
<polygon fill="none" stroke="black" points="488,-263 488,-281 654,-281 654,-263 488,-263"/>
<text text-anchor="start" x="504.5" y="-269.2" font-family="Microsoft YaHei" font-size="11.00">clib_bitmap_t *ex_bitmap;</text>
<polygon fill="none" stroke="black" points="488,-245 488,-263 654,-263 654,-245 488,-245"/>
<text text-anchor="start" x="497.5" y="-251.2" font-family="Microsoft YaHei" font-size="11.00">clib_bitmap_t *si_rd_bitmap;</text>
<polygon fill="none" stroke="black" points="488,-227 488,-245 654,-245 654,-227 488,-227"/>
<text text-anchor="start" x="496" y="-233.2" font-family="Microsoft YaHei" font-size="11.00">clib_bitmap_t *si_wr_bitmap;</text>
<polygon fill="none" stroke="black" points="488,-209 488,-227 654,-227 654,-209 488,-209"/>
<text text-anchor="start" x="497" y="-215.2" font-family="Microsoft YaHei" font-size="11.00">clib_bitmap_t *si_ex_bitmap;</text>
<polygon fill="none" stroke="black" points="488,-191 488,-209 654,-209 654,-191 488,-191"/>
<text text-anchor="start" x="492.5" y="-197.2" font-family="Microsoft YaHei" font-size="11.00">clib_bitmap_t *libc_rd_bitmap;</text>
<polygon fill="none" stroke="black" points="488,-173 488,-191 654,-191 654,-173 488,-173"/>
<text text-anchor="start" x="491" y="-179.2" font-family="Microsoft YaHei" font-size="11.00">clib_bitmap_t *libc_wr_bitmap;</text>
<polygon fill="none" stroke="black" points="488,-155 488,-173 654,-173 654,-155 488,-155"/>
<text text-anchor="start" x="492.5" y="-161.2" font-family="Microsoft YaHei" font-size="11.00">clib_bitmap_t *libc_ex_bitmap;</text>
<polygon fill="none" stroke="black" points="488,-137 488,-155 654,-155 654,-137 488,-137"/>
<text text-anchor="start" x="521.5" y="-143.2" font-family="Microsoft YaHei" font-size="11.00">vcl_poll_t *vcl_poll;</text>
<polygon fill="none" stroke="black" points="488,-119 488,-137 654,-137 654,-119 488,-119"/>
<text text-anchor="start" x="512.5" y="-125.2" font-family="Microsoft YaHei" font-size="11.00">struct pollfd *libc_poll;</text>
<polygon fill="none" stroke="black" points="488,-101 488,-119 654,-119 654,-101 488,-101"/>
<text text-anchor="start" x="521" y="-107.2" font-family="Microsoft YaHei" font-size="11.00">u16 *libc_poll_idxs;</text>
<polygon fill="none" stroke="black" points="488,-83 488,-101 654,-101 654,-83 488,-83"/>
<text text-anchor="start" x="525" y="-89.2" font-family="Microsoft YaHei" font-size="11.00">u8 epoll_wait_vcl;</text>
<polygon fill="none" stroke="black" points="488,-65 488,-83 654,-83 654,-65 488,-65"/>
<text text-anchor="start" x="519.5" y="-71.2" font-family="Microsoft YaHei" font-size="11.00">u8 mq_epfd_added;</text>
<polygon fill="none" stroke="black" points="488,-47 488,-65 654,-65 654,-47 488,-47"/>
<text text-anchor="start" x="528.5" y="-53.2" font-family="Microsoft YaHei" font-size="11.00">int vcl_mq_epfd;</text>
</g>
<!-- lm -->
<g id="node2" class="node">
<title>lm</title>
<text text-anchor="start" x="85" y="-194.2" font-family="Microsoft YaHei" font-size="11.00">ldp_main_t</text>
<polygon fill="none" stroke="black" points="8,-171 8,-189 220,-189 220,-171 8,-171"/>
<text text-anchor="start" x="43" y="-177.2" font-family="Microsoft YaHei" font-size="11.00">ldp_worker_ctx_t *workers;</text>
<polygon fill="none" stroke="black" points="8,-153 8,-171 220,-171 220,-153 8,-153"/>
<text text-anchor="start" x="95.5" y="-159.2" font-family="Microsoft YaHei" font-size="11.00">int init;</text>
<polygon fill="none" stroke="black" points="8,-135 8,-153 220,-153 220,-135 8,-135"/>
<text text-anchor="start" x="11" y="-141.2" font-family="Microsoft YaHei" font-size="11.00">char app_name[LDP_APP_NAME_MAX];</text>
<polygon fill="none" stroke="black" points="8,-117 8,-135 220,-135 220,-117 8,-117"/>
<text text-anchor="start" x="70.5" y="-123.2" font-family="Microsoft YaHei" font-size="11.00">u32 vlsh_bit_val;</text>
<polygon fill="none" stroke="black" points="8,-99 8,-117 220,-117 220,-99 8,-99"/>
<text text-anchor="start" x="64" y="-105.2" font-family="Microsoft YaHei" font-size="11.00">u32 vlsh_bit_mask;</text>
<polygon fill="none" stroke="black" points="8,-81 8,-99 220,-99 220,-81 8,-81"/>
<text text-anchor="start" x="84" y="-87.2" font-family="Microsoft YaHei" font-size="11.00">u32 debug;</text>
<polygon fill="none" stroke="black" points="8,-63 8,-81 220,-81 220,-63 8,-63"/>
<text text-anchor="start" x="51.5" y="-69.2" font-family="Microsoft YaHei" font-size="11.00">u8 vcl_needs_real_epoll;</text>
<polygon fill="none" stroke="black" points="8,-45 8,-63 220,-63 220,-45 8,-45"/>
<text text-anchor="start" x="65.5" y="-51.2" font-family="Microsoft YaHei" font-size="11.00">u8 transparent_tls;</text>
<polygon fill="none" stroke="black" points="8,-27 8,-45 220,-45 220,-27 8,-27"/>
<text text-anchor="start" x="68.5" y="-33.2" font-family="Microsoft YaHei" font-size="11.00">u32 ckpair_index;</text>
</g>
<!-- lwp -->
<g id="node3" class="node">
<title>lwp</title>
<text text-anchor="start" x="290.5" y="-222.2" font-family="Microsoft YaHei" font-size="11.00">ldp worker pool</text>
<polygon fill="none" stroke="black" points="273.5,-199 273.5,-217 390.5,-217 390.5,-199 273.5,-199"/>
<text text-anchor="start" x="328.5" y="-205.2" font-family="Microsoft YaHei" font-size="11.00">0</text>
<polygon fill="none" stroke="black" points="273.5,-181 273.5,-199 390.5,-199 390.5,-181 273.5,-181"/>
<text text-anchor="start" x="328.5" y="-187.2" font-family="Microsoft YaHei" font-size="11.00">1</text>
<polygon fill="none" stroke="black" points="273.5,-163 273.5,-181 390.5,-181 390.5,-163 273.5,-163"/>
<text text-anchor="start" x="328.5" y="-169.2" font-family="Microsoft YaHei" font-size="11.00">2</text>
<polygon fill="none" stroke="black" points="273.5,-145 273.5,-163 390.5,-163 390.5,-145 273.5,-145"/>
<text text-anchor="start" x="327" y="-151.2" font-family="Microsoft YaHei" font-size="11.00">...</text>
<polygon fill="none" stroke="black" points="273.5,-127 273.5,-145 390.5,-145 390.5,-127 273.5,-127"/>
<text text-anchor="start" x="276.5" y="-133.2" font-family="Microsoft YaHei" font-size="11.00">LDP_MAX_WORKERS</text>
</g>
<!-- lm&#45;&gt;lwp -->
<g id="edge1" class="edge">
<title>lm:wk&#45;&gt;lwp</title>
<path fill="none" stroke="black" stroke-dasharray="5,2" d="M221,-180C231.84,-180 243.29,-180 254.53,-180"/>
<polygon fill="black" stroke="black" points="254.78,-183.5 264.78,-180 254.78,-176.5 254.78,-183.5"/>
</g>
<!-- lwp&#45;&gt;lwc -->
<g id="edge2" class="edge">
<title>lwp:0&#45;&gt;lwc</title>
<path fill="none" stroke="black" stroke-dasharray="5,2" d="M391.5,-208C416.81,-208 444.13,-208 469.61,-208"/>
<polygon fill="black" stroke="black" points="469.65,-211.5 479.65,-208 469.65,-204.5 469.65,-211.5"/>
<text text-anchor="middle" x="439" y="-211.2" font-family="Microsoft YaHei" font-size="11.00">内存格式</text>
</g>
</g>
</svg>
