<?xml version="1.0" encoding="UTF-8" standalone="no"?>
<!DOCTYPE svg PUBLIC "-//W3C//DTD SVG 1.1//EN"
 "http://www.w3.org/Graphics/SVG/1.1/DTD/svg11.dtd">
<!-- Generated by graphviz version 2.43.0 (0)
 -->
<!-- Title: G Pages: 1 -->
<svg width="707pt" height="652pt"
 viewBox="0.00 0.00 707.00 652.00" xmlns="http://www.w3.org/2000/svg" xmlns:xlink="http://www.w3.org/1999/xlink">
<g id="graph0" class="graph" transform="scale(1 1) rotate(0) translate(4 648)">
<title>G</title>
<polygon fill="white" stroke="transparent" points="-4,4 -4,-648 703,-648 703,4 -4,4"/>
<!-- dk_in -->
<g id="node1" class="node">
<title>dk_in</title>
<path fill="none" stroke="black" d="M52.5,-93C52.5,-93 160.5,-93 160.5,-93 166.5,-93 172.5,-99 172.5,-105 172.5,-105 172.5,-132 172.5,-132 172.5,-138 166.5,-144 160.5,-144 160.5,-144 52.5,-144 52.5,-144 46.5,-144 40.5,-138 40.5,-132 40.5,-132 40.5,-105 40.5,-105 40.5,-99 46.5,-93 52.5,-93"/>
<text text-anchor="middle" x="65.5" y="-116.6" font-family="Times,serif" font-size="8.00">dpdk&#45;input</text>
<polyline fill="none" stroke="black" points="90.5,-93 90.5,-144 "/>
<text text-anchor="start" x="98.5" y="-133.6" font-family="Times,serif" font-size="8.00">+ next_nodes</text>
<polyline fill="none" stroke="black" points="90.5,-127 172.5,-127 "/>
<text text-anchor="start" x="98.5" y="-116.6" font-family="Times,serif" font-size="8.00">+ next_slot_by_node</text>
<polyline fill="none" stroke="black" points="90.5,-110 172.5,-110 "/>
<text text-anchor="middle" x="131.5" y="-99.6" font-family="Times,serif" font-size="8.00">...</text>
<text text-anchor="middle" x="22" y="-86.1" font-family="Times,serif" font-size="8.00">vlib_node_t</text>
</g>
<!-- nd0 -->
<g id="node3" class="node">
<title>nd0</title>
<path fill="none" stroke="black" d="M342,-175.5C342,-175.5 388,-175.5 388,-175.5 394,-175.5 400,-181.5 400,-187.5 400,-187.5 400,-299.5 400,-299.5 400,-305.5 394,-311.5 388,-311.5 388,-311.5 342,-311.5 342,-311.5 336,-311.5 330,-305.5 330,-299.5 330,-299.5 330,-187.5 330,-187.5 330,-181.5 336,-175.5 342,-175.5"/>
<text text-anchor="middle" x="365" y="-301.1" font-family="Times,serif" font-size="8.00">Vector</text>
<polyline fill="none" stroke="black" points="330,-294.5 400,-294.5 "/>
<text text-anchor="start" x="338" y="-284.1" font-family="Times,serif" font-size="8.00">0: error&#45;drop</text>
<polyline fill="none" stroke="black" points="330,-277.5 400,-277.5 "/>
<text text-anchor="start" x="338" y="-267.1" font-family="Times,serif" font-size="8.00">1: ethernet&#45;input</text>
<polyline fill="none" stroke="black" points="330,-260.5 400,-260.5 "/>
<text text-anchor="start" x="338" y="-250.1" font-family="Times,serif" font-size="8.00">2</text>
<polyline fill="none" stroke="black" points="330,-243.5 400,-243.5 "/>
<text text-anchor="start" x="338" y="-233.1" font-family="Times,serif" font-size="8.00">3: ip4&#45;input</text>
<polyline fill="none" stroke="black" points="330,-226.5 400,-226.5 "/>
<text text-anchor="start" x="338" y="-216.1" font-family="Times,serif" font-size="8.00">4: ip6&#45;input</text>
<polyline fill="none" stroke="black" points="330,-209.5 400,-209.5 "/>
<text text-anchor="start" x="338" y="-199.1" font-family="Times,serif" font-size="8.00">5</text>
<polyline fill="none" stroke="black" points="330,-192.5 400,-192.5 "/>
<text text-anchor="middle" x="365" y="-182.1" font-family="Times,serif" font-size="8.00">...</text>
<text text-anchor="middle" x="304" y="-168.6" font-family="Times,serif" font-size="8.00">保存node index</text>
</g>
<!-- dk_in&#45;&gt;nd0 -->
<g id="edge1" class="edge">
<title>dk_in:nd&#45;&gt;nd0</title>
<path fill="none" stroke="black" stroke-dasharray="5,2" d="M173.5,-135.5C230.23,-135.5 285.55,-172.19 321.83,-202.8"/>
<polygon fill="black" stroke="black" points="329.72,-209.62 319.21,-206.49 325.94,-206.36 322.16,-203.09 322.16,-203.09 322.16,-203.09 325.94,-206.36 325.1,-199.68 329.72,-209.62 329.72,-209.62"/>
</g>
<!-- hash_nsbn0 -->
<g id="node4" class="node">
<title>hash_nsbn0</title>
<path fill="none" stroke="black" d="M350,-9.5C350,-9.5 380,-9.5 380,-9.5 386,-9.5 392,-15.5 392,-21.5 392,-21.5 392,-133.5 392,-133.5 392,-139.5 386,-145.5 380,-145.5 380,-145.5 350,-145.5 350,-145.5 344,-145.5 338,-139.5 338,-133.5 338,-133.5 338,-21.5 338,-21.5 338,-15.5 344,-9.5 350,-9.5"/>
<text text-anchor="middle" x="365" y="-135.1" font-family="Times,serif" font-size="8.00">hash表</text>
<polyline fill="none" stroke="black" points="338,-128.5 392,-128.5 "/>
<text text-anchor="start" x="346" y="-118.1" font-family="Times,serif" font-size="8.00">ip4&#45;input: 3</text>
<polyline fill="none" stroke="black" points="338,-111.5 392,-111.5 "/>
<text text-anchor="start" x="346" y="-101.1" font-family="Times,serif" font-size="8.00">ip6&#45;input: 4</text>
<polyline fill="none" stroke="black" points="338,-94.5 392,-94.5 "/>
<text text-anchor="middle" x="365" y="-84.1" font-family="Times,serif" font-size="8.00">...</text>
<polyline fill="none" stroke="black" points="338,-77.5 392,-77.5 "/>
<text text-anchor="middle" x="365" y="-67.1" font-family="Times,serif" font-size="8.00"> </text>
<polyline fill="none" stroke="black" points="338,-60.5 392,-60.5 "/>
<text text-anchor="middle" x="365" y="-50.1" font-family="Times,serif" font-size="8.00"> </text>
<polyline fill="none" stroke="black" points="338,-43.5 392,-43.5 "/>
<text text-anchor="middle" x="365" y="-33.1" font-family="Times,serif" font-size="8.00"> </text>
<polyline fill="none" stroke="black" points="338,-26.5 392,-26.5 "/>
<text text-anchor="middle" x="365" y="-16.1" font-family="Times,serif" font-size="8.00"> </text>
<text text-anchor="middle" x="242.5" y="-2.6" font-family="Times,serif" font-size="8.00">保存node index 和 slot(在next_nodes中的下标)对应关系</text>
</g>
<!-- dk_in&#45;&gt;hash_nsbn0 -->
<g id="edge2" class="edge">
<title>dk_in:nsbn&#45;&gt;hash_nsbn0</title>
<path fill="none" stroke="black" stroke-dasharray="5,2" d="M173.5,-118.5C228.47,-118.5 290.4,-101.98 328.31,-89.92"/>
<polygon fill="black" stroke="black" points="337.88,-86.8 329.76,-94.18 333.13,-88.35 328.37,-89.9 328.37,-89.9 328.37,-89.9 333.13,-88.35 326.98,-85.62 337.88,-86.8 337.88,-86.8"/>
<text text-anchor="middle" x="253" y="-120.1" font-family="Times,serif" font-size="8.00">通过node index快速索引slot</text>
</g>
<!-- ax_in -->
<g id="node2" class="node">
<title>ax_in</title>
<path fill="none" stroke="black" d="M49,-458C49,-458 164,-458 164,-458 170,-458 176,-464 176,-470 176,-470 176,-497 176,-497 176,-503 170,-509 164,-509 164,-509 49,-509 49,-509 43,-509 37,-503 37,-497 37,-497 37,-470 37,-470 37,-464 43,-458 49,-458"/>
<text text-anchor="middle" x="65.5" y="-481.6" font-family="Times,serif" font-size="8.00">af_xdp&#45;input</text>
<polyline fill="none" stroke="black" points="94,-458 94,-509 "/>
<text text-anchor="start" x="102" y="-498.6" font-family="Times,serif" font-size="8.00">+ next_nodes</text>
<polyline fill="none" stroke="black" points="94,-492 176,-492 "/>
<text text-anchor="start" x="102" y="-481.6" font-family="Times,serif" font-size="8.00">+ next_slot_by_node</text>
<polyline fill="none" stroke="black" points="94,-475 176,-475 "/>
<text text-anchor="middle" x="135" y="-464.6" font-family="Times,serif" font-size="8.00">...</text>
<text text-anchor="middle" x="18.5" y="-451.1" font-family="Times,serif" font-size="8.00">vlib_node_t</text>
</g>
<!-- nd1 -->
<g id="node5" class="node">
<title>nd1</title>
<path fill="none" stroke="black" d="M342,-507.5C342,-507.5 388,-507.5 388,-507.5 394,-507.5 400,-513.5 400,-519.5 400,-519.5 400,-631.5 400,-631.5 400,-637.5 394,-643.5 388,-643.5 388,-643.5 342,-643.5 342,-643.5 336,-643.5 330,-637.5 330,-631.5 330,-631.5 330,-519.5 330,-519.5 330,-513.5 336,-507.5 342,-507.5"/>
<text text-anchor="middle" x="365" y="-633.1" font-family="Times,serif" font-size="8.00">Vector</text>
<polyline fill="none" stroke="black" points="330,-626.5 400,-626.5 "/>
<text text-anchor="start" x="338" y="-616.1" font-family="Times,serif" font-size="8.00">0: error&#45;drop</text>
<polyline fill="none" stroke="black" points="330,-609.5 400,-609.5 "/>
<text text-anchor="start" x="338" y="-599.1" font-family="Times,serif" font-size="8.00">1: ethernet&#45;input</text>
<polyline fill="none" stroke="black" points="330,-592.5 400,-592.5 "/>
<text text-anchor="start" x="338" y="-582.1" font-family="Times,serif" font-size="8.00">2</text>
<polyline fill="none" stroke="black" points="330,-575.5 400,-575.5 "/>
<text text-anchor="start" x="338" y="-565.1" font-family="Times,serif" font-size="8.00">3: ip4&#45;input</text>
<polyline fill="none" stroke="black" points="330,-558.5 400,-558.5 "/>
<text text-anchor="start" x="338" y="-548.1" font-family="Times,serif" font-size="8.00">4: ip6&#45;input</text>
<polyline fill="none" stroke="black" points="330,-541.5 400,-541.5 "/>
<text text-anchor="start" x="338" y="-531.1" font-family="Times,serif" font-size="8.00">5</text>
<polyline fill="none" stroke="black" points="330,-524.5 400,-524.5 "/>
<text text-anchor="middle" x="365" y="-514.1" font-family="Times,serif" font-size="8.00">...</text>
<text text-anchor="middle" x="304" y="-500.6" font-family="Times,serif" font-size="8.00">保存node index</text>
</g>
<!-- ax_in&#45;&gt;nd1 -->
<g id="edge3" class="edge">
<title>ax_in:nd&#45;&gt;nd1</title>
<path fill="none" stroke="black" stroke-dasharray="5,2" d="M176,-500.5C228.64,-500.5 284.05,-526.18 320.96,-547.49"/>
<polygon fill="black" stroke="black" points="329.94,-552.79 319.04,-551.58 325.63,-550.25 321.33,-547.7 321.33,-547.7 321.33,-547.7 325.63,-550.25 323.62,-543.83 329.94,-552.79 329.94,-552.79"/>
</g>
<!-- hash_nsbn1 -->
<g id="node6" class="node">
<title>hash_nsbn1</title>
<path fill="none" stroke="black" d="M350,-341.5C350,-341.5 380,-341.5 380,-341.5 386,-341.5 392,-347.5 392,-353.5 392,-353.5 392,-465.5 392,-465.5 392,-471.5 386,-477.5 380,-477.5 380,-477.5 350,-477.5 350,-477.5 344,-477.5 338,-471.5 338,-465.5 338,-465.5 338,-353.5 338,-353.5 338,-347.5 344,-341.5 350,-341.5"/>
<text text-anchor="middle" x="365" y="-467.1" font-family="Times,serif" font-size="8.00">hash表</text>
<polyline fill="none" stroke="black" points="338,-460.5 392,-460.5 "/>
<text text-anchor="start" x="346" y="-450.1" font-family="Times,serif" font-size="8.00">ip4&#45;input: 3</text>
<polyline fill="none" stroke="black" points="338,-443.5 392,-443.5 "/>
<text text-anchor="start" x="346" y="-433.1" font-family="Times,serif" font-size="8.00">ip6&#45;input: 4</text>
<polyline fill="none" stroke="black" points="338,-426.5 392,-426.5 "/>
<text text-anchor="middle" x="365" y="-416.1" font-family="Times,serif" font-size="8.00">...</text>
<polyline fill="none" stroke="black" points="338,-409.5 392,-409.5 "/>
<text text-anchor="middle" x="365" y="-399.1" font-family="Times,serif" font-size="8.00"> </text>
<polyline fill="none" stroke="black" points="338,-392.5 392,-392.5 "/>
<text text-anchor="middle" x="365" y="-382.1" font-family="Times,serif" font-size="8.00"> </text>
<polyline fill="none" stroke="black" points="338,-375.5 392,-375.5 "/>
<text text-anchor="middle" x="365" y="-365.1" font-family="Times,serif" font-size="8.00"> </text>
<polyline fill="none" stroke="black" points="338,-358.5 392,-358.5 "/>
<text text-anchor="middle" x="365" y="-348.1" font-family="Times,serif" font-size="8.00"> </text>
<text text-anchor="middle" x="242.5" y="-334.6" font-family="Times,serif" font-size="8.00">保存node index 和 slot(在next_nodes中的下标)对应关系</text>
</g>
<!-- ax_in&#45;&gt;hash_nsbn1 -->
<g id="edge4" class="edge">
<title>ax_in:nsbn&#45;&gt;hash_nsbn1</title>
<path fill="none" stroke="black" stroke-dasharray="5,2" d="M176,-483.5C232.59,-483.5 292.52,-454.11 329.1,-432.38"/>
<polygon fill="black" stroke="black" points="337.88,-427.04 331.68,-436.08 333.61,-429.63 329.34,-432.23 329.34,-432.23 329.34,-432.23 333.61,-429.63 327,-428.39 337.88,-427.04 337.88,-427.04"/>
<text text-anchor="middle" x="253" y="-483.1" font-family="Times,serif" font-size="8.00">通过node index快速索引slot</text>
</g>
<!-- ip4_in -->
<g id="node7" class="node">
<title>ip4_in</title>
<path fill="none" stroke="black" d="M471,-312.5C471,-312.5 574,-312.5 574,-312.5 580,-312.5 586,-318.5 586,-324.5 586,-324.5 586,-336.5 586,-336.5 586,-342.5 580,-348.5 574,-348.5 574,-348.5 471,-348.5 471,-348.5 465,-348.5 459,-342.5 459,-336.5 459,-336.5 459,-324.5 459,-324.5 459,-318.5 465,-312.5 471,-312.5"/>
<text text-anchor="middle" x="481.5" y="-328.6" font-family="Times,serif" font-size="8.00">ip4&#45;input</text>
<polyline fill="none" stroke="black" points="504,-312.5 504,-348.5 "/>
<text text-anchor="start" x="512" y="-337.6" font-family="Times,serif" font-size="8.00">+ prev_node_bitmap</text>
<polyline fill="none" stroke="black" points="504,-330.5 586,-330.5 "/>
<text text-anchor="middle" x="545" y="-319.6" font-family="Times,serif" font-size="8.00">...</text>
<text text-anchor="middle" x="440.5" y="-305.6" font-family="Times,serif" font-size="8.00">vlib_node_t</text>
</g>
<!-- nd0&#45;&gt;ip4_in -->
<g id="edge7" class="edge">
<title>nd0:3&#45;&gt;ip4_in</title>
<path fill="none" stroke="black" stroke-dasharray="5,2" d="M400,-234.5C445.07,-234.5 483.22,-275.67 504.18,-304.09"/>
<polygon fill="black" stroke="black" points="510.12,-312.44 500.66,-306.9 507.22,-308.37 504.33,-304.3 504.33,-304.3 504.33,-304.3 507.22,-308.37 507.99,-301.69 510.12,-312.44 510.12,-312.44"/>
</g>
<!-- ip6_in -->
<g id="node8" class="node">
<title>ip6_in</title>
<path fill="none" stroke="black" d="M471,-171.5C471,-171.5 574,-171.5 574,-171.5 580,-171.5 586,-177.5 586,-183.5 586,-183.5 586,-195.5 586,-195.5 586,-201.5 580,-207.5 574,-207.5 574,-207.5 471,-207.5 471,-207.5 465,-207.5 459,-201.5 459,-195.5 459,-195.5 459,-183.5 459,-183.5 459,-177.5 465,-171.5 471,-171.5"/>
<text text-anchor="middle" x="481.5" y="-187.6" font-family="Times,serif" font-size="8.00">ip6&#45;input</text>
<polyline fill="none" stroke="black" points="504,-171.5 504,-207.5 "/>
<text text-anchor="start" x="512" y="-196.6" font-family="Times,serif" font-size="8.00">+ prev_node_bitmap</text>
<polyline fill="none" stroke="black" points="504,-189.5 586,-189.5 "/>
<text text-anchor="middle" x="545" y="-178.6" font-family="Times,serif" font-size="8.00">...</text>
<text text-anchor="middle" x="440.5" y="-164.6" font-family="Times,serif" font-size="8.00">vlib_node_t</text>
</g>
<!-- nd0&#45;&gt;ip6_in -->
<g id="edge8" class="edge">
<title>nd0:4&#45;&gt;ip6_in</title>
<path fill="none" stroke="black" stroke-dasharray="5,2" d="M400,-217.5C418.81,-217.5 438.85,-214.27 457.12,-210.01"/>
<polygon fill="black" stroke="black" points="467.07,-207.55 458.44,-214.32 462.22,-208.75 457.36,-209.95 457.36,-209.95 457.36,-209.95 462.22,-208.75 456.28,-205.58 467.07,-207.55 467.07,-207.55"/>
</g>
<!-- prev_bm0 -->
<g id="node9" class="node">
<title>prev_bm0</title>
<path fill="none" stroke="black" d="M657,-284C657,-284 687,-284 687,-284 693,-284 699,-290 699,-296 699,-296 699,-459 699,-459 699,-465 693,-471 687,-471 687,-471 657,-471 657,-471 651,-471 645,-465 645,-459 645,-459 645,-296 645,-296 645,-290 651,-284 657,-284"/>
<text text-anchor="middle" x="672" y="-460.6" font-family="Times,serif" font-size="8.00"> </text>
<polyline fill="none" stroke="black" points="645,-454 699,-454 "/>
<text text-anchor="middle" x="672" y="-443.6" font-family="Times,serif" font-size="8.00"> </text>
<polyline fill="none" stroke="black" points="645,-437 699,-437 "/>
<text text-anchor="middle" x="672" y="-426.6" font-family="Times,serif" font-size="8.00">dpdk</text>
<polyline fill="none" stroke="black" points="645,-420 699,-420 "/>
<text text-anchor="middle" x="672" y="-409.6" font-family="Times,serif" font-size="8.00"> </text>
<polyline fill="none" stroke="black" points="645,-403 699,-403 "/>
<text text-anchor="middle" x="672" y="-392.6" font-family="Times,serif" font-size="8.00"> </text>
<polyline fill="none" stroke="black" points="645,-386 699,-386 "/>
<text text-anchor="middle" x="672" y="-375.6" font-family="Times,serif" font-size="8.00">af_xdp</text>
<polyline fill="none" stroke="black" points="645,-369 699,-369 "/>
<text text-anchor="middle" x="672" y="-358.6" font-family="Times,serif" font-size="8.00"> </text>
<polyline fill="none" stroke="black" points="645,-352 699,-352 "/>
<text text-anchor="middle" x="672" y="-341.6" font-family="Times,serif" font-size="8.00"> </text>
<polyline fill="none" stroke="black" points="645,-335 699,-335 "/>
<text text-anchor="middle" x="672" y="-324.6" font-family="Times,serif" font-size="8.00">vmnet3</text>
<polyline fill="none" stroke="black" points="645,-318 699,-318 "/>
<text text-anchor="middle" x="672" y="-307.6" font-family="Times,serif" font-size="8.00"> </text>
<polyline fill="none" stroke="black" points="645,-301 699,-301 "/>
<text text-anchor="middle" x="672" y="-290.6" font-family="Times,serif" font-size="8.00"> </text>
<text text-anchor="middle" x="615.5" y="-277.1" font-family="Times,serif" font-size="8.00">prev_node_bitmap</text>
</g>
<!-- ip4_in&#45;&gt;prev_bm0 -->
<g id="edge5" class="edge">
<title>ip4_in:pnbm&#45;&gt;prev_bm0</title>
<path fill="none" stroke="black" stroke-dasharray="5,2" d="M586,-339.5C603.4,-339.5 621.2,-346.22 635.98,-354.01"/>
<polygon fill="black" stroke="black" points="644.77,-358.95 633.85,-357.97 640.41,-356.5 636.05,-354.05 636.05,-354.05 636.05,-354.05 640.41,-356.5 638.25,-350.12 644.77,-358.95 644.77,-358.95"/>
</g>
<!-- prev_bm1 -->
<g id="node10" class="node">
<title>prev_bm1</title>
<path fill="none" stroke="black" d="M657,-67C657,-67 687,-67 687,-67 693,-67 699,-73 699,-79 699,-79 699,-242 699,-242 699,-248 693,-254 687,-254 687,-254 657,-254 657,-254 651,-254 645,-248 645,-242 645,-242 645,-79 645,-79 645,-73 651,-67 657,-67"/>
<text text-anchor="middle" x="672" y="-243.6" font-family="Times,serif" font-size="8.00"> </text>
<polyline fill="none" stroke="black" points="645,-237 699,-237 "/>
<text text-anchor="middle" x="672" y="-226.6" font-family="Times,serif" font-size="8.00"> </text>
<polyline fill="none" stroke="black" points="645,-220 699,-220 "/>
<text text-anchor="middle" x="672" y="-209.6" font-family="Times,serif" font-size="8.00">dpdk</text>
<polyline fill="none" stroke="black" points="645,-203 699,-203 "/>
<text text-anchor="middle" x="672" y="-192.6" font-family="Times,serif" font-size="8.00"> </text>
<polyline fill="none" stroke="black" points="645,-186 699,-186 "/>
<text text-anchor="middle" x="672" y="-175.6" font-family="Times,serif" font-size="8.00"> </text>
<polyline fill="none" stroke="black" points="645,-169 699,-169 "/>
<text text-anchor="middle" x="672" y="-158.6" font-family="Times,serif" font-size="8.00">af_xdp</text>
<polyline fill="none" stroke="black" points="645,-152 699,-152 "/>
<text text-anchor="middle" x="672" y="-141.6" font-family="Times,serif" font-size="8.00"> </text>
<polyline fill="none" stroke="black" points="645,-135 699,-135 "/>
<text text-anchor="middle" x="672" y="-124.6" font-family="Times,serif" font-size="8.00"> </text>
<polyline fill="none" stroke="black" points="645,-118 699,-118 "/>
<text text-anchor="middle" x="672" y="-107.6" font-family="Times,serif" font-size="8.00">vmnet3</text>
<polyline fill="none" stroke="black" points="645,-101 699,-101 "/>
<text text-anchor="middle" x="672" y="-90.6" font-family="Times,serif" font-size="8.00"> </text>
<polyline fill="none" stroke="black" points="645,-84 699,-84 "/>
<text text-anchor="middle" x="672" y="-73.6" font-family="Times,serif" font-size="8.00"> </text>
<text text-anchor="middle" x="615.5" y="-60.1" font-family="Times,serif" font-size="8.00">prev_node_bitmap</text>
</g>
<!-- ip6_in&#45;&gt;prev_bm1 -->
<g id="edge6" class="edge">
<title>ip6_in:pnbm&#45;&gt;prev_bm1</title>
<path fill="none" stroke="black" stroke-dasharray="5,2" d="M586,-198.5C603.4,-198.5 621.2,-191.78 635.98,-183.99"/>
<polygon fill="black" stroke="black" points="644.77,-179.05 638.25,-187.88 640.41,-181.5 636.05,-183.95 636.05,-183.95 636.05,-183.95 640.41,-181.5 633.85,-180.03 644.77,-179.05 644.77,-179.05"/>
</g>
</g>
</svg>
