<?xml version="1.0" encoding="UTF-8" standalone="no"?>
<!DOCTYPE svg PUBLIC "-//W3C//DTD SVG 1.1//EN"
 "http://www.w3.org/Graphics/SVG/1.1/DTD/svg11.dtd">
<!-- Generated by graphviz version 2.43.0 (0)
 -->
<!-- Title: G Pages: 1 -->
<svg width="846pt" height="339pt"
 viewBox="0.00 0.00 846.00 339.00" xmlns="http://www.w3.org/2000/svg" xmlns:xlink="http://www.w3.org/1999/xlink">
<g id="graph0" class="graph" transform="scale(1 1) rotate(0) translate(4 335)">
<title>G</title>
<polygon fill="white" stroke="transparent" points="-4,4 -4,-335 842,-335 842,4 -4,4"/>
<!-- bm0 -->
<g id="node1" class="node">
<title>bm0</title>
<path fill="none" stroke="black" d="M331.5,-190.5C331.5,-190.5 569.5,-190.5 569.5,-190.5 575.5,-190.5 581.5,-196.5 581.5,-202.5 581.5,-202.5 581.5,-214.5 581.5,-214.5 581.5,-220.5 575.5,-226.5 569.5,-226.5 569.5,-226.5 331.5,-226.5 331.5,-226.5 325.5,-226.5 319.5,-220.5 319.5,-214.5 319.5,-214.5 319.5,-202.5 319.5,-202.5 319.5,-196.5 325.5,-190.5 331.5,-190.5"/>
<text text-anchor="middle" x="329" y="-206.6" font-family="Times,serif" font-size="8.00"> </text>
<polyline fill="none" stroke="black" points="338.5,-190.5 338.5,-226.5 "/>
<text text-anchor="middle" x="348" y="-206.6" font-family="Times,serif" font-size="8.00"> </text>
<polyline fill="none" stroke="black" points="357.5,-190.5 357.5,-226.5 "/>
<text text-anchor="middle" x="373.5" y="-206.6" font-family="Times,serif" font-size="8.00">dpdk</text>
<polyline fill="none" stroke="black" points="389.5,-190.5 389.5,-226.5 "/>
<text text-anchor="middle" x="399" y="-206.6" font-family="Times,serif" font-size="8.00"> </text>
<polyline fill="none" stroke="black" points="408.5,-190.5 408.5,-226.5 "/>
<text text-anchor="middle" x="418" y="-206.6" font-family="Times,serif" font-size="8.00"> </text>
<polyline fill="none" stroke="black" points="427.5,-190.5 427.5,-226.5 "/>
<text text-anchor="middle" x="446.5" y="-206.6" font-family="Times,serif" font-size="8.00">af_xdp</text>
<polyline fill="none" stroke="black" points="465.5,-190.5 465.5,-226.5 "/>
<text text-anchor="middle" x="475" y="-206.6" font-family="Times,serif" font-size="8.00"> </text>
<polyline fill="none" stroke="black" points="484.5,-190.5 484.5,-226.5 "/>
<text text-anchor="middle" x="494" y="-206.6" font-family="Times,serif" font-size="8.00"> </text>
<polyline fill="none" stroke="black" points="503.5,-190.5 503.5,-226.5 "/>
<text text-anchor="middle" x="523.5" y="-206.6" font-family="Times,serif" font-size="8.00">vmnet3</text>
<polyline fill="none" stroke="black" points="543.5,-190.5 543.5,-226.5 "/>
<text text-anchor="middle" x="553" y="-206.6" font-family="Times,serif" font-size="8.00"> </text>
<polyline fill="none" stroke="black" points="562.5,-190.5 562.5,-226.5 "/>
<text text-anchor="middle" x="572" y="-206.6" font-family="Times,serif" font-size="8.00"> </text>
<text text-anchor="middle" x="296" y="-229.6" font-family="Times,serif" font-size="8.00">sibling_bitmap</text>
</g>
<!-- dk_in -->
<g id="node6" class="node">
<title>dk_in</title>
<path fill="none" stroke="black" d="M251.5,-95.5C251.5,-95.5 281.5,-95.5 281.5,-95.5 287.5,-95.5 293.5,-101.5 293.5,-107.5 293.5,-107.5 293.5,-119.5 293.5,-119.5 293.5,-125.5 287.5,-131.5 281.5,-131.5 281.5,-131.5 251.5,-131.5 251.5,-131.5 245.5,-131.5 239.5,-125.5 239.5,-119.5 239.5,-119.5 239.5,-107.5 239.5,-107.5 239.5,-101.5 245.5,-95.5 251.5,-95.5"/>
<text text-anchor="middle" x="266.5" y="-111.6" font-family="Times,serif" font-size="8.00">dpdk&#45;input</text>
<text text-anchor="middle" x="221" y="-134.6" font-family="Times,serif" font-size="8.00">vlib_node_t</text>
</g>
<!-- bm0&#45;&gt;dk_in -->
<g id="edge5" class="edge">
<title>bm0:dk&#45;&gt;dk_in</title>
<path fill="none" stroke="black" stroke-dasharray="5,2" d="M373.5,-190C373.5,-154.71 334.17,-134.46 303.2,-123.99"/>
<polygon fill="black" stroke="black" points="293.5,-120.92 304.39,-119.64 298.27,-122.43 303.04,-123.93 303.04,-123.93 303.04,-123.93 298.27,-122.43 301.68,-128.22 293.5,-120.92 293.5,-120.92"/>
</g>
<!-- ax_in -->
<g id="node7" class="node">
<title>ax_in</title>
<path fill="none" stroke="black" d="M430,-95.5C430,-95.5 463,-95.5 463,-95.5 469,-95.5 475,-101.5 475,-107.5 475,-107.5 475,-119.5 475,-119.5 475,-125.5 469,-131.5 463,-131.5 463,-131.5 430,-131.5 430,-131.5 424,-131.5 418,-125.5 418,-119.5 418,-119.5 418,-107.5 418,-107.5 418,-101.5 424,-95.5 430,-95.5"/>
<text text-anchor="middle" x="446.5" y="-111.6" font-family="Times,serif" font-size="8.00">af_xdp&#45;input</text>
<text text-anchor="middle" x="399.5" y="-134.6" font-family="Times,serif" font-size="8.00">vlib_node_t</text>
</g>
<!-- bm0&#45;&gt;ax_in -->
<g id="edge6" class="edge">
<title>bm0:ax&#45;&gt;ax_in</title>
<path fill="none" stroke="black" stroke-dasharray="5,2" d="M446.5,-190C446.5,-174.02 446.5,-156.14 446.5,-141.79"/>
<polygon fill="black" stroke="black" points="446.5,-131.59 451,-141.59 446.5,-136.59 446.5,-141.59 446.5,-141.59 446.5,-141.59 446.5,-136.59 442,-141.59 446.5,-131.59 446.5,-131.59"/>
</g>
<!-- vm3_in -->
<g id="node8" class="node">
<title>vm3_in</title>
<path fill="none" stroke="black" d="M608,-95.5C608,-95.5 643,-95.5 643,-95.5 649,-95.5 655,-101.5 655,-107.5 655,-107.5 655,-119.5 655,-119.5 655,-125.5 649,-131.5 643,-131.5 643,-131.5 608,-131.5 608,-131.5 602,-131.5 596,-125.5 596,-119.5 596,-119.5 596,-107.5 596,-107.5 596,-101.5 602,-95.5 608,-95.5"/>
<text text-anchor="middle" x="625.5" y="-111.6" font-family="Times,serif" font-size="8.00">vmnet3&#45;input</text>
<text text-anchor="middle" x="577.5" y="-134.6" font-family="Times,serif" font-size="8.00">vlib_node_t</text>
</g>
<!-- bm0&#45;&gt;vm3_in -->
<g id="edge7" class="edge">
<title>bm0:vm3&#45;&gt;vm3_in</title>
<path fill="none" stroke="black" stroke-dasharray="5,2" d="M523.5,-190C523.5,-157.34 557.7,-137.19 586.5,-126.01"/>
<polygon fill="black" stroke="black" points="596,-122.56 588.14,-130.2 591.3,-124.27 586.6,-125.97 586.6,-125.97 586.6,-125.97 591.3,-124.27 585.06,-121.74 596,-122.56 596,-122.56"/>
</g>
<!-- bm1 -->
<g id="node2" class="node">
<title>bm1</title>
<path fill="none" stroke="black" d="M59,-0.5C59,-0.5 284,-0.5 284,-0.5 290,-0.5 296,-6.5 296,-12.5 296,-12.5 296,-24.5 296,-24.5 296,-30.5 290,-36.5 284,-36.5 284,-36.5 59,-36.5 59,-36.5 53,-36.5 47,-30.5 47,-24.5 47,-24.5 47,-12.5 47,-12.5 47,-6.5 53,-0.5 59,-0.5"/>
<text text-anchor="middle" x="56.5" y="-16.6" font-family="Times,serif" font-size="8.00"> </text>
<polyline fill="none" stroke="black" points="66,-0.5 66,-36.5 "/>
<text text-anchor="middle" x="75.5" y="-16.6" font-family="Times,serif" font-size="8.00"> </text>
<polyline fill="none" stroke="black" points="85,-0.5 85,-36.5 "/>
<text text-anchor="middle" x="94.5" y="-16.6" font-family="Times,serif" font-size="8.00"> </text>
<polyline fill="none" stroke="black" points="104,-0.5 104,-36.5 "/>
<text text-anchor="middle" x="113.5" y="-16.6" font-family="Times,serif" font-size="8.00"> </text>
<polyline fill="none" stroke="black" points="123,-0.5 123,-36.5 "/>
<text text-anchor="middle" x="132.5" y="-16.6" font-family="Times,serif" font-size="8.00"> </text>
<polyline fill="none" stroke="black" points="142,-0.5 142,-36.5 "/>
<text text-anchor="middle" x="161" y="-16.6" font-family="Times,serif" font-size="8.00">af_xdp</text>
<polyline fill="none" stroke="black" points="180,-0.5 180,-36.5 "/>
<text text-anchor="middle" x="189.5" y="-16.6" font-family="Times,serif" font-size="8.00"> </text>
<polyline fill="none" stroke="black" points="199,-0.5 199,-36.5 "/>
<text text-anchor="middle" x="208.5" y="-16.6" font-family="Times,serif" font-size="8.00"> </text>
<polyline fill="none" stroke="black" points="218,-0.5 218,-36.5 "/>
<text text-anchor="middle" x="238" y="-16.6" font-family="Times,serif" font-size="8.00">vmnet3</text>
<polyline fill="none" stroke="black" points="258,-0.5 258,-36.5 "/>
<text text-anchor="middle" x="267.5" y="-16.6" font-family="Times,serif" font-size="8.00"> </text>
<polyline fill="none" stroke="black" points="277,-0.5 277,-36.5 "/>
<text text-anchor="middle" x="286.5" y="-16.6" font-family="Times,serif" font-size="8.00"> </text>
<text text-anchor="middle" x="23.5" y="-39.6" font-family="Times,serif" font-size="8.00">sibling_bitmap</text>
</g>
<!-- bm2 -->
<g id="node3" class="node">
<title>bm2</title>
<path fill="none" stroke="black" d="M337,-0.5C337,-0.5 556,-0.5 556,-0.5 562,-0.5 568,-6.5 568,-12.5 568,-12.5 568,-24.5 568,-24.5 568,-30.5 562,-36.5 556,-36.5 556,-36.5 337,-36.5 337,-36.5 331,-36.5 325,-30.5 325,-24.5 325,-24.5 325,-12.5 325,-12.5 325,-6.5 331,-0.5 337,-0.5"/>
<text text-anchor="middle" x="334.5" y="-16.6" font-family="Times,serif" font-size="8.00"> </text>
<polyline fill="none" stroke="black" points="344,-0.5 344,-36.5 "/>
<text text-anchor="middle" x="353.5" y="-16.6" font-family="Times,serif" font-size="8.00"> </text>
<polyline fill="none" stroke="black" points="363,-0.5 363,-36.5 "/>
<text text-anchor="middle" x="379" y="-16.6" font-family="Times,serif" font-size="8.00">dpdk</text>
<polyline fill="none" stroke="black" points="395,-0.5 395,-36.5 "/>
<text text-anchor="middle" x="404.5" y="-16.6" font-family="Times,serif" font-size="8.00"> </text>
<polyline fill="none" stroke="black" points="414,-0.5 414,-36.5 "/>
<text text-anchor="middle" x="423.5" y="-16.6" font-family="Times,serif" font-size="8.00"> </text>
<polyline fill="none" stroke="black" points="433,-0.5 433,-36.5 "/>
<text text-anchor="middle" x="442.5" y="-16.6" font-family="Times,serif" font-size="8.00"> </text>
<polyline fill="none" stroke="black" points="452,-0.5 452,-36.5 "/>
<text text-anchor="middle" x="461.5" y="-16.6" font-family="Times,serif" font-size="8.00"> </text>
<polyline fill="none" stroke="black" points="471,-0.5 471,-36.5 "/>
<text text-anchor="middle" x="480.5" y="-16.6" font-family="Times,serif" font-size="8.00"> </text>
<polyline fill="none" stroke="black" points="490,-0.5 490,-36.5 "/>
<text text-anchor="middle" x="510" y="-16.6" font-family="Times,serif" font-size="8.00">vmnet3</text>
<polyline fill="none" stroke="black" points="530,-0.5 530,-36.5 "/>
<text text-anchor="middle" x="539.5" y="-16.6" font-family="Times,serif" font-size="8.00"> </text>
<polyline fill="none" stroke="black" points="549,-0.5 549,-36.5 "/>
<text text-anchor="middle" x="558.5" y="-16.6" font-family="Times,serif" font-size="8.00"> </text>
<text text-anchor="middle" x="301.5" y="-39.6" font-family="Times,serif" font-size="8.00">sibling_bitmap</text>
</g>
<!-- bm3 -->
<g id="node4" class="node">
<title>bm3</title>
<path fill="none" stroke="black" d="M609,-0.5C609,-0.5 826,-0.5 826,-0.5 832,-0.5 838,-6.5 838,-12.5 838,-12.5 838,-24.5 838,-24.5 838,-30.5 832,-36.5 826,-36.5 826,-36.5 609,-36.5 609,-36.5 603,-36.5 597,-30.5 597,-24.5 597,-24.5 597,-12.5 597,-12.5 597,-6.5 603,-0.5 609,-0.5"/>
<text text-anchor="middle" x="606.5" y="-16.6" font-family="Times,serif" font-size="8.00"> </text>
<polyline fill="none" stroke="black" points="616,-0.5 616,-36.5 "/>
<text text-anchor="middle" x="625.5" y="-16.6" font-family="Times,serif" font-size="8.00"> </text>
<polyline fill="none" stroke="black" points="635,-0.5 635,-36.5 "/>
<text text-anchor="middle" x="651" y="-16.6" font-family="Times,serif" font-size="8.00">dpdk</text>
<polyline fill="none" stroke="black" points="667,-0.5 667,-36.5 "/>
<text text-anchor="middle" x="676.5" y="-16.6" font-family="Times,serif" font-size="8.00"> </text>
<polyline fill="none" stroke="black" points="686,-0.5 686,-36.5 "/>
<text text-anchor="middle" x="695.5" y="-16.6" font-family="Times,serif" font-size="8.00"> </text>
<polyline fill="none" stroke="black" points="705,-0.5 705,-36.5 "/>
<text text-anchor="middle" x="724" y="-16.6" font-family="Times,serif" font-size="8.00">af_xdp</text>
<polyline fill="none" stroke="black" points="743,-0.5 743,-36.5 "/>
<text text-anchor="middle" x="752.5" y="-16.6" font-family="Times,serif" font-size="8.00"> </text>
<polyline fill="none" stroke="black" points="762,-0.5 762,-36.5 "/>
<text text-anchor="middle" x="771.5" y="-16.6" font-family="Times,serif" font-size="8.00"> </text>
<polyline fill="none" stroke="black" points="781,-0.5 781,-36.5 "/>
<text text-anchor="middle" x="790.5" y="-16.6" font-family="Times,serif" font-size="8.00"> </text>
<polyline fill="none" stroke="black" points="800,-0.5 800,-36.5 "/>
<text text-anchor="middle" x="809.5" y="-16.6" font-family="Times,serif" font-size="8.00"> </text>
<polyline fill="none" stroke="black" points="819,-0.5 819,-36.5 "/>
<text text-anchor="middle" x="828.5" y="-16.6" font-family="Times,serif" font-size="8.00"> </text>
<text text-anchor="middle" x="573.5" y="-39.6" font-family="Times,serif" font-size="8.00">sibling_bitmap</text>
</g>
<!-- dv_in -->
<g id="node5" class="node">
<title>dv_in</title>
<path fill="none" stroke="black" d="M434.5,-285.5C434.5,-285.5 466.5,-285.5 466.5,-285.5 472.5,-285.5 478.5,-291.5 478.5,-297.5 478.5,-297.5 478.5,-309.5 478.5,-309.5 478.5,-315.5 472.5,-321.5 466.5,-321.5 466.5,-321.5 434.5,-321.5 434.5,-321.5 428.5,-321.5 422.5,-315.5 422.5,-309.5 422.5,-309.5 422.5,-297.5 422.5,-297.5 422.5,-291.5 428.5,-285.5 434.5,-285.5"/>
<text text-anchor="middle" x="450.5" y="-301.6" font-family="Times,serif" font-size="8.00">device&#45;input</text>
<text text-anchor="middle" x="404" y="-324.6" font-family="Times,serif" font-size="8.00">vlib_node_t</text>
</g>
<!-- dv_in&#45;&gt;bm0 -->
<g id="edge1" class="edge">
<title>dv_in&#45;&gt;bm0</title>
<path fill="none" stroke="black" d="M450.5,-285.44C450.5,-271.89 450.5,-252.68 450.5,-236.97"/>
<polygon fill="black" stroke="black" points="450.5,-226.76 455,-236.76 450.5,-231.76 450.5,-236.76 450.5,-236.76 450.5,-236.76 450.5,-231.76 446,-236.76 450.5,-226.76 450.5,-226.76"/>
</g>
<!-- dk_in&#45;&gt;bm1 -->
<g id="edge2" class="edge">
<title>dk_in&#45;&gt;bm1</title>
<path fill="none" stroke="black" d="M249.08,-95.44C234.3,-80.98 212.94,-60.07 196.37,-43.85"/>
<polygon fill="black" stroke="black" points="189.14,-36.76 199.43,-40.54 192.71,-40.26 196.28,-43.76 196.28,-43.76 196.28,-43.76 192.71,-40.26 193.13,-46.98 189.14,-36.76 189.14,-36.76"/>
</g>
<!-- ax_in&#45;&gt;bm2 -->
<g id="edge3" class="edge">
<title>ax_in&#45;&gt;bm2</title>
<path fill="none" stroke="black" d="M446.5,-95.44C446.5,-81.89 446.5,-62.68 446.5,-46.97"/>
<polygon fill="black" stroke="black" points="446.5,-36.76 451,-46.76 446.5,-41.76 446.5,-46.76 446.5,-46.76 446.5,-46.76 446.5,-41.76 442,-46.76 446.5,-36.76 446.5,-36.76"/>
</g>
<!-- vm3_in&#45;&gt;bm3 -->
<g id="edge4" class="edge">
<title>vm3_in&#45;&gt;bm3</title>
<path fill="none" stroke="black" d="M642.37,-95.44C656.55,-81.11 677,-60.44 692.98,-44.29"/>
<polygon fill="black" stroke="black" points="700.42,-36.76 696.59,-47.04 696.9,-40.32 693.39,-43.87 693.39,-43.87 693.39,-43.87 696.9,-40.32 690.19,-40.71 700.42,-36.76 700.42,-36.76"/>
</g>
</g>
</svg>
