<?xml version="1.0" encoding="UTF-8" standalone="no"?>
<!DOCTYPE svg PUBLIC "-//W3C//DTD SVG 1.1//EN"
 "http://www.w3.org/Graphics/SVG/1.1/DTD/svg11.dtd">
<!-- Generated by graphviz version 2.43.0 (0)
 -->
<!-- Title: svm_queue Pages: 1 -->
<svg width="753pt" height="392pt"
 viewBox="0.00 0.00 752.50 392.00" xmlns="http://www.w3.org/2000/svg" xmlns:xlink="http://www.w3.org/1999/xlink">
<g id="graph0" class="graph" transform="scale(1 1) rotate(0) translate(4 388)">
<title>svm_queue</title>
<polygon fill="white" stroke="transparent" points="-4,4 -4,-388 748.5,-388 748.5,4 -4,4"/>
<!-- sqt -->
<g id="node1" class="node">
<title>sqt</title>
<text text-anchor="start" x="42.5" y="-366.8" font-family="Times,serif" font-size="14.00">svm_queue_t</text>
<polygon fill="none" stroke="black" points="8,-340 8,-361 150,-361 150,-340 8,-340"/>
<text text-anchor="start" x="11" y="-346.8" font-family="Times,serif" font-size="14.00">pthread_mutex_t mutex;</text>
<polygon fill="none" stroke="black" points="8,-319 8,-340 150,-340 150,-319 8,-319"/>
<text text-anchor="start" x="11" y="-325.8" font-family="Times,serif" font-size="14.00">pthread_cond_t condvar;</text>
<polygon fill="none" stroke="black" points="8,-298 8,-319 150,-319 150,-298 8,-298"/>
<text text-anchor="start" x="11" y="-304.8" font-family="Times,serif" font-size="14.00">int head;</text>
<polygon fill="none" stroke="black" points="8,-277 8,-298 150,-298 150,-277 8,-277"/>
<text text-anchor="start" x="11" y="-283.8" font-family="Times,serif" font-size="14.00">int tail;</text>
<polygon fill="none" stroke="black" points="8,-256 8,-277 150,-277 150,-256 8,-256"/>
<text text-anchor="start" x="11" y="-262.8" font-family="Times,serif" font-size="14.00">volatile int cursize;</text>
<polygon fill="none" stroke="black" points="8,-235 8,-256 150,-256 150,-235 8,-235"/>
<text text-anchor="start" x="11" y="-241.8" font-family="Times,serif" font-size="14.00">int maxsize;</text>
<polygon fill="none" stroke="black" points="8,-214 8,-235 150,-235 150,-214 8,-214"/>
<text text-anchor="start" x="11" y="-220.8" font-family="Times,serif" font-size="14.00">int elsize;</text>
<polygon fill="none" stroke="black" points="8,-193 8,-214 150,-214 150,-193 8,-193"/>
<text text-anchor="start" x="11" y="-199.8" font-family="Times,serif" font-size="14.00">int consumer_pid;</text>
<polygon fill="none" stroke="black" points="8,-172 8,-193 150,-193 150,-172 8,-172"/>
<text text-anchor="start" x="11" y="-178.8" font-family="Times,serif" font-size="14.00">int producer_evtfd;</text>
<polygon fill="none" stroke="black" points="8,-151 8,-172 150,-172 150,-151 8,-151"/>
<text text-anchor="start" x="11" y="-157.8" font-family="Times,serif" font-size="14.00">int consumer_evtfd;</text>
<polygon fill="#00bfff" stroke="transparent" points="8,-130 8,-151 150,-151 150,-130 8,-130"/>
<polygon fill="none" stroke="black" points="8,-130 8,-151 150,-151 150,-130 8,-130"/>
<text text-anchor="start" x="33.5" y="-136.8" font-family="Times,serif" font-size="14.00">char data[0]; / 0 </text>
<polygon fill="#00bfff" stroke="transparent" points="8,-109 8,-130 150,-130 150,-109 8,-109"/>
<polygon fill="none" stroke="black" points="8,-109 8,-130 150,-130 150,-109 8,-109"/>
<text text-anchor="start" x="71.5" y="-115.8" font-family="Times,serif" font-size="14.00"> 1 </text>
<polygon fill="#00bfff" stroke="transparent" points="8,-88 8,-109 150,-109 150,-88 8,-88"/>
<polygon fill="none" stroke="black" points="8,-88 8,-109 150,-109 150,-88 8,-88"/>
<text text-anchor="start" x="71.5" y="-94.8" font-family="Times,serif" font-size="14.00"> 2 </text>
<polygon fill="#00bfff" stroke="transparent" points="8,-67 8,-88 150,-88 150,-67 8,-67"/>
<polygon fill="none" stroke="black" points="8,-67 8,-88 150,-88 150,-67 8,-67"/>
<text text-anchor="start" x="71.5" y="-73.8" font-family="Times,serif" font-size="14.00"> 3 </text>
<polygon fill="#00bfff" stroke="transparent" points="8,-46 8,-67 150,-67 150,-46 8,-46"/>
<polygon fill="none" stroke="black" points="8,-46 8,-67 150,-67 150,-46 8,-46"/>
<text text-anchor="start" x="71.5" y="-52.8" font-family="Times,serif" font-size="14.00"> 4 </text>
<polygon fill="#00bfff" stroke="transparent" points="8,-25 8,-46 150,-46 150,-25 8,-25"/>
<polygon fill="none" stroke="black" points="8,-25 8,-46 150,-46 150,-25 8,-25"/>
<text text-anchor="start" x="69.5" y="-31.8" font-family="Times,serif" font-size="14.00"> ... </text>
<polygon fill="#00bfff" stroke="transparent" points="8,-4 8,-25 150,-25 150,-4 8,-4"/>
<polygon fill="none" stroke="black" points="8,-4 8,-25 150,-25 150,-4 8,-4"/>
<text text-anchor="start" x="54" y="-10.8" font-family="Times,serif" font-size="14.00"> elsize&#45;1 </text>
</g>
<!-- sqt&#45;&gt;sqt -->
<g id="edge1" class="edge">
<title>sqt:e&#45;&gt;sqt:e</title>
<path fill="none" stroke="black" stroke-dasharray="5,2" d="M150,-309C182,-405 230,-405 230,-224.5 230,-50.17 185.23,-44.21 153.33,-130.5"/>
<polygon fill="black" stroke="black" points="150.01,-129.41 150,-140 156.61,-131.72 150.01,-129.41"/>
</g>
<!-- sqt&#45;&gt;sqt -->
<g id="edge2" class="edge">
<title>sqt:e&#45;&gt;sqt:e</title>
<path fill="none" stroke="red" stroke-dasharray="5,2" d="M150,-288C182,-384 230,-384 230,-214 230,-49.81 185.23,-44.2 153.33,-130.5"/>
<polygon fill="red" stroke="red" points="150.01,-129.41 150,-140 156.61,-131.72 150.01,-129.41"/>
</g>
<!-- sqt_add -->
<g id="node2" class="node">
<title>sqt_add</title>
<text text-anchor="start" x="277" y="-292.8" font-family="Times,serif" font-size="14.00">向队列添加一个元素</text>
<polygon fill="none" stroke="black" points="275,-266 275,-287 408,-287 408,-266 275,-266"/>
<text text-anchor="start" x="278" y="-272.8" font-family="Times,serif" font-size="14.00">int head;</text>
<polygon fill="none" stroke="black" points="275,-245 275,-266 408,-266 408,-245 275,-245"/>
<text text-anchor="start" x="278" y="-251.8" font-family="Times,serif" font-size="14.00">int tail;</text>
<polygon fill="none" stroke="black" points="275,-224 275,-245 408,-245 408,-224 275,-224"/>
<text text-anchor="start" x="278" y="-230.8" font-family="Times,serif" font-size="14.00">volatile int cursize;</text>
<polygon fill="#bf3eff" stroke="transparent" points="275,-203 275,-224 408,-224 408,-203 275,-203"/>
<polygon fill="none" stroke="black" points="275,-203 275,-224 408,-224 408,-203 275,-203"/>
<text text-anchor="start" x="296" y="-209.8" font-family="Times,serif" font-size="14.00">char data[0]; / 0 </text>
<polygon fill="#00bfff" stroke="transparent" points="275,-182 275,-203 408,-203 408,-182 275,-182"/>
<polygon fill="none" stroke="black" points="275,-182 275,-203 408,-203 408,-182 275,-182"/>
<text text-anchor="start" x="334" y="-188.8" font-family="Times,serif" font-size="14.00"> 1 </text>
<polygon fill="#00bfff" stroke="transparent" points="275,-161 275,-182 408,-182 408,-161 275,-161"/>
<polygon fill="none" stroke="black" points="275,-161 275,-182 408,-182 408,-161 275,-161"/>
<text text-anchor="start" x="334" y="-167.8" font-family="Times,serif" font-size="14.00"> 2 </text>
<polygon fill="#00bfff" stroke="transparent" points="275,-140 275,-161 408,-161 408,-140 275,-140"/>
<polygon fill="none" stroke="black" points="275,-140 275,-161 408,-161 408,-140 275,-140"/>
<text text-anchor="start" x="334" y="-146.8" font-family="Times,serif" font-size="14.00"> 3 </text>
<polygon fill="#00bfff" stroke="transparent" points="275,-119 275,-140 408,-140 408,-119 275,-119"/>
<polygon fill="none" stroke="black" points="275,-119 275,-140 408,-140 408,-119 275,-119"/>
<text text-anchor="start" x="334" y="-125.8" font-family="Times,serif" font-size="14.00"> 4 </text>
<polygon fill="#00bfff" stroke="transparent" points="275,-98 275,-119 408,-119 408,-98 275,-98"/>
<polygon fill="none" stroke="black" points="275,-98 275,-119 408,-119 408,-98 275,-98"/>
<text text-anchor="start" x="332" y="-104.8" font-family="Times,serif" font-size="14.00"> ... </text>
<polygon fill="#00bfff" stroke="transparent" points="275,-77 275,-98 408,-98 408,-77 275,-77"/>
<polygon fill="none" stroke="black" points="275,-77 275,-98 408,-98 408,-77 275,-77"/>
<text text-anchor="start" x="316.5" y="-83.8" font-family="Times,serif" font-size="14.00"> elsize&#45;1 </text>
</g>
<!-- sqt_add&#45;&gt;sqt_add -->
<g id="edge3" class="edge">
<title>sqt_add:e&#45;&gt;sqt_add:e</title>
<path fill="none" stroke="black" stroke-dasharray="5,2" d="M408,-277C439.5,-336 487.5,-336 487.5,-245.5 487.5,-159.77 444.43,-155.25 413.11,-205.16"/>
<polygon fill="black" stroke="black" points="409.98,-203.59 408,-214 416.04,-207.1 409.98,-203.59"/>
</g>
<!-- sqt_add&#45;&gt;sqt_add -->
<g id="edge4" class="edge">
<title>sqt_add:e&#45;&gt;sqt_add:e</title>
<path fill="none" stroke="red" stroke-dasharray="5,2" d="M408,-256C439.5,-315 487.5,-315 487.5,-224.5 487.5,-138.77 444.43,-134.25 413.11,-184.16"/>
<polygon fill="red" stroke="red" points="409.98,-182.59 408,-193 416.04,-186.1 409.98,-182.59"/>
</g>
<!-- sqt_sub -->
<g id="node3" class="node">
<title>sqt_sub</title>
<text text-anchor="start" x="534" y="-292.8" font-family="Times,serif" font-size="14.00">从队列取出一个元素</text>
<polygon fill="none" stroke="black" points="532,-266 532,-287 665,-287 665,-266 532,-266"/>
<text text-anchor="start" x="535" y="-272.8" font-family="Times,serif" font-size="14.00">int head;</text>
<polygon fill="none" stroke="black" points="532,-245 532,-266 665,-266 665,-245 532,-245"/>
<text text-anchor="start" x="535" y="-251.8" font-family="Times,serif" font-size="14.00">int tail;</text>
<polygon fill="none" stroke="black" points="532,-224 532,-245 665,-245 665,-224 532,-224"/>
<text text-anchor="start" x="535" y="-230.8" font-family="Times,serif" font-size="14.00">volatile int cursize;</text>
<polygon fill="#00bfff" stroke="transparent" points="532,-203 532,-224 665,-224 665,-203 532,-203"/>
<polygon fill="none" stroke="black" points="532,-203 532,-224 665,-224 665,-203 532,-203"/>
<text text-anchor="start" x="553" y="-209.8" font-family="Times,serif" font-size="14.00">char data[0]; / 0 </text>
<polygon fill="#00bfff" stroke="transparent" points="532,-182 532,-203 665,-203 665,-182 532,-182"/>
<polygon fill="none" stroke="black" points="532,-182 532,-203 665,-203 665,-182 532,-182"/>
<text text-anchor="start" x="591" y="-188.8" font-family="Times,serif" font-size="14.00"> 1 </text>
<polygon fill="#00bfff" stroke="transparent" points="532,-161 532,-182 665,-182 665,-161 532,-161"/>
<polygon fill="none" stroke="black" points="532,-161 532,-182 665,-182 665,-161 532,-161"/>
<text text-anchor="start" x="591" y="-167.8" font-family="Times,serif" font-size="14.00"> 2 </text>
<polygon fill="#00bfff" stroke="transparent" points="532,-140 532,-161 665,-161 665,-140 532,-140"/>
<polygon fill="none" stroke="black" points="532,-140 532,-161 665,-161 665,-140 532,-140"/>
<text text-anchor="start" x="591" y="-146.8" font-family="Times,serif" font-size="14.00"> 3 </text>
<polygon fill="#00bfff" stroke="transparent" points="532,-119 532,-140 665,-140 665,-119 532,-119"/>
<polygon fill="none" stroke="black" points="532,-119 532,-140 665,-140 665,-119 532,-119"/>
<text text-anchor="start" x="591" y="-125.8" font-family="Times,serif" font-size="14.00"> 4 </text>
<polygon fill="#00bfff" stroke="transparent" points="532,-98 532,-119 665,-119 665,-98 532,-98"/>
<polygon fill="none" stroke="black" points="532,-98 532,-119 665,-119 665,-98 532,-98"/>
<text text-anchor="start" x="589" y="-104.8" font-family="Times,serif" font-size="14.00"> ... </text>
<polygon fill="#00bfff" stroke="transparent" points="532,-77 532,-98 665,-98 665,-77 532,-77"/>
<polygon fill="none" stroke="black" points="532,-77 532,-98 665,-98 665,-77 532,-77"/>
<text text-anchor="start" x="573.5" y="-83.8" font-family="Times,serif" font-size="14.00"> elsize&#45;1 </text>
</g>
<!-- sqt_sub&#45;&gt;sqt_sub -->
<g id="edge5" class="edge">
<title>sqt_sub:e&#45;&gt;sqt_sub:e</title>
<path fill="none" stroke="black" stroke-dasharray="5,2" d="M665,-277C696.5,-336 744.5,-336 744.5,-235 744.5,-139.33 701.43,-134.28 670.11,-184.16"/>
<polygon fill="black" stroke="black" points="666.98,-182.59 665,-193 673.04,-186.1 666.98,-182.59"/>
</g>
<!-- sqt_sub&#45;&gt;sqt_sub -->
<g id="edge6" class="edge">
<title>sqt_sub:e&#45;&gt;sqt_sub:e</title>
<path fill="none" stroke="red" stroke-dasharray="5,2" d="M665,-256C696.5,-315 744.5,-315 744.5,-224.5 744.5,-138.77 701.43,-134.25 670.11,-184.16"/>
<polygon fill="red" stroke="red" points="666.98,-182.59 665,-193 673.04,-186.1 666.98,-182.59"/>
</g>
</g>
</svg>
