<?xml version="1.0" encoding="UTF-8" standalone="no"?>
<!DOCTYPE svg PUBLIC "-//W3C//DTD SVG 1.1//EN"
 "http://www.w3.org/Graphics/SVG/1.1/DTD/svg11.dtd">
<!-- Generated by graphviz version 2.43.0 (0)
 -->
<!-- Title: timerexpire Pages: 1 -->
<svg width="1381pt" height="246pt"
 viewBox="0.00 0.00 1380.96 246.00" xmlns="http://www.w3.org/2000/svg" xmlns:xlink="http://www.w3.org/1999/xlink">
<g id="graph0" class="graph" transform="scale(1 1) rotate(0) translate(4 242)">
<title>timerexpire</title>
<polygon fill="white" stroke="transparent" points="-4,4 -4,-242 1376.96,-242 1376.96,4 -4,4"/>
<text text-anchor="middle" x="686.48" y="-37.8" font-family="Times,serif" font-size="14.00">假设初始化时间轮参数为， 轮数：2， slot：512， 时间间隔：1s。 </text>
<text text-anchor="middle" x="686.48" y="-22.8" font-family="Times,serif" font-size="14.00">时间轮0的当前位置为slot505, 时间轮1的当前位置为slot508。</text>
<text text-anchor="start" x="478.48" y="-7.8" font-family="Times,serif" font-size="14.00">距离上次处理超时已经过去8s。 &#160;</text>
<!-- tws -->
<!-- timer_wheel_slot -->
<g id="node1" class="node">
<title>tws</title>
<polyline fill="none" stroke="black" points="364.46,-213 364.46,-234 "/>
<text text-anchor="start" x="314.46" y="-219.8" font-family="Times,serif" font-size="14.00">wheel 0:</text>
<polygon fill="none" stroke="black" points="364.46,-213 364.46,-234 397.46,-234 397.46,-213 364.46,-213"/>
<text text-anchor="start" x="367.46" y="-219.8" font-family="Times,serif" font-size="14.00">slot0</text>
<polygon fill="none" stroke="black" points="397.46,-213 397.46,-234 430.46,-234 430.46,-213 397.46,-213"/>
<text text-anchor="start" x="400.46" y="-219.8" font-family="Times,serif" font-size="14.00">slot1</text>
<polygon fill="none" stroke="black" points="430.46,-213 430.46,-234 463.46,-234 463.46,-213 430.46,-213"/>
<text text-anchor="start" x="433.46" y="-219.8" font-family="Times,serif" font-size="14.00">slot2</text>
<polygon fill="none" stroke="black" points="463.46,-213 463.46,-234 496.46,-234 496.46,-213 463.46,-213"/>
<text text-anchor="start" x="466.46" y="-219.8" font-family="Times,serif" font-size="14.00">slot3</text>
<polygon fill="none" stroke="black" points="496.46,-213 496.46,-234 529.46,-234 529.46,-213 496.46,-213"/>
<text text-anchor="start" x="499.46" y="-219.8" font-family="Times,serif" font-size="14.00">slot4</text>
<polygon fill="none" stroke="black" points="529.46,-213 529.46,-234 562.46,-234 562.46,-213 529.46,-213"/>
<text text-anchor="start" x="532.46" y="-219.8" font-family="Times,serif" font-size="14.00">slot5</text>
<polygon fill="none" stroke="black" points="562.46,-213 562.46,-234 606.46,-234 606.46,-213 562.46,-213"/>
<text text-anchor="start" x="565.46" y="-219.8" font-family="Times,serif" font-size="14.00"> &#160;...... &#160;</text>
<polygon fill="crimson" stroke="transparent" points="606.46,-213 606.46,-234 694.46,-234 694.46,-213 606.46,-213"/>
<polygon fill="none" stroke="black" points="606.46,-213 606.46,-234 694.46,-234 694.46,-213 606.46,-213"/>
<text text-anchor="start" x="609.46" y="-219.8" font-family="Times,serif" font-size="14.00">slot505 current</text>
<polygon fill="none" stroke="black" points="694.46,-213 694.46,-234 740.46,-234 740.46,-213 694.46,-213"/>
<text text-anchor="start" x="697.46" y="-219.8" font-family="Times,serif" font-size="14.00">slot506</text>
<polygon fill="none" stroke="black" points="740.46,-213 740.46,-234 786.46,-234 786.46,-213 740.46,-213"/>
<text text-anchor="start" x="743.46" y="-219.8" font-family="Times,serif" font-size="14.00">slot507</text>
<polygon fill="none" stroke="black" points="786.46,-213 786.46,-234 874.46,-234 874.46,-213 786.46,-213"/>
<text text-anchor="start" x="810.46" y="-219.8" font-family="Times,serif" font-size="14.00">slot508</text>
<polygon fill="none" stroke="black" points="874.46,-213 874.46,-234 920.46,-234 920.46,-213 874.46,-213"/>
<text text-anchor="start" x="877.46" y="-219.8" font-family="Times,serif" font-size="14.00">slot509</text>
<polygon fill="none" stroke="black" points="920.46,-213 920.46,-234 966.46,-234 966.46,-213 920.46,-213"/>
<text text-anchor="start" x="923.46" y="-219.8" font-family="Times,serif" font-size="14.00">slot510</text>
<polygon fill="none" stroke="black" points="966.46,-213 966.46,-234 1012.46,-234 1012.46,-213 966.46,-213"/>
<text text-anchor="start" x="969.46" y="-219.8" font-family="Times,serif" font-size="14.00">slot511</text>
<polyline fill="none" stroke="black" points="364.46,-192 364.46,-213 "/>
<text text-anchor="start" x="314.46" y="-198.8" font-family="Times,serif" font-size="14.00">wheel 1:</text>
<polygon fill="none" stroke="black" points="364.46,-192 364.46,-213 397.46,-213 397.46,-192 364.46,-192"/>
<text text-anchor="start" x="367.46" y="-198.8" font-family="Times,serif" font-size="14.00">slot0</text>
<polygon fill="none" stroke="black" points="397.46,-192 397.46,-213 430.46,-213 430.46,-192 397.46,-192"/>
<text text-anchor="start" x="400.46" y="-198.8" font-family="Times,serif" font-size="14.00">slot1</text>
<polygon fill="none" stroke="black" points="430.46,-192 430.46,-213 463.46,-213 463.46,-192 430.46,-192"/>
<text text-anchor="start" x="433.46" y="-198.8" font-family="Times,serif" font-size="14.00">slot2</text>
<polygon fill="none" stroke="black" points="463.46,-192 463.46,-213 496.46,-213 496.46,-192 463.46,-192"/>
<text text-anchor="start" x="466.46" y="-198.8" font-family="Times,serif" font-size="14.00">slot3</text>
<polygon fill="none" stroke="black" points="496.46,-192 496.46,-213 529.46,-213 529.46,-192 496.46,-192"/>
<text text-anchor="start" x="499.46" y="-198.8" font-family="Times,serif" font-size="14.00">slot4</text>
<polygon fill="none" stroke="black" points="529.46,-192 529.46,-213 562.46,-213 562.46,-192 529.46,-192"/>
<text text-anchor="start" x="532.46" y="-198.8" font-family="Times,serif" font-size="14.00">slot5</text>
<polygon fill="none" stroke="black" points="562.46,-192 562.46,-213 606.46,-213 606.46,-192 562.46,-192"/>
<text text-anchor="start" x="565.46" y="-198.8" font-family="Times,serif" font-size="14.00"> &#160;...... &#160;</text>
<polygon fill="none" stroke="black" points="606.46,-192 606.46,-213 694.46,-213 694.46,-192 606.46,-192"/>
<text text-anchor="start" x="630.46" y="-198.8" font-family="Times,serif" font-size="14.00">slot505</text>
<polygon fill="none" stroke="black" points="694.46,-192 694.46,-213 740.46,-213 740.46,-192 694.46,-192"/>
<text text-anchor="start" x="697.46" y="-198.8" font-family="Times,serif" font-size="14.00">slot506</text>
<polygon fill="none" stroke="black" points="740.46,-192 740.46,-213 786.46,-213 786.46,-192 740.46,-192"/>
<text text-anchor="start" x="743.46" y="-198.8" font-family="Times,serif" font-size="14.00">slot507</text>
<polygon fill="crimson" stroke="transparent" points="786.46,-192 786.46,-213 874.46,-213 874.46,-192 786.46,-192"/>
<polygon fill="none" stroke="black" points="786.46,-192 786.46,-213 874.46,-213 874.46,-192 786.46,-192"/>
<text text-anchor="start" x="789.46" y="-198.8" font-family="Times,serif" font-size="14.00">slot508 current</text>
<polygon fill="none" stroke="black" points="874.46,-192 874.46,-213 920.46,-213 920.46,-192 874.46,-192"/>
<text text-anchor="start" x="877.46" y="-198.8" font-family="Times,serif" font-size="14.00">slot509</text>
<polygon fill="none" stroke="black" points="920.46,-192 920.46,-213 966.46,-213 966.46,-192 920.46,-192"/>
<text text-anchor="start" x="923.46" y="-198.8" font-family="Times,serif" font-size="14.00">slot510</text>
<polygon fill="none" stroke="black" points="966.46,-192 966.46,-213 1012.46,-213 1012.46,-192 966.46,-192"/>
<text text-anchor="start" x="969.46" y="-198.8" font-family="Times,serif" font-size="14.00">slot511</text>
</g>
<!-- tws_ew0 -->
<!-- timer_wheel_slot -->
<g id="node2" class="node">
<title>tws_ew0</title>
<polyline fill="none" stroke="black" points="66.46,-108 66.46,-129 "/>
<text text-anchor="start" x="16.46" y="-114.8" font-family="Times,serif" font-size="14.00">wheel 0:</text>
<polygon fill="#c1cdcd" stroke="transparent" points="66.46,-108 66.46,-129 99.46,-129 99.46,-108 66.46,-108"/>
<polygon fill="none" stroke="black" points="66.46,-108 66.46,-129 99.46,-129 99.46,-108 66.46,-108"/>
<text text-anchor="start" x="69.46" y="-114.8" font-family="Times,serif" font-size="14.00">slot0</text>
<polygon fill="crimson" stroke="transparent" points="99.46,-108 99.46,-129 174.46,-129 174.46,-108 99.46,-108"/>
<polygon fill="none" stroke="black" points="99.46,-108 99.46,-129 174.46,-129 174.46,-108 99.46,-108"/>
<text text-anchor="start" x="102.46" y="-114.8" font-family="Times,serif" font-size="14.00">slot1 current</text>
<polygon fill="none" stroke="black" points="174.46,-108 174.46,-129 207.46,-129 207.46,-108 174.46,-108"/>
<text text-anchor="start" x="177.46" y="-114.8" font-family="Times,serif" font-size="14.00">slot2</text>
<polygon fill="none" stroke="black" points="207.46,-108 207.46,-129 240.46,-129 240.46,-108 207.46,-108"/>
<text text-anchor="start" x="210.46" y="-114.8" font-family="Times,serif" font-size="14.00">slot3</text>
<polygon fill="none" stroke="black" points="240.46,-108 240.46,-129 273.46,-129 273.46,-108 240.46,-108"/>
<text text-anchor="start" x="243.46" y="-114.8" font-family="Times,serif" font-size="14.00">slot4</text>
<polygon fill="none" stroke="black" points="273.46,-108 273.46,-129 306.46,-129 306.46,-108 273.46,-108"/>
<text text-anchor="start" x="276.46" y="-114.8" font-family="Times,serif" font-size="14.00">slot5</text>
<polygon fill="none" stroke="black" points="306.46,-108 306.46,-129 350.46,-129 350.46,-108 306.46,-108"/>
<text text-anchor="start" x="309.46" y="-114.8" font-family="Times,serif" font-size="14.00"> &#160;...... &#160;</text>
<polygon fill="#c1cdcd" stroke="transparent" points="350.46,-108 350.46,-129 396.46,-129 396.46,-108 350.46,-108"/>
<polygon fill="none" stroke="black" points="350.46,-108 350.46,-129 396.46,-129 396.46,-108 350.46,-108"/>
<text text-anchor="start" x="353.46" y="-114.8" font-family="Times,serif" font-size="14.00">slot505</text>
<polygon fill="#c1cdcd" stroke="transparent" points="396.46,-108 396.46,-129 442.46,-129 442.46,-108 396.46,-108"/>
<polygon fill="none" stroke="black" points="396.46,-108 396.46,-129 442.46,-129 442.46,-108 396.46,-108"/>
<text text-anchor="start" x="399.46" y="-114.8" font-family="Times,serif" font-size="14.00">slot506</text>
<polygon fill="#c1cdcd" stroke="transparent" points="442.46,-108 442.46,-129 488.46,-129 488.46,-108 442.46,-108"/>
<polygon fill="none" stroke="black" points="442.46,-108 442.46,-129 488.46,-129 488.46,-108 442.46,-108"/>
<text text-anchor="start" x="445.46" y="-114.8" font-family="Times,serif" font-size="14.00">slot507</text>
<polygon fill="#c1cdcd" stroke="transparent" points="488.46,-108 488.46,-129 534.46,-129 534.46,-108 488.46,-108"/>
<polygon fill="none" stroke="black" points="488.46,-108 488.46,-129 534.46,-129 534.46,-108 488.46,-108"/>
<text text-anchor="start" x="491.46" y="-114.8" font-family="Times,serif" font-size="14.00">slot508</text>
<polygon fill="#c1cdcd" stroke="transparent" points="534.46,-108 534.46,-129 580.46,-129 580.46,-108 534.46,-108"/>
<polygon fill="none" stroke="black" points="534.46,-108 534.46,-129 580.46,-129 580.46,-108 534.46,-108"/>
<text text-anchor="start" x="537.46" y="-114.8" font-family="Times,serif" font-size="14.00">slot509</text>
<polygon fill="#c1cdcd" stroke="transparent" points="580.46,-108 580.46,-129 626.46,-129 626.46,-108 580.46,-108"/>
<polygon fill="none" stroke="black" points="580.46,-108 580.46,-129 626.46,-129 626.46,-108 580.46,-108"/>
<text text-anchor="start" x="583.46" y="-114.8" font-family="Times,serif" font-size="14.00">slot510</text>
<polygon fill="#c1cdcd" stroke="transparent" points="626.46,-108 626.46,-129 672.46,-129 672.46,-108 626.46,-108"/>
<polygon fill="none" stroke="black" points="626.46,-108 626.46,-129 672.46,-129 672.46,-108 626.46,-108"/>
<text text-anchor="start" x="629.46" y="-114.8" font-family="Times,serif" font-size="14.00">slot511</text>
</g>
<!-- tws&#45;&gt;tws_ew0 -->
<g id="edge1" class="edge">
<title>tws:w&#45;&gt;tws_ew0:w</title>
<path fill="none" stroke="black" d="M310.46,-224C206.76,-224 182.08,-202.09 83.46,-170 47.28,-158.22 26.42,-168.07 4.46,-137 2.73,-134.55 1.03,-131.4 0,-128.43"/>
<polygon fill="black" stroke="black" points="3.3,-129.59 3.46,-119 -3.27,-127.18 3.3,-129.59"/>
<text text-anchor="middle" x="340.46" y="-158.8" font-family="Times,serif" font-size="14.00">由于距离上次处理超时已经过去8s，所以时间轮从当前slot开始的8个slot都已经过期</text>
<polyline fill="none" stroke="black" points="597.46,-155 83.46,-155 310.46,-224 "/>
</g>
<!-- tws_ew1 -->
<!-- timer_wheel_slot -->
<g id="node3" class="node">
<title>tws_ew1</title>
<polyline fill="none" stroke="black" points="759.46,-108 759.46,-129 "/>
<text text-anchor="start" x="709.46" y="-114.8" font-family="Times,serif" font-size="14.00">wheel 1:</text>
<polygon fill="none" stroke="black" points="759.46,-108 759.46,-129 792.46,-129 792.46,-108 759.46,-108"/>
<text text-anchor="start" x="762.46" y="-114.8" font-family="Times,serif" font-size="14.00">slot0</text>
<polygon fill="none" stroke="black" points="792.46,-108 792.46,-129 825.46,-129 825.46,-108 792.46,-108"/>
<text text-anchor="start" x="795.46" y="-114.8" font-family="Times,serif" font-size="14.00">slot1</text>
<polygon fill="none" stroke="black" points="825.46,-108 825.46,-129 858.46,-129 858.46,-108 825.46,-108"/>
<text text-anchor="start" x="828.46" y="-114.8" font-family="Times,serif" font-size="14.00">slot2</text>
<polygon fill="none" stroke="black" points="858.46,-108 858.46,-129 891.46,-129 891.46,-108 858.46,-108"/>
<text text-anchor="start" x="861.46" y="-114.8" font-family="Times,serif" font-size="14.00">slot3</text>
<polygon fill="none" stroke="black" points="891.46,-108 891.46,-129 924.46,-129 924.46,-108 891.46,-108"/>
<text text-anchor="start" x="894.46" y="-114.8" font-family="Times,serif" font-size="14.00">slot4</text>
<polygon fill="none" stroke="black" points="924.46,-108 924.46,-129 957.46,-129 957.46,-108 924.46,-108"/>
<text text-anchor="start" x="927.46" y="-114.8" font-family="Times,serif" font-size="14.00">slot5</text>
<polygon fill="none" stroke="black" points="957.46,-108 957.46,-129 1001.46,-129 1001.46,-108 957.46,-108"/>
<text text-anchor="start" x="960.46" y="-114.8" font-family="Times,serif" font-size="14.00"> &#160;...... &#160;</text>
<polygon fill="none" stroke="black" points="1001.46,-108 1001.46,-129 1047.46,-129 1047.46,-108 1001.46,-108"/>
<text text-anchor="start" x="1004.46" y="-114.8" font-family="Times,serif" font-size="14.00">slot505</text>
<polygon fill="none" stroke="black" points="1047.46,-108 1047.46,-129 1093.46,-129 1093.46,-108 1047.46,-108"/>
<text text-anchor="start" x="1050.46" y="-114.8" font-family="Times,serif" font-size="14.00">slot506</text>
<polygon fill="none" stroke="black" points="1093.46,-108 1093.46,-129 1139.46,-129 1139.46,-108 1093.46,-108"/>
<text text-anchor="start" x="1096.46" y="-114.8" font-family="Times,serif" font-size="14.00">slot507</text>
<polygon fill="#c1cdcd" stroke="transparent" points="1139.46,-108 1139.46,-129 1185.46,-129 1185.46,-108 1139.46,-108"/>
<polygon fill="none" stroke="black" points="1139.46,-108 1139.46,-129 1185.46,-129 1185.46,-108 1139.46,-108"/>
<text text-anchor="start" x="1142.46" y="-114.8" font-family="Times,serif" font-size="14.00">slot508</text>
<polygon fill="crimson" stroke="transparent" points="1185.46,-108 1185.46,-129 1273.46,-129 1273.46,-108 1185.46,-108"/>
<polygon fill="none" stroke="black" points="1185.46,-108 1185.46,-129 1273.46,-129 1273.46,-108 1185.46,-108"/>
<text text-anchor="start" x="1188.46" y="-114.8" font-family="Times,serif" font-size="14.00">slot509 current</text>
<polygon fill="none" stroke="black" points="1273.46,-108 1273.46,-129 1319.46,-129 1319.46,-108 1273.46,-108"/>
<text text-anchor="start" x="1276.46" y="-114.8" font-family="Times,serif" font-size="14.00">slot510</text>
<polygon fill="none" stroke="black" points="1319.46,-108 1319.46,-129 1365.46,-129 1365.46,-108 1319.46,-108"/>
<text text-anchor="start" x="1322.46" y="-114.8" font-family="Times,serif" font-size="14.00">slot511</text>
</g>
<!-- tws&#45;&gt;tws_ew1 -->
<g id="edge2" class="edge">
<title>tws:w&#45;&gt;tws_ew1:w</title>
<path fill="none" stroke="black" d="M310.46,-202C304.22,-202 307.03,-192.39 311.46,-188 334.07,-165.58 566.28,-176.44 597.46,-170 640,-161.22 658.34,-167.31 689.46,-137 691.86,-134.66 692.15,-131.4 692.11,-128.3"/>
<polygon fill="black" stroke="black" points="695.4,-129.54 696.46,-119 689.06,-126.58 695.4,-129.54"/>
<text text-anchor="middle" x="884.96" y="-158.8" font-family="Times,serif" font-size="14.00">由于时间轮0已经过去一轮，时间轮1的当前slot需要全部移动至时间轮0</text>
<polyline fill="none" stroke="black" points="1104.46,-155 665.46,-155 691.9,-131.94 "/>
</g>
<!-- tws_ew0&#45;&gt;tws_ew0 -->
<g id="edge3" class="edge">
<title>tws_ew0:sco&#45;&gt;tws_ew0:scn</title>
<path fill="none" stroke="black" stroke-dasharray="5,2" d="M376.73,-129.33C374.98,-142.49 351.58,-158 254.96,-158 179.48,-158 148.68,-148.54 137.99,-138.12"/>
<polygon fill="black" stroke="black" points="141.05,-136.43 133.19,-129.33 134.91,-139.78 141.05,-136.43"/>
<text text-anchor="middle" x="97.69" y="-133.13" font-family="Times,serif" font-size="14.00">current 移动</text>
</g>
<!-- tws_ew1&#45;&gt;tws_ew1 -->
<g id="edge4" class="edge">
<title>tws_ew1:sco&#45;&gt;tws_ew1:scn</title>
<path fill="none" stroke="black" stroke-dasharray="5,2" d="M1157.98,-129.33C1155.95,-142.49 1163.75,-158 1195.96,-158 1220.12,-158 1230.54,-149.28 1233.39,-139.36"/>
<polygon fill="black" stroke="black" points="1236.89,-139.5 1233.94,-129.33 1229.9,-139.12 1236.89,-139.5"/>
<text text-anchor="middle" x="1198.44" y="-133.13" font-family="Times,serif" font-size="14.00">current 移动</text>
</g>
</g>
</svg>
