<?xml version="1.0" encoding="UTF-8" standalone="no"?>
<!DOCTYPE svg PUBLIC "-//W3C//DTD SVG 1.1//EN"
 "http://www.w3.org/Graphics/SVG/1.1/DTD/svg11.dtd">
<!-- Generated by graphviz version 2.43.0 (0)
 -->
<!-- Title: vpp_timerwheel Pages: 1 -->
<svg width="834pt" height="859pt"
 viewBox="144.00 72.00 690.27 787.00" xmlns="http://www.w3.org/2000/svg" xmlns:xlink="http://www.w3.org/1999/xlink">
<g id="graph0" class="graph" transform="scale(1 1) rotate(0) translate(148 783)">
<title>vpp_timerwheel</title>
<polygon fill="white" stroke="transparent" points="-4,4 -4,-711 542.27,-711 542.27,4 -4,4"/>
<g id="clust1" class="cluster">
<title>cluster_tw_timer_wheel</title>
<polygon fill="none" stroke="black" points="68.82,-510 68.82,-699 240.82,-699 240.82,-510 68.82,-510"/>
<text text-anchor="middle" x="154.82" y="-683.8" font-family="Helvetica,Arial,sans-serif" font-size="14.00">tw_timer_wheel结构</text>
</g>
<g id="clust2" class="cluster">
<title>cluster_tw_timer</title>
<polygon fill="none" stroke="black" points="209.82,-8 209.82,-381 295.82,-381 295.82,-8 209.82,-8"/>
<text text-anchor="middle" x="252.82" y="-365.8" font-family="Helvetica,Arial,sans-serif" font-size="14.00">timers 向量</text>
</g>
<g id="clust3" class="cluster">
<title>cluster_timer</title>
<polygon fill="none" stroke="black" stroke-dasharray="1,5" points="95.82,-397 95.82,-494 525.82,-494 525.82,-397 95.82,-397"/>
<text text-anchor="middle" x="310.82" y="-478.8" font-family="Helvetica,Arial,sans-serif" font-size="14.00">tw_timer_wheel_solt_t</text>
</g>
<!-- tw_timer_wheel -->
<g id="node1" class="node">
<title>tw_timer_wheel</title>
<path fill="none" stroke="black" d="M82.32,-512.5C82.32,-512.5 227.32,-512.5 227.32,-512.5 233.32,-512.5 239.32,-518.5 239.32,-524.5 239.32,-524.5 239.32,-661.5 239.32,-661.5 239.32,-667.5 233.32,-673.5 227.32,-673.5 227.32,-673.5 82.32,-673.5 82.32,-673.5 76.32,-673.5 70.32,-667.5 70.32,-661.5 70.32,-661.5 70.32,-524.5 70.32,-524.5 70.32,-518.5 76.32,-512.5 82.32,-512.5"/>
<text text-anchor="start" x="78.32" y="-658.3" font-family="Helvetica,Arial,sans-serif" font-size="14.00">tw_timer *timers </text>
<polyline fill="none" stroke="black" points="70.32,-650.5 239.32,-650.5 "/>
<text text-anchor="start" x="78.32" y="-635.3" font-family="Helvetica,Arial,sans-serif" font-size="14.00">next_run_timer </text>
<polyline fill="none" stroke="black" points="70.32,-627.5 239.32,-627.5 "/>
<text text-anchor="start" x="78.32" y="-612.3" font-family="Helvetica,Arial,sans-serif" font-size="14.00">last_run_time </text>
<polyline fill="none" stroke="black" points="70.32,-604.5 239.32,-604.5 "/>
<text text-anchor="start" x="78.32" y="-589.3" font-family="Helvetica,Arial,sans-serif" font-size="14.00">tickets_per_second </text>
<polyline fill="none" stroke="black" points="70.32,-581.5 239.32,-581.5 "/>
<text text-anchor="start" x="78.32" y="-566.3" font-family="Helvetica,Arial,sans-serif" font-size="14.00">current_tick</text>
<polyline fill="none" stroke="black" points="70.32,-558.5 239.32,-558.5 "/>
<text text-anchor="start" x="78.32" y="-543.3" font-family="Helvetica,Arial,sans-serif" font-size="14.00">tw_timer_wheel_slot_t w </text>
<polyline fill="none" stroke="black" points="70.32,-535.5 239.32,-535.5 "/>
<text text-anchor="middle" x="154.82" y="-520.3" font-family="Helvetica,Arial,sans-serif" font-size="14.00">......</text>
</g>
<!-- timers -->
<g id="node2" class="node">
<title>timers</title>
<path fill="none" stroke="black" d="M226.32,-10.5C226.32,-10.5 279.32,-10.5 279.32,-10.5 285.32,-10.5 291.32,-16.5 291.32,-22.5 291.32,-22.5 291.32,-343.5 291.32,-343.5 291.32,-349.5 285.32,-355.5 279.32,-355.5 279.32,-355.5 226.32,-355.5 226.32,-355.5 220.32,-355.5 214.32,-349.5 214.32,-343.5 214.32,-343.5 214.32,-22.5 214.32,-22.5 214.32,-16.5 220.32,-10.5 226.32,-10.5"/>
<text text-anchor="middle" x="252.82" y="-340.3" font-family="Helvetica,Arial,sans-serif" font-size="14.00">timer0</text>
<polyline fill="none" stroke="black" points="214.32,-332.5 291.32,-332.5 "/>
<text text-anchor="middle" x="252.82" y="-317.3" font-family="Helvetica,Arial,sans-serif" font-size="14.00">timer1</text>
<polyline fill="none" stroke="black" points="214.32,-309.5 291.32,-309.5 "/>
<text text-anchor="middle" x="252.82" y="-294.3" font-family="Helvetica,Arial,sans-serif" font-size="14.00">timer2</text>
<polyline fill="none" stroke="black" points="214.32,-286.5 291.32,-286.5 "/>
<text text-anchor="middle" x="252.82" y="-271.3" font-family="Helvetica,Arial,sans-serif" font-size="14.00">......</text>
<polyline fill="none" stroke="black" points="214.32,-263.5 291.32,-263.5 "/>
<text text-anchor="middle" x="252.82" y="-248.3" font-family="Helvetica,Arial,sans-serif" font-size="14.00">timer2047</text>
<polyline fill="none" stroke="black" points="214.32,-240.5 291.32,-240.5 "/>
<text text-anchor="middle" x="252.82" y="-225.3" font-family="Helvetica,Arial,sans-serif" font-size="14.00">timer2048</text>
<polyline fill="none" stroke="black" points="214.32,-217.5 291.32,-217.5 "/>
<text text-anchor="middle" x="252.82" y="-202.3" font-family="Helvetica,Arial,sans-serif" font-size="14.00">timer2049</text>
<polyline fill="none" stroke="black" points="214.32,-194.5 291.32,-194.5 "/>
<text text-anchor="middle" x="252.82" y="-179.3" font-family="Helvetica,Arial,sans-serif" font-size="14.00">timer2050</text>
<polyline fill="none" stroke="black" points="214.32,-171.5 291.32,-171.5 "/>
<text text-anchor="middle" x="252.82" y="-156.3" font-family="Helvetica,Arial,sans-serif" font-size="14.00">......</text>
<polyline fill="none" stroke="black" points="214.32,-148.5 291.32,-148.5 "/>
<text text-anchor="middle" x="252.82" y="-133.3" font-family="Helvetica,Arial,sans-serif" font-size="14.00">timer4095</text>
<polyline fill="none" stroke="black" points="214.32,-125.5 291.32,-125.5 "/>
<text text-anchor="middle" x="252.82" y="-110.3" font-family="Helvetica,Arial,sans-serif" font-size="14.00">timer4096</text>
<polyline fill="none" stroke="black" points="214.32,-102.5 291.32,-102.5 "/>
<text text-anchor="middle" x="252.82" y="-87.3" font-family="Helvetica,Arial,sans-serif" font-size="14.00">timer4097</text>
<polyline fill="none" stroke="black" points="214.32,-79.5 291.32,-79.5 "/>
<text text-anchor="middle" x="252.82" y="-64.3" font-family="Helvetica,Arial,sans-serif" font-size="14.00">timer4098</text>
<polyline fill="none" stroke="black" points="214.32,-56.5 291.32,-56.5 "/>
<text text-anchor="middle" x="252.82" y="-41.3" font-family="Helvetica,Arial,sans-serif" font-size="14.00">......</text>
<polyline fill="none" stroke="black" points="214.32,-33.5 291.32,-33.5 "/>
<text text-anchor="middle" x="252.82" y="-18.3" font-family="Helvetica,Arial,sans-serif" font-size="14.00">timer6143</text>
</g>
<!-- tw_timer_wheel&#45;&gt;timers -->
<g id="edge1" class="edge">
<title>tw_timer_wheel:w&#45;&gt;timers:ne</title>
<path fill="none" stroke="black" d="M68.82,-662C-49.23,-662 5.28,-482.37 86.82,-397 111.36,-371.3 156.79,-369.04 199.82,-372.35"/>
<polygon fill="black" stroke="black" points="209.82,-373.21 199.47,-376.83 204.84,-372.78 199.86,-372.35 199.86,-372.35 199.86,-372.35 204.84,-372.78 200.24,-367.87 209.82,-373.21 209.82,-373.21"/>
</g>
<!-- timer_wheel_slot -->
<g id="node3" class="node">
<title>timer_wheel_slot</title>
<path fill="none" stroke="black" d="M109.82,-399.5C109.82,-399.5 511.82,-399.5 511.82,-399.5 517.82,-399.5 523.82,-405.5 523.82,-411.5 523.82,-411.5 523.82,-456.5 523.82,-456.5 523.82,-462.5 517.82,-468.5 511.82,-468.5 511.82,-468.5 109.82,-468.5 109.82,-468.5 103.82,-468.5 97.82,-462.5 97.82,-456.5 97.82,-456.5 97.82,-411.5 97.82,-411.5 97.82,-405.5 103.82,-399.5 109.82,-399.5"/>
<text text-anchor="middle" x="133.32" y="-453.3" font-family="Helvetica,Arial,sans-serif" font-size="14.00">时间轮0:</text>
<polyline fill="none" stroke="black" points="168.82,-445.5 168.82,-468.5 "/>
<text text-anchor="middle" x="191.32" y="-453.3" font-family="Helvetica,Arial,sans-serif" font-size="14.00">slot0</text>
<polyline fill="none" stroke="black" points="213.82,-445.5 213.82,-468.5 "/>
<text text-anchor="middle" x="236.32" y="-453.3" font-family="Helvetica,Arial,sans-serif" font-size="14.00">slot1</text>
<polyline fill="none" stroke="black" points="258.82,-445.5 258.82,-468.5 "/>
<text text-anchor="middle" x="281.32" y="-453.3" font-family="Helvetica,Arial,sans-serif" font-size="14.00">slot2</text>
<polyline fill="none" stroke="black" points="303.82,-445.5 303.82,-468.5 "/>
<text text-anchor="middle" x="326.32" y="-453.3" font-family="Helvetica,Arial,sans-serif" font-size="14.00">slot3</text>
<polyline fill="none" stroke="black" points="348.82,-445.5 348.82,-468.5 "/>
<text text-anchor="middle" x="368.32" y="-453.3" font-family="Helvetica,Arial,sans-serif" font-size="14.00">......</text>
<polyline fill="none" stroke="black" points="387.82,-445.5 387.82,-468.5 "/>
<text text-anchor="middle" x="421.82" y="-453.3" font-family="Helvetica,Arial,sans-serif" font-size="14.00">slot2046</text>
<polyline fill="none" stroke="black" points="455.82,-445.5 455.82,-468.5 "/>
<text text-anchor="middle" x="489.82" y="-453.3" font-family="Helvetica,Arial,sans-serif" font-size="14.00">slot2047</text>
<polyline fill="none" stroke="black" points="97.82,-445.5 523.82,-445.5 "/>
<text text-anchor="middle" x="133.32" y="-430.3" font-family="Helvetica,Arial,sans-serif" font-size="14.00">时间轮1:</text>
<polyline fill="none" stroke="black" points="168.82,-422.5 168.82,-445.5 "/>
<text text-anchor="middle" x="191.32" y="-430.3" font-family="Helvetica,Arial,sans-serif" font-size="14.00">slot0</text>
<polyline fill="none" stroke="black" points="213.82,-422.5 213.82,-445.5 "/>
<text text-anchor="middle" x="236.32" y="-430.3" font-family="Helvetica,Arial,sans-serif" font-size="14.00">slot1</text>
<polyline fill="none" stroke="black" points="258.82,-422.5 258.82,-445.5 "/>
<text text-anchor="middle" x="281.32" y="-430.3" font-family="Helvetica,Arial,sans-serif" font-size="14.00">slot2</text>
<polyline fill="none" stroke="black" points="303.82,-422.5 303.82,-445.5 "/>
<text text-anchor="middle" x="326.32" y="-430.3" font-family="Helvetica,Arial,sans-serif" font-size="14.00">slot3</text>
<polyline fill="none" stroke="black" points="348.82,-422.5 348.82,-445.5 "/>
<text text-anchor="middle" x="368.32" y="-430.3" font-family="Helvetica,Arial,sans-serif" font-size="14.00">......</text>
<polyline fill="none" stroke="black" points="387.82,-422.5 387.82,-445.5 "/>
<text text-anchor="middle" x="421.82" y="-430.3" font-family="Helvetica,Arial,sans-serif" font-size="14.00">slot2046</text>
<polyline fill="none" stroke="black" points="455.82,-422.5 455.82,-445.5 "/>
<text text-anchor="middle" x="489.82" y="-430.3" font-family="Helvetica,Arial,sans-serif" font-size="14.00">slot2047</text>
<polyline fill="none" stroke="black" points="97.82,-422.5 523.82,-422.5 "/>
<text text-anchor="middle" x="133.32" y="-407.3" font-family="Helvetica,Arial,sans-serif" font-size="14.00">时间轮2:</text>
<polyline fill="none" stroke="black" points="168.82,-399.5 168.82,-422.5 "/>
<text text-anchor="middle" x="191.32" y="-407.3" font-family="Helvetica,Arial,sans-serif" font-size="14.00">slot0</text>
<polyline fill="none" stroke="black" points="213.82,-399.5 213.82,-422.5 "/>
<text text-anchor="middle" x="236.32" y="-407.3" font-family="Helvetica,Arial,sans-serif" font-size="14.00">slot1</text>
<polyline fill="none" stroke="black" points="258.82,-399.5 258.82,-422.5 "/>
<text text-anchor="middle" x="281.32" y="-407.3" font-family="Helvetica,Arial,sans-serif" font-size="14.00">slot2</text>
<polyline fill="none" stroke="black" points="303.82,-399.5 303.82,-422.5 "/>
<text text-anchor="middle" x="326.32" y="-407.3" font-family="Helvetica,Arial,sans-serif" font-size="14.00">slot3</text>
<polyline fill="none" stroke="black" points="348.82,-399.5 348.82,-422.5 "/>
<text text-anchor="middle" x="368.32" y="-407.3" font-family="Helvetica,Arial,sans-serif" font-size="14.00">......</text>
<polyline fill="none" stroke="black" points="387.82,-399.5 387.82,-422.5 "/>
<text text-anchor="middle" x="421.82" y="-407.3" font-family="Helvetica,Arial,sans-serif" font-size="14.00">slot2046</text>
<polyline fill="none" stroke="black" points="455.82,-399.5 455.82,-422.5 "/>
<text text-anchor="middle" x="489.82" y="-407.3" font-family="Helvetica,Arial,sans-serif" font-size="14.00">slot2047</text>
</g>
<!-- tw_timer_wheel&#45;&gt;timer_wheel_slot -->
<g id="edge2" class="edge">
<title>tw_timer_wheel:e&#45;&gt;timer_wheel_slot</title>
<path fill="none" stroke="black" d="M240.82,-547C265.8,-547 282.2,-526.71 292.79,-503.4"/>
<polygon fill="black" stroke="black" points="296.71,-494 297.02,-504.96 294.79,-498.61 292.86,-503.23 292.86,-503.23 292.86,-503.23 294.79,-498.61 288.71,-501.5 296.71,-494 296.71,-494"/>
</g>
<!-- timer_wheel_slot&#45;&gt;timers -->
<g id="edge3" class="edge">
<title>timer_wheel_slot:sw&#45;&gt;timers:w</title>
<path fill="none" stroke="red" d="M168.82,-446C136.36,-413.54 159.61,-353.28 202.71,-344.96"/>
<polygon fill="red" stroke="red" points="212.82,-344 203.29,-349.43 207.84,-344.47 202.86,-344.95 202.86,-344.95 202.86,-344.95 207.84,-344.47 202.44,-340.47 212.82,-344 212.82,-344"/>
<text text-anchor="middle" x="198.32" y="-347.8" font-family="Helvetica,Arial,sans-serif" font-size="14.00">slot0</text>
</g>
<!-- timer_wheel_slot&#45;&gt;timers -->
<g id="edge4" class="edge">
<title>timer_wheel_slot:sw&#45;&gt;timers:w</title>
<path fill="none" stroke="red" d="M213.82,-446C177.14,-409.32 159.65,-332.18 202.7,-322.1"/>
<polygon fill="red" stroke="red" points="212.82,-321 203.36,-326.55 207.85,-321.54 202.87,-322.08 202.87,-322.08 202.87,-322.08 207.85,-321.54 202.39,-317.6 212.82,-321 212.82,-321"/>
<text text-anchor="middle" x="198.32" y="-324.8" font-family="Helvetica,Arial,sans-serif" font-size="14.00">slot1</text>
</g>
<!-- timer_wheel_slot&#45;&gt;timers -->
<g id="edge5" class="edge">
<title>timer_wheel_slot:sw&#45;&gt;timers:e</title>
<path fill="none" stroke="red" d="M455.82,-446C378.67,-368.86 403.71,-259.11 302.97,-252.33"/>
<polygon fill="red" stroke="red" points="292.82,-252 302.96,-247.83 297.81,-252.16 302.81,-252.33 302.81,-252.33 302.81,-252.33 297.81,-252.16 302.66,-256.82 292.82,-252 292.82,-252"/>
</g>
<!-- timer_wheel_slot&#45;&gt;timers -->
<g id="edge6" class="edge">
<title>timer_wheel_slot:sw&#45;&gt;timers:w</title>
<path fill="none" stroke="green" d="M168.82,-422C109.04,-362.22 123.54,-239.11 202.83,-229.59"/>
<polygon fill="green" stroke="green" points="212.82,-229 203.1,-234.08 207.83,-229.29 202.83,-229.59 202.83,-229.59 202.83,-229.59 207.83,-229.29 202.57,-225.09 212.82,-229 212.82,-229"/>
</g>
<!-- timer_wheel_slot&#45;&gt;timers -->
<g id="edge7" class="edge">
<title>timer_wheel_slot:sw&#45;&gt;timers:w</title>
<path fill="none" stroke="green" d="M213.82,-422C148.45,-356.64 119.03,-216.88 202.64,-206.6"/>
<polygon fill="green" stroke="green" points="212.82,-206 203.1,-211.08 207.83,-206.29 202.83,-206.59 202.83,-206.59 202.83,-206.59 207.83,-206.29 202.57,-202.1 212.82,-206 212.82,-206"/>
</g>
<!-- timer_wheel_slot&#45;&gt;timers -->
<g id="edge8" class="edge">
<title>timer_wheel_slot:se&#45;&gt;timers:e</title>
<path fill="none" stroke="green" d="M524.82,-422C544.85,-401.97 575.7,-143.43 303.06,-137.12"/>
<polygon fill="green" stroke="green" points="292.82,-137 302.87,-132.61 297.82,-137.06 302.82,-137.11 302.82,-137.11 302.82,-137.11 297.82,-137.06 302.76,-141.61 292.82,-137 292.82,-137"/>
</g>
<!-- timer_wheel_slot&#45;&gt;timers -->
<g id="edge9" class="edge">
<title>timer_wheel_slot:sw&#45;&gt;timers:w</title>
<path fill="none" stroke="blue" d="M168.82,-398C80.97,-310.15 84.8,-124.51 202.61,-114.43"/>
<polygon fill="blue" stroke="blue" points="212.82,-114 203.01,-118.92 207.82,-114.21 202.83,-114.42 202.83,-114.42 202.83,-114.42 207.82,-114.21 202.64,-109.92 212.82,-114 212.82,-114"/>
</g>
<!-- timer_wheel_slot&#45;&gt;timers -->
<g id="edge10" class="edge">
<title>timer_wheel_slot:sw&#45;&gt;timers:w</title>
<path fill="none" stroke="blue" d="M213.82,-398C119.79,-303.97 78.49,-101.62 202.76,-91.4"/>
<polygon fill="blue" stroke="blue" points="212.82,-91 203,-95.9 207.82,-91.2 202.82,-91.4 202.82,-91.4 202.82,-91.4 207.82,-91.2 202.64,-86.9 212.82,-91 212.82,-91"/>
</g>
<!-- timer_wheel_slot&#45;&gt;timers -->
<g id="edge11" class="edge">
<title>timer_wheel_slot:se&#45;&gt;timers:e</title>
<path fill="none" stroke="blue" d="M523.82,-398C590.86,-330.96 404.01,-42.1 302.92,-22.99"/>
<polygon fill="blue" stroke="blue" points="292.82,-22 303.21,-18.5 297.79,-22.49 302.77,-22.98 302.77,-22.98 302.77,-22.98 297.79,-22.49 302.33,-27.46 292.82,-22 292.82,-22"/>
</g>
</g>
</svg>
