<?xml version="1.0" encoding="UTF-8" standalone="no"?>
<!DOCTYPE svg PUBLIC "-//W3C//DTD SVG 1.1//EN"
 "http://www.w3.org/Graphics/SVG/1.1/DTD/svg11.dtd">
<!-- Generated by graphviz version 2.43.0 (0)
 -->
<!-- Title: reg_node Pages: 1 -->
<svg width="653pt" height="849pt"
 viewBox="0.00 0.00 653.00 849.00" xmlns="http://www.w3.org/2000/svg" xmlns:xlink="http://www.w3.org/1999/xlink">
<g id="graph0" class="graph" transform="scale(1 1) rotate(0) translate(4 845)">
<title>reg_node</title>
<polygon fill="white" stroke="transparent" points="-4,4 -4,-845 649,-845 649,4 -4,4"/>
<text text-anchor="middle" x="322.5" y="-7.8" font-family="Times,serif" font-size="14.00">vpp node初始化</text>
<g id="clust1" class="cluster">
<title>cluster_vm</title>
<polygon fill="none" stroke="black" stroke-dasharray="1,5" points="8,-632 8,-833 118,-833 118,-632 8,-632"/>
<text text-anchor="middle" x="63" y="-817.8" font-family="Times,serif" font-size="14.00">vlib_main_t</text>
</g>
<g id="clust2" class="cluster">
<title>cluster_vnm</title>
<polygon fill="none" stroke="black" stroke-dasharray="1,5" points="55,-435 55,-613 187,-613 187,-435 55,-435"/>
<text text-anchor="middle" x="121" y="-597.8" font-family="Times,serif" font-size="14.00">vlib_node_main_t</text>
</g>
<g id="clust3" class="cluster">
<title>cluster_node</title>
<polygon fill="none" stroke="black" stroke-dasharray="1,5" points="381,-31 381,-590 530,-590 530,-31 381,-31"/>
<text text-anchor="middle" x="455.5" y="-574.8" font-family="Times,serif" font-size="14.00">vlib_node_registration_t</text>
</g>
<!-- vm -->
<g id="node1" class="node">
<title>vm</title>
<polygon fill="none" stroke="black" points="16,-640.5 16,-801.5 110,-801.5 110,-640.5 16,-640.5"/>
<text text-anchor="middle" x="63" y="-786.3" font-family="Times,serif" font-size="14.00">heap_size</text>
<polyline fill="none" stroke="black" points="16,-778.5 110,-778.5 "/>
<text text-anchor="middle" x="63" y="-763.3" font-family="Times,serif" font-size="14.00">heap_size</text>
<polyline fill="none" stroke="black" points="16,-755.5 110,-755.5 "/>
<text text-anchor="middle" x="63" y="-740.3" font-family="Times,serif" font-size="14.00">buffer_main</text>
<polyline fill="none" stroke="black" points="16,-732.5 110,-732.5 "/>
<text text-anchor="middle" x="63" y="-717.3" font-family="Times,serif" font-size="14.00">physem_main</text>
<polyline fill="none" stroke="black" points="16,-709.5 110,-709.5 "/>
<text text-anchor="middle" x="63" y="-694.3" font-family="Times,serif" font-size="14.00">node_main</text>
<polyline fill="none" stroke="black" points="16,-686.5 110,-686.5 "/>
<text text-anchor="middle" x="63" y="-671.3" font-family="Times,serif" font-size="14.00">cli_main</text>
<polyline fill="none" stroke="black" points="16,-663.5 110,-663.5 "/>
<text text-anchor="middle" x="63" y="-648.3" font-family="Times,serif" font-size="14.00">trace_main</text>
</g>
<!-- vnm -->
<g id="node2" class="node">
<title>vnm</title>
<polygon fill="none" stroke="black" points="63,-443.5 63,-581.5 179,-581.5 179,-443.5 63,-443.5"/>
<text text-anchor="middle" x="121" y="-566.3" font-family="Times,serif" font-size="14.00">nodes</text>
<polyline fill="none" stroke="black" points="63,-558.5 179,-558.5 "/>
<text text-anchor="middle" x="121" y="-543.3" font-family="Times,serif" font-size="14.00">node_by_name</text>
<polyline fill="none" stroke="black" points="63,-535.5 179,-535.5 "/>
<text text-anchor="middle" x="121" y="-520.3" font-family="Times,serif" font-size="14.00">nodes_by_type[]</text>
<polyline fill="none" stroke="black" points="63,-512.5 179,-512.5 "/>
<text text-anchor="middle" x="121" y="-497.3" font-family="Times,serif" font-size="14.00">pending_frames</text>
<polyline fill="none" stroke="black" points="63,-489.5 179,-489.5 "/>
<text text-anchor="middle" x="121" y="-474.3" font-family="Times,serif" font-size="14.00">...</text>
<polyline fill="none" stroke="black" points="63,-466.5 179,-466.5 "/>
<text text-anchor="middle" x="121" y="-451.3" font-family="Times,serif" font-size="14.00">node_registrations</text>
</g>
<!-- vm&#45;&gt;vnm -->
<g id="edge1" class="edge">
<title>vm:s&#45;&gt;vnm:nw</title>
<path fill="none" stroke="black" d="M63,-639C63,-617.81 50.36,-604.8 57.07,-590.58"/>
<polygon fill="black" stroke="black" points="59.91,-592.63 63,-582.5 54.26,-588.49 59.91,-592.63"/>
</g>
<!-- node2 -->
<g id="node5" class="node">
<title>node2</title>
<polygon fill="none" stroke="black" points="391,-299.5 391,-391.5 503,-391.5 503,-299.5 391,-299.5"/>
<text text-anchor="start" x="399" y="-376.3" font-family="Times,serif" font-size="14.00">function </text>
<polyline fill="none" stroke="black" points="391,-368.5 503,-368.5 "/>
<text text-anchor="start" x="399" y="-353.3" font-family="Times,serif" font-size="14.00">...</text>
<polyline fill="none" stroke="black" points="391,-345.5 503,-345.5 "/>
<text text-anchor="start" x="399" y="-330.3" font-family="Times,serif" font-size="14.00">next_registration </text>
<polyline fill="none" stroke="black" points="391,-322.5 503,-322.5 "/>
<text text-anchor="start" x="399" y="-307.3" font-family="Times,serif" font-size="14.00">next_nodes </text>
</g>
<!-- vnm&#45;&gt;node2 -->
<g id="edge6" class="edge">
<title>vnm:se&#45;&gt;node2:nw</title>
<path fill="none" stroke="black" d="M179,-442.5C244.95,-376.55 316.95,-454.28 383.35,-399"/>
<polygon fill="black" stroke="black" points="385.98,-401.33 391,-392 381.26,-396.17 385.98,-401.33"/>
</g>
<!-- nodeN -->
<g id="node6" class="node">
<title>nodeN</title>
<polygon fill="none" stroke="black" points="400,-466.5 400,-558.5 512,-558.5 512,-466.5 400,-466.5"/>
<text text-anchor="start" x="408" y="-543.3" font-family="Times,serif" font-size="14.00">function </text>
<polyline fill="none" stroke="black" points="400,-535.5 512,-535.5 "/>
<text text-anchor="start" x="408" y="-520.3" font-family="Times,serif" font-size="14.00">...</text>
<polyline fill="none" stroke="black" points="400,-512.5 512,-512.5 "/>
<text text-anchor="start" x="408" y="-497.3" font-family="Times,serif" font-size="14.00">next_registration </text>
<polyline fill="none" stroke="black" points="400,-489.5 512,-489.5 "/>
<text text-anchor="start" x="408" y="-474.3" font-family="Times,serif" font-size="14.00">next_nodes </text>
</g>
<!-- vnm&#45;&gt;nodeN -->
<g id="edge7" class="edge">
<title>vnm:nr&#45;&gt;nodeN:fn</title>
</g>
<!-- node0 -->
<g id="node3" class="node">
<title>node0</title>
<polygon fill="none" stroke="black" points="391,-39.5 391,-131.5 503,-131.5 503,-39.5 391,-39.5"/>
<text text-anchor="start" x="399" y="-116.3" font-family="Times,serif" font-size="14.00">function </text>
<polyline fill="none" stroke="black" points="391,-108.5 503,-108.5 "/>
<text text-anchor="start" x="399" y="-93.3" font-family="Times,serif" font-size="14.00">...</text>
<polyline fill="none" stroke="black" points="391,-85.5 503,-85.5 "/>
<text text-anchor="start" x="399" y="-70.3" font-family="Times,serif" font-size="14.00">next_registration </text>
<polyline fill="none" stroke="black" points="391,-62.5 503,-62.5 "/>
<text text-anchor="start" x="399" y="-47.3" font-family="Times,serif" font-size="14.00">next_nodes </text>
</g>
<!-- node1 -->
<g id="node4" class="node">
<title>node1</title>
<polygon fill="none" stroke="black" points="391,-169.5 391,-261.5 503,-261.5 503,-169.5 391,-169.5"/>
<text text-anchor="start" x="399" y="-246.3" font-family="Times,serif" font-size="14.00">function </text>
<polyline fill="none" stroke="black" points="391,-238.5 503,-238.5 "/>
<text text-anchor="start" x="399" y="-223.3" font-family="Times,serif" font-size="14.00">...</text>
<polyline fill="none" stroke="black" points="391,-215.5 503,-215.5 "/>
<text text-anchor="start" x="399" y="-200.3" font-family="Times,serif" font-size="14.00">next_registration </text>
<polyline fill="none" stroke="black" points="391,-192.5 503,-192.5 "/>
<text text-anchor="start" x="399" y="-177.3" font-family="Times,serif" font-size="14.00">next_nodes </text>
</g>
<!-- node1&#45;&gt;node0 -->
<g id="edge2" class="edge">
<title>node1:next&#45;&gt;node0</title>
<path fill="none" stroke="black" d="M504,-203.5C534.59,-203.5 516.88,-170.77 493.4,-139.93"/>
<polygon fill="black" stroke="black" points="495.91,-137.46 487,-131.74 490.39,-141.77 495.91,-137.46"/>
<text text-anchor="middle" x="574.5" y="-207.3" font-family="Times,serif" font-size="14.00">指向上一个注册的node</text>
</g>
<!-- node2&#45;&gt;node1 -->
<g id="edge3" class="edge">
<title>node2:next&#45;&gt;node1</title>
<path fill="none" stroke="black" d="M504,-333.5C534.59,-333.5 516.88,-300.77 493.4,-269.93"/>
<polygon fill="black" stroke="black" points="495.91,-267.46 487,-261.74 490.39,-271.77 495.91,-267.46"/>
</g>
<!-- nodeN&#45;&gt;vnm -->
<g id="edge4" class="edge">
<title>nodeN:next&#45;&gt;vnm:e</title>
</g>
<!-- nodeN&#45;&gt;node2 -->
<g id="edge5" class="edge">
<title>nodeN:next&#45;&gt;node2</title>
<path fill="none" stroke="black" stroke-dasharray="5,2" d="M399,-500.5C355.94,-500.5 381.92,-444.95 409.54,-400.58"/>
<polygon fill="black" stroke="black" points="412.66,-402.19 415.06,-391.87 406.75,-398.44 412.66,-402.19"/>
<text text-anchor="middle" x="438" y="-413.8" font-family="Times,serif" font-size="14.00">2. 实际指向</text>
</g>
</g>
</svg>
