<?xml version="1.0" encoding="UTF-8" standalone="no"?>
<!DOCTYPE svg PUBLIC "-//W3C//DTD SVG 1.1//EN"
 "http://www.w3.org/Graphics/SVG/1.1/DTD/svg11.dtd">
<!-- Generated by graphviz version 2.43.0 (0)
 -->
<!-- Title: G Pages: 1 -->
<svg width="519pt" height="303pt"
 viewBox="144.00 0.00 374.50 302.81" xmlns="http://www.w3.org/2000/svg" xmlns:xlink="http://www.w3.org/1999/xlink">
<g id="graph0" class="graph" transform="scale(1 1) rotate(0) translate(148 298.81)">
<title>G</title>
<polygon fill="white" stroke="transparent" points="-4,4 -4,-298.81 226.5,-298.81 226.5,4 -4,4"/>
<!-- m -->
<g id="node1" class="node">
<title>m</title>
<path fill="none" stroke="black" d="M49,-294.81C49,-294.81 19,-294.81 19,-294.81 13,-294.81 7,-288.81 7,-282.81 7,-282.81 7,-270.81 7,-270.81 7,-264.81 13,-258.81 19,-258.81 19,-258.81 49,-258.81 49,-258.81 55,-258.81 61,-264.81 61,-270.81 61,-270.81 61,-282.81 61,-282.81 61,-288.81 55,-294.81 49,-294.81"/>
<text text-anchor="middle" x="34" y="-274.91" font-family="Helvetica,Arial,sans-serif" font-size="8.00">main</text>
</g>
<!-- vum -->
<g id="node2" class="node">
<title>vum</title>
<path fill="none" stroke="black" d="M56,-244.81C56,-244.81 12,-244.81 12,-244.81 6,-244.81 0,-238.81 0,-232.81 0,-232.81 0,-220.81 0,-220.81 0,-214.81 6,-208.81 12,-208.81 12,-208.81 56,-208.81 56,-208.81 62,-208.81 68,-214.81 68,-220.81 68,-220.81 68,-232.81 68,-232.81 68,-238.81 62,-244.81 56,-244.81"/>
<text text-anchor="middle" x="34" y="-224.91" font-family="Helvetica,Arial,sans-serif" font-size="8.00">vlib_unix_main</text>
</g>
<!-- m&#45;&gt;vum -->
<g id="edge1" class="edge">
<title>m&#45;&gt;vum</title>
<path fill="none" stroke="black" d="M34,-258.75C34,-257.48 34,-256.18 34,-254.87"/>
<polygon fill="black" stroke="black" points="34,-244.82 38.5,-254.82 34,-249.82 34,-254.82 34,-254.82 34,-254.82 34,-249.82 29.5,-254.82 34,-244.82 34,-244.82"/>
</g>
<!-- cc -->
<g id="node3" class="node">
<title>cc</title>
<path fill="none" stroke="black" d="M155,-244.81C155,-244.81 123,-244.81 123,-244.81 117,-244.81 111,-238.81 111,-232.81 111,-232.81 111,-220.81 111,-220.81 111,-214.81 117,-208.81 123,-208.81 123,-208.81 155,-208.81 155,-208.81 161,-208.81 167,-214.81 167,-220.81 167,-220.81 167,-232.81 167,-232.81 167,-238.81 161,-244.81 155,-244.81"/>
<text text-anchor="middle" x="139" y="-224.91" font-family="Helvetica,Arial,sans-serif" font-size="8.00">clib_calljmp</text>
</g>
<!-- vum&#45;&gt;cc -->
<g id="edge2" class="edge">
<title>vum&#45;&gt;cc</title>
<path fill="none" stroke="black" d="M68.04,-226.81C78.94,-226.81 89.83,-226.81 100.72,-226.81"/>
<polygon fill="black" stroke="black" points="110.73,-226.81 100.73,-231.31 105.73,-226.81 100.73,-226.81 100.73,-226.81 100.73,-226.81 105.73,-226.81 100.73,-222.31 110.73,-226.81 110.73,-226.81"/>
</g>
<!-- t -->
<g id="node4" class="node">
<title>t</title>
<path fill="none" stroke="black" d="M154,-194.81C154,-194.81 124,-194.81 124,-194.81 118,-194.81 112,-188.81 112,-182.81 112,-182.81 112,-170.81 112,-170.81 112,-164.81 118,-158.81 124,-158.81 124,-158.81 154,-158.81 154,-158.81 160,-158.81 166,-164.81 166,-170.81 166,-170.81 166,-182.81 166,-182.81 166,-188.81 160,-194.81 154,-194.81"/>
<text text-anchor="middle" x="139" y="-174.91" font-family="Helvetica,Arial,sans-serif" font-size="8.00">thread0</text>
</g>
<!-- cc&#45;&gt;t -->
<g id="edge3" class="edge">
<title>cc&#45;&gt;t</title>
<path fill="none" stroke="black" d="M139,-208.75C139,-207.48 139,-206.18 139,-204.87"/>
<polygon fill="black" stroke="black" points="139,-194.82 143.5,-204.82 139,-199.82 139,-204.82 139,-204.82 139,-204.82 139,-199.82 134.5,-204.82 139,-194.82 139,-194.82"/>
</g>
<!-- vm -->
<g id="node5" class="node">
<title>vm</title>
<path fill="none" stroke="black" d="M154,-144.81C154,-144.81 124,-144.81 124,-144.81 118,-144.81 112,-138.81 112,-132.81 112,-132.81 112,-120.81 112,-120.81 112,-114.81 118,-108.81 124,-108.81 124,-108.81 154,-108.81 154,-108.81 160,-108.81 166,-114.81 166,-120.81 166,-120.81 166,-132.81 166,-132.81 166,-138.81 160,-144.81 154,-144.81"/>
<text text-anchor="middle" x="139" y="-124.91" font-family="Helvetica,Arial,sans-serif" font-size="8.00">vlib_main</text>
</g>
<!-- t&#45;&gt;vm -->
<g id="edge4" class="edge">
<title>t&#45;&gt;vm</title>
<path fill="none" stroke="black" d="M139,-158.75C139,-157.48 139,-156.18 139,-154.87"/>
<polygon fill="black" stroke="black" points="139,-144.82 143.5,-154.82 139,-149.82 139,-154.82 139,-154.82 139,-154.82 139,-149.82 134.5,-154.82 139,-144.82 139,-144.82"/>
</g>
<!-- vrasn -->
<g id="node6" class="node">
<title>vrasn</title>
<path fill="none" stroke="black" d="M186.5,-94.81C186.5,-94.81 91.5,-94.81 91.5,-94.81 85.5,-94.81 79.5,-88.81 79.5,-82.81 79.5,-82.81 79.5,-70.81 79.5,-70.81 79.5,-64.81 85.5,-58.81 91.5,-58.81 91.5,-58.81 186.5,-58.81 186.5,-58.81 192.5,-58.81 198.5,-64.81 198.5,-70.81 198.5,-70.81 198.5,-82.81 198.5,-82.81 198.5,-88.81 192.5,-94.81 186.5,-94.81"/>
<text text-anchor="middle" x="139" y="-74.91" font-family="Helvetica,Arial,sans-serif" font-size="8.00">vlib_register_all_static_nodes</text>
</g>
<!-- vm&#45;&gt;vrasn -->
<g id="edge5" class="edge">
<title>vm&#45;&gt;vrasn</title>
<path fill="none" stroke="black" d="M139,-108.75C139,-107.48 139,-106.18 139,-104.87"/>
<polygon fill="black" stroke="black" points="139,-94.82 143.5,-104.82 139,-99.82 139,-104.82 139,-104.82 139,-104.82 139,-99.82 134.5,-104.82 139,-94.82 139,-94.82"/>
</g>
<!-- vrn -->
<g id="node7" class="node">
<title>vrn</title>
<path fill="none" stroke="black" d="M167.5,-44.81C167.5,-44.81 110.5,-44.81 110.5,-44.81 104.5,-44.81 98.5,-38.81 98.5,-32.81 98.5,-32.81 98.5,-20.81 98.5,-20.81 98.5,-14.81 104.5,-8.81 110.5,-8.81 110.5,-8.81 167.5,-8.81 167.5,-8.81 173.5,-8.81 179.5,-14.81 179.5,-20.81 179.5,-20.81 179.5,-32.81 179.5,-32.81 179.5,-38.81 173.5,-44.81 167.5,-44.81"/>
<text text-anchor="middle" x="139" y="-24.91" font-family="Helvetica,Arial,sans-serif" font-size="8.00">vlib_register_node</text>
</g>
<!-- vrasn&#45;&gt;vrn -->
<g id="edge6" class="edge">
<title>vrasn&#45;&gt;vrn</title>
<path fill="none" stroke="black" d="M139,-58.75C139,-57.48 139,-56.18 139,-54.87"/>
<polygon fill="black" stroke="black" points="139,-44.82 143.5,-54.82 139,-49.82 139,-54.82 139,-54.82 139,-54.82 139,-49.82 134.5,-54.82 139,-44.82 139,-44.82"/>
</g>
<!-- vrn&#45;&gt;vrn -->
<g id="edge7" class="edge">
<title>vrn:s&#45;&gt;vrn:e</title>
<path fill="none" stroke="black" d="M139,-8.81C166.83,3.69 222.5,3.69 222.5,-17.81 222.5,-35.45 203.21,-38.62 188.64,-32.29"/>
<polygon fill="black" stroke="black" points="180,-26.81 190.86,-28.36 184.22,-29.49 188.45,-32.16 188.45,-32.16 188.45,-32.16 184.22,-29.49 186.04,-35.97 180,-26.81 180,-26.81"/>
</g>
</g>
</svg>
