<?xml version="1.0" encoding="UTF-8" standalone="no"?>
<!DOCTYPE svg PUBLIC "-//W3C//DTD SVG 1.1//EN"
 "http://www.w3.org/Graphics/SVG/1.1/DTD/svg11.dtd">
<!-- Generated by graphviz version 2.43.0 (0)
 -->
<!-- Title: G Pages: 1 -->
<svg width="797pt" height="552pt"
 viewBox="144.00 0.00 652.50 552.00" xmlns="http://www.w3.org/2000/svg" xmlns:xlink="http://www.w3.org/1999/xlink">
<g id="graph0" class="graph" transform="scale(1 1) rotate(0) translate(148 548)">
<title>G</title>
<polygon fill="white" stroke="transparent" points="-4,4 -4,-548 504.5,-548 504.5,4 -4,4"/>
<!-- vrn -->
<g id="node1" class="node">
<title>vrn</title>
<path fill="lightgrey" stroke="black" d="M132,-544C132,-544 80,-544 80,-544 74,-544 68,-538 68,-532 68,-532 68,-520 68,-520 68,-514 74,-508 80,-508 80,-508 132,-508 132,-508 138,-508 144,-514 144,-520 144,-520 144,-532 144,-532 144,-538 138,-544 132,-544"/>
<text text-anchor="middle" x="106" y="-524.1" font-family="Times,serif" font-size="8.00">vlib_register_node</text>
</g>
<!-- vn -->
<g id="node2" class="node">
<title>vn</title>
<path fill="lightgrey" stroke="black" d="M266.5,-544C266.5,-544 199.5,-544 199.5,-544 193.5,-544 187.5,-538 187.5,-532 187.5,-532 187.5,-520 187.5,-520 187.5,-514 193.5,-508 199.5,-508 199.5,-508 266.5,-508 266.5,-508 272.5,-508 278.5,-514 278.5,-520 278.5,-520 278.5,-532 278.5,-532 278.5,-538 272.5,-544 266.5,-544"/>
<text text-anchor="middle" x="233" y="-524.1" font-family="Times,serif" font-size="8.00">分配 vlib_node_t 内存</text>
</g>
<!-- vrn&#45;&gt;vn -->
<g id="edge1" class="edge">
<title>vrn&#45;&gt;vn</title>
<path fill="none" stroke="black" d="M144.2,-526C155.18,-526 166.15,-526 177.13,-526"/>
<polygon fill="black" stroke="black" points="187.21,-526 177.21,-530.5 182.21,-526 177.21,-526 177.21,-526 177.21,-526 182.21,-526 177.21,-521.5 187.21,-526 187.21,-526"/>
</g>
<!-- va -->
<g id="node3" class="node">
<title>va</title>
<path fill="lightgrey" stroke="black" d="M310.5,-494C310.5,-494 155.5,-494 155.5,-494 149.5,-494 143.5,-488 143.5,-482 143.5,-482 143.5,-470 143.5,-470 143.5,-464 149.5,-458 155.5,-458 155.5,-458 310.5,-458 310.5,-458 316.5,-458 322.5,-464 322.5,-470 322.5,-470 322.5,-482 322.5,-482 322.5,-488 316.5,-494 310.5,-494"/>
<text text-anchor="middle" x="233" y="-474.1" font-family="Times,serif" font-size="8.00">将新分配的node添加到vlib_node_main_t&#45;&gt;nodes</text>
</g>
<!-- vn&#45;&gt;va -->
<g id="edge2" class="edge">
<title>vn&#45;&gt;va</title>
<path fill="none" stroke="black" d="M233,-507.94C233,-506.67 233,-505.37 233,-504.05"/>
<polygon fill="black" stroke="black" points="233,-494 237.5,-504 233,-499 233,-504 233,-504 233,-504 233,-499 228.5,-504 233,-494 233,-494"/>
</g>
<!-- nm_nbn -->
<g id="node4" class="node">
<title>nm_nbn</title>
<path fill="lightgrey" stroke="black" d="M285,-444C285,-444 181,-444 181,-444 175,-444 169,-438 169,-432 169,-432 169,-420 169,-420 169,-414 175,-408 181,-408 181,-408 285,-408 285,-408 291,-408 297,-414 297,-420 297,-420 297,-432 297,-432 297,-438 291,-444 285,-444"/>
<text text-anchor="middle" x="233" y="-424.1" font-family="Times,serif" font-size="8.00">根据node名称存储到名称hash表</text>
</g>
<!-- va&#45;&gt;nm_nbn -->
<g id="edge3" class="edge">
<title>va&#45;&gt;nm_nbn</title>
<path fill="none" stroke="black" d="M233,-457.94C233,-456.67 233,-455.37 233,-454.05"/>
<polygon fill="black" stroke="black" points="233,-444 237.5,-454 233,-449 233,-454 233,-454 233,-454 233,-449 228.5,-454 233,-444 233,-444"/>
</g>
<!-- nd_init -->
<g id="node5" class="node">
<title>nd_init</title>
<path fill="lightgrey" stroke="black" d="M265.5,-394C265.5,-394 200.5,-394 200.5,-394 194.5,-394 188.5,-388 188.5,-382 188.5,-382 188.5,-370 188.5,-370 188.5,-364 194.5,-358 200.5,-358 200.5,-358 265.5,-358 265.5,-358 271.5,-358 277.5,-364 277.5,-370 277.5,-370 277.5,-382 277.5,-382 277.5,-388 271.5,-394 265.5,-394"/>
<text text-anchor="middle" x="233" y="-374.1" font-family="Times,serif" font-size="8.00">初始化node相关成员</text>
</g>
<!-- nm_nbn&#45;&gt;nd_init -->
<g id="edge4" class="edge">
<title>nm_nbn&#45;&gt;nd_init</title>
<path fill="none" stroke="black" d="M233,-407.94C233,-406.67 233,-405.37 233,-404.05"/>
<polygon fill="black" stroke="black" points="233,-394 237.5,-404 233,-399 233,-404 233,-404 233,-404 233,-399 228.5,-404 233,-394 233,-394"/>
</g>
<!-- nd_fs -->
<g id="node6" class="node">
<title>nd_fs</title>
<path fill="red" stroke="red" d="M341,-344C341,-344 125,-344 125,-344 119,-344 113,-338 113,-332 113,-332 113,-320 113,-320 113,-314 119,-308 125,-308 125,-308 341,-308 341,-308 347,-308 353,-314 353,-320 353,-320 353,-332 353,-332 353,-338 347,-344 341,-344"/>
<text text-anchor="start" x="121" y="-328.6" font-family="Times,serif" font-size="8.00"> &#160;&#160;&#160;&#160;&#160;&#160;&#160;&#160;&#160;&#160;&#160;&#160;&#160;&#160;&#160;&#160;1. 初始化node的frame_size &#160;&#160;&#160;&#160;&#160;&#160;&#160;&#160;&#160;&#160;&#160;&#160;&#160;&#160;</text>
<text text-anchor="start" x="121" y="-319.6" font-family="Times,serif" font-size="8.00">2. 初始化frame_size_index，指向vlib_node_main_t&#45;&gt;frame_sizes[]</text>
</g>
<!-- nd_init&#45;&gt;nd_fs -->
<g id="edge5" class="edge">
<title>nd_init&#45;&gt;nd_fs</title>
<path fill="none" stroke="black" d="M233,-357.94C233,-356.67 233,-355.37 233,-354.05"/>
<polygon fill="black" stroke="black" points="233,-344 237.5,-354 233,-349 233,-354 233,-354 233,-354 233,-349 228.5,-354 233,-344 233,-344"/>
</g>
<!-- vre -->
<g id="node7" class="node">
<title>vre</title>
<path fill="lightgrey" stroke="black" d="M265.5,-294C265.5,-294 200.5,-294 200.5,-294 194.5,-294 188.5,-288 188.5,-282 188.5,-282 188.5,-270 188.5,-270 188.5,-264 194.5,-258 200.5,-258 200.5,-258 265.5,-258 265.5,-258 271.5,-258 277.5,-264 277.5,-270 277.5,-270 277.5,-282 277.5,-282 277.5,-288 271.5,-294 265.5,-294"/>
<text text-anchor="middle" x="233" y="-278.6" font-family="Times,serif" font-size="8.00">vlib_register_errors</text>
<text text-anchor="middle" x="233" y="-269.6" font-family="Times,serif" font-size="8.00">初始化node错误相关</text>
</g>
<!-- nd_fs&#45;&gt;vre -->
<g id="edge6" class="edge">
<title>nd_fs&#45;&gt;vre</title>
<path fill="none" stroke="black" d="M233,-307.94C233,-306.67 233,-305.37 233,-304.05"/>
<polygon fill="black" stroke="black" points="233,-294 237.5,-304 233,-299 233,-304 233,-304 233,-304 233,-299 228.5,-304 233,-294 233,-294"/>
</g>
<!-- nei -->
<g id="node8" class="node">
<title>nei</title>
<path fill="lightgrey" stroke="black" d="M252.5,-244C252.5,-244 213.5,-244 213.5,-244 207.5,-244 201.5,-238 201.5,-232 201.5,-232 201.5,-220 201.5,-220 201.5,-214 207.5,-208 213.5,-208 213.5,-208 252.5,-208 252.5,-208 258.5,-208 264.5,-214 264.5,-220 264.5,-220 264.5,-232 264.5,-232 264.5,-238 258.5,-244 252.5,-244"/>
<text text-anchor="middle" x="233" y="-224.1" font-family="Times,serif" font-size="8.00">node_elog_init</text>
</g>
<!-- vre&#45;&gt;nei -->
<g id="edge7" class="edge">
<title>vre&#45;&gt;nei</title>
<path fill="none" stroke="black" d="M233,-257.94C233,-256.67 233,-255.37 233,-254.05"/>
<polygon fill="black" stroke="black" points="233,-244 237.5,-254 233,-249 233,-254 233,-254 233,-254 233,-249 228.5,-254 233,-244 233,-244"/>
</g>
<!-- rd -->
<g id="node9" class="node">
<title>rd</title>
<path fill="lightgrey" stroke="black" d="M308.5,-194C308.5,-194 157.5,-194 157.5,-194 151.5,-194 145.5,-188 145.5,-182 145.5,-182 145.5,-170 145.5,-170 145.5,-164 151.5,-158 157.5,-158 157.5,-158 308.5,-158 308.5,-158 314.5,-158 320.5,-164 320.5,-170 320.5,-170 320.5,-182 320.5,-182 320.5,-188 314.5,-194 308.5,-194"/>
<text text-anchor="middle" x="233" y="-174.1" font-family="Times,serif" font-size="8.00">初始化node的runtime_date(runtime_data_bytes)</text>
</g>
<!-- nei&#45;&gt;rd -->
<g id="edge8" class="edge">
<title>nei&#45;&gt;rd</title>
<path fill="none" stroke="black" d="M233,-207.94C233,-206.67 233,-205.37 233,-204.05"/>
<polygon fill="black" stroke="black" points="233,-194 237.5,-204 233,-199 233,-204 233,-204 233,-204 233,-199 228.5,-204 233,-194 233,-194"/>
</g>
<!-- nd_nna -->
<g id="node10" class="node">
<title>nd_nna</title>
<path fill="lightgrey" stroke="black" d="M319.5,-144C319.5,-144 146.5,-144 146.5,-144 140.5,-144 134.5,-138 134.5,-132 134.5,-132 134.5,-120 134.5,-120 134.5,-114 140.5,-108 146.5,-108 146.5,-108 319.5,-108 319.5,-108 325.5,-108 331.5,-114 331.5,-120 331.5,-120 331.5,-132 331.5,-132 331.5,-138 325.5,-144 319.5,-144"/>
<text text-anchor="middle" x="233" y="-124.1" font-family="Times,serif" font-size="8.00">初始化next_node_names（node定义中的next_nodes）</text>
</g>
<!-- rd&#45;&gt;nd_nna -->
<g id="edge9" class="edge">
<title>rd&#45;&gt;nd_nna</title>
<path fill="none" stroke="black" d="M233,-157.94C233,-156.67 233,-155.37 233,-154.05"/>
<polygon fill="black" stroke="black" points="233,-144 237.5,-154 233,-149 233,-154 233,-154 233,-154 233,-149 228.5,-154 233,-144 233,-144"/>
</g>
<!-- nd_proc -->
<g id="node11" class="node">
<title>nd_proc</title>
<path fill="lightgrey" stroke="black" d="M182,-90C182,-90 12,-90 12,-90 6,-90 0,-84 0,-78 0,-78 0,-66 0,-66 0,-60 6,-54 12,-54 12,-54 182,-54 182,-54 188,-54 194,-60 194,-66 194,-66 194,-78 194,-78 194,-84 188,-90 182,-90"/>
<text text-anchor="middle" x="97" y="-79.1" font-family="Times,serif" font-size="8.00">VLIB_NODE_TYPE_PROCESS类型： &#160;&#160;&#160;&#160;&#160;&#160;&#160;&#160;&#160;&#160;&#160;&#160;&#160;&#160;&#160;&#160;</text>
<text text-anchor="start" x="8" y="-70.1" font-family="Times,serif" font-size="8.00"> &#160;&#160;&#160;1. 初始化Stack空间 &#160;&#160;&#160;&#160;&#160;&#160;&#160;&#160;&#160;&#160;&#160;&#160;&#160;&#160;&#160;&#160;&#160;</text>
<text text-anchor="middle" x="97" y="-61.1" font-family="Times,serif" font-size="8.00"> &#160;&#160;&#160;2. runtime_index 指向vlib_node_main_t的processes</text>
</g>
<!-- nd_nna&#45;&gt;nd_proc -->
<g id="edge10" class="edge">
<title>nd_nna&#45;&gt;nd_proc</title>
<path fill="none" stroke="black" d="M188.47,-107.97C176.49,-103.39 163.41,-98.39 150.98,-93.64"/>
<polygon fill="black" stroke="black" points="141.63,-90.06 152.58,-89.43 146.3,-91.85 150.97,-93.64 150.97,-93.64 150.97,-93.64 146.3,-91.85 149.36,-97.84 141.63,-90.06 141.63,-90.06"/>
</g>
<!-- nd_oth -->
<g id="node12" class="node">
<title>nd_oth</title>
<path fill="lightgrey" stroke="black" d="M488.5,-94C488.5,-94 249.5,-94 249.5,-94 243.5,-94 237.5,-88 237.5,-82 237.5,-82 237.5,-62 237.5,-62 237.5,-56 243.5,-50 249.5,-50 249.5,-50 488.5,-50 488.5,-50 494.5,-50 500.5,-56 500.5,-62 500.5,-62 500.5,-82 500.5,-82 500.5,-88 494.5,-94 488.5,-94"/>
<text text-anchor="middle" x="369" y="-83.6" font-family="Times,serif" font-size="8.00">其他类型： &#160;&#160;&#160;&#160;&#160;&#160;&#160;&#160;&#160;&#160;&#160;&#160;&#160;&#160;&#160;</text>
<text text-anchor="start" x="245.5" y="-74.6" font-family="Times,serif" font-size="8.00"> &#160;&#160;&#160;1. 初始化runtime_index(nodes_by_type) &#160;&#160;&#160;&#160;&#160;&#160;&#160;&#160;&#160;&#160;&#160;&#160;&#160;&#160;&#160;</text>
<text text-anchor="start" x="245.5" y="-65.6" font-family="Times,serif" font-size="8.00"> &#160;&#160;&#160;2. INPUT类型node，初始化vlib_node_main_t的interrupts、 &#160;&#160;&#160;&#160;&#160;&#160;&#160;&#160;&#160;&#160;&#160;&#160;&#160;&#160;&#160;</text>
<text text-anchor="start" x="245.5" y="-56.6" font-family="Times,serif" font-size="8.00"> &#160;&#160;&#160;&#160;&#160;&#160;和状态计数input_node_counts_by_state </text>
</g>
<!-- nd_nna&#45;&gt;nd_oth -->
<g id="edge11" class="edge">
<title>nd_nna&#45;&gt;nd_oth</title>
<path fill="none" stroke="black" d="M277.53,-107.97C286.16,-104.68 295.35,-101.16 304.47,-97.67"/>
<polygon fill="black" stroke="black" points="313.91,-94.06 306.18,-101.84 309.24,-95.85 304.57,-97.64 304.57,-97.64 304.57,-97.64 309.24,-95.85 302.96,-93.43 313.91,-94.06 313.91,-94.06"/>
</g>
<!-- rt_init -->
<g id="node13" class="node">
<title>rt_init</title>
<path fill="lightgrey" stroke="black" d="M282.5,-36C282.5,-36 183.5,-36 183.5,-36 177.5,-36 171.5,-30 171.5,-24 171.5,-24 171.5,-12 171.5,-12 171.5,-6 177.5,0 183.5,0 183.5,0 282.5,0 282.5,0 288.5,0 294.5,-6 294.5,-12 294.5,-12 294.5,-24 294.5,-24 294.5,-30 288.5,-36 282.5,-36"/>
<text text-anchor="middle" x="233" y="-16.1" font-family="Times,serif" font-size="8.00">初始化vlib_node_runtime_t结构</text>
</g>
<!-- nd_proc&#45;&gt;rt_init -->
<g id="edge12" class="edge">
<title>nd_proc&#45;&gt;rt_init</title>
<path fill="none" stroke="black" d="M141.53,-53.97C153.51,-49.39 166.59,-44.39 179.02,-39.64"/>
<polygon fill="black" stroke="black" points="188.37,-36.06 180.64,-43.84 183.7,-37.85 179.03,-39.64 179.03,-39.64 179.03,-39.64 183.7,-37.85 177.42,-35.43 188.37,-36.06 188.37,-36.06"/>
</g>
<!-- nd_oth&#45;&gt;rt_init -->
<g id="edge13" class="edge">
<title>nd_oth&#45;&gt;rt_init</title>
<path fill="none" stroke="black" d="M314.08,-50C305.2,-46.6 296.01,-43.09 287.15,-39.7"/>
<polygon fill="black" stroke="black" points="277.69,-36.09 288.64,-35.46 282.36,-37.87 287.03,-39.66 287.03,-39.66 287.03,-39.66 282.36,-37.87 285.43,-43.86 277.69,-36.09 277.69,-36.09"/>
</g>
</g>
</svg>
