<?xml version="1.0" encoding="UTF-8" standalone="no"?>
<!DOCTYPE svg PUBLIC "-//W3C//DTD SVG 1.1//EN"
 "http://www.w3.org/Graphics/SVG/1.1/DTD/svg11.dtd">
<!-- Generated by graphviz version 2.43.0 (0)
 -->
<!-- Title: G Pages: 1 -->
<svg width="975pt" height="513pt"
 viewBox="180.00 72.00 795.00 441.00" xmlns="http://www.w3.org/2000/svg" xmlns:xlink="http://www.w3.org/1999/xlink">
<g id="graph0" class="graph" transform="scale(1 1) rotate(0) translate(184 437)">
<title>G</title>
<polygon fill="white" stroke="transparent" points="-4,4 -4,-365 611,-365 611,4 -4,4"/>
<!-- nd_pipe -->
<g id="node1" class="node">
<title>nd_pipe</title>
<path fill="none" stroke="black" d="M79,-198C79,-198 12,-198 12,-198 6,-198 0,-192 0,-186 0,-186 0,-174 0,-174 0,-168 6,-162 12,-162 12,-162 79,-162 79,-162 85,-162 91,-168 91,-174 91,-174 91,-186 91,-186 91,-192 85,-198 79,-198"/>
<text text-anchor="middle" x="45.5" y="-176.3" font-family="Times,serif" font-size="14.00">pipe_rx_node</text>
</g>
<!-- nd_eth -->
<g id="node2" class="node">
<title>nd_eth</title>
<path fill="none" stroke="black" d="M306,-198C306,-198 202,-198 202,-198 196,-198 190,-192 190,-186 190,-186 190,-174 190,-174 190,-168 196,-162 202,-162 202,-162 306,-162 306,-162 312,-162 318,-168 318,-174 318,-174 318,-186 318,-186 318,-192 312,-198 306,-198"/>
<text text-anchor="middle" x="254" y="-176.3" font-family="Times,serif" font-size="14.00">ethernet_input_node</text>
</g>
<!-- nd_pipe&#45;&gt;nd_eth -->
<g id="edge1" class="edge">
<title>nd_pipe&#45;&gt;nd_eth</title>
<path fill="none" stroke="black" d="M91.05,-180C116.83,-180 149.9,-180 179.44,-180"/>
<polygon fill="black" stroke="black" points="189.72,-180 179.72,-184.5 184.72,-180 179.72,-180 179.72,-180 179.72,-180 184.72,-180 179.72,-175.5 189.72,-180 189.72,-180"/>
<text text-anchor="middle" x="140.5" y="-183.8" font-family="Times,serif" font-size="14.00">sibling_of</text>
</g>
<!-- nd_ifcd -->
<g id="node3" class="node">
<title>nd_ifcd</title>
<path fill="none" stroke="black" d="M551,-361C551,-361 480,-361 480,-361 474,-361 468,-355 468,-349 468,-349 468,-337 468,-337 468,-331 474,-325 480,-325 480,-325 551,-325 551,-325 557,-325 563,-331 563,-337 563,-337 563,-349 563,-349 563,-355 557,-361 551,-361"/>
<text text-anchor="middle" x="515.5" y="-339.3" font-family="Times,serif" font-size="14.00">interface_drop</text>
</g>
<!-- nd_eth&#45;&gt;nd_ifcd -->
<g id="edge2" class="edge">
<title>nd_eth&#45;&gt;nd_ifcd</title>
<path fill="none" stroke="black" stroke-dasharray="5,2" d="M270.7,-198.16C286.9,-216.22 313.47,-244.05 340,-264 374.19,-289.71 385.03,-293.36 424,-311 434.91,-315.94 446.83,-320.63 458.33,-324.82"/>
<polygon fill="black" stroke="black" points="467.86,-328.21 456.93,-329.09 463.15,-326.53 458.44,-324.85 458.44,-324.85 458.44,-324.85 463.15,-326.53 459.95,-320.62 467.86,-328.21 467.86,-328.21"/>
<text text-anchor="middle" x="371" y="-304.8" font-family="Times,serif" font-size="14.00">next_nodes</text>
</g>
<!-- nd_ifcp -->
<g id="node4" class="node">
<title>nd_ifcp</title>
<path fill="none" stroke="black" d="M551,-296C551,-296 480,-296 480,-296 474,-296 468,-290 468,-284 468,-284 468,-272 468,-272 468,-266 474,-260 480,-260 480,-260 551,-260 551,-260 557,-260 563,-266 563,-272 563,-272 563,-284 563,-284 563,-290 557,-296 551,-296"/>
<text text-anchor="middle" x="515.5" y="-274.3" font-family="Times,serif" font-size="14.00">interface_punt</text>
</g>
<!-- nd_eth&#45;&gt;nd_ifcp -->
<g id="edge3" class="edge">
<title>nd_eth&#45;&gt;nd_ifcp</title>
<path fill="none" stroke="black" stroke-dasharray="5,2" d="M290.98,-198.09C305.96,-205.32 323.64,-213.46 340,-220 378.72,-235.48 423.35,-250.26 457.78,-261.03"/>
<polygon fill="black" stroke="black" points="467.67,-264.1 456.78,-265.43 462.89,-262.61 458.11,-261.13 458.11,-261.13 458.11,-261.13 462.89,-262.61 459.45,-256.83 467.67,-264.1 467.67,-264.1"/>
<text text-anchor="middle" x="371" y="-245.8" font-family="Times,serif" font-size="14.00">next_nodes</text>
</g>
<!-- nd_i4inc -->
<g id="node5" class="node">
<title>nd_i4inc</title>
<path fill="none" stroke="black" d="M595,-231C595,-231 436,-231 436,-231 430,-231 424,-225 424,-219 424,-219 424,-207 424,-207 424,-201 430,-195 436,-195 436,-195 595,-195 595,-195 601,-195 607,-201 607,-207 607,-207 607,-219 607,-219 607,-225 601,-231 595,-231"/>
<text text-anchor="middle" x="515.5" y="-209.3" font-family="Times,serif" font-size="14.00">ip4_input_no_checksum_node</text>
</g>
<!-- nd_eth&#45;&gt;nd_i4inc -->
<g id="edge4" class="edge">
<title>nd_eth&#45;&gt;nd_i4inc</title>
<path fill="none" stroke="black" stroke-dasharray="5,2" d="M318.15,-188.03C346.71,-191.66 381.19,-196.05 413.22,-200.12"/>
<polygon fill="black" stroke="black" points="423.53,-201.43 413.04,-204.63 418.57,-200.8 413.61,-200.17 413.61,-200.17 413.61,-200.17 418.57,-200.8 414.17,-195.71 423.53,-201.43 423.53,-201.43"/>
<text text-anchor="middle" x="371" y="-201.8" font-family="Times,serif" font-size="14.00">next_nodes</text>
</g>
<!-- nd_i4i -->
<g id="node6" class="node">
<title>nd_i4i</title>
<path fill="none" stroke="black" d="M554,-166C554,-166 477,-166 477,-166 471,-166 465,-160 465,-154 465,-154 465,-142 465,-142 465,-136 471,-130 477,-130 477,-130 554,-130 554,-130 560,-130 566,-136 566,-142 566,-142 566,-154 566,-154 566,-160 560,-166 554,-166"/>
<text text-anchor="middle" x="515.5" y="-144.3" font-family="Times,serif" font-size="14.00">ip4_input_node</text>
</g>
<!-- nd_eth&#45;&gt;nd_i4i -->
<g id="edge5" class="edge">
<title>nd_eth&#45;&gt;nd_i4i</title>
<path fill="none" stroke="black" stroke-dasharray="5,2" d="M318.43,-165.64C325.68,-164.27 332.98,-163.02 340,-162 377.89,-156.49 420.74,-153.01 454.5,-150.9"/>
<polygon fill="black" stroke="black" points="464.67,-150.29 454.95,-155.38 459.68,-150.59 454.68,-150.89 454.68,-150.89 454.68,-150.89 459.68,-150.59 454.41,-146.4 464.67,-150.29 464.67,-150.29"/>
<text text-anchor="middle" x="371" y="-165.8" font-family="Times,serif" font-size="14.00">next_nodes</text>
</g>
<!-- nd_i6i -->
<g id="node7" class="node">
<title>nd_i6i</title>
<path fill="none" stroke="black" d="M554,-101C554,-101 477,-101 477,-101 471,-101 465,-95 465,-89 465,-89 465,-77 465,-77 465,-71 471,-65 477,-65 477,-65 554,-65 554,-65 560,-65 566,-71 566,-77 566,-77 566,-89 566,-89 566,-95 560,-101 554,-101"/>
<text text-anchor="middle" x="515.5" y="-79.3" font-family="Times,serif" font-size="14.00">ip6_input_node</text>
</g>
<!-- nd_eth&#45;&gt;nd_i6i -->
<g id="edge6" class="edge">
<title>nd_eth&#45;&gt;nd_i6i</title>
<path fill="none" stroke="black" stroke-dasharray="5,2" d="M284.08,-161.77C300.13,-152.27 320.68,-140.99 340,-133 377.24,-117.6 420.82,-105.11 455.11,-96.46"/>
<polygon fill="black" stroke="black" points="464.98,-94.02 456.35,-100.79 460.12,-95.22 455.27,-96.42 455.27,-96.42 455.27,-96.42 460.12,-95.22 454.19,-92.06 464.98,-94.02 464.98,-94.02"/>
<text text-anchor="middle" x="371" y="-136.8" font-family="Times,serif" font-size="14.00">next_nodes</text>
</g>
<!-- nd_llc -->
<g id="node8" class="node">
<title>nd_llc</title>
<path fill="none" stroke="black" d="M552.5,-36C552.5,-36 478.5,-36 478.5,-36 472.5,-36 466.5,-30 466.5,-24 466.5,-24 466.5,-12 466.5,-12 466.5,-6 472.5,0 478.5,0 478.5,0 552.5,0 552.5,0 558.5,0 564.5,-6 564.5,-12 564.5,-12 564.5,-24 564.5,-24 564.5,-30 558.5,-36 552.5,-36"/>
<text text-anchor="middle" x="515.5" y="-14.3" font-family="Times,serif" font-size="14.00">llc_input_node</text>
</g>
<!-- nd_eth&#45;&gt;nd_llc -->
<g id="edge7" class="edge">
<title>nd_eth&#45;&gt;nd_llc</title>
<path fill="none" stroke="black" stroke-dasharray="5,2" d="M268.32,-161.92C283.76,-141.97 310.84,-109.91 340,-89 375.23,-63.74 420.75,-45.6 456.47,-33.98"/>
<polygon fill="black" stroke="black" points="466.27,-30.88 458.09,-38.19 461.5,-32.39 456.73,-33.9 456.73,-33.9 456.73,-33.9 461.5,-32.39 455.37,-29.61 466.27,-30.88 466.27,-30.88"/>
<text text-anchor="middle" x="371" y="-92.8" font-family="Times,serif" font-size="14.00">next_nodes</text>
</g>
</g>
</svg>
