<?xml version="1.0" encoding="UTF-8" standalone="no"?>
<!DOCTYPE svg PUBLIC "-//W3C//DTD SVG 1.1//EN"
 "http://www.w3.org/Graphics/SVG/1.1/DTD/svg11.dtd">
<!-- Generated by graphviz version 2.43.0 (0)
 -->
<!-- Title: G Pages: 1 -->
<svg width="1047pt" height="438pt"
 viewBox="144.00 72.00 903.00 366.00" xmlns="http://www.w3.org/2000/svg" xmlns:xlink="http://www.w3.org/1999/xlink">
<g id="graph0" class="graph" transform="scale(1 1) rotate(0) translate(148 362)">
<title>G</title>
<polygon fill="white" stroke="transparent" points="-4,4 -4,-290 755,-290 755,4 -4,4"/>
<!-- nd_i4nc -->
<g id="node1" class="node">
<title>nd_i4nc</title>
<path fill="none" stroke="black" d="M205,-211C205,-211 46,-211 46,-211 40,-211 34,-205 34,-199 34,-199 34,-187 34,-187 34,-181 40,-175 46,-175 46,-175 205,-175 205,-175 211,-175 217,-181 217,-187 217,-187 217,-199 217,-199 217,-205 211,-211 205,-211"/>
<text text-anchor="middle" x="125.5" y="-189.3" font-family="Times,serif" font-size="14.00">ip4_input_no_checksum_node</text>
</g>
<!-- nd_i4 -->
<g id="node4" class="node">
<title>nd_i4</title>
<path fill="none" stroke="black" d="M439,-161C439,-161 362,-161 362,-161 356,-161 350,-155 350,-149 350,-149 350,-137 350,-137 350,-131 356,-125 362,-125 362,-125 439,-125 439,-125 445,-125 451,-131 451,-137 451,-137 451,-149 451,-149 451,-155 445,-161 439,-161"/>
<text text-anchor="middle" x="400.5" y="-139.3" font-family="Times,serif" font-size="14.00">ip4_input_node</text>
</g>
<!-- nd_i4nc&#45;&gt;nd_i4 -->
<g id="edge1" class="edge">
<title>nd_i4nc&#45;&gt;nd_i4</title>
<path fill="none" stroke="black" d="M217.09,-180.37C251.89,-175.06 291.91,-168.39 328,-161 331.84,-160.21 335.79,-159.36 339.75,-158.46"/>
<polygon fill="black" stroke="black" points="349.63,-156.16 340.91,-162.81 344.76,-157.29 339.89,-158.43 339.89,-158.43 339.89,-158.43 344.76,-157.29 338.87,-154.05 349.63,-156.16 349.63,-156.16"/>
<text text-anchor="middle" x="300.5" y="-173.8" font-family="Times,serif" font-size="14.00">sibling_of</text>
</g>
<!-- nd_i4mldu -->
<g id="node2" class="node">
<title>nd_i4mldu</title>
<path fill="none" stroke="black" d="M239,-161C239,-161 12,-161 12,-161 6,-161 0,-155 0,-149 0,-149 0,-137 0,-137 0,-131 6,-125 12,-125 12,-125 239,-125 239,-125 245,-125 251,-131 251,-137 251,-137 251,-149 251,-149 251,-155 245,-161 239,-161"/>
<text text-anchor="middle" x="125.5" y="-139.3" font-family="Times,serif" font-size="14.00">ip4_mpls_lable_disposition_uniform_node</text>
</g>
<!-- nd_i4mldu&#45;&gt;nd_i4 -->
<g id="edge2" class="edge">
<title>nd_i4mldu&#45;&gt;nd_i4</title>
<path fill="none" stroke="black" d="M251.02,-143C281.93,-143 313.67,-143 339.83,-143"/>
<polygon fill="black" stroke="black" points="349.93,-143 339.93,-147.5 344.93,-143 339.93,-143 339.93,-143 339.93,-143 344.93,-143 339.93,-138.5 349.93,-143 349.93,-143"/>
<text text-anchor="middle" x="300.5" y="-146.8" font-family="Times,serif" font-size="14.00">sibling_of</text>
</g>
<!-- nd_i4mldp -->
<g id="node3" class="node">
<title>nd_i4mldp</title>
<path fill="none" stroke="black" d="M228.5,-111C228.5,-111 22.5,-111 22.5,-111 16.5,-111 10.5,-105 10.5,-99 10.5,-99 10.5,-87 10.5,-87 10.5,-81 16.5,-75 22.5,-75 22.5,-75 228.5,-75 228.5,-75 234.5,-75 240.5,-81 240.5,-87 240.5,-87 240.5,-99 240.5,-99 240.5,-105 234.5,-111 228.5,-111"/>
<text text-anchor="middle" x="125.5" y="-89.3" font-family="Times,serif" font-size="14.00">ip4_mpls_lable_disposition_pipe_node</text>
</g>
<!-- nd_i4mldp&#45;&gt;nd_i4 -->
<g id="edge3" class="edge">
<title>nd_i4mldp&#45;&gt;nd_i4</title>
<path fill="none" stroke="black" d="M240.58,-109.3C269.21,-113.89 299.81,-119.22 328,-125 331.84,-125.79 335.79,-126.64 339.75,-127.54"/>
<polygon fill="black" stroke="black" points="349.63,-129.84 338.87,-131.95 344.76,-128.71 339.89,-127.57 339.89,-127.57 339.89,-127.57 344.76,-128.71 340.91,-123.19 349.63,-129.84 349.63,-129.84"/>
<text text-anchor="middle" x="300.5" y="-128.8" font-family="Times,serif" font-size="14.00">sibling_of</text>
</g>
<!-- nd_ifcd -->
<g id="node5" class="node">
<title>nd_ifcd</title>
<path fill="none" stroke="black" d="M689.5,-286C689.5,-286 618.5,-286 618.5,-286 612.5,-286 606.5,-280 606.5,-274 606.5,-274 606.5,-262 606.5,-262 606.5,-256 612.5,-250 618.5,-250 618.5,-250 689.5,-250 689.5,-250 695.5,-250 701.5,-256 701.5,-262 701.5,-262 701.5,-274 701.5,-274 701.5,-280 695.5,-286 689.5,-286"/>
<text text-anchor="middle" x="654" y="-264.3" font-family="Times,serif" font-size="14.00">interface_drop</text>
</g>
<!-- nd_i4&#45;&gt;nd_ifcd -->
<g id="edge4" class="edge">
<title>nd_i4&#45;&gt;nd_ifcd</title>
<path fill="none" stroke="black" stroke-dasharray="5,2" d="M417.66,-161.18C431.29,-175.65 451.88,-195.61 473,-209 510.7,-232.9 559.03,-248.04 596.11,-257"/>
<polygon fill="black" stroke="black" points="606.26,-259.36 595.5,-261.47 601.39,-258.22 596.52,-257.09 596.52,-257.09 596.52,-257.09 601.39,-258.22 597.54,-252.71 606.26,-259.36 606.26,-259.36"/>
<text text-anchor="middle" x="504" y="-241.8" font-family="Times,serif" font-size="14.00">next_nodes</text>
</g>
<!-- nd_ifcp -->
<g id="node6" class="node">
<title>nd_ifcp</title>
<path fill="none" stroke="black" d="M689.5,-236C689.5,-236 618.5,-236 618.5,-236 612.5,-236 606.5,-230 606.5,-224 606.5,-224 606.5,-212 606.5,-212 606.5,-206 612.5,-200 618.5,-200 618.5,-200 689.5,-200 689.5,-200 695.5,-200 701.5,-206 701.5,-212 701.5,-212 701.5,-224 701.5,-224 701.5,-230 695.5,-236 689.5,-236"/>
<text text-anchor="middle" x="654" y="-214.3" font-family="Times,serif" font-size="14.00">interface_punt</text>
</g>
<!-- nd_i4&#45;&gt;nd_ifcp -->
<g id="edge5" class="edge">
<title>nd_i4&#45;&gt;nd_ifcp</title>
<path fill="none" stroke="black" stroke-dasharray="5,2" d="M440,-161.11C450.56,-165.69 462.1,-170.33 473,-174 513.55,-187.64 560.55,-198.98 596.35,-206.73"/>
<polygon fill="black" stroke="black" points="606.14,-208.82 595.42,-211.14 601.25,-207.78 596.36,-206.73 596.36,-206.73 596.36,-206.73 601.25,-207.78 597.3,-202.33 606.14,-208.82 606.14,-208.82"/>
<text text-anchor="middle" x="504" y="-194.8" font-family="Times,serif" font-size="14.00">next_nodes</text>
</g>
<!-- nd_i4opt -->
<g id="node7" class="node">
<title>nd_i4opt</title>
<path fill="none" stroke="black" d="M698.5,-186C698.5,-186 609.5,-186 609.5,-186 603.5,-186 597.5,-180 597.5,-174 597.5,-174 597.5,-162 597.5,-162 597.5,-156 603.5,-150 609.5,-150 609.5,-150 698.5,-150 698.5,-150 704.5,-150 710.5,-156 710.5,-162 710.5,-162 710.5,-174 710.5,-174 710.5,-180 704.5,-186 698.5,-186"/>
<text text-anchor="middle" x="654" y="-164.3" font-family="Times,serif" font-size="14.00">ip4_options_node</text>
</g>
<!-- nd_i4&#45;&gt;nd_i4opt -->
<g id="edge6" class="edge">
<title>nd_i4&#45;&gt;nd_i4opt</title>
<path fill="none" stroke="black" stroke-dasharray="5,2" d="M451.19,-147.94C490.15,-151.81 544.72,-157.24 587.29,-161.47"/>
<polygon fill="black" stroke="black" points="597.29,-162.46 586.89,-165.95 592.31,-161.97 587.34,-161.47 587.34,-161.47 587.34,-161.47 592.31,-161.97 587.78,-156.99 597.29,-162.46 597.29,-162.46"/>
<text text-anchor="middle" x="504" y="-159.8" font-family="Times,serif" font-size="14.00">next_nodes</text>
</g>
<!-- nd_i4lkp -->
<g id="node8" class="node">
<title>nd_i4lkp</title>
<path fill="none" stroke="black" d="M697.5,-136C697.5,-136 610.5,-136 610.5,-136 604.5,-136 598.5,-130 598.5,-124 598.5,-124 598.5,-112 598.5,-112 598.5,-106 604.5,-100 610.5,-100 610.5,-100 697.5,-100 697.5,-100 703.5,-100 709.5,-106 709.5,-112 709.5,-112 709.5,-124 709.5,-124 709.5,-130 703.5,-136 697.5,-136"/>
<text text-anchor="middle" x="654" y="-114.3" font-family="Times,serif" font-size="14.00">ip4_lookup_node</text>
</g>
<!-- nd_i4&#45;&gt;nd_i4lkp -->
<g id="edge7" class="edge">
<title>nd_i4&#45;&gt;nd_i4lkp</title>
<path fill="none" stroke="black" stroke-dasharray="5,2" d="M451.05,-134.88C458.4,-133.82 465.89,-132.82 473,-132 510.95,-127.61 553.57,-124.23 587.81,-121.89"/>
<polygon fill="black" stroke="black" points="598.15,-121.19 588.47,-126.35 593.16,-121.53 588.17,-121.86 588.17,-121.86 588.17,-121.86 593.16,-121.53 587.87,-117.37 598.15,-121.19 598.15,-121.19"/>
<text text-anchor="middle" x="504" y="-135.8" font-family="Times,serif" font-size="14.00">next_nodes</text>
</g>
<!-- nd_i4mfl -->
<g id="node9" class="node">
<title>nd_i4mfl</title>
<path fill="none" stroke="black" d="M739,-86C739,-86 569,-86 569,-86 563,-86 557,-80 557,-74 557,-74 557,-62 557,-62 557,-56 563,-50 569,-50 569,-50 739,-50 739,-50 745,-50 751,-56 751,-62 751,-62 751,-74 751,-74 751,-80 745,-86 739,-86"/>
<text text-anchor="middle" x="654" y="-64.3" font-family="Times,serif" font-size="14.00">ip4_mfib_forward_lookup_node</text>
</g>
<!-- nd_i4&#45;&gt;nd_i4mfl -->
<g id="edge8" class="edge">
<title>nd_i4&#45;&gt;nd_i4mfl</title>
<path fill="none" stroke="black" stroke-dasharray="5,2" d="M434.26,-124.94C446.19,-118.91 459.96,-112.57 473,-108 496.37,-99.81 522.05,-92.92 546.5,-87.29"/>
<polygon fill="black" stroke="black" points="556.54,-85.04 547.77,-91.62 551.66,-86.13 546.78,-87.23 546.78,-87.23 546.78,-87.23 551.66,-86.13 545.79,-82.84 556.54,-85.04 556.54,-85.04"/>
<text text-anchor="middle" x="504" y="-111.8" font-family="Times,serif" font-size="14.00">next_nodes</text>
</g>
<!-- nd_i4ie -->
<g id="node10" class="node">
<title>nd_i4ie</title>
<path fill="none" stroke="black" d="M692.5,-36C692.5,-36 615.5,-36 615.5,-36 609.5,-36 603.5,-30 603.5,-24 603.5,-24 603.5,-12 603.5,-12 603.5,-6 609.5,0 615.5,0 615.5,0 692.5,0 692.5,0 698.5,0 704.5,-6 704.5,-12 704.5,-12 704.5,-24 704.5,-24 704.5,-30 698.5,-36 692.5,-36"/>
<text text-anchor="middle" x="654" y="-14.3" font-family="Times,serif" font-size="14.00">ip4_icmp_node</text>
</g>
<!-- nd_i4&#45;&gt;nd_i4ie -->
<g id="edge9" class="edge">
<title>nd_i4&#45;&gt;nd_i4ie</title>
<path fill="none" stroke="black" stroke-dasharray="5,2" d="M415.97,-124.97C429.33,-109.34 450.47,-87.09 473,-73 509.72,-50.03 556.66,-36.11 593.41,-28.01"/>
<polygon fill="black" stroke="black" points="603.48,-25.88 594.63,-32.35 598.59,-26.92 593.7,-27.95 593.7,-27.95 593.7,-27.95 598.59,-26.92 592.77,-23.55 603.48,-25.88 603.48,-25.88"/>
<text text-anchor="middle" x="504" y="-76.8" font-family="Times,serif" font-size="14.00">next_nodes</text>
</g>
</g>
</svg>
