<?xml version="1.0" encoding="UTF-8" standalone="no"?>
<!DOCTYPE svg PUBLIC "-//W3C//DTD SVG 1.1//EN"
 "http://www.w3.org/Graphics/SVG/1.1/DTD/svg11.dtd">
<!-- Generated by graphviz version 2.43.0 (0)
 -->
<!-- Title: G Pages: 1 -->
<svg width="802pt" height="932pt"
 viewBox="72.00 144.00 730.00 788.00" xmlns="http://www.w3.org/2000/svg" xmlns:xlink="http://www.w3.org/1999/xlink">
<g id="graph0" class="graph" transform="scale(1 1) rotate(0) translate(76 784)">
<title>G</title>
<polygon fill="white" stroke="transparent" points="-4,4 -4,-640 654,-640 654,4 -4,4"/>
<!-- in_dv -->
<g id="node1" class="node">
<title>in_dv</title>
<path fill="none" stroke="black" d="M349,-336C349,-336 254,-336 254,-336 248,-336 242,-330 242,-324 242,-324 242,-312 242,-312 242,-306 248,-300 254,-300 254,-300 349,-300 349,-300 355,-300 361,-306 361,-312 361,-312 361,-324 361,-324 361,-330 355,-336 349,-336"/>
<text text-anchor="middle" x="301.5" y="-314.3" font-family="Times,serif" font-size="14.00">device_input_node</text>
</g>
<!-- nd_ifcd -->
<g id="node15" class="node">
<title>nd_ifcd</title>
<path fill="none" stroke="black" d="M594,-536C594,-536 523,-536 523,-536 517,-536 511,-530 511,-524 511,-524 511,-512 511,-512 511,-506 517,-500 523,-500 523,-500 594,-500 594,-500 600,-500 606,-506 606,-512 606,-512 606,-524 606,-524 606,-530 600,-536 594,-536"/>
<text text-anchor="middle" x="558.5" y="-514.3" font-family="Times,serif" font-size="14.00">interface_drop</text>
</g>
<!-- in_dv&#45;&gt;nd_ifcd -->
<g id="edge14" class="edge">
<title>in_dv&#45;&gt;nd_ifcd</title>
<path fill="none" stroke="black" stroke-dasharray="5,2" d="M309.14,-336.18C320.36,-364.69 345.57,-420.13 383,-454 415.81,-483.69 463.53,-499.93 500.78,-508.62"/>
<polygon fill="black" stroke="black" points="510.98,-510.87 500.25,-513.11 506.1,-509.79 501.22,-508.72 501.22,-508.72 501.22,-508.72 506.1,-509.79 502.19,-504.32 510.98,-510.87 510.98,-510.87"/>
<text text-anchor="middle" x="414" y="-493.8" font-family="Times,serif" font-size="14.00">next_nodes</text>
</g>
<!-- nd_eth -->
<g id="node16" class="node">
<title>nd_eth</title>
<path fill="none" stroke="black" d="M610.5,-486C610.5,-486 506.5,-486 506.5,-486 500.5,-486 494.5,-480 494.5,-474 494.5,-474 494.5,-462 494.5,-462 494.5,-456 500.5,-450 506.5,-450 506.5,-450 610.5,-450 610.5,-450 616.5,-450 622.5,-456 622.5,-462 622.5,-462 622.5,-474 622.5,-474 622.5,-480 616.5,-486 610.5,-486"/>
<text text-anchor="middle" x="558.5" y="-464.3" font-family="Times,serif" font-size="14.00">ethernet_input_node</text>
</g>
<!-- in_dv&#45;&gt;nd_eth -->
<g id="edge15" class="edge">
<title>in_dv&#45;&gt;nd_eth</title>
<path fill="none" stroke="black" stroke-dasharray="5,2" d="M315.53,-336.26C330.13,-355.66 355.41,-386.2 383,-406 413.19,-427.67 451.7,-442.41 484.85,-452.06"/>
<polygon fill="black" stroke="black" points="494.5,-454.77 483.65,-456.4 489.69,-453.42 484.87,-452.06 484.87,-452.06 484.87,-452.06 489.69,-453.42 486.09,-447.73 494.5,-454.77 494.5,-454.77"/>
<text text-anchor="middle" x="414" y="-439.8" font-family="Times,serif" font-size="14.00">next_nodes</text>
</g>
<!-- nd_i4inc -->
<g id="node17" class="node">
<title>nd_i4inc</title>
<path fill="none" stroke="black" d="M638,-436C638,-436 479,-436 479,-436 473,-436 467,-430 467,-424 467,-424 467,-412 467,-412 467,-406 473,-400 479,-400 479,-400 638,-400 638,-400 644,-400 650,-406 650,-412 650,-412 650,-424 650,-424 650,-430 644,-436 638,-436"/>
<text text-anchor="middle" x="558.5" y="-414.3" font-family="Times,serif" font-size="14.00">ip4_input_no_checksum_node</text>
</g>
<!-- in_dv&#45;&gt;nd_i4inc -->
<g id="edge16" class="edge">
<title>in_dv&#45;&gt;nd_i4inc</title>
<path fill="none" stroke="black" stroke-dasharray="5,2" d="M330.05,-336C345.26,-345.44 364.72,-356.72 383,-365 411.51,-377.9 444.01,-388.74 473.17,-397.19"/>
<polygon fill="black" stroke="black" points="482.93,-399.96 472.08,-401.56 478.12,-398.6 473.31,-397.23 473.31,-397.23 473.31,-397.23 478.12,-398.6 474.54,-392.9 482.93,-399.96 482.93,-399.96"/>
<text text-anchor="middle" x="414" y="-391.8" font-family="Times,serif" font-size="14.00">next_nodes</text>
</g>
<!-- nd_i4i -->
<g id="node18" class="node">
<title>nd_i4i</title>
<path fill="none" stroke="black" d="M597,-386C597,-386 520,-386 520,-386 514,-386 508,-380 508,-374 508,-374 508,-362 508,-362 508,-356 514,-350 520,-350 520,-350 597,-350 597,-350 603,-350 609,-356 609,-362 609,-362 609,-374 609,-374 609,-380 603,-386 597,-386"/>
<text text-anchor="middle" x="558.5" y="-364.3" font-family="Times,serif" font-size="14.00">ip4_input_node</text>
</g>
<!-- in_dv&#45;&gt;nd_i4i -->
<g id="edge17" class="edge">
<title>in_dv&#45;&gt;nd_i4i</title>
<path fill="none" stroke="black" stroke-dasharray="5,2" d="M361.36,-331.44C368.64,-333.02 375.98,-334.57 383,-336 421.02,-343.73 463.87,-351.6 497.6,-357.61"/>
<polygon fill="black" stroke="black" points="507.76,-359.41 497.13,-362.09 502.84,-358.53 497.91,-357.66 497.91,-357.66 497.91,-357.66 502.84,-358.53 498.7,-353.23 507.76,-359.41 507.76,-359.41"/>
<text text-anchor="middle" x="414" y="-350.8" font-family="Times,serif" font-size="14.00">next_nodes</text>
</g>
<!-- nd_i6i -->
<g id="node19" class="node">
<title>nd_i6i</title>
<path fill="none" stroke="black" d="M597,-336C597,-336 520,-336 520,-336 514,-336 508,-330 508,-324 508,-324 508,-312 508,-312 508,-306 514,-300 520,-300 520,-300 597,-300 597,-300 603,-300 609,-306 609,-312 609,-312 609,-324 609,-324 609,-330 603,-336 597,-336"/>
<text text-anchor="middle" x="558.5" y="-314.3" font-family="Times,serif" font-size="14.00">ip6_input_node</text>
</g>
<!-- in_dv&#45;&gt;nd_i6i -->
<g id="edge18" class="edge">
<title>in_dv&#45;&gt;nd_i6i</title>
<path fill="none" stroke="black" stroke-dasharray="5,2" d="M361,-318C401.94,-318 456.46,-318 497.68,-318"/>
<polygon fill="black" stroke="black" points="507.86,-318 497.86,-322.5 502.86,-318 497.86,-318 497.86,-318 497.86,-318 502.86,-318 497.86,-313.5 507.86,-318 507.86,-318"/>
<text text-anchor="middle" x="414" y="-321.8" font-family="Times,serif" font-size="14.00">next_nodes</text>
</g>
<!-- nd_mpls -->
<g id="node20" class="node">
<title>nd_mpls</title>
<path fill="none" stroke="black" d="M602,-286C602,-286 515,-286 515,-286 509,-286 503,-280 503,-274 503,-274 503,-262 503,-262 503,-256 509,-250 515,-250 515,-250 602,-250 602,-250 608,-250 614,-256 614,-262 614,-262 614,-274 614,-274 614,-280 608,-286 602,-286"/>
<text text-anchor="middle" x="558.5" y="-264.3" font-family="Times,serif" font-size="14.00">mpls_input_node</text>
</g>
<!-- in_dv&#45;&gt;nd_mpls -->
<g id="edge19" class="edge">
<title>in_dv&#45;&gt;nd_mpls</title>
<path fill="none" stroke="black" stroke-dasharray="5,2" d="M361.36,-304.56C368.64,-302.98 375.98,-301.43 383,-300 419.24,-292.63 459.88,-285.13 492.81,-279.25"/>
<polygon fill="black" stroke="black" points="502.77,-277.48 493.71,-283.66 497.85,-278.35 492.93,-279.23 492.93,-279.23 492.93,-279.23 497.85,-278.35 492.14,-274.8 502.77,-277.48 502.77,-277.48"/>
<text text-anchor="middle" x="414" y="-303.8" font-family="Times,serif" font-size="14.00">next_nodes</text>
</g>
<!-- nd_i4d -->
<g id="node21" class="node">
<title>nd_i4d</title>
<path fill="none" stroke="black" d="M595.5,-236C595.5,-236 521.5,-236 521.5,-236 515.5,-236 509.5,-230 509.5,-224 509.5,-224 509.5,-212 509.5,-212 509.5,-206 515.5,-200 521.5,-200 521.5,-200 595.5,-200 595.5,-200 601.5,-200 607.5,-206 607.5,-212 607.5,-212 607.5,-224 607.5,-224 607.5,-230 601.5,-236 595.5,-236"/>
<text text-anchor="middle" x="558.5" y="-214.3" font-family="Times,serif" font-size="14.00">ip4_drop_node</text>
</g>
<!-- in_dv&#45;&gt;nd_i4d -->
<g id="edge20" class="edge">
<title>in_dv&#45;&gt;nd_i4d</title>
<path fill="none" stroke="black" stroke-dasharray="5,2" d="M329.24,-299.97C344.52,-290.2 364.32,-278.44 383,-270 420.36,-253.12 464.66,-240 499.27,-231.16"/>
<polygon fill="black" stroke="black" points="509.22,-228.66 500.61,-235.46 504.37,-229.88 499.52,-231.09 499.52,-231.09 499.52,-231.09 504.37,-229.88 498.43,-226.73 509.22,-228.66 509.22,-228.66"/>
<text text-anchor="middle" x="414" y="-273.8" font-family="Times,serif" font-size="14.00">next_nodes</text>
</g>
<!-- nd_i6d -->
<g id="node22" class="node">
<title>nd_i6d</title>
<path fill="none" stroke="black" d="M595.5,-186C595.5,-186 521.5,-186 521.5,-186 515.5,-186 509.5,-180 509.5,-174 509.5,-174 509.5,-162 509.5,-162 509.5,-156 515.5,-150 521.5,-150 521.5,-150 595.5,-150 595.5,-150 601.5,-150 607.5,-156 607.5,-162 607.5,-162 607.5,-174 607.5,-174 607.5,-180 601.5,-186 595.5,-186"/>
<text text-anchor="middle" x="558.5" y="-164.3" font-family="Times,serif" font-size="14.00">ip6_drop_node</text>
</g>
<!-- in_dv&#45;&gt;nd_i6d -->
<g id="edge21" class="edge">
<title>in_dv&#45;&gt;nd_i6d</title>
<path fill="none" stroke="black" stroke-dasharray="5,2" d="M315.18,-299.83C329.67,-280.18 355.03,-248.98 383,-229 417.73,-204.19 463.47,-188.7 499.41,-179.53"/>
<polygon fill="black" stroke="black" points="509.27,-177.12 500.63,-183.87 504.41,-178.31 499.56,-179.5 499.56,-179.5 499.56,-179.5 504.41,-178.31 498.49,-175.13 509.27,-177.12 509.27,-177.12"/>
<text text-anchor="middle" x="414" y="-232.8" font-family="Times,serif" font-size="14.00">next_nodes</text>
</g>
<!-- nd_pd -->
<g id="node23" class="node">
<title>nd_pd</title>
<path fill="none" stroke="black" d="M609,-136C609,-136 508,-136 508,-136 502,-136 496,-130 496,-124 496,-124 496,-112 496,-112 496,-106 502,-100 508,-100 508,-100 609,-100 609,-100 615,-100 621,-106 621,-112 621,-112 621,-124 621,-124 621,-130 615,-136 609,-136"/>
<text text-anchor="middle" x="558.5" y="-114.3" font-family="Times,serif" font-size="14.00">punt_dispatch_node</text>
</g>
<!-- in_dv&#45;&gt;nd_pd -->
<g id="edge22" class="edge">
<title>in_dv&#45;&gt;nd_pd</title>
<path fill="none" stroke="black" stroke-dasharray="5,2" d="M308.81,-299.93C319.73,-271.02 344.72,-214.17 383,-180 411.6,-154.47 451.41,-139.27 485.78,-130.32"/>
<polygon fill="black" stroke="black" points="495.79,-127.85 487.16,-134.62 490.93,-129.05 486.08,-130.25 486.08,-130.25 486.08,-130.25 490.93,-129.05 485,-125.88 495.79,-127.85 495.79,-127.85"/>
<text text-anchor="middle" x="414" y="-183.8" font-family="Times,serif" font-size="14.00">next_nodes</text>
</g>
<!-- in_dd -->
<g id="node2" class="node">
<title>in_dd</title>
<path fill="none" stroke="black" d="M115,-636C115,-636 28,-636 28,-636 22,-636 16,-630 16,-624 16,-624 16,-612 16,-612 16,-606 22,-600 28,-600 28,-600 115,-600 115,-600 121,-600 127,-606 127,-612 127,-612 127,-624 127,-624 127,-630 121,-636 115,-636"/>
<text text-anchor="middle" x="71.5" y="-614.3" font-family="Times,serif" font-size="14.00">dpdk_input_node</text>
</g>
<!-- in_dd&#45;&gt;in_dv -->
<g id="edge1" class="edge">
<title>in_dd&#45;&gt;in_dv</title>
<path fill="none" stroke="black" d="M127.34,-608.36C158.49,-600.2 195.95,-585.41 220,-559 276.05,-497.45 293.21,-395.67 298.36,-346.43"/>
<polygon fill="black" stroke="black" points="299.33,-336.2 302.86,-346.58 298.86,-341.18 298.38,-346.15 298.38,-346.15 298.38,-346.15 298.86,-341.18 293.9,-345.73 299.33,-336.2 299.33,-336.2"/>
<text text-anchor="middle" x="192.5" y="-597.8" font-family="Times,serif" font-size="14.00">sibling_of</text>
</g>
<!-- in_af -->
<g id="node3" class="node">
<title>in_af</title>
<path fill="none" stroke="black" d="M128,-586C128,-586 15,-586 15,-586 9,-586 3,-580 3,-574 3,-574 3,-562 3,-562 3,-556 9,-550 15,-550 15,-550 128,-550 128,-550 134,-550 140,-556 140,-562 140,-562 140,-574 140,-574 140,-580 134,-586 128,-586"/>
<text text-anchor="middle" x="71.5" y="-564.3" font-family="Times,serif" font-size="14.00">af_packet_input_node</text>
</g>
<!-- in_af&#45;&gt;in_dv -->
<g id="edge2" class="edge">
<title>in_af&#45;&gt;in_dv</title>
<path fill="none" stroke="black" d="M140.37,-551.84C168.16,-542.24 198.72,-527.42 220,-505 263.56,-459.11 285.56,-385.97 294.86,-346.12"/>
<polygon fill="black" stroke="black" points="297.05,-336.28 299.27,-347.02 295.96,-341.16 294.87,-346.04 294.87,-346.04 294.87,-346.04 295.96,-341.16 290.48,-345.06 297.05,-336.28 297.05,-336.28"/>
<text text-anchor="middle" x="192.5" y="-544.8" font-family="Times,serif" font-size="14.00">sibling_of</text>
</g>
<!-- in_mn -->
<g id="node4" class="node">
<title>in_mn</title>
<path fill="none" stroke="black" d="M122,-536C122,-536 21,-536 21,-536 15,-536 9,-530 9,-524 9,-524 9,-512 9,-512 9,-506 15,-500 21,-500 21,-500 122,-500 122,-500 128,-500 134,-506 134,-512 134,-512 134,-524 134,-524 134,-530 128,-536 122,-536"/>
<text text-anchor="middle" x="71.5" y="-514.3" font-family="Times,serif" font-size="14.00">netmap_input_node</text>
</g>
<!-- in_mn&#45;&gt;in_dv -->
<g id="edge3" class="edge">
<title>in_mn&#45;&gt;in_dv</title>
<path fill="none" stroke="black" d="M134.33,-500.44C163.08,-489.83 196.11,-473.84 220,-451 251.9,-420.5 275.89,-374.7 289.06,-345.59"/>
<polygon fill="black" stroke="black" points="293.11,-336.41 293.2,-347.37 291.09,-340.98 289.08,-345.56 289.08,-345.56 289.08,-345.56 291.09,-340.98 284.96,-343.74 293.11,-336.41 293.11,-336.41"/>
<text text-anchor="middle" x="192.5" y="-490.8" font-family="Times,serif" font-size="14.00">sibling_of</text>
</g>
<!-- in_afx -->
<g id="node5" class="node">
<title>in_afx</title>
<path fill="none" stroke="black" d="M120.5,-486C120.5,-486 22.5,-486 22.5,-486 16.5,-486 10.5,-480 10.5,-474 10.5,-474 10.5,-462 10.5,-462 10.5,-456 16.5,-450 22.5,-450 22.5,-450 120.5,-450 120.5,-450 126.5,-450 132.5,-456 132.5,-462 132.5,-462 132.5,-474 132.5,-474 132.5,-480 126.5,-486 120.5,-486"/>
<text text-anchor="middle" x="71.5" y="-464.3" font-family="Times,serif" font-size="14.00">af_xdp_input_node</text>
</g>
<!-- in_afx&#45;&gt;in_dv -->
<g id="edge4" class="edge">
<title>in_afx&#45;&gt;in_dv</title>
<path fill="none" stroke="black" d="M125.93,-449.94C131.74,-447.71 137.52,-445.38 143,-443 178.37,-427.63 189.2,-426.21 220,-403 242.66,-385.92 264.55,-362.19 279.77,-344.14"/>
<polygon fill="black" stroke="black" points="286.27,-336.29 283.35,-346.86 283.08,-340.14 279.89,-343.99 279.89,-343.99 279.89,-343.99 283.08,-340.14 276.42,-341.12 286.27,-336.29 286.27,-336.29"/>
<text text-anchor="middle" x="192.5" y="-436.8" font-family="Times,serif" font-size="14.00">sibling_of</text>
</g>
<!-- in_avf -->
<g id="node6" class="node">
<title>in_avf</title>
<path fill="none" stroke="black" d="M110,-436C110,-436 33,-436 33,-436 27,-436 21,-430 21,-424 21,-424 21,-412 21,-412 21,-406 27,-400 33,-400 33,-400 110,-400 110,-400 116,-400 122,-406 122,-412 122,-412 122,-424 122,-424 122,-430 116,-436 110,-436"/>
<text text-anchor="middle" x="71.5" y="-414.3" font-family="Times,serif" font-size="14.00">avf_input_node</text>
</g>
<!-- in_avf&#45;&gt;in_dv -->
<g id="edge5" class="edge">
<title>in_avf&#45;&gt;in_dv</title>
<path fill="none" stroke="black" d="M122.2,-400.43C129.19,-397.94 136.28,-395.41 143,-393 177.27,-380.69 187.03,-380.46 220,-365 234.64,-358.13 250.12,-349.46 263.55,-341.45"/>
<polygon fill="black" stroke="black" points="272.49,-336.03 266.27,-345.06 268.21,-338.62 263.93,-341.21 263.93,-341.21 263.93,-341.21 268.21,-338.62 261.6,-337.37 272.49,-336.03 272.49,-336.03"/>
<text text-anchor="middle" x="192.5" y="-388.8" font-family="Times,serif" font-size="14.00">sibling_of</text>
</g>
<!-- in_mi -->
<g id="node7" class="node">
<title>in_mi</title>
<path fill="none" stroke="black" d="M120,-386C120,-386 23,-386 23,-386 17,-386 11,-380 11,-374 11,-374 11,-362 11,-362 11,-356 17,-350 23,-350 23,-350 120,-350 120,-350 126,-350 132,-356 132,-362 132,-362 132,-374 132,-374 132,-380 126,-386 120,-386"/>
<text text-anchor="middle" x="71.5" y="-364.3" font-family="Times,serif" font-size="14.00">memif_input_node</text>
</g>
<!-- in_mi&#45;&gt;in_dv -->
<g id="edge6" class="edge">
<title>in_mi&#45;&gt;in_dv</title>
<path fill="none" stroke="black" d="M132.09,-355.16C158.96,-349.35 191.08,-342.37 220,-336 223.82,-335.16 227.75,-334.29 231.71,-333.41"/>
<polygon fill="black" stroke="black" points="241.6,-331.22 232.81,-337.78 236.72,-332.3 231.83,-333.38 231.83,-333.38 231.83,-333.38 236.72,-332.3 230.86,-328.99 241.6,-331.22 241.6,-331.22"/>
<text text-anchor="middle" x="192.5" y="-350.8" font-family="Times,serif" font-size="14.00">sibling_of</text>
</g>
<!-- in_rdma -->
<g id="node8" class="node">
<title>in_rdma</title>
<path fill="none" stroke="black" d="M116,-336C116,-336 27,-336 27,-336 21,-336 15,-330 15,-324 15,-324 15,-312 15,-312 15,-306 21,-300 27,-300 27,-300 116,-300 116,-300 122,-300 128,-306 128,-312 128,-312 128,-324 128,-324 128,-330 122,-336 116,-336"/>
<text text-anchor="middle" x="71.5" y="-314.3" font-family="Times,serif" font-size="14.00">rdma_input_node</text>
</g>
<!-- in_rdma&#45;&gt;in_dv -->
<g id="edge7" class="edge">
<title>in_rdma&#45;&gt;in_dv</title>
<path fill="none" stroke="black" d="M128.28,-318C159.46,-318 198.59,-318 231.66,-318"/>
<polygon fill="black" stroke="black" points="241.72,-318 231.72,-322.5 236.72,-318 231.72,-318 231.72,-318 231.72,-318 236.72,-318 231.72,-313.5 241.72,-318 241.72,-318"/>
<text text-anchor="middle" x="192.5" y="-321.8" font-family="Times,serif" font-size="14.00">sibling_of</text>
</g>
<!-- in_vh -->
<g id="node9" class="node">
<title>in_vh</title>
<path fill="none" stroke="black" d="M131,-286C131,-286 12,-286 12,-286 6,-286 0,-280 0,-274 0,-274 0,-262 0,-262 0,-256 6,-250 12,-250 12,-250 131,-250 131,-250 137,-250 143,-256 143,-262 143,-262 143,-274 143,-274 143,-280 137,-286 131,-286"/>
<text text-anchor="middle" x="71.5" y="-264.3" font-family="Times,serif" font-size="14.00">vhost_user_input_node</text>
</g>
<!-- in_vh&#45;&gt;in_dv -->
<g id="edge8" class="edge">
<title>in_vh&#45;&gt;in_dv</title>
<path fill="none" stroke="black" d="M143.04,-283.21C167.43,-288.49 194.92,-294.48 220,-300 223.82,-300.84 227.75,-301.71 231.71,-302.59"/>
<polygon fill="black" stroke="black" points="241.6,-304.78 230.86,-307.01 236.72,-303.7 231.83,-302.62 231.83,-302.62 231.83,-302.62 236.72,-303.7 232.81,-298.22 241.6,-304.78 241.6,-304.78"/>
<text text-anchor="middle" x="192.5" y="-303.8" font-family="Times,serif" font-size="14.00">sibling_of</text>
</g>
<!-- in_vn3 -->
<g id="node10" class="node">
<title>in_vn3</title>
<path fill="none" stroke="black" d="M125.5,-236C125.5,-236 17.5,-236 17.5,-236 11.5,-236 5.5,-230 5.5,-224 5.5,-224 5.5,-212 5.5,-212 5.5,-206 11.5,-200 17.5,-200 17.5,-200 125.5,-200 125.5,-200 131.5,-200 137.5,-206 137.5,-212 137.5,-212 137.5,-224 137.5,-224 137.5,-230 131.5,-236 125.5,-236"/>
<text text-anchor="middle" x="71.5" y="-214.3" font-family="Times,serif" font-size="14.00">vmxnet3_input_node</text>
</g>
<!-- in_vn3&#45;&gt;in_dv -->
<g id="edge9" class="edge">
<title>in_vn3&#45;&gt;in_dv</title>
<path fill="none" stroke="black" d="M132.07,-236C159.37,-245.01 191.85,-256.81 220,-270 235.11,-277.08 251.03,-286.19 264.69,-294.57"/>
<polygon fill="black" stroke="black" points="273.3,-299.94 262.44,-298.47 269.06,-297.29 264.82,-294.65 264.82,-294.65 264.82,-294.65 269.06,-297.29 267.2,-290.83 273.3,-299.94 273.3,-299.94"/>
<text text-anchor="middle" x="192.5" y="-273.8" font-family="Times,serif" font-size="14.00">sibling_of</text>
</g>
<!-- in_vt -->
<g id="node11" class="node">
<title>in_vt</title>
<path fill="none" stroke="black" d="M116,-186C116,-186 27,-186 27,-186 21,-186 15,-180 15,-174 15,-174 15,-162 15,-162 15,-156 21,-150 27,-150 27,-150 116,-150 116,-150 122,-150 128,-156 128,-162 128,-162 128,-174 128,-174 128,-180 122,-186 116,-186"/>
<text text-anchor="middle" x="71.5" y="-164.3" font-family="Times,serif" font-size="14.00">virtio_input_node</text>
</g>
<!-- in_vt&#45;&gt;in_dv -->
<g id="edge10" class="edge">
<title>in_vt&#45;&gt;in_dv</title>
<path fill="none" stroke="black" d="M128.01,-184.19C157.17,-194.39 192.46,-209.54 220,-230 243.75,-247.64 266.06,-273 281.14,-291.96"/>
<polygon fill="black" stroke="black" points="287.34,-299.92 277.65,-294.8 284.27,-295.98 281.2,-292.03 281.2,-292.03 281.2,-292.03 284.27,-295.98 284.74,-289.27 287.34,-299.92 287.34,-299.92"/>
<text text-anchor="middle" x="192.5" y="-233.8" font-family="Times,serif" font-size="14.00">sibling_of</text>
</g>
<!-- in_is4 -->
<g id="node12" class="node">
<title>in_is4</title>
<path fill="none" stroke="black" d="M119,-136C119,-136 24,-136 24,-136 18,-136 12,-130 12,-124 12,-124 12,-112 12,-112 12,-106 18,-100 24,-100 24,-100 119,-100 119,-100 125,-100 131,-106 131,-112 131,-112 131,-124 131,-124 131,-130 125,-136 119,-136"/>
<text text-anchor="middle" x="71.5" y="-114.3" font-family="Times,serif" font-size="14.00">ipsec4_input_node</text>
</g>
<!-- in_is4&#45;&gt;in_dv -->
<g id="edge11" class="edge">
<title>in_is4&#45;&gt;in_dv</title>
<path fill="none" stroke="black" d="M131.34,-132.82C160.74,-142.6 195.22,-157.96 220,-181 253.4,-212.05 277.23,-260.13 289.93,-290.29"/>
<polygon fill="black" stroke="black" points="293.8,-299.79 285.85,-292.23 291.91,-295.16 290.02,-290.53 290.02,-290.53 290.02,-290.53 291.91,-295.16 294.19,-288.83 293.8,-299.79 293.8,-299.79"/>
<text text-anchor="middle" x="192.5" y="-184.8" font-family="Times,serif" font-size="14.00">sibling_of</text>
</g>
<!-- in_pg -->
<g id="node13" class="node">
<title>in_pg</title>
<path fill="none" stroke="black" d="M108.5,-86C108.5,-86 34.5,-86 34.5,-86 28.5,-86 22.5,-80 22.5,-74 22.5,-74 22.5,-62 22.5,-62 22.5,-56 28.5,-50 34.5,-50 34.5,-50 108.5,-50 108.5,-50 114.5,-50 120.5,-56 120.5,-62 120.5,-62 120.5,-74 120.5,-74 120.5,-80 114.5,-86 108.5,-86"/>
<text text-anchor="middle" x="71.5" y="-64.3" font-family="Times,serif" font-size="14.00">pg_input_node</text>
</g>
<!-- in_pg&#45;&gt;in_dv -->
<g id="edge12" class="edge">
<title>in_pg&#45;&gt;in_dv</title>
<path fill="none" stroke="black" d="M120.62,-76.75C152.54,-84.84 193.32,-99.86 220,-127 265.49,-173.27 286.83,-249.11 295.48,-289.91"/>
<polygon fill="black" stroke="black" points="297.46,-299.73 291.07,-290.82 296.47,-294.83 295.48,-289.93 295.48,-289.93 295.48,-289.93 296.47,-294.83 299.89,-289.04 297.46,-299.73 297.46,-299.73"/>
<text text-anchor="middle" x="192.5" y="-130.8" font-family="Times,serif" font-size="14.00">sibling_of</text>
</g>
<!-- in_tt -->
<g id="node14" class="node">
<title>in_tt</title>
<path fill="none" stroke="black" d="M118.5,-36C118.5,-36 24.5,-36 24.5,-36 18.5,-36 12.5,-30 12.5,-24 12.5,-24 12.5,-12 12.5,-12 12.5,-6 18.5,0 24.5,0 24.5,0 118.5,0 118.5,0 124.5,0 130.5,-6 130.5,-12 130.5,-12 130.5,-24 130.5,-24 130.5,-30 124.5,-36 118.5,-36"/>
<text text-anchor="middle" x="71.5" y="-14.3" font-family="Times,serif" font-size="14.00">tuntap_input_node</text>
</g>
<!-- in_tt&#45;&gt;in_dv -->
<g id="edge13" class="edge">
<title>in_tt&#45;&gt;in_dv</title>
<path fill="none" stroke="black" d="M130.81,-27.46C161.15,-35.2 196.67,-49.13 220,-74 277.85,-135.68 294.17,-239.83 298.74,-289.71"/>
<polygon fill="black" stroke="black" points="299.57,-299.78 294.26,-290.18 299.16,-294.79 298.75,-289.81 298.75,-289.81 298.75,-289.81 299.16,-294.79 303.23,-289.44 299.57,-299.78 299.57,-299.78"/>
<text text-anchor="middle" x="192.5" y="-77.8" font-family="Times,serif" font-size="14.00">sibling_of</text>
</g>
</g>
</svg>
