<?xml version="1.0" encoding="UTF-8" standalone="no"?>
<!DOCTYPE svg PUBLIC "-//W3C//DTD SVG 1.1//EN"
 "http://www.w3.org/Graphics/SVG/1.1/DTD/svg11.dtd">
<!-- Generated by graphviz version 2.43.0 (0)
 -->
<!-- Title: G Pages: 1 -->
<svg width="897pt" height="201pt"
 viewBox="0.00 0.00 897.00 201.00" xmlns="http://www.w3.org/2000/svg" xmlns:xlink="http://www.w3.org/1999/xlink">
<g id="graph0" class="graph" transform="scale(1 1) rotate(0) translate(4 197)">
<title>G</title>
<polygon fill="white" stroke="transparent" points="-4,4 -4,-197 893,-197 893,4 -4,4"/>
<text text-anchor="middle" x="444.5" y="-7.8" font-family="Times,serif" font-size="14.00">结构关联</text>
<!-- vnr_din -->
<g id="node1" class="node">
<title>vnr_din</title>
<path fill="lightgrey" stroke="black" d="M349,-193C349,-193 96,-193 96,-193 90,-193 84,-187 84,-181 84,-181 84,-48 84,-48 84,-42 90,-36 96,-36 96,-36 349,-36 349,-36 355,-36 361,-42 361,-48 361,-48 361,-181 361,-181 361,-187 355,-193 349,-193"/>
<polygon fill="white" stroke="transparent" points="92,-40 92,-189 353,-189 353,-40 92,-40"/>
<polygon fill="black" stroke="transparent" points="94.5,-167.5 94.5,-186.5 351.5,-186.5 351.5,-167.5 94.5,-167.5"/>
<text text-anchor="start" x="165.5" y="-173.9" font-family="Times,serif" font-size="12.00" fill="white">vlib_node_registration_t</text>
<polygon fill="#e5e5e5" stroke="transparent" points="94.5,-146.5 94.5,-165.5 240.5,-165.5 240.5,-146.5 94.5,-146.5"/>
<text text-anchor="start" x="97.5" y="-152.9" font-family="Times,serif" font-size="12.00">vlib_node_function_t *</text>
<polygon fill="grey" stroke="transparent" points="242.5,-146.5 242.5,-165.5 351.5,-165.5 351.5,-146.5 242.5,-146.5"/>
<text text-anchor="start" x="308.5" y="-152.9" font-family="Times,serif" font-size="12.00">function</text>
<polygon fill="#e5e5e5" stroke="transparent" points="94.5,-125.5 94.5,-144.5 240.5,-144.5 240.5,-125.5 94.5,-125.5"/>
<text text-anchor="start" x="97.5" y="-131.9" font-family="Times,serif" font-size="12.00">vlib_node_fn_registration_t *</text>
<polygon fill="grey" stroke="transparent" points="242.5,-125.5 242.5,-144.5 351.5,-144.5 351.5,-125.5 242.5,-125.5"/>
<text text-anchor="start" x="245.5" y="-131.9" font-family="Times,serif" font-size="12.00">node_fn_registrations</text>
<polygon fill="#e5e5e5" stroke="transparent" points="94.5,-104.5 94.5,-123.5 240.5,-123.5 240.5,-104.5 94.5,-104.5"/>
<text text-anchor="start" x="97.5" y="-110.9" font-family="Times,serif" font-size="12.00">char *</text>
<polygon fill="grey" stroke="transparent" points="242.5,-104.5 242.5,-123.5 351.5,-123.5 351.5,-104.5 242.5,-104.5"/>
<text text-anchor="start" x="300.5" y="-110.9" font-family="Times,serif" font-size="12.00">sibling_of</text>
<polygon fill="#e5e5e5" stroke="transparent" points="94.5,-83.5 94.5,-102.5 240.5,-102.5 240.5,-83.5 94.5,-83.5"/>
<text text-anchor="start" x="97.5" y="-89.9" font-family="Times,serif" font-size="12.00">u32</text>
<polygon fill="grey" stroke="transparent" points="242.5,-83.5 242.5,-102.5 351.5,-102.5 351.5,-83.5 242.5,-83.5"/>
<text text-anchor="start" x="321.5" y="-89.9" font-family="Times,serif" font-size="12.00">index</text>
<polygon fill="#e5e5e5" stroke="transparent" points="94.5,-62.5 94.5,-81.5 240.5,-81.5 240.5,-62.5 94.5,-62.5"/>
<text text-anchor="start" x="97.5" y="-68.9" font-family="Times,serif" font-size="12.00">u16</text>
<polygon fill="grey" stroke="transparent" points="242.5,-62.5 242.5,-81.5 351.5,-81.5 351.5,-62.5 242.5,-62.5"/>
<text text-anchor="start" x="281.5" y="-68.9" font-family="Times,serif" font-size="12.00">n_next_nodes</text>
<polygon fill="#e5e5e5" stroke="transparent" points="94.5,-41.5 94.5,-60.5 240.5,-60.5 240.5,-41.5 94.5,-41.5"/>
<text text-anchor="start" x="97.5" y="-47.9" font-family="Times,serif" font-size="12.00">vlib_node_registration *</text>
<polygon fill="grey" stroke="transparent" points="242.5,-41.5 242.5,-60.5 351.5,-60.5 351.5,-41.5 242.5,-41.5"/>
<text text-anchor="start" x="269.5" y="-47.9" font-family="Times,serif" font-size="12.00">next_registration</text>
<text text-anchor="middle" x="42" y="-26.4" font-family="Times,serif" font-size="12.00">dpdk_input_node</text>
</g>
<!-- vnfr_din -->
<g id="node2" class="node">
<title>vnfr_din</title>
<path fill="lightgrey" stroke="black" d="M660,-135.5C660,-135.5 416,-135.5 416,-135.5 410,-135.5 404,-129.5 404,-123.5 404,-123.5 404,-53.5 404,-53.5 404,-47.5 410,-41.5 416,-41.5 416,-41.5 660,-41.5 660,-41.5 666,-41.5 672,-47.5 672,-53.5 672,-53.5 672,-123.5 672,-123.5 672,-129.5 666,-135.5 660,-135.5"/>
<polygon fill="white" stroke="transparent" points="412,-45.5 412,-131.5 664,-131.5 664,-45.5 412,-45.5"/>
<polygon fill="black" stroke="transparent" points="414,-110.5 414,-129.5 662,-129.5 662,-110.5 414,-110.5"/>
<text text-anchor="start" x="472.5" y="-116.9" font-family="Times,serif" font-size="12.00" fill="white">vlib_node_fn_registration_t</text>
<polygon fill="#e5e5e5" stroke="transparent" points="414,-89.5 414,-108.5 551,-108.5 551,-89.5 414,-89.5"/>
<text text-anchor="start" x="417" y="-95.9" font-family="Times,serif" font-size="12.00">vlib_node_function_t *</text>
<polygon fill="grey" stroke="transparent" points="553,-89.5 553,-108.5 662,-108.5 662,-89.5 553,-89.5"/>
<text text-anchor="start" x="619" y="-95.9" font-family="Times,serif" font-size="12.00">function</text>
<polygon fill="#e5e5e5" stroke="transparent" points="414,-68.5 414,-87.5 551,-87.5 551,-68.5 414,-68.5"/>
<text text-anchor="start" x="417" y="-74.9" font-family="Times,serif" font-size="12.00">clib_march_variant_type_t</text>
<polygon fill="grey" stroke="transparent" points="553,-68.5 553,-87.5 662,-87.5 662,-68.5 553,-68.5"/>
<text text-anchor="start" x="556" y="-74.9" font-family="Times,serif" font-size="12.00">node_fn_registrations</text>
<polygon fill="#e5e5e5" stroke="transparent" points="414,-47.5 414,-66.5 551,-66.5 551,-47.5 414,-47.5"/>
<text text-anchor="start" x="417" y="-53.9" font-family="Times,serif" font-size="12.00">vlib_node_fn_registration *</text>
<polygon fill="grey" stroke="transparent" points="553,-47.5 553,-66.5 662,-66.5 662,-47.5 553,-47.5"/>
<text text-anchor="start" x="580" y="-53.9" font-family="Times,serif" font-size="12.00">next_registration</text>
<text text-anchor="middle" x="595.5" y="-31.9" font-family="Times,serif" font-size="12.00">dpdk_input_node_fn_rgistration</text>
</g>
<!-- vnr_din&#45;&gt;vnfr_din -->
<g id="edge1" class="edge">
<title>vnr_din:e&#45;&gt;vnfr_din:nw</title>
<path fill="none" stroke="black" d="M352.5,-135.5C374.32,-135.5 386.63,-150.2 401.75,-137.57"/>
<polygon fill="black" stroke="black" points="404,-135.5 402.7,-138.52 402.89,-136.51 401.79,-137.53 401.79,-137.53 401.79,-137.53 402.89,-136.51 400.88,-136.53 404,-135.5 404,-135.5"/>
</g>
<!-- dinfr -->
<g id="node3" class="node">
<title>dinfr</title>
<path fill="lightgrey" stroke="transparent" d="M881.67,-118.5C881.67,-118.5 722.33,-118.5 722.33,-118.5 718.67,-118.5 715,-114.83 715,-111.17 715,-111.17 715,-103.83 715,-103.83 715,-100.17 718.67,-96.5 722.33,-96.5 722.33,-96.5 881.67,-96.5 881.67,-96.5 885.33,-96.5 889,-100.17 889,-103.83 889,-103.83 889,-111.17 889,-111.17 889,-114.83 885.33,-118.5 881.67,-118.5"/>
<text text-anchor="middle" x="802" y="-104.4" font-family="Times,serif" font-size="12.00">dpdk_input_node_fn_registration</text>
</g>
<!-- vnfr_din&#45;&gt;dinfr -->
<g id="edge2" class="edge">
<title>vnfr_din:r0&#45;&gt;dinfr:w</title>
<path fill="none" stroke="black" d="M663,-99.5C685.29,-99.5 691.09,-106.77 711.83,-107.45"/>
<polygon fill="black" stroke="black" points="715,-107.5 711.98,-108.8 713.5,-107.48 712,-107.45 712,-107.45 712,-107.45 713.5,-107.48 712.02,-106.1 715,-107.5 715,-107.5"/>
</g>
<!-- null -->
<g id="node4" class="node">
<title>null</title>
<path fill="lightgrey" stroke="black" d="M823.67,-60.5C823.67,-60.5 780.33,-60.5 780.33,-60.5 776.67,-60.5 773,-56.83 773,-53.17 773,-53.17 773,-45.83 773,-45.83 773,-42.17 776.67,-38.5 780.33,-38.5 780.33,-38.5 823.67,-38.5 823.67,-38.5 827.33,-38.5 831,-42.17 831,-45.83 831,-45.83 831,-53.17 831,-53.17 831,-56.83 827.33,-60.5 823.67,-60.5"/>
<text text-anchor="middle" x="802" y="-46.4" font-family="Times,serif" font-size="12.00">NULL</text>
</g>
<!-- vnfr_din&#45;&gt;null -->
<g id="edge3" class="edge">
<title>vnfr_din:r2&#45;&gt;null:w</title>
<path fill="none" stroke="black" d="M663,-56.5C710.5,-56.5 722.93,-49.8 768.92,-49.51"/>
<polygon fill="black" stroke="black" points="772,-49.5 769,-50.86 770.5,-49.5 769,-49.51 769,-49.51 769,-49.51 770.5,-49.5 769,-48.16 772,-49.5 772,-49.5"/>
</g>
</g>
</svg>
