<?xml version="1.0" encoding="UTF-8" standalone="no"?>
<!DOCTYPE svg PUBLIC "-//W3C//DTD SVG 1.1//EN"
 "http://www.w3.org/Graphics/SVG/1.1/DTD/svg11.dtd">
<!-- Generated by graphviz version 2.43.0 (0)
 -->
<!-- Title: G Pages: 1 -->
<svg width="1404pt" height="338pt"
 viewBox="0.00 0.00 1404.00 338.00" xmlns="http://www.w3.org/2000/svg" xmlns:xlink="http://www.w3.org/1999/xlink">
<g id="graph0" class="graph" transform="scale(1 1) rotate(0) translate(4 334)">
<title>G</title>
<polygon fill="white" stroke="transparent" points="-4,4 -4,-334 1400,-334 1400,4 -4,4"/>
<text text-anchor="middle" x="698" y="-7.8" font-family="Times,serif" font-size="14.00">构造函数初始化node后的结构关联</text>
<!-- vgm -->
<g id="node1" class="node">
<title>vgm</title>
<path fill="lightgrey" stroke="transparent" d="M316,-317C316,-317 95,-317 95,-317 89,-317 83,-311 83,-305 83,-305 83,-235 83,-235 83,-229 89,-223 95,-223 95,-223 316,-223 316,-223 322,-223 328,-229 328,-235 328,-235 328,-305 328,-305 328,-311 322,-317 316,-317"/>
<polygon fill="white" stroke="transparent" points="91,-227 91,-313 320,-313 320,-227 91,-227"/>
<polygon fill="black" stroke="transparent" points="93.5,-292 93.5,-311 318.5,-311 318.5,-292 93.5,-292"/>
<text text-anchor="start" x="160" y="-298.4" font-family="Times,serif" font-size="12.00" fill="white">vlib_global_main_t</text>
<polygon fill="#e5e5e5" stroke="transparent" points="93.5,-271 93.5,-290 223.5,-290 223.5,-271 93.5,-271"/>
<text text-anchor="start" x="96.5" y="-277.4" font-family="Times,serif" font-size="12.00">vlib_main_t **</text>
<polygon fill="grey" stroke="transparent" points="225.5,-271 225.5,-290 318.5,-290 318.5,-271 225.5,-271"/>
<text text-anchor="start" x="263.5" y="-277.4" font-family="Times,serif" font-size="12.00">vlib_mains</text>
<polygon fill="#e5e5e5" stroke="transparent" points="93.5,-250 93.5,-269 223.5,-269 223.5,-250 93.5,-250"/>
<text text-anchor="start" x="96.5" y="-256.4" font-family="Times,serif" font-size="12.00">vlib_cli_main_t</text>
<polygon fill="grey" stroke="transparent" points="225.5,-250 225.5,-269 318.5,-269 318.5,-250 225.5,-250"/>
<text text-anchor="start" x="274.5" y="-256.4" font-family="Times,serif" font-size="12.00">cli_main</text>
<polygon fill="#e5e5e5" stroke="transparent" points="93.5,-229 93.5,-248 223.5,-248 223.5,-229 93.5,-229"/>
<text text-anchor="start" x="96.5" y="-235.4" font-family="Times,serif" font-size="12.00">vlib_node_registration_t *</text>
<polygon fill="grey" stroke="transparent" points="225.5,-229 225.5,-248 318.5,-248 318.5,-229 225.5,-229"/>
<text text-anchor="start" x="228.5" y="-235.4" font-family="Times,serif" font-size="12.00">node_registrations</text>
<text text-anchor="middle" x="41.5" y="-320.4" font-family="Times,serif" font-size="12.00">vlib_global_main</text>
</g>
<!-- vnr_din -->
<g id="node2" class="node">
<title>vnr_din</title>
<path fill="lightgrey" stroke="transparent" d="M445,-180C445,-180 192,-180 192,-180 186,-180 180,-174 180,-168 180,-168 180,-35 180,-35 180,-29 186,-23 192,-23 192,-23 445,-23 445,-23 451,-23 457,-29 457,-35 457,-35 457,-168 457,-168 457,-174 451,-180 445,-180"/>
<polygon fill="white" stroke="transparent" points="188,-27 188,-176 449,-176 449,-27 188,-27"/>
<polygon fill="black" stroke="transparent" points="190.5,-154.5 190.5,-173.5 447.5,-173.5 447.5,-154.5 190.5,-154.5"/>
<text text-anchor="start" x="261.5" y="-160.9" font-family="Times,serif" font-size="12.00" fill="white">vlib_node_registration_t</text>
<polygon fill="#e5e5e5" stroke="transparent" points="190.5,-133.5 190.5,-152.5 336.5,-152.5 336.5,-133.5 190.5,-133.5"/>
<text text-anchor="start" x="193.5" y="-139.9" font-family="Times,serif" font-size="12.00">vlib_node_function_t *</text>
<polygon fill="grey" stroke="transparent" points="338.5,-133.5 338.5,-152.5 447.5,-152.5 447.5,-133.5 338.5,-133.5"/>
<text text-anchor="start" x="404.5" y="-139.9" font-family="Times,serif" font-size="12.00">function</text>
<polygon fill="#e5e5e5" stroke="transparent" points="190.5,-112.5 190.5,-131.5 336.5,-131.5 336.5,-112.5 190.5,-112.5"/>
<text text-anchor="start" x="193.5" y="-118.9" font-family="Times,serif" font-size="12.00">vlib_node_fn_registration_t *</text>
<polygon fill="grey" stroke="transparent" points="338.5,-112.5 338.5,-131.5 447.5,-131.5 447.5,-112.5 338.5,-112.5"/>
<text text-anchor="start" x="341.5" y="-118.9" font-family="Times,serif" font-size="12.00">node_fn_registrations</text>
<polygon fill="#e5e5e5" stroke="transparent" points="190.5,-91.5 190.5,-110.5 336.5,-110.5 336.5,-91.5 190.5,-91.5"/>
<text text-anchor="start" x="193.5" y="-97.9" font-family="Times,serif" font-size="12.00">char *</text>
<polygon fill="grey" stroke="transparent" points="338.5,-91.5 338.5,-110.5 447.5,-110.5 447.5,-91.5 338.5,-91.5"/>
<text text-anchor="start" x="396.5" y="-97.9" font-family="Times,serif" font-size="12.00">sibling_of</text>
<polygon fill="#e5e5e5" stroke="transparent" points="190.5,-70.5 190.5,-89.5 336.5,-89.5 336.5,-70.5 190.5,-70.5"/>
<text text-anchor="start" x="193.5" y="-76.9" font-family="Times,serif" font-size="12.00">u32</text>
<polygon fill="grey" stroke="transparent" points="338.5,-70.5 338.5,-89.5 447.5,-89.5 447.5,-70.5 338.5,-70.5"/>
<text text-anchor="start" x="417.5" y="-76.9" font-family="Times,serif" font-size="12.00">index</text>
<polygon fill="#e5e5e5" stroke="transparent" points="190.5,-49.5 190.5,-68.5 336.5,-68.5 336.5,-49.5 190.5,-49.5"/>
<text text-anchor="start" x="193.5" y="-55.9" font-family="Times,serif" font-size="12.00">u16</text>
<polygon fill="grey" stroke="transparent" points="338.5,-49.5 338.5,-68.5 447.5,-68.5 447.5,-49.5 338.5,-49.5"/>
<text text-anchor="start" x="377.5" y="-55.9" font-family="Times,serif" font-size="12.00">n_next_nodes</text>
<polygon fill="#e5e5e5" stroke="transparent" points="190.5,-28.5 190.5,-47.5 336.5,-47.5 336.5,-28.5 190.5,-28.5"/>
<text text-anchor="start" x="193.5" y="-34.9" font-family="Times,serif" font-size="12.00">vlib_node_registration *</text>
<polygon fill="grey" stroke="transparent" points="338.5,-28.5 338.5,-47.5 447.5,-47.5 447.5,-28.5 338.5,-28.5"/>
<text text-anchor="start" x="365.5" y="-34.9" font-family="Times,serif" font-size="12.00">next_registration</text>
<text text-anchor="middle" x="138" y="-183.4" font-family="Times,serif" font-size="12.00">dpdk_input_node</text>
</g>
<!-- vgm&#45;&gt;vnr_din -->
<g id="edge1" class="edge">
<title>vgm:e&#45;&gt;vnr_din:n</title>
<path fill="none" stroke="black" d="M319.5,-238C344.27,-238 320.51,-208.25 318.62,-183.05"/>
<polygon fill="black" stroke="black" points="318.5,-180 319.96,-182.95 318.56,-181.5 318.62,-183 318.62,-183 318.62,-183 318.56,-181.5 317.27,-183.05 318.5,-180 318.5,-180"/>
</g>
<!-- vnr_axin -->
<g id="node3" class="node">
<title>vnr_axin</title>
<path fill="lightgrey" stroke="transparent" d="M758,-180C758,-180 505,-180 505,-180 499,-180 493,-174 493,-168 493,-168 493,-35 493,-35 493,-29 499,-23 505,-23 505,-23 758,-23 758,-23 764,-23 770,-29 770,-35 770,-35 770,-168 770,-168 770,-174 764,-180 758,-180"/>
<polygon fill="white" stroke="transparent" points="501,-27 501,-176 762,-176 762,-27 501,-27"/>
<polygon fill="black" stroke="transparent" points="503.5,-154.5 503.5,-173.5 760.5,-173.5 760.5,-154.5 503.5,-154.5"/>
<text text-anchor="start" x="574.5" y="-160.9" font-family="Times,serif" font-size="12.00" fill="white">vlib_node_registration_t</text>
<polygon fill="#e5e5e5" stroke="transparent" points="503.5,-133.5 503.5,-152.5 649.5,-152.5 649.5,-133.5 503.5,-133.5"/>
<text text-anchor="start" x="506.5" y="-139.9" font-family="Times,serif" font-size="12.00">vlib_node_function_t *</text>
<polygon fill="grey" stroke="transparent" points="651.5,-133.5 651.5,-152.5 760.5,-152.5 760.5,-133.5 651.5,-133.5"/>
<text text-anchor="start" x="717.5" y="-139.9" font-family="Times,serif" font-size="12.00">function</text>
<polygon fill="#e5e5e5" stroke="transparent" points="503.5,-112.5 503.5,-131.5 649.5,-131.5 649.5,-112.5 503.5,-112.5"/>
<text text-anchor="start" x="506.5" y="-118.9" font-family="Times,serif" font-size="12.00">vlib_node_fn_registration_t *</text>
<polygon fill="grey" stroke="transparent" points="651.5,-112.5 651.5,-131.5 760.5,-131.5 760.5,-112.5 651.5,-112.5"/>
<text text-anchor="start" x="654.5" y="-118.9" font-family="Times,serif" font-size="12.00">node_fn_registrations</text>
<polygon fill="#e5e5e5" stroke="transparent" points="503.5,-91.5 503.5,-110.5 649.5,-110.5 649.5,-91.5 503.5,-91.5"/>
<text text-anchor="start" x="506.5" y="-97.9" font-family="Times,serif" font-size="12.00">char *</text>
<polygon fill="grey" stroke="transparent" points="651.5,-91.5 651.5,-110.5 760.5,-110.5 760.5,-91.5 651.5,-91.5"/>
<text text-anchor="start" x="709.5" y="-97.9" font-family="Times,serif" font-size="12.00">sibling_of</text>
<polygon fill="#e5e5e5" stroke="transparent" points="503.5,-70.5 503.5,-89.5 649.5,-89.5 649.5,-70.5 503.5,-70.5"/>
<text text-anchor="start" x="506.5" y="-76.9" font-family="Times,serif" font-size="12.00">u32</text>
<polygon fill="grey" stroke="transparent" points="651.5,-70.5 651.5,-89.5 760.5,-89.5 760.5,-70.5 651.5,-70.5"/>
<text text-anchor="start" x="730.5" y="-76.9" font-family="Times,serif" font-size="12.00">index</text>
<polygon fill="#e5e5e5" stroke="transparent" points="503.5,-49.5 503.5,-68.5 649.5,-68.5 649.5,-49.5 503.5,-49.5"/>
<text text-anchor="start" x="506.5" y="-55.9" font-family="Times,serif" font-size="12.00">u16</text>
<polygon fill="grey" stroke="transparent" points="651.5,-49.5 651.5,-68.5 760.5,-68.5 760.5,-49.5 651.5,-49.5"/>
<text text-anchor="start" x="690.5" y="-55.9" font-family="Times,serif" font-size="12.00">n_next_nodes</text>
<polygon fill="#e5e5e5" stroke="transparent" points="503.5,-28.5 503.5,-47.5 649.5,-47.5 649.5,-28.5 503.5,-28.5"/>
<text text-anchor="start" x="506.5" y="-34.9" font-family="Times,serif" font-size="12.00">vlib_node_registration *</text>
<polygon fill="grey" stroke="transparent" points="651.5,-28.5 651.5,-47.5 760.5,-47.5 760.5,-28.5 651.5,-28.5"/>
<text text-anchor="start" x="678.5" y="-34.9" font-family="Times,serif" font-size="12.00">next_registration</text>
<text text-anchor="middle" x="446.5" y="-183.4" font-family="Times,serif" font-size="12.00">af_xdp_input_node</text>
</g>
<!-- vnr_din&#45;&gt;vnr_axin -->
<g id="edge2" class="edge">
<title>vnr_din:r5&#45;&gt;vnr_axin:n</title>
<path fill="none" stroke="black" d="M448.5,-37.5C515.06,-37.5 439.54,-140.85 493,-180.5 516.85,-198.19 623.61,-211.33 631.09,-184.58"/>
<polygon fill="black" stroke="black" points="631.5,-181.5 632.44,-184.65 631.3,-182.99 631.1,-184.47 631.1,-184.47 631.1,-184.47 631.3,-182.99 629.76,-184.29 631.5,-181.5 631.5,-181.5"/>
</g>
<!-- vnr_iin -->
<g id="node4" class="node">
<title>vnr_iin</title>
<path fill="lightgrey" stroke="transparent" d="M1071,-180C1071,-180 818,-180 818,-180 812,-180 806,-174 806,-168 806,-168 806,-35 806,-35 806,-29 812,-23 818,-23 818,-23 1071,-23 1071,-23 1077,-23 1083,-29 1083,-35 1083,-35 1083,-168 1083,-168 1083,-174 1077,-180 1071,-180"/>
<polygon fill="white" stroke="transparent" points="814,-27 814,-176 1075,-176 1075,-27 814,-27"/>
<polygon fill="black" stroke="transparent" points="816.5,-154.5 816.5,-173.5 1073.5,-173.5 1073.5,-154.5 816.5,-154.5"/>
<text text-anchor="start" x="887.5" y="-160.9" font-family="Times,serif" font-size="12.00" fill="white">vlib_node_registration_t</text>
<polygon fill="#e5e5e5" stroke="transparent" points="816.5,-133.5 816.5,-152.5 962.5,-152.5 962.5,-133.5 816.5,-133.5"/>
<text text-anchor="start" x="819.5" y="-139.9" font-family="Times,serif" font-size="12.00">vlib_node_function_t *</text>
<polygon fill="grey" stroke="transparent" points="964.5,-133.5 964.5,-152.5 1073.5,-152.5 1073.5,-133.5 964.5,-133.5"/>
<text text-anchor="start" x="1030.5" y="-139.9" font-family="Times,serif" font-size="12.00">function</text>
<polygon fill="#e5e5e5" stroke="transparent" points="816.5,-112.5 816.5,-131.5 962.5,-131.5 962.5,-112.5 816.5,-112.5"/>
<text text-anchor="start" x="819.5" y="-118.9" font-family="Times,serif" font-size="12.00">vlib_node_fn_registration_t *</text>
<polygon fill="grey" stroke="transparent" points="964.5,-112.5 964.5,-131.5 1073.5,-131.5 1073.5,-112.5 964.5,-112.5"/>
<text text-anchor="start" x="967.5" y="-118.9" font-family="Times,serif" font-size="12.00">node_fn_registrations</text>
<polygon fill="#e5e5e5" stroke="transparent" points="816.5,-91.5 816.5,-110.5 962.5,-110.5 962.5,-91.5 816.5,-91.5"/>
<text text-anchor="start" x="819.5" y="-97.9" font-family="Times,serif" font-size="12.00">char *</text>
<polygon fill="grey" stroke="transparent" points="964.5,-91.5 964.5,-110.5 1073.5,-110.5 1073.5,-91.5 964.5,-91.5"/>
<text text-anchor="start" x="1022.5" y="-97.9" font-family="Times,serif" font-size="12.00">sibling_of</text>
<polygon fill="#e5e5e5" stroke="transparent" points="816.5,-70.5 816.5,-89.5 962.5,-89.5 962.5,-70.5 816.5,-70.5"/>
<text text-anchor="start" x="819.5" y="-76.9" font-family="Times,serif" font-size="12.00">u32</text>
<polygon fill="grey" stroke="transparent" points="964.5,-70.5 964.5,-89.5 1073.5,-89.5 1073.5,-70.5 964.5,-70.5"/>
<text text-anchor="start" x="1043.5" y="-76.9" font-family="Times,serif" font-size="12.00">index</text>
<polygon fill="#e5e5e5" stroke="transparent" points="816.5,-49.5 816.5,-68.5 962.5,-68.5 962.5,-49.5 816.5,-49.5"/>
<text text-anchor="start" x="819.5" y="-55.9" font-family="Times,serif" font-size="12.00">u16</text>
<polygon fill="grey" stroke="transparent" points="964.5,-49.5 964.5,-68.5 1073.5,-68.5 1073.5,-49.5 964.5,-49.5"/>
<text text-anchor="start" x="1003.5" y="-55.9" font-family="Times,serif" font-size="12.00">n_next_nodes</text>
<polygon fill="#e5e5e5" stroke="transparent" points="816.5,-28.5 816.5,-47.5 962.5,-47.5 962.5,-28.5 816.5,-28.5"/>
<text text-anchor="start" x="819.5" y="-34.9" font-family="Times,serif" font-size="12.00">vlib_node_registration *</text>
<polygon fill="grey" stroke="transparent" points="964.5,-28.5 964.5,-47.5 1073.5,-47.5 1073.5,-28.5 964.5,-28.5"/>
<text text-anchor="start" x="991.5" y="-34.9" font-family="Times,serif" font-size="12.00">next_registration</text>
<text text-anchor="middle" x="768.5" y="-183.4" font-family="Times,serif" font-size="12.00">ip4_input_node</text>
</g>
<!-- vnr_axin&#45;&gt;vnr_iin -->
<g id="edge3" class="edge">
<title>vnr_axin:r5&#45;&gt;vnr_iin:n</title>
<path fill="none" stroke="black" d="M761.5,-37.5C828.06,-37.5 752.54,-140.85 806,-180.5 829.85,-198.19 936.61,-211.33 944.09,-184.58"/>
<polygon fill="black" stroke="black" points="944.5,-181.5 945.44,-184.65 944.3,-182.99 944.1,-184.47 944.1,-184.47 944.1,-184.47 944.3,-182.99 942.76,-184.29 944.5,-181.5 944.5,-181.5"/>
</g>
<!-- vnr_tin -->
<g id="node5" class="node">
<title>vnr_tin</title>
<path fill="lightgrey" stroke="transparent" d="M1384,-180C1384,-180 1131,-180 1131,-180 1125,-180 1119,-174 1119,-168 1119,-168 1119,-35 1119,-35 1119,-29 1125,-23 1131,-23 1131,-23 1384,-23 1384,-23 1390,-23 1396,-29 1396,-35 1396,-35 1396,-168 1396,-168 1396,-174 1390,-180 1384,-180"/>
<polygon fill="white" stroke="transparent" points="1127,-27 1127,-176 1388,-176 1388,-27 1127,-27"/>
<polygon fill="black" stroke="transparent" points="1129.5,-154.5 1129.5,-173.5 1386.5,-173.5 1386.5,-154.5 1129.5,-154.5"/>
<text text-anchor="start" x="1200.5" y="-160.9" font-family="Times,serif" font-size="12.00" fill="white">vlib_node_registration_t</text>
<polygon fill="#e5e5e5" stroke="transparent" points="1129.5,-133.5 1129.5,-152.5 1275.5,-152.5 1275.5,-133.5 1129.5,-133.5"/>
<text text-anchor="start" x="1132.5" y="-139.9" font-family="Times,serif" font-size="12.00">vlib_node_function_t *</text>
<polygon fill="grey" stroke="transparent" points="1277.5,-133.5 1277.5,-152.5 1386.5,-152.5 1386.5,-133.5 1277.5,-133.5"/>
<text text-anchor="start" x="1343.5" y="-139.9" font-family="Times,serif" font-size="12.00">function</text>
<polygon fill="#e5e5e5" stroke="transparent" points="1129.5,-112.5 1129.5,-131.5 1275.5,-131.5 1275.5,-112.5 1129.5,-112.5"/>
<text text-anchor="start" x="1132.5" y="-118.9" font-family="Times,serif" font-size="12.00">vlib_node_fn_registration_t *</text>
<polygon fill="grey" stroke="transparent" points="1277.5,-112.5 1277.5,-131.5 1386.5,-131.5 1386.5,-112.5 1277.5,-112.5"/>
<text text-anchor="start" x="1280.5" y="-118.9" font-family="Times,serif" font-size="12.00">node_fn_registrations</text>
<polygon fill="#e5e5e5" stroke="transparent" points="1129.5,-91.5 1129.5,-110.5 1275.5,-110.5 1275.5,-91.5 1129.5,-91.5"/>
<text text-anchor="start" x="1132.5" y="-97.9" font-family="Times,serif" font-size="12.00">char *</text>
<polygon fill="grey" stroke="transparent" points="1277.5,-91.5 1277.5,-110.5 1386.5,-110.5 1386.5,-91.5 1277.5,-91.5"/>
<text text-anchor="start" x="1335.5" y="-97.9" font-family="Times,serif" font-size="12.00">sibling_of</text>
<polygon fill="#e5e5e5" stroke="transparent" points="1129.5,-70.5 1129.5,-89.5 1275.5,-89.5 1275.5,-70.5 1129.5,-70.5"/>
<text text-anchor="start" x="1132.5" y="-76.9" font-family="Times,serif" font-size="12.00">u32</text>
<polygon fill="grey" stroke="transparent" points="1277.5,-70.5 1277.5,-89.5 1386.5,-89.5 1386.5,-70.5 1277.5,-70.5"/>
<text text-anchor="start" x="1356.5" y="-76.9" font-family="Times,serif" font-size="12.00">index</text>
<polygon fill="#e5e5e5" stroke="transparent" points="1129.5,-49.5 1129.5,-68.5 1275.5,-68.5 1275.5,-49.5 1129.5,-49.5"/>
<text text-anchor="start" x="1132.5" y="-55.9" font-family="Times,serif" font-size="12.00">u16</text>
<polygon fill="grey" stroke="transparent" points="1277.5,-49.5 1277.5,-68.5 1386.5,-68.5 1386.5,-49.5 1277.5,-49.5"/>
<text text-anchor="start" x="1316.5" y="-55.9" font-family="Times,serif" font-size="12.00">n_next_nodes</text>
<polygon fill="#e5e5e5" stroke="transparent" points="1129.5,-28.5 1129.5,-47.5 1275.5,-47.5 1275.5,-28.5 1129.5,-28.5"/>
<text text-anchor="start" x="1132.5" y="-34.9" font-family="Times,serif" font-size="12.00">vlib_node_registration *</text>
<polygon fill="grey" stroke="transparent" points="1277.5,-28.5 1277.5,-47.5 1386.5,-47.5 1386.5,-28.5 1277.5,-28.5"/>
<text text-anchor="start" x="1304.5" y="-34.9" font-family="Times,serif" font-size="12.00">next_registration</text>
<text text-anchor="middle" x="1079" y="-183.4" font-family="Times,serif" font-size="12.00">tcp4_input_node</text>
</g>
<!-- vnr_iin&#45;&gt;vnr_tin -->
<g id="edge4" class="edge">
<title>vnr_iin:r5&#45;&gt;vnr_tin:n</title>
<path fill="none" stroke="black" d="M1074.5,-37.5C1141.06,-37.5 1065.54,-140.85 1119,-180.5 1142.85,-198.19 1249.61,-211.33 1257.09,-184.58"/>
<polygon fill="black" stroke="black" points="1257.5,-181.5 1258.44,-184.65 1257.3,-182.99 1257.1,-184.47 1257.1,-184.47 1257.1,-184.47 1257.3,-182.99 1255.76,-184.29 1257.5,-181.5 1257.5,-181.5"/>
</g>
</g>
</svg>
