<?xml version="1.0" encoding="UTF-8" standalone="no"?>
<!DOCTYPE svg PUBLIC "-//W3C//DTD SVG 1.1//EN"
 "http://www.w3.org/Graphics/SVG/1.1/DTD/svg11.dtd">
<!-- Generated by graphviz version 2.43.0 (0)
 -->
<!-- Title: G Pages: 1 -->
<svg width="1137pt" height="1248pt"
 viewBox="0.00 144.00 1137.00 1103.57" xmlns="http://www.w3.org/2000/svg" xmlns:xlink="http://www.w3.org/1999/xlink">
<g id="graph0" class="graph" transform="scale(1 1) rotate(0) translate(4 1099.57)">
<title>G</title>
<polygon fill="white" stroke="transparent" points="-4,4 -4,-955.57 1133,-955.57 1133,4 -4,4"/>
<!-- nm -->
<g id="node1" class="node">
<title>nm</title>
<polygon fill="white" stroke="transparent" points="8,-421 8,-618 247,-618 247,-421 8,-421"/>
<polygon fill="black" stroke="transparent" points="12.5,-592.5 12.5,-613.5 243.5,-613.5 243.5,-592.5 12.5,-592.5"/>
<polygon fill="none" stroke="black" points="12.5,-592.5 12.5,-613.5 243.5,-613.5 243.5,-592.5 12.5,-592.5"/>
<text text-anchor="start" x="78" y="-599.3" font-family="Times,serif" font-size="14.00" fill="white">vlib_node_main_t</text>
<polygon fill="#e5e5e5" stroke="transparent" points="12.5,-568.5 12.5,-589.5 143.5,-589.5 143.5,-568.5 12.5,-568.5"/>
<polygon fill="none" stroke="black" points="12.5,-568.5 12.5,-589.5 143.5,-589.5 143.5,-568.5 12.5,-568.5"/>
<text text-anchor="start" x="15.5" y="-575.3" font-family="Times,serif" font-size="14.00">vlib_node_t **</text>
<polygon fill="grey" stroke="transparent" points="146.5,-568.5 146.5,-589.5 243.5,-589.5 243.5,-568.5 146.5,-568.5"/>
<polygon fill="none" stroke="black" points="146.5,-568.5 146.5,-589.5 243.5,-589.5 243.5,-568.5 146.5,-568.5"/>
<text text-anchor="start" x="208.5" y="-575.3" font-family="Times,serif" font-size="14.00">nodes</text>
<polygon fill="#e5e5e5" stroke="transparent" points="12.5,-544.5 12.5,-565.5 143.5,-565.5 143.5,-544.5 12.5,-544.5"/>
<polygon fill="none" stroke="black" points="12.5,-544.5 12.5,-565.5 143.5,-565.5 143.5,-544.5 12.5,-544.5"/>
<text text-anchor="start" x="15.5" y="-551.3" font-family="Times,serif" font-size="14.00">uword *</text>
<polygon fill="grey" stroke="transparent" points="146.5,-544.5 146.5,-565.5 243.5,-565.5 243.5,-544.5 146.5,-544.5"/>
<polygon fill="none" stroke="black" points="146.5,-544.5 146.5,-565.5 243.5,-565.5 243.5,-544.5 146.5,-544.5"/>
<text text-anchor="start" x="156.5" y="-551.3" font-family="Times,serif" font-size="14.00">node_by_name</text>
<polygon fill="#e5e5e5" stroke="transparent" points="12.5,-520.5 12.5,-541.5 143.5,-541.5 143.5,-520.5 12.5,-520.5"/>
<polygon fill="none" stroke="black" points="12.5,-520.5 12.5,-541.5 143.5,-541.5 143.5,-520.5 12.5,-520.5"/>
<text text-anchor="start" x="15.5" y="-527.3" font-family="Times,serif" font-size="14.00">vlib_frame_size_t *</text>
<polygon fill="grey" stroke="transparent" points="146.5,-520.5 146.5,-541.5 243.5,-541.5 243.5,-520.5 146.5,-520.5"/>
<polygon fill="none" stroke="black" points="146.5,-520.5 146.5,-541.5 243.5,-541.5 243.5,-520.5 146.5,-520.5"/>
<text text-anchor="start" x="174.5" y="-527.3" font-family="Times,serif" font-size="14.00">frame_sizes</text>
<polygon fill="#e5e5e5" stroke="transparent" points="12.5,-496.5 12.5,-517.5 143.5,-517.5 143.5,-496.5 12.5,-496.5"/>
<polygon fill="none" stroke="black" points="12.5,-496.5 12.5,-517.5 143.5,-517.5 143.5,-496.5 12.5,-496.5"/>
<text text-anchor="start" x="15.5" y="-503.3" font-family="Times,serif" font-size="14.00">vlib_node_runtime_t *</text>
<polygon fill="grey" stroke="transparent" points="146.5,-496.5 146.5,-517.5 243.5,-517.5 243.5,-496.5 146.5,-496.5"/>
<polygon fill="none" stroke="black" points="146.5,-496.5 146.5,-517.5 243.5,-517.5 243.5,-496.5 146.5,-496.5"/>
<text text-anchor="start" x="149.5" y="-503.3" font-family="Times,serif" font-size="14.00">nodes_by_type[]</text>
<polygon fill="#e5e5e5" stroke="transparent" points="12.5,-472.5 12.5,-493.5 143.5,-493.5 143.5,-472.5 12.5,-472.5"/>
<polygon fill="none" stroke="black" points="12.5,-472.5 12.5,-493.5 143.5,-493.5 143.5,-472.5 12.5,-472.5"/>
<text text-anchor="start" x="15.5" y="-479.3" font-family="Times,serif" font-size="14.00">vlib_process_t **</text>
<polygon fill="grey" stroke="transparent" points="146.5,-472.5 146.5,-493.5 243.5,-493.5 243.5,-472.5 146.5,-472.5"/>
<polygon fill="none" stroke="black" points="146.5,-472.5 146.5,-493.5 243.5,-493.5 243.5,-472.5 146.5,-472.5"/>
<text text-anchor="start" x="188.5" y="-479.3" font-family="Times,serif" font-size="14.00">processes</text>
<polygon fill="#e5e5e5" stroke="transparent" points="12.5,-448.5 12.5,-469.5 143.5,-469.5 143.5,-448.5 12.5,-448.5"/>
<polygon fill="none" stroke="black" points="12.5,-448.5 12.5,-469.5 143.5,-469.5 143.5,-448.5 12.5,-448.5"/>
<text text-anchor="start" x="15.5" y="-455.3" font-family="Times,serif" font-size="14.00">void *</text>
<polygon fill="grey" stroke="transparent" points="146.5,-448.5 146.5,-469.5 243.5,-469.5 243.5,-448.5 146.5,-448.5"/>
<polygon fill="none" stroke="black" points="146.5,-448.5 146.5,-469.5 243.5,-469.5 243.5,-448.5 146.5,-448.5"/>
<text text-anchor="start" x="188.5" y="-455.3" font-family="Times,serif" font-size="14.00">interrupts</text>
<polygon fill="#e5e5e5" stroke="transparent" points="12.5,-424.5 12.5,-445.5 143.5,-445.5 143.5,-424.5 12.5,-424.5"/>
<polygon fill="none" stroke="black" points="12.5,-424.5 12.5,-445.5 143.5,-445.5 143.5,-424.5 12.5,-424.5"/>
<text text-anchor="start" x="15.5" y="-431.3" font-family="Times,serif" font-size="14.00">vlib_next_frame_t *</text>
<polygon fill="grey" stroke="transparent" points="146.5,-424.5 146.5,-445.5 243.5,-445.5 243.5,-424.5 146.5,-424.5"/>
<polygon fill="none" stroke="black" points="146.5,-424.5 146.5,-445.5 243.5,-445.5 243.5,-424.5 146.5,-424.5"/>
<text text-anchor="start" x="172.5" y="-431.3" font-family="Times,serif" font-size="14.00">next_frames</text>
<polygon fill="none" stroke="black" points="8,-421 8,-618 247,-618 247,-421 8,-421"/>
</g>
<!-- nds -->
<g id="node2" class="node">
<title>nds</title>
<polygon fill="white" stroke="transparent" points="612,-816 612,-935 758,-935 758,-816 612,-816"/>
<polygon fill="grey" stroke="transparent" points="615,-910.5 615,-931.5 755,-931.5 755,-910.5 615,-910.5"/>
<polygon fill="none" stroke="black" points="615,-910.5 615,-931.5 755,-931.5 755,-910.5 615,-910.5"/>
<text text-anchor="start" x="619" y="-917.3" font-family="Times,serif" font-size="14.00">保存node指针的vector</text>
<polygon fill="#e5e5e5" stroke="transparent" points="615,-887.5 615,-908.5 673,-908.5 673,-887.5 615,-887.5"/>
<polygon fill="none" stroke="black" points="615,-887.5 615,-908.5 673,-908.5 673,-887.5 615,-887.5"/>
<text text-anchor="start" x="618" y="-894.3" font-family="Times,serif" font-size="14.00">0</text>
<polygon fill="grey" stroke="transparent" points="675,-887.5 675,-908.5 755,-908.5 755,-887.5 675,-887.5"/>
<polygon fill="none" stroke="black" points="675,-887.5 675,-908.5 755,-908.5 755,-887.5 675,-887.5"/>
<text text-anchor="start" x="718" y="-894.3" font-family="Times,serif" font-size="14.00">node0</text>
<polygon fill="#e5e5e5" stroke="transparent" points="615,-864.5 615,-885.5 673,-885.5 673,-864.5 615,-864.5"/>
<polygon fill="none" stroke="black" points="615,-864.5 615,-885.5 673,-885.5 673,-864.5 615,-864.5"/>
<text text-anchor="start" x="618" y="-871.3" font-family="Times,serif" font-size="14.00">1</text>
<polygon fill="grey" stroke="transparent" points="675,-864.5 675,-885.5 755,-885.5 755,-864.5 675,-864.5"/>
<polygon fill="none" stroke="black" points="675,-864.5 675,-885.5 755,-885.5 755,-864.5 675,-864.5"/>
<text text-anchor="start" x="718" y="-871.3" font-family="Times,serif" font-size="14.00">node1</text>
<polygon fill="#e5e5e5" stroke="transparent" points="615,-841.5 615,-862.5 673,-862.5 673,-841.5 615,-841.5"/>
<polygon fill="none" stroke="black" points="615,-841.5 615,-862.5 673,-862.5 673,-841.5 615,-841.5"/>
<text text-anchor="start" x="618" y="-848.3" font-family="Times,serif" font-size="14.00">2</text>
<polygon fill="grey" stroke="transparent" points="675,-841.5 675,-862.5 755,-862.5 755,-841.5 675,-841.5"/>
<polygon fill="none" stroke="black" points="675,-841.5 675,-862.5 755,-862.5 755,-841.5 675,-841.5"/>
<text text-anchor="start" x="718" y="-848.3" font-family="Times,serif" font-size="14.00">node2</text>
<polygon fill="#e5e5e5" stroke="transparent" points="615,-818.5 615,-839.5 673,-839.5 673,-818.5 615,-818.5"/>
<polygon fill="none" stroke="black" points="615,-818.5 615,-839.5 673,-839.5 673,-818.5 615,-818.5"/>
<text text-anchor="start" x="618" y="-825.3" font-family="Times,serif" font-size="14.00">...</text>
<polygon fill="grey" stroke="transparent" points="675,-818.5 675,-839.5 755,-839.5 755,-818.5 675,-818.5"/>
<polygon fill="none" stroke="black" points="675,-818.5 675,-839.5 755,-839.5 755,-818.5 675,-818.5"/>
<text text-anchor="start" x="740" y="-825.3" font-family="Times,serif" font-size="14.00">...</text>
<polygon fill="none" stroke="black" points="612,-816 612,-935 758,-935 758,-816 612,-816"/>
</g>
<!-- nm&#45;&gt;nds -->
<g id="edge1" class="edge">
<title>nm:r0&#45;&gt;nds:nw</title>
<path fill="none" stroke="black" d="M244.5,-579.5C315.16,-579.5 242.03,-676.65 284,-733.5 333.99,-801.21 540.98,-986.2 612.03,-945.59"/>
<polygon fill="black" stroke="black" points="620,-939.5 614.79,-949.15 616.03,-942.54 612.06,-945.57 612.06,-945.57 612.06,-945.57 616.03,-942.54 609.32,-942 620,-939.5 620,-939.5"/>
<text text-anchor="middle" x="409" y="-939.3" font-family="Times,serif" font-size="14.00">指向Vector,其中保存所有node内存的指针</text>
</g>
<!-- fss -->
<g id="node3" class="node">
<title>fss</title>
<polygon fill="white" stroke="transparent" points="590.5,-644.5 590.5,-778.5 779.5,-778.5 779.5,-644.5 590.5,-644.5"/>
<polygon fill="grey" stroke="transparent" points="594,-739.5 594,-775.5 777,-775.5 777,-739.5 594,-739.5"/>
<polygon fill="none" stroke="black" points="594,-739.5 594,-775.5 777,-775.5 777,-739.5 594,-739.5"/>
<text text-anchor="start" x="598" y="-761.3" font-family="Times,serif" font-size="14.00">vlib_frame_size_t指针的vector</text>
<text text-anchor="start" x="612.5" y="-746.3" font-family="Times,serif" font-size="14.00">根据frame_size大小区分</text>
<polygon fill="#e5e5e5" stroke="transparent" points="594,-716.5 594,-737.5 657,-737.5 657,-716.5 594,-716.5"/>
<polygon fill="none" stroke="black" points="594,-716.5 594,-737.5 657,-737.5 657,-716.5 594,-716.5"/>
<text text-anchor="start" x="597" y="-723.3" font-family="Times,serif" font-size="14.00">0</text>
<polygon fill="grey" stroke="transparent" points="659,-716.5 659,-737.5 777,-737.5 777,-716.5 659,-716.5"/>
<polygon fill="none" stroke="black" points="659,-716.5 659,-737.5 777,-737.5 777,-716.5 659,-716.5"/>
<text text-anchor="start" x="707" y="-723.3" font-family="Times,serif" font-size="14.00">frame_size0</text>
<polygon fill="#e5e5e5" stroke="transparent" points="594,-693.5 594,-714.5 657,-714.5 657,-693.5 594,-693.5"/>
<polygon fill="none" stroke="black" points="594,-693.5 594,-714.5 657,-714.5 657,-693.5 594,-693.5"/>
<text text-anchor="start" x="597" y="-700.3" font-family="Times,serif" font-size="14.00">1</text>
<polygon fill="grey" stroke="transparent" points="659,-693.5 659,-714.5 777,-714.5 777,-693.5 659,-693.5"/>
<polygon fill="none" stroke="black" points="659,-693.5 659,-714.5 777,-714.5 777,-693.5 659,-693.5"/>
<text text-anchor="start" x="707" y="-700.3" font-family="Times,serif" font-size="14.00">frame_size1</text>
<polygon fill="#e5e5e5" stroke="transparent" points="594,-670.5 594,-691.5 657,-691.5 657,-670.5 594,-670.5"/>
<polygon fill="none" stroke="black" points="594,-670.5 594,-691.5 657,-691.5 657,-670.5 594,-670.5"/>
<text text-anchor="start" x="597" y="-677.3" font-family="Times,serif" font-size="14.00">2</text>
<polygon fill="grey" stroke="transparent" points="659,-670.5 659,-691.5 777,-691.5 777,-670.5 659,-670.5"/>
<polygon fill="none" stroke="black" points="659,-670.5 659,-691.5 777,-691.5 777,-670.5 659,-670.5"/>
<text text-anchor="start" x="707" y="-677.3" font-family="Times,serif" font-size="14.00">frame_size2</text>
<polygon fill="#e5e5e5" stroke="transparent" points="594,-647.5 594,-668.5 657,-668.5 657,-647.5 594,-647.5"/>
<polygon fill="none" stroke="black" points="594,-647.5 594,-668.5 657,-668.5 657,-647.5 594,-647.5"/>
<text text-anchor="start" x="597" y="-654.3" font-family="Times,serif" font-size="14.00">...</text>
<polygon fill="grey" stroke="transparent" points="659,-647.5 659,-668.5 777,-668.5 777,-647.5 659,-647.5"/>
<polygon fill="none" stroke="black" points="659,-647.5 659,-668.5 777,-668.5 777,-647.5 659,-647.5"/>
<text text-anchor="start" x="762" y="-654.3" font-family="Times,serif" font-size="14.00">...</text>
<polygon fill="none" stroke="black" points="590.5,-644.5 590.5,-778.5 779.5,-778.5 779.5,-644.5 590.5,-644.5"/>
</g>
<!-- nm&#45;&gt;fss -->
<g id="edge2" class="edge">
<title>nm:r2&#45;&gt;fss:nw</title>
<path fill="none" stroke="black" d="M244.5,-531.5C294.78,-531.5 249.5,-600.93 284,-637.5 336.47,-693.12 538.1,-826.83 604.85,-788.7"/>
<polygon fill="black" stroke="black" points="613,-782.5 607.76,-792.14 609.02,-785.53 605.04,-788.55 605.04,-788.55 605.04,-788.55 609.02,-785.53 602.32,-784.97 613,-782.5 613,-782.5"/>
</g>
<!-- vnrs0 -->
<g id="node4" class="node">
<title>vnrs0</title>
<polygon fill="white" stroke="transparent" points="596.5,-488 596.5,-607 773.5,-607 773.5,-488 596.5,-488"/>
<polygon fill="grey" stroke="transparent" points="600,-582.5 600,-603.5 771,-603.5 771,-582.5 600,-582.5"/>
<polygon fill="none" stroke="black" points="600,-582.5 600,-603.5 771,-603.5 771,-582.5 600,-582.5"/>
<text text-anchor="start" x="604" y="-589.3" font-family="Times,serif" font-size="14.00">VLIB_NODE_TYPE_INPUT</text>
<polygon fill="#e5e5e5" stroke="transparent" points="600,-559.5 600,-580.5 633,-580.5 633,-559.5 600,-559.5"/>
<polygon fill="none" stroke="black" points="600,-559.5 600,-580.5 633,-580.5 633,-559.5 600,-559.5"/>
<text text-anchor="start" x="603" y="-566.3" font-family="Times,serif" font-size="14.00">0</text>
<polygon fill="grey" stroke="transparent" points="635,-559.5 635,-580.5 771,-580.5 771,-559.5 635,-559.5"/>
<polygon fill="none" stroke="black" points="635,-559.5 635,-580.5 771,-580.5 771,-559.5 635,-559.5"/>
<text text-anchor="start" x="653" y="-566.3" font-family="Times,serif" font-size="14.00">vlib_node_runtime_t</text>
<polygon fill="#e5e5e5" stroke="transparent" points="600,-536.5 600,-557.5 633,-557.5 633,-536.5 600,-536.5"/>
<polygon fill="none" stroke="black" points="600,-536.5 600,-557.5 633,-557.5 633,-536.5 600,-536.5"/>
<text text-anchor="start" x="603" y="-543.3" font-family="Times,serif" font-size="14.00">1</text>
<polygon fill="grey" stroke="transparent" points="635,-536.5 635,-557.5 771,-557.5 771,-536.5 635,-536.5"/>
<polygon fill="none" stroke="black" points="635,-536.5 635,-557.5 771,-557.5 771,-536.5 635,-536.5"/>
<text text-anchor="start" x="653" y="-543.3" font-family="Times,serif" font-size="14.00">vlib_node_runtime_t</text>
<polygon fill="#e5e5e5" stroke="transparent" points="600,-513.5 600,-534.5 633,-534.5 633,-513.5 600,-513.5"/>
<polygon fill="none" stroke="black" points="600,-513.5 600,-534.5 633,-534.5 633,-513.5 600,-513.5"/>
<text text-anchor="start" x="603" y="-520.3" font-family="Times,serif" font-size="14.00">2</text>
<polygon fill="grey" stroke="transparent" points="635,-513.5 635,-534.5 771,-534.5 771,-513.5 635,-513.5"/>
<polygon fill="none" stroke="black" points="635,-513.5 635,-534.5 771,-534.5 771,-513.5 635,-513.5"/>
<text text-anchor="start" x="653" y="-520.3" font-family="Times,serif" font-size="14.00">vlib_node_runtime_t</text>
<polygon fill="#e5e5e5" stroke="transparent" points="600,-490.5 600,-511.5 633,-511.5 633,-490.5 600,-490.5"/>
<polygon fill="none" stroke="black" points="600,-490.5 600,-511.5 633,-511.5 633,-490.5 600,-490.5"/>
<text text-anchor="start" x="603" y="-497.3" font-family="Times,serif" font-size="14.00">...</text>
<polygon fill="grey" stroke="transparent" points="635,-490.5 635,-511.5 771,-511.5 771,-490.5 635,-490.5"/>
<polygon fill="none" stroke="black" points="635,-490.5 635,-511.5 771,-511.5 771,-490.5 635,-490.5"/>
<text text-anchor="start" x="756" y="-497.3" font-family="Times,serif" font-size="14.00">...</text>
<polygon fill="none" stroke="black" points="596.5,-488 596.5,-607 773.5,-607 773.5,-488 596.5,-488"/>
</g>
<!-- nm&#45;&gt;vnrs0 -->
<g id="edge3" class="edge">
<title>nm:r3&#45;&gt;vnrs0:nw</title>
<path fill="none" stroke="black" d="M244.5,-506.5C327.76,-506.5 541.17,-660.03 612.08,-617.66"/>
<polygon fill="black" stroke="black" points="620,-611.5 614.87,-621.19 616.05,-614.57 612.11,-617.64 612.11,-617.64 612.11,-617.64 616.05,-614.57 609.34,-614.09 620,-611.5 620,-611.5"/>
<text text-anchor="middle" x="409" y="-619.3" font-family="Times,serif" font-size="14.00">input</text>
</g>
<!-- vnrs1 -->
<g id="node5" class="node">
<title>vnrs1</title>
<polygon fill="white" stroke="transparent" points="580.5,-378 580.5,-451 789.5,-451 789.5,-378 580.5,-378"/>
<polygon fill="grey" stroke="transparent" points="584,-426.5 584,-447.5 787,-447.5 787,-426.5 584,-426.5"/>
<polygon fill="none" stroke="black" points="584,-426.5 584,-447.5 787,-447.5 787,-426.5 584,-426.5"/>
<text text-anchor="start" x="588" y="-433.3" font-family="Times,serif" font-size="14.00">VLIB_NODE_TYPE_PRE_INPUT</text>
<polygon fill="#e5e5e5" stroke="transparent" points="584,-403.5 584,-424.5 633,-424.5 633,-403.5 584,-403.5"/>
<polygon fill="none" stroke="black" points="584,-403.5 584,-424.5 633,-424.5 633,-403.5 584,-403.5"/>
<text text-anchor="start" x="587" y="-410.3" font-family="Times,serif" font-size="14.00">0</text>
<polygon fill="grey" stroke="transparent" points="635,-403.5 635,-424.5 787,-424.5 787,-403.5 635,-403.5"/>
<polygon fill="none" stroke="black" points="635,-403.5 635,-424.5 787,-424.5 787,-403.5 635,-403.5"/>
<text text-anchor="start" x="669" y="-410.3" font-family="Times,serif" font-size="14.00">vlib_node_runtime_t</text>
<polygon fill="#e5e5e5" stroke="transparent" points="584,-380.5 584,-401.5 633,-401.5 633,-380.5 584,-380.5"/>
<polygon fill="none" stroke="black" points="584,-380.5 584,-401.5 633,-401.5 633,-380.5 584,-380.5"/>
<text text-anchor="start" x="587" y="-387.3" font-family="Times,serif" font-size="14.00">...</text>
<polygon fill="grey" stroke="transparent" points="635,-380.5 635,-401.5 787,-401.5 787,-380.5 635,-380.5"/>
<polygon fill="none" stroke="black" points="635,-380.5 635,-401.5 787,-401.5 787,-380.5 635,-380.5"/>
<text text-anchor="start" x="772" y="-387.3" font-family="Times,serif" font-size="14.00">...</text>
<polygon fill="none" stroke="black" points="580.5,-378 580.5,-451 789.5,-451 789.5,-378 580.5,-378"/>
</g>
<!-- nm&#45;&gt;vnrs1 -->
<g id="edge4" class="edge">
<title>nm:r3&#45;&gt;vnrs1:nw</title>
<path fill="none" stroke="black" d="M244.5,-506.5C263.13,-506.5 265.83,-496.59 284,-492.5 301.96,-488.45 577.52,-472.6 633.57,-459.06"/>
<polygon fill="black" stroke="black" points="643,-455.5 635.24,-463.25 638.32,-457.27 633.65,-459.04 633.65,-459.04 633.65,-459.04 638.32,-457.27 632.05,-454.83 643,-455.5 643,-455.5"/>
<text text-anchor="middle" x="409" y="-496.3" font-family="Times,serif" font-size="14.00">pre_input</text>
</g>
<!-- pcs -->
<g id="node6" class="node">
<title>pcs</title>
<polygon fill="white" stroke="transparent" points="571,-206.5 571,-340.5 799,-340.5 799,-206.5 571,-206.5"/>
<polygon fill="grey" stroke="transparent" points="574,-301.5 574,-337.5 796,-337.5 796,-301.5 574,-301.5"/>
<polygon fill="none" stroke="black" points="574,-301.5 574,-337.5 796,-337.5 796,-301.5 574,-301.5"/>
<text text-anchor="start" x="606.5" y="-323.3" font-family="Times,serif" font-size="14.00">vlib_process_t类型的Vector</text>
<text text-anchor="start" x="578" y="-308.3" font-family="Times,serif" font-size="14.00">保存PROCESS类型node的运行状态</text>
<polygon fill="#e5e5e5" stroke="transparent" points="574,-278.5 574,-299.5 666,-299.5 666,-278.5 574,-278.5"/>
<polygon fill="none" stroke="black" points="574,-278.5 574,-299.5 666,-299.5 666,-278.5 574,-278.5"/>
<text text-anchor="start" x="577" y="-285.3" font-family="Times,serif" font-size="14.00">0</text>
<polygon fill="grey" stroke="transparent" points="668,-278.5 668,-299.5 796,-299.5 796,-278.5 668,-278.5"/>
<polygon fill="none" stroke="black" points="668,-278.5 668,-299.5 796,-299.5 796,-278.5 668,-278.5"/>
<text text-anchor="start" x="745" y="-285.3" font-family="Times,serif" font-size="14.00">process0</text>
<polygon fill="#e5e5e5" stroke="transparent" points="574,-255.5 574,-276.5 666,-276.5 666,-255.5 574,-255.5"/>
<polygon fill="none" stroke="black" points="574,-255.5 574,-276.5 666,-276.5 666,-255.5 574,-255.5"/>
<text text-anchor="start" x="577" y="-262.3" font-family="Times,serif" font-size="14.00">1</text>
<polygon fill="grey" stroke="transparent" points="668,-255.5 668,-276.5 796,-276.5 796,-255.5 668,-255.5"/>
<polygon fill="none" stroke="black" points="668,-255.5 668,-276.5 796,-276.5 796,-255.5 668,-255.5"/>
<text text-anchor="start" x="745" y="-262.3" font-family="Times,serif" font-size="14.00">process1</text>
<polygon fill="#e5e5e5" stroke="transparent" points="574,-232.5 574,-253.5 666,-253.5 666,-232.5 574,-232.5"/>
<polygon fill="none" stroke="black" points="574,-232.5 574,-253.5 666,-253.5 666,-232.5 574,-232.5"/>
<text text-anchor="start" x="577" y="-239.3" font-family="Times,serif" font-size="14.00">2</text>
<polygon fill="grey" stroke="transparent" points="668,-232.5 668,-253.5 796,-253.5 796,-232.5 668,-232.5"/>
<polygon fill="none" stroke="black" points="668,-232.5 668,-253.5 796,-253.5 796,-232.5 668,-232.5"/>
<text text-anchor="start" x="745" y="-239.3" font-family="Times,serif" font-size="14.00">process2</text>
<polygon fill="#e5e5e5" stroke="transparent" points="574,-209.5 574,-230.5 666,-230.5 666,-209.5 574,-209.5"/>
<polygon fill="none" stroke="black" points="574,-209.5 574,-230.5 666,-230.5 666,-209.5 574,-209.5"/>
<text text-anchor="start" x="577" y="-216.3" font-family="Times,serif" font-size="14.00">...</text>
<polygon fill="grey" stroke="transparent" points="668,-209.5 668,-230.5 796,-230.5 796,-209.5 668,-209.5"/>
<polygon fill="none" stroke="black" points="668,-209.5 668,-230.5 796,-230.5 796,-209.5 668,-209.5"/>
<text text-anchor="start" x="781" y="-216.3" font-family="Times,serif" font-size="14.00">...</text>
<polygon fill="none" stroke="black" points="571,-206.5 571,-340.5 799,-340.5 799,-206.5 571,-206.5"/>
</g>
<!-- nm&#45;&gt;pcs -->
<g id="edge5" class="edge">
<title>nm:r4&#45;&gt;pcs:nw</title>
<path fill="none" stroke="black" d="M244.5,-482.5C263.79,-482.5 266.18,-471.9 284,-464.5 406.35,-413.67 437.47,-401.89 563,-359.5 581.2,-353.35 592.3,-358.35 604.89,-350.93"/>
<polygon fill="black" stroke="black" points="613,-344.5 607.96,-354.24 609.08,-347.61 605.17,-350.71 605.17,-350.71 605.17,-350.71 609.08,-347.61 602.37,-347.19 613,-344.5 613,-344.5"/>
</g>
<!-- nfs -->
<g id="node7" class="node">
<title>nfs</title>
<polygon fill="white" stroke="transparent" points="588,-4 588,-169 782,-169 782,-4 588,-4"/>
<polygon fill="grey" stroke="transparent" points="591,-144.5 591,-165.5 779,-165.5 779,-144.5 591,-144.5"/>
<polygon fill="none" stroke="black" points="591,-144.5 591,-165.5 779,-165.5 779,-144.5 591,-144.5"/>
<text text-anchor="start" x="595" y="-151.3" font-family="Times,serif" font-size="14.00">用来初始化node的next_frames</text>
<polygon fill="#e5e5e5" stroke="transparent" points="591,-121.5 591,-142.5 641,-142.5 641,-121.5 591,-121.5"/>
<polygon fill="none" stroke="black" points="591,-121.5 591,-142.5 641,-142.5 641,-121.5 591,-121.5"/>
<text text-anchor="start" x="594" y="-128.3" font-family="Times,serif" font-size="14.00">0</text>
<polygon fill="grey" stroke="transparent" points="643,-121.5 643,-142.5 779,-142.5 779,-121.5 643,-121.5"/>
<polygon fill="none" stroke="black" points="643,-121.5 643,-142.5 779,-142.5 779,-121.5 643,-121.5"/>
<text text-anchor="start" x="670" y="-128.3" font-family="Times,serif" font-size="14.00">dpdk next_frames0</text>
<polygon fill="#e5e5e5" stroke="transparent" points="591,-98.5 591,-119.5 641,-119.5 641,-98.5 591,-98.5"/>
<polygon fill="none" stroke="black" points="591,-98.5 591,-119.5 641,-119.5 641,-98.5 591,-98.5"/>
<text text-anchor="start" x="594" y="-105.3" font-family="Times,serif" font-size="14.00">1</text>
<polygon fill="grey" stroke="transparent" points="643,-98.5 643,-119.5 779,-119.5 779,-98.5 643,-98.5"/>
<polygon fill="none" stroke="black" points="643,-98.5 643,-119.5 779,-119.5 779,-98.5 643,-98.5"/>
<text text-anchor="start" x="670" y="-105.3" font-family="Times,serif" font-size="14.00">dpdk next_frames1</text>
<polygon fill="#e5e5e5" stroke="transparent" points="591,-75.5 591,-96.5 641,-96.5 641,-75.5 591,-75.5"/>
<polygon fill="none" stroke="black" points="591,-75.5 591,-96.5 641,-96.5 641,-75.5 591,-75.5"/>
<text text-anchor="start" x="594" y="-82.3" font-family="Times,serif" font-size="14.00">2</text>
<polygon fill="grey" stroke="transparent" points="643,-75.5 643,-96.5 779,-96.5 779,-75.5 643,-75.5"/>
<polygon fill="none" stroke="black" points="643,-75.5 643,-96.5 779,-96.5 779,-75.5 643,-75.5"/>
<text text-anchor="start" x="670" y="-82.3" font-family="Times,serif" font-size="14.00">dpdk next_frames2</text>
<polygon fill="#e5e5e5" stroke="transparent" points="591,-52.5 591,-73.5 641,-73.5 641,-52.5 591,-52.5"/>
<polygon fill="none" stroke="black" points="591,-52.5 591,-73.5 641,-73.5 641,-52.5 591,-52.5"/>
<text text-anchor="start" x="594" y="-59.3" font-family="Times,serif" font-size="14.00">3</text>
<polygon fill="grey" stroke="transparent" points="643,-52.5 643,-73.5 779,-73.5 779,-52.5 643,-52.5"/>
<polygon fill="none" stroke="black" points="643,-52.5 643,-73.5 779,-73.5 779,-52.5 643,-52.5"/>
<text text-anchor="start" x="669" y="-59.3" font-family="Times,serif" font-size="14.00">其他 next_frames0</text>
<polygon fill="#e5e5e5" stroke="transparent" points="591,-29.5 591,-50.5 641,-50.5 641,-29.5 591,-29.5"/>
<polygon fill="none" stroke="black" points="591,-29.5 591,-50.5 641,-50.5 641,-29.5 591,-29.5"/>
<text text-anchor="start" x="594" y="-36.3" font-family="Times,serif" font-size="14.00">...</text>
<polygon fill="grey" stroke="transparent" points="643,-29.5 643,-50.5 779,-50.5 779,-29.5 643,-29.5"/>
<polygon fill="none" stroke="black" points="643,-29.5 643,-50.5 779,-50.5 779,-29.5 643,-29.5"/>
<text text-anchor="start" x="764" y="-36.3" font-family="Times,serif" font-size="14.00">...</text>
<polygon fill="#e5e5e5" stroke="transparent" points="591,-6.5 591,-27.5 641,-27.5 641,-6.5 591,-6.5"/>
<polygon fill="none" stroke="black" points="591,-6.5 591,-27.5 641,-27.5 641,-6.5 591,-6.5"/>
<text text-anchor="start" x="594" y="-13.3" font-family="Times,serif" font-size="14.00">N&#45;1</text>
<polygon fill="grey" stroke="transparent" points="643,-6.5 643,-27.5 779,-27.5 779,-6.5 643,-6.5"/>
<polygon fill="none" stroke="black" points="643,-6.5 643,-27.5 779,-27.5 779,-6.5 643,-6.5"/>
<text text-anchor="start" x="686" y="-13.3" font-family="Times,serif" font-size="14.00">next_frames n&#45;1</text>
<polygon fill="none" stroke="black" points="588,-4 588,-169 782,-169 782,-4 588,-4"/>
</g>
<!-- nm&#45;&gt;nfs -->
<g id="edge6" class="edge">
<title>nm:r6&#45;&gt;nfs:nw</title>
<path fill="none" stroke="black" d="M244.5,-434.5C280.61,-434.5 259.18,-389.73 284,-363.5 384.78,-257.02 432.73,-254.77 563,-187.5 573.89,-181.88 581.07,-183.31 588.85,-179.51"/>
<polygon fill="black" stroke="black" points="597,-173.5 591.62,-183.06 592.98,-176.47 588.95,-179.44 588.95,-179.44 588.95,-179.44 592.98,-176.47 586.28,-175.81 597,-173.5 597,-173.5"/>
</g>
<!-- nd_dpdk -->
<g id="node8" class="node">
<title>nd_dpdk</title>
<polygon fill="white" stroke="transparent" points="891.5,-668.5 891.5,-848.5 1103.5,-848.5 1103.5,-668.5 891.5,-668.5"/>
<polygon fill="grey" stroke="transparent" points="894.5,-809.5 894.5,-845.5 1100.5,-845.5 1100.5,-809.5 894.5,-809.5"/>
<polygon fill="none" stroke="black" points="894.5,-809.5 894.5,-845.5 1100.5,-845.5 1100.5,-809.5 894.5,-809.5"/>
<text text-anchor="start" x="965" y="-831.3" font-family="Times,serif" font-size="14.00">vlib_node_t</text>
<text text-anchor="start" x="950" y="-816.3" font-family="Times,serif" font-size="14.00">dpdk_input_node</text>
<polygon fill="#e5e5e5" stroke="transparent" points="894.5,-786.5 894.5,-807.5 995.5,-807.5 995.5,-786.5 894.5,-786.5"/>
<polygon fill="none" stroke="black" points="894.5,-786.5 894.5,-807.5 995.5,-807.5 995.5,-786.5 894.5,-786.5"/>
<text text-anchor="start" x="897.5" y="-793.3" font-family="Times,serif" font-size="14.00">u32</text>
<polygon fill="grey" stroke="transparent" points="997.5,-786.5 997.5,-807.5 1100.5,-807.5 1100.5,-786.5 997.5,-786.5"/>
<polygon fill="none" stroke="black" points="997.5,-786.5 997.5,-807.5 1100.5,-807.5 1100.5,-786.5 997.5,-786.5"/>
<text text-anchor="start" x="1066.5" y="-793.3" font-family="Times,serif" font-size="14.00">index</text>
<polygon fill="#e5e5e5" stroke="transparent" points="894.5,-763.5 894.5,-784.5 995.5,-784.5 995.5,-763.5 894.5,-763.5"/>
<polygon fill="none" stroke="black" points="894.5,-763.5 894.5,-784.5 995.5,-784.5 995.5,-763.5 894.5,-763.5"/>
<text text-anchor="start" x="897.5" y="-770.3" font-family="Times,serif" font-size="14.00">u8 *</text>
<polygon fill="grey" stroke="transparent" points="997.5,-763.5 997.5,-784.5 1100.5,-784.5 1100.5,-763.5 997.5,-763.5"/>
<polygon fill="none" stroke="black" points="997.5,-763.5 997.5,-784.5 1100.5,-784.5 1100.5,-763.5 997.5,-763.5"/>
<text text-anchor="start" x="1066.5" y="-770.3" font-family="Times,serif" font-size="14.00">name</text>
<polygon fill="#e5e5e5" stroke="transparent" points="894.5,-740.5 894.5,-761.5 995.5,-761.5 995.5,-740.5 894.5,-740.5"/>
<polygon fill="none" stroke="black" points="894.5,-740.5 894.5,-761.5 995.5,-761.5 995.5,-740.5 894.5,-740.5"/>
<text text-anchor="start" x="897.5" y="-747.3" font-family="Times,serif" font-size="14.00">vlib_node_type_t</text>
<polygon fill="grey" stroke="transparent" points="997.5,-740.5 997.5,-761.5 1100.5,-761.5 1100.5,-740.5 997.5,-740.5"/>
<polygon fill="none" stroke="black" points="997.5,-740.5 997.5,-761.5 1100.5,-761.5 1100.5,-740.5 997.5,-740.5"/>
<text text-anchor="start" x="1073.5" y="-747.3" font-family="Times,serif" font-size="14.00">type</text>
<polygon fill="#e5e5e5" stroke="transparent" points="894.5,-717.5 894.5,-738.5 995.5,-738.5 995.5,-717.5 894.5,-717.5"/>
<polygon fill="none" stroke="black" points="894.5,-717.5 894.5,-738.5 995.5,-738.5 995.5,-717.5 894.5,-717.5"/>
<text text-anchor="start" x="897.5" y="-724.3" font-family="Times,serif" font-size="14.00">u16</text>
<polygon fill="grey" stroke="transparent" points="997.5,-717.5 997.5,-738.5 1100.5,-738.5 1100.5,-717.5 997.5,-717.5"/>
<polygon fill="none" stroke="black" points="997.5,-717.5 997.5,-738.5 1100.5,-738.5 1100.5,-717.5 997.5,-717.5"/>
<text text-anchor="start" x="1000.5" y="-724.3" font-family="Times,serif" font-size="14.00">frame_size_index</text>
<polygon fill="#e5e5e5" stroke="transparent" points="894.5,-694.5 894.5,-715.5 995.5,-715.5 995.5,-694.5 894.5,-694.5"/>
<polygon fill="none" stroke="black" points="894.5,-694.5 894.5,-715.5 995.5,-715.5 995.5,-694.5 894.5,-694.5"/>
<text text-anchor="start" x="897.5" y="-701.3" font-family="Times,serif" font-size="14.00">u32</text>
<polygon fill="grey" stroke="transparent" points="997.5,-694.5 997.5,-715.5 1100.5,-715.5 1100.5,-694.5 997.5,-694.5"/>
<polygon fill="none" stroke="black" points="997.5,-694.5 997.5,-715.5 1100.5,-715.5 1100.5,-694.5 997.5,-694.5"/>
<text text-anchor="start" x="1017.5" y="-701.3" font-family="Times,serif" font-size="14.00">runtime_index</text>
<polygon fill="#e5e5e5" stroke="transparent" points="894.5,-671.5 894.5,-692.5 995.5,-692.5 995.5,-671.5 894.5,-671.5"/>
<polygon fill="none" stroke="black" points="894.5,-671.5 894.5,-692.5 995.5,-692.5 995.5,-671.5 894.5,-671.5"/>
<text text-anchor="start" x="897.5" y="-678.3" font-family="Times,serif" font-size="14.00">char *</text>
<polygon fill="grey" stroke="transparent" points="997.5,-671.5 997.5,-692.5 1100.5,-692.5 1100.5,-671.5 997.5,-671.5"/>
<polygon fill="none" stroke="black" points="997.5,-671.5 997.5,-692.5 1100.5,-692.5 1100.5,-671.5 997.5,-671.5"/>
<text text-anchor="start" x="1042.5" y="-678.3" font-family="Times,serif" font-size="14.00">sibling_of</text>
<polygon fill="none" stroke="black" points="891.5,-668.5 891.5,-848.5 1103.5,-848.5 1103.5,-668.5 891.5,-668.5"/>
</g>
<!-- nds&#45;&gt;nd_dpdk -->
<g id="edge7" class="edge">
<title>nds:r0&#45;&gt;nd_dpdk:l0</title>
<path fill="none" stroke="black" d="M766.09,-897.86C830.7,-889.25 821.23,-797.5 893.5,-797.5"/>
<polygon fill="black" stroke="black" points="765.76,-894.37 756,-898.5 766.2,-901.35 765.76,-894.37"/>
</g>
<!-- vnr_dpdk -->
<g id="node9" class="node">
<title>vnr_dpdk</title>
<polygon fill="white" stroke="transparent" points="874,-284.5 874,-418.5 1121,-418.5 1121,-284.5 874,-284.5"/>
<polygon fill="grey" stroke="transparent" points="877.5,-379.5 877.5,-415.5 1118.5,-415.5 1118.5,-379.5 877.5,-379.5"/>
<polygon fill="none" stroke="black" points="877.5,-379.5 877.5,-415.5 1118.5,-415.5 1118.5,-379.5 877.5,-379.5"/>
<text text-anchor="start" x="940.5" y="-401.3" font-family="Times,serif" font-size="14.00">vlib_node_runtime_t</text>
<text text-anchor="start" x="950.5" y="-386.3" font-family="Times,serif" font-size="14.00">dpdk_input_node</text>
<polygon fill="#e5e5e5" stroke="transparent" points="877.5,-356.5 877.5,-377.5 1010.5,-377.5 1010.5,-356.5 877.5,-356.5"/>
<polygon fill="none" stroke="black" points="877.5,-356.5 877.5,-377.5 1010.5,-377.5 1010.5,-356.5 877.5,-356.5"/>
<text text-anchor="start" x="880.5" y="-363.3" font-family="Times,serif" font-size="14.00">vlib_node_function_t *</text>
<polygon fill="grey" stroke="transparent" points="1012.5,-356.5 1012.5,-377.5 1118.5,-377.5 1118.5,-356.5 1012.5,-356.5"/>
<polygon fill="none" stroke="black" points="1012.5,-356.5 1012.5,-377.5 1118.5,-377.5 1118.5,-356.5 1012.5,-356.5"/>
<text text-anchor="start" x="1069.5" y="-363.3" font-family="Times,serif" font-size="14.00">function</text>
<polygon fill="#e5e5e5" stroke="transparent" points="877.5,-333.5 877.5,-354.5 1010.5,-354.5 1010.5,-333.5 877.5,-333.5"/>
<polygon fill="none" stroke="black" points="877.5,-333.5 877.5,-354.5 1010.5,-354.5 1010.5,-333.5 877.5,-333.5"/>
<text text-anchor="start" x="880.5" y="-340.3" font-family="Times,serif" font-size="14.00">u32</text>
<polygon fill="grey" stroke="transparent" points="1012.5,-333.5 1012.5,-354.5 1118.5,-354.5 1118.5,-333.5 1012.5,-333.5"/>
<polygon fill="none" stroke="black" points="1012.5,-333.5 1012.5,-354.5 1118.5,-354.5 1118.5,-333.5 1012.5,-333.5"/>
<text text-anchor="start" x="1051.5" y="-340.3" font-family="Times,serif" font-size="14.00">node_index</text>
<polygon fill="#e5e5e5" stroke="transparent" points="877.5,-310.5 877.5,-331.5 1010.5,-331.5 1010.5,-310.5 877.5,-310.5"/>
<polygon fill="none" stroke="black" points="877.5,-310.5 877.5,-331.5 1010.5,-331.5 1010.5,-310.5 877.5,-310.5"/>
<text text-anchor="start" x="880.5" y="-317.3" font-family="Times,serif" font-size="14.00">u16</text>
<polygon fill="grey" stroke="transparent" points="1012.5,-310.5 1012.5,-331.5 1118.5,-331.5 1118.5,-310.5 1012.5,-310.5"/>
<polygon fill="none" stroke="black" points="1012.5,-310.5 1012.5,-331.5 1118.5,-331.5 1118.5,-310.5 1012.5,-310.5"/>
<text text-anchor="start" x="1039.5" y="-317.3" font-family="Times,serif" font-size="14.00">n_next_nodes</text>
<polygon fill="#e5e5e5" stroke="transparent" points="877.5,-287.5 877.5,-308.5 1010.5,-308.5 1010.5,-287.5 877.5,-287.5"/>
<polygon fill="none" stroke="black" points="877.5,-287.5 877.5,-308.5 1010.5,-308.5 1010.5,-287.5 877.5,-287.5"/>
<text text-anchor="start" x="880.5" y="-294.3" font-family="Times,serif" font-size="14.00">u32</text>
<polygon fill="grey" stroke="transparent" points="1012.5,-287.5 1012.5,-308.5 1118.5,-308.5 1118.5,-287.5 1012.5,-287.5"/>
<polygon fill="none" stroke="black" points="1012.5,-287.5 1012.5,-308.5 1118.5,-308.5 1118.5,-287.5 1012.5,-287.5"/>
<text text-anchor="start" x="1015.5" y="-294.3" font-family="Times,serif" font-size="14.00">next_frame_index</text>
<polygon fill="none" stroke="black" points="874,-284.5 874,-418.5 1121,-418.5 1121,-284.5 874,-284.5"/>
</g>
<!-- nds&#45;&gt;vnr_dpdk -->
<g id="edge8" class="edge">
<title>nds:r0&#45;&gt;vnr_dpdk:l1</title>
<path fill="none" stroke="red" d="M766.11,-897.19C874.94,-867.51 753.87,-343.5 876.5,-343.5"/>
<polygon fill="red" stroke="red" points="765.47,-893.74 756,-898.5 766.37,-900.69 765.47,-893.74"/>
</g>
<!-- fss&#45;&gt;nd_dpdk -->
<g id="edge9" class="edge">
<title>fss:r0&#45;&gt;nd_dpdk:l3</title>
<path fill="none" stroke="black" d="M788.01,-727.5C831.27,-727.5 845.68,-727.5 893.5,-727.5"/>
<polygon fill="black" stroke="black" points="788,-724 778,-727.5 788,-731 788,-724"/>
</g>
<!-- vnrs0&#45;&gt;nd_dpdk -->
<g id="edge10" class="edge">
<title>vnrs0:r0&#45;&gt;nd_dpdk:l4</title>
<path fill="none" stroke="black" d="M782.13,-571.29C849.1,-582.27 816.72,-704.5 893.5,-704.5"/>
<polygon fill="black" stroke="black" points="782.24,-567.79 772,-570.5 781.7,-574.76 782.24,-567.79"/>
</g>
<!-- nfs&#45;&gt;vnr_dpdk -->
<g id="edge11" class="edge">
<title>nfs:r0&#45;&gt;vnr_dpdk:l3</title>
<path fill="none" stroke="red" d="M790.1,-133.39C858.94,-146.38 795.2,-297.5 876.5,-297.5"/>
<polygon fill="red" stroke="red" points="790.27,-129.89 780,-132.5 789.66,-136.86 790.27,-129.89"/>
</g>
</g>
</svg>
